<?xml version="1.0" encoding="UTF-8"?>
<svg width="256" height="256" xmlns="http://www.w3.org/2000/svg" preserveAspectRatio="xMidYMid">
    <path d="M0 222.991C0 241.223 14.779 256 33.009 256H222.99C241.223 256 256 241.221 256 222.991V33.01C256 14.777 241.221 0 222.991 0H33.01C14.777 0 0 14.779 0 33.009V222.99z" fill="#563D7C"/>
    <path d="M211.018 180.455c-4.354 6.09-10.705 10.945-18.697 14.562-7.99 3.617-17.115 5.425-27.377 5.425h-68.146c-10.261 0-19.389-1.808-27.378-5.425-7.991-3.617-14.344-8.472-18.696-14.562-4.354-6.09-6.53-13.247-6.53-21.477 0-7.042 1.689-13.22 5.067-18.534 3.379-5.315 7.991-9.225 13.838-11.73-2.388-1.266-4.436-3.073-6.143-5.424-1.706-2.349-2.559-5.134-2.559-8.355 0-3.617.995-6.69 2.985-9.225 1.99-2.534 4.549-4.58 7.678-6.143-3.379-3.221-6-7.115-7.862-11.684-1.862-4.568-2.792-9.406-2.792-14.516 0-7.042 1.542-13.202 4.629-18.481 3.085-5.279 7.57-9.389 13.453-12.33 5.882-2.94 12.955-4.41 21.219-4.41 8.264 0 15.337 1.47 21.219 4.41 5.883 2.941 10.367 7.051 13.453 12.33 3.087 5.279 4.63 11.439 4.63 18.481 0 5.11-.931 9.948-2.793 14.516-1.861 4.569-4.482 8.463-7.862 11.684 3.129 1.563 5.688 3.609 7.678 6.143 1.99 2.535 2.985 5.608 2.985 9.225 0 3.221-.854 6.006-2.559 8.355-1.707 2.351-3.755 4.158-6.143 5.424 5.847 2.505 10.459 6.415 13.838 11.73 3.378 5.314 5.067 11.492 5.067 18.534 0 8.23-2.177 15.387-6.531 21.477m-45.732-102.92c-3.129 3.418-7.445 5.127-12.946 5.127-5.502 0-9.818-1.709-12.947-5.127-3.129-3.418-4.693-8.08-4.693-13.984 0-5.904 1.564-10.566 4.693-13.984 3.129-3.418 7.445-5.127 12.947-5.127 5.501 0 9.817 1.709 12.946 5.127 3.129 3.418 4.694 8.08 4.694 13.984 0 5.904-1.565 10.566-4.694 13.984m7.678 63.123c-3.825 4.088-9.184 6.131-16.077 6.131-6.894 0-12.253-2.043-16.077-6.131-3.825-4.086-5.737-9.779-5.737-17.077s1.912-12.992 5.737-17.078c3.824-4.086 9.183-6.13 16.077-6.13 6.893 0 12.252 2.044 16.077 6.13 3.824 4.086 5.736 9.78 5.736 17.078 0 7.298-1.912 12.991-5.736 17.077" fill="#FFF"/>
</svg>