<?xml version="1.0" encoding="UTF-8"?>
<svg width="256" height="384" viewBox="0 0 256 384" version="1.1" xmlns="http://www.w3.org/2000/svg">
    <g>
        <path d="M64,384 C99.346224,384 128,355.346224 128,320 L128,256 L64,256 C28.653776,256 0,284.653776 0,320 C0,355.346224 28.653776,384 64,384 Z" fill="#0ACF83"/>
        <path d="M0,192 C0,156.653776 28.653776,128 64,128 L128,128 L128,256 L64,256 C28.653776,256 0,227.346224 0,192 Z" fill="#A259FF"/>
        <path d="M0,64 C0,28.653776 28.653776,0 64,0 L128,0 L128,128 L64,128 C28.653776,128 0,99.346224 0,64 Z" fill="#F24E1E"/>
        <path d="M128,0 L192,0 C227.346224,0 256,28.653776 256,64 C256,99.346224 227.346224,128 192,128 L128,128 L128,0 Z" fill="#FF7262"/>
        <path d="M256,192 C256,227.346224 227.346224,256 192,256 C156.653776,256 128,227.346224 128,192 C128,156.653776 156.653776,128 192,128 C227.346224,128 256,156.653776 256,192 Z" fill="#1ABCFE"/>
    </g>
</svg>