<?xml version="1.0" encoding="UTF-8"?>
<svg width="256" height="192" xmlns="http://www.w3.org/2000/svg">
    <path d="M220.281 110.514c-8.906.046-16.647 2.191-23.128 5.362c-2.379-4.71-4.757-8.906-5.176-11.984c-.467-3.59-1.026-5.782-.467-10.072c.56-4.29 3.078-10.399 3.031-10.865c-.046-.466-.56-2.658-5.736-2.704c-5.176-.047-9.653.979-10.166 2.331c-.513 1.352-1.492 4.43-2.145 7.6c-.886 4.664-10.399 21.591-15.854 30.451c-1.772-3.45-3.264-6.48-3.59-8.998c-.467-3.59-1.026-5.782-.467-10.072c.56-4.29 3.078-10.399 3.031-10.865c-.046-.466-.56-2.658-5.736-2.704c-5.176-.047-9.653.979-10.166 2.331c-.513 1.352-1.072 4.524-2.145 7.6c-1.072 3.077-13.57 30.964-16.88 38.191c-1.679 3.777-3.124 6.808-4.15 8.859c-.047.047-.093.14-.187.373l-.003.008v.003l.003-.008c-.14.233-.233.42-.233.42v.047c-.98 1.866-1.492 2.798-1.492 2.798v.047c-.746 1.352-1.539 2.518-1.959 2.518c-.279 0-.793-3.45.093-8.161c1.865-9.746 6.388-24.928 6.342-25.487c0-.28.839-2.911-2.891-4.290c-3.637-1.352-4.943.886-5.27.886c-.326 0-.56.793-.56.793s4.104-17.12-7.834-17.12c-7.461 0-17.767 8.161-22.851 15.574c-3.217 1.772-10.027 5.456-17.254 9.373c-2.798 1.492-5.643 3.078-8.348 4.523c-.187-.187-.373-.42-.56-.606c-14.269-15.248-40.662-26.047-39.543-46.534c.42-7.461 2.984-27.073 50.689-50.829c39.03-19.352 70.32-14.035 75.682-2.24c7.74 16.927-16.74 48.352-57.309 52.874c-15.481 1.679-23.595-4.243-25.627-6.482c-2.145-2.331-2.472-2.471-3.264-2.024c-1.305.7-.466 2.798 0 4.01c1.213 3.124 6.156 8.627 14.596 11.378c7.461 2.425 25.627 3.777 47.565-4.71c24.555-9.513 43.72-35.952 38.097-58.105C184.329 4.943 139.98-4.07 97.275 4.017C66.964 9.847 34.199 23.414 10.9 43.119c-27.026 22.804-31.316 42.716-29.537 51.015c6.295 32.643 51.201 53.947 69.201 69.714c-.886.513-1.726.933-2.471 1.353c-9.047 4.476-43.534 22.524-52.174 41.596c-9.746 21.777 1.586 37.418 9.047 39.496c23.221 6.482 47.078-5.177 59.854-24.368c12.775-19.192 11.237-44.146 5.363-55.524c-.045-.093-.093-.187-.187-.28c1.679-.979 3.404-2.005 5.083-2.984c3.31-1.959 6.528-3.777 9.373-5.27c-1.586 4.337-2.751 9.513-3.357 16.974c-.7 8.767 2.891 20.145 7.601 24.648c2.078 1.959 4.57 2.005 6.108 2.005c5.456 0 7.928-4.523 10.679-9.886c3.357-6.529 6.388-14.083 6.388-14.083s-3.777 20.798 6.482 20.798c3.73 0 7.507-4.85 9.186-7.321v.046s.093-.14.28-.466c.373-.606.56-.933.56-.933v-.093c1.492-2.611 4.85-8.534 9.839-18.373c6.435-12.683 12.637-28.518 12.637-28.518s.56 3.963 2.518 10.492c1.119 3.87 3.544 8.114 5.41 12.197c-1.539 2.145-2.472 3.357-2.472 3.357l.047.046c-1.213 1.586-2.565 3.31-4.01 4.99c-5.176 6.155-11.331 13.197-12.164 15.248c-.98 2.378-.746 4.15 1.119 5.549c1.352 1.026 3.776 1.213 6.295 1.026c4.616-.326 7.834-1.446 9.419-2.145c2.472-.886 5.363-2.238 8.068-4.243c4.99-3.684 8.021-8.953 7.741-15.9c-.14-3.824-1.399-7.648-2.938-11.238c.466-.653.886-1.305 1.352-1.958c7.881-11.518 13.997-24.135 13.997-24.135s.56 3.963 2.518 10.492c.98 3.357 2.891 7.041 4.616 10.632c-7.554 6.108-12.197 13.243-13.85 17.906c-3.031 8.719-.7 12.637 3.776 13.523c2.005.42 4.897-.513 7.042-1.399c2.658-.84 5.876-2.284 8.861-4.43c4.99-3.684 9.792-8.86 9.512-15.807c-.14-3.171-.979-6.295-2.145-9.326c6.248-2.611 14.362-4.056 24.648-2.844c22.104 2.611 26.46 16.367 25.627 22.151c-.839 5.782-5.503 8.953-7.088 9.932c-1.586.98-2.099 1.306-1.959 2.005c.187 1.026.933.98 2.285.793c1.865-.28 11.891-4.803 12.311-15.76c.7-13.944-12.544-29.284-35.952-29.145zM49.929 168.244c-7.461 8.114-17.86 11.191-22.337 8.627c-4.85-2.798-2.938-14.782 6.295-23.408c5.643-5.27 12.917-10.12 17.767-13.104c1.119-.653 2.751-1.679 4.756-2.891c.326-.187.513-.28.513-.28l1.119-.7c3.31 12.124.14 22.805-8.113 31.756zm57.262-37.045c-2.611 6.342-8.068 22.571-11.378 21.685c-2.844-.746-4.57-13.01-.56-25.114c2.005-6.062 6.295-13.29 8.813-16.088c4.056-4.523 8.487-6.015 9.606-4.15c1.352 2.378-4.943 19.726-6.481 23.667zm44.24 21.498c-1.119.56-2.098.933-2.564.653c-.326-.187.466-.933.466-.933s5.643-6.062 7.834-8.813c1.305-1.632 2.798-3.544 4.43-5.689v.606c0 7.368-7.135 12.357-10.166 14.176zm34.727-7.881c-.84-.606-.7-2.472 2.005-8.347c1.072-2.332 3.497-6.249 7.741-10.026c.466 1.492.793 2.938.746 4.29c-.047 9-6.481 12.357-10.492 14.083z" fill="#CD6799"/>
</svg>