<?xml version="1.0" encoding="UTF-8"?>
<svg width="256" height="256" viewBox="0 0 256 256" xmlns="http://www.w3.org/2000/svg">
    <path d="M36.2 19.6L18.7 37.1 8.5 48.7 36.2 76.4l17.5-17.5L62 51.3 36.2 19.6z" fill="#0065A9"/>
    <path d="M219.8 19.6L237.3 37.1l10.2 11.6-27.7 27.7-17.5-17.5-8.3-7.6L219.8 19.6z" fill="#007ACC"/>
    <path d="M128 48.7l27.7 27.7 27.7-27.7-27.7-27.7L128 48.7z" fill="#1F9CF0"/>
    <path d="M128 207.3L100.3 179.6 72.6 207.3l27.7 27.7 27.7-27.7z" fill="#1F9CF0"/>
    <path d="M72.6 48.7L100.3 76.4 128 48.7 100.3 21 72.6 48.7z" fill="#1F9CF0"/>
    <path d="M183.4 48.7L155.7 76.4 183.4 104.1l27.7-27.7-27.7-27.7z" fill="#1F9CF0"/>
</svg>