<?xml version="1.0" encoding="UTF-8"?>
<svg id="Lag_1" data-name="Lag 1" xmlns="http://www.w3.org/2000/svg" viewBox="0 0 206.7 206.78">
  <defs>
    <style>
      .cls-1 {
        fill: #002bb3;
      }
    </style>
  </defs>
  <path class="cls-1" d="M109.8,130.22l29.78-22.26.08-35.53c-2.74,1.34-4.79,3.03-6.89,4.93-3.46,3.67-8.61,3.1-11.78-.76-2.12-2.58-5.73-4.81-8.86-2.78l-5.09,3.31c-11.17,7.28-14.51-4.58-22.39-4.04-6.84.47-11.68,12.07-20.51,3.4-1.99-1.84-3.91-3.29-7.18-3.81l-.06,35.23,31.61,23.66c1.65,1.24,1.22,5.01,1.25,6.84l.17,11.98c0,.59-.79,2.01-1.31,1.98s-1.45-1.34-1.46-1.98l-.16-16.64-30.58-22.82c-1.48-1.1-2.24-2.71-2.23-4.61l.04-50.36c0-.55.65-1.63,1.11-1.81.58-.22,1.69,1.06,1.69,1.77l-.06,14.23c3.66.44,6.41,2.16,8.82,4.7,2.62,2.77,6.79,3.12,9.56.27,5.39-5.54,13.59-6.05,19.25-.55,2.87,2.79,6.91,3.2,10.26.97l5.42-3.61c4.17-2.78,9.06-.97,12.16,2.73,1.19,1.42,3.3,2.65,4.98,2.64,3.97-.02,5.71-5.65,12.22-7.08l.07-14.58c0-.38.93-1.79,1.18-1.56l1.46,1.34.03,50.91c0,2.03-.98,3.68-2.54,4.84l-30.15,22.53-.14,13.32c0,.48-.56,1.57-1.01,1.73-.56.2-1.77-1.12-1.76-1.81l.17-11.59c.03-1.8,1.41-4.04,2.86-5.12Z"/>
  <path class="cls-1" d="M97.63,151.89c1.82-.57,3.88.71,4.48,2.22.82,2.05-.11,4.09-2.19,4.84-1.74.62-4.03-.38-4.79-2.2s.28-4.17,2.49-4.86Z"/>
  <path class="cls-1" d="M76.45,112.59c1.73-.4,3.78.89,4.28,2.34.68,1.99-.49,4.21-2.03,4.66-2.2.64-4.32-.55-4.94-2.19-.78-2.08.32-4.26,2.69-4.81Z"/>
  <path class="cls-1" d="M106.57,111.37c1.82-.97,4.15,0,4.97,1.73.74,1.56.02,3.84-1.62,4.9-1.44.93-3.77.13-4.63-1.1-1.25-1.78-1.14-4.25,1.28-5.54Z"/>
  <path class="cls-1" d="M84.28,105.92c1.92-.42,3.78.83,4.3,2.37.69,2.03-.54,3.99-2.1,4.57-2.19.82-4.28-.41-4.84-2.13-.65-2.01.44-4.32,2.64-4.81Z"/>
  <path class="cls-1" d="M94.62,138.61c1.73-.75,4.15.17,4.91,1.7.89,1.8.07,3.85-1.47,4.66-1.79.95-4.1.56-5.12-1.09s-.56-4.29,1.68-5.27Z"/>
  <path class="cls-1" d="M94.68,113.72c1.79-.42,3.89,1.09,4.15,2.63.33,1.98-.68,4.03-2.44,4.53s-3.77-.77-4.39-2.27c-.9-2.17.1-4.3,2.68-4.9Z"/>
  <path class="cls-1" d="M87.16,118.01c1.88-.37,3.72,1.35,3.98,2.83.36,2.09-1.06,3.98-2.75,4.26-1.86.3-3.84-.91-4.25-2.25-.66-2.14.35-4.32,3.02-4.84Z"/>
  <path class="cls-1" d="M114.95,115.68c2.13-1.15,4.35-.24,5.18,1.63.66,1.48-.1,3.62-1.52,4.53-1.72,1.09-3.83.42-4.99-1.11-1.06-1.4-.65-3.97,1.33-5.05Z"/>
  <path class="cls-1" d="M92.71,125.78c2-.99,4.05-.11,4.91,1.97.56,1.35-.08,3.69-1.43,4.41-1.81.96-4.13.42-5.07-1.05-1.12-1.75-.49-4.3,1.58-5.33Z"/>
  <path class="cls-1" d="M101.15,120.29c1.77-.65,3.96.25,4.65,1.64.89,1.81.23,4.14-1.52,5.02s-4.06.11-4.92-1.72c-.77-1.64-.38-4.16,1.79-4.95Z"/>
  <path class="cls-1" d="M104.55,131.43c2.18,1.3,1.86,4.06.57,5.33-1.39,1.36-3.42,1.45-4.87.37-1.74-1.32-1.9-4.44-.02-5.56.85-.5,3.44-.65,4.32-.13Z"/>
</svg>