<?xml version="1.0" encoding="UTF-8"?>
<svg id="Layer_5" data-name="Layer 5" xmlns="http://www.w3.org/2000/svg" viewBox="0 0 1280 1024">
  <path d="M508.78,360.7l49.7-23.53c17.28,36.99,13.08,35.7,48.01,121.02l6.57-224.24-52.56,19.8s-36.46-107.75-38.83-114.87c-3.62-10.9-9.35-24.72-10.6-22.72M598.36,403.6l-26.67-85.71-48.92,20.98v-159.8l32.02,94.96,46.21-19.38-2.63,148.95Z"/>
  <path d="M719.46,504.11c-1.07,2.71-11.63,9.18-12.13,6.85l-2.29-10.65,30.15-75.78c1.19-3,7.17-7.25,9.34-8.4s6.16,8.9,5.07,11.66l-30.14,76.32Z"/>
  <g>
    <path d="M638.91,647.98c-4.04-1.72-8.25-1.64-10.26-1.42-1.96.22.7,7.3,4.22,9.62l12.84,7.43-86.54,13.85,44.65-109.81,139.18-20.48,52.32-132.91-93.29-116.66-79.22,10.83c.65,5.01.51,10.01.08,15.04l72.67-10.38,82.62,103.91-46.34,117.22-131,18.95-82.49-105.11,28.73-71.9c-5.19-1.37-10.51-2.35-15.78-2.79l-28.23,69.73-140.1,19.51-53.36,135.72,95.58,118.54,144.02-21.32c.14,0,.28.02.41,0l99.36-18.13-7.48,12.9c-1.08,1.64-2.84,8.91-2.56,10.91.28,1.96,9.09-4.39,10.96-6.07l25.09-29.65M541.01,681.68l-130.41,18.84-82.97-104.8,46.86-119.65,131.82-17.87,82.25,103.01-47.54,120.48Z"/>
    <path d="M416.72,669c-1.28,1.51,8.49,7.79,10.91,7.41l88.42-13.58c3.77-.58,10.52-7.75,9.54-10.37-.97-2.62-7.31-4.84-11.14-4.27l-89.4,13.19c-1.94.29-7.03,6.09-8.33,7.63Z"/>
  </g>
  <path d="M547.77,567.3l-54.37-69.09c-1.51-1.92-3.42-8.94-3.99-11.08-.57-2.12,10.74-3.04,11.99-1.47l56.13,70.35c1.31,1.65,3.01,8.51,3.38,10.43.55,2.88-11.23,3.28-13.13.87Z"/>
  <path d="M370.88,586.11c-1.51,3.84-11.2,11.13-12.49,8.63s-3.5-10.38-2.48-12.96l30.11-75.94c1.14-2.88,7.94-6.88,10.11-7.66,2.21-.8,5.24,10.18,4.18,12.88l-29.43,75.05Z"/>
  <path d="M853.88,668.7l50.49-61.54c-14.04-17.92-13.94-40.69-2.54-55.98,14.46-19.4,39.24-22.6,56.59-12.61,21.21,12.22,27.17,36.88,17.67,56.1-10.33,20.88-32.39,31.54-57.73,21.35l-50.95,62.13,24.7,71.57c22.48-2.95,40.51,10.55,46.3,28.76,7.31,22.97-3.24,45.59-24.68,54.25-19.51,7.88-43.12.66-53.68-19.28-10.07-19-6.25-43.15,16.68-57.78l-22.88-70.53-63.77-12.48c-9.58,21.69-28.58,33.81-48.24,30.44-23.49-4.03-39-24.21-36.53-47.16,2.16-20.11,18.79-37.84,41.16-38.9,20.73-.98,42.23,12.83,44.1,40.22l63.32,11.45ZM925.08,794.13c1.51-16.58-12.63-28.74-26.83-28.83-14.83-.09-27.1,12.9-27.53,27.38-.45,15.1,12.27,26.78,27.83,27.11,12.56.26,25.19-10.87,26.54-25.66ZM963.79,578.63c1.07-19.05-14.71-30.06-30.39-29.09-12.05.74-23.52,12.62-24.08,28.15-.46,12.73,10.99,26.04,26.86,26.62,11.77.43,26.74-10.13,27.62-25.68ZM775.16,657.94c-.51-16.86-16.62-26.4-31.42-24.12-13.48,2.08-24.62,15.78-22.86,28.99,2.07,15.5,16.6,25.94,29.22,24.33,14.15-1.8,25.47-15.07,25.05-29.2Z"/>
</svg>