<?xml version="1.0" encoding="UTF-8"?>
<svg id="Lag_1" data-name="Lag 1" xmlns="http://www.w3.org/2000/svg" viewBox="0 0 206.7 206.78">
  <defs>
    <style>
      .cls-1 {
        fill: #002bb3;
      }
    </style>
  </defs>
  <path class="cls-1" d="M116.59,65.4c.37,0,1.89.94,1.64,1.16s-1.13.85-1.46.84l-6.42-.05.02,2.14,6.83.02c.24,0,.84.59,1,.78.24.28-.97,1.1-1.35,1.1l-6.34-.06-.15,2.15,6.48.04c.37,0,1.21.65,1.44.92s-1.12,1.17-1.5,1.17l-6.34-.04-.09,1.93,11.19-.07,12.37-.35c.5-.01,1.61.68,1.96,1.02s-.94,1.88-1.46,1.88l-7.95.03-.08,17.71-.79,4.28.02,47.97c0,1.82-3.06,4.05-4.48,4.75-4.71,2.29-9.64,3-14.76,3.55-9.05.98-17.93.02-26.39-3.46-1.54-.64-4.16-2.66-4.23-4.13l-.35-6.71-8.66-.02c-.46,0-1.41-.72-1.6-1.07-.26-.47.89-1.78,1.47-1.78l11.17.12.41,8.31c.24,1.39,3.19,3.09,4.66,3.58,11.58,3.87,23.87,3.87,35.46.04,1.95-.64,4.85-2.64,4.85-4.75l.06-24.94c-2.01,1.91-3.8,3.81-5.41,4.1-4.75.88-6.33-3.96-9.14-4.2s-4.25,4.12-7.82,4.28c-4.14.18-5.77-4.64-8.44-4.37s-4.46,5.54-9.6,4.19c-1.62-.43-3.33-2.36-4.68-4.32l-.12,13.92-11.27.1c-.57,0-1.88-1.18-1.59-1.6s1.46-1.04,1.98-1.04l8.34-.02-.05-58.55-5.71-.04c-.5,0-1.75-1.1-1.43-1.45,1.62-1.77,3.17.48,7.17-.61l.03-19.62-6.29.06c-.3,0-1.35-.89-1.16-1.11.3-.33,1.16-.9,1.63-.91l5.85-.09c-.75-4.55,1.61-7.95,5.82-9.55,12.43-4.72,26.15-4.46,38.62.58,1.86.75,5.53,3.33,5.57,5.43l.33,21.93,8.12-.02c.51,0,1.56.57,1.7,1.01.18.56-1.03,1.62-1.7,1.61l-10.6-.08-.1-23.07c0-1.56-3.04-3.72-4.58-4.31-11.53-4.37-24.01-4.65-35.67-.69-1.75.59-3.89,2.28-5.01,3.68l-.05,25.06c1.64.42,2.85.84,3.07,1.05l-2.68,1.11c-.39.16-.43.83-.51,1.58l13.08.02-.29-1.95h-6.32c-.48-.01-1.5-.75-1.62-1.15s1.07-.96,1.54-.96h6.62s-.45-2.07-.45-2.07l-7.36-.25-.1-1.46,7.8-.32-.3-2.06c-2.61-.08-5.7,1.01-8.1-1.26,2.89-.76,5.58-.69,8.44-.55l.06-1.99c.04-1.16-7.21,1.35-8.49-1.99l8.52-.33-.34-2.21c-2.78.15-5.62.64-8.18-.87,2.95-1.22,5.49-.86,8.48-.89l-.07-2.19-6.38-.03c-.27,0-1.24-.47-1.48-.59-.37-.18.79-1.28,1.2-1.26l6.28.29c.63-1.92.94-2.53,2.2-3.53l1.22,3.56,13.46-.13.34-2.13c.08-.49,1.77-1.12,1.98-.67l1.29,2.93c2.72.05,5.01-.23,7.88.78l-8.51.9.14,2.11,6.36-.05c.32,0,1.18.65,1.42.87s-1.04,1.05-1.38,1.04h-6.48s-.06,1.97-.06,1.97c-.03.95,6.89-1.36,8.36,1.81l-8.33.52.19,1.96h6.11ZM107.57,57.26l-.43-2.48-13.72.18-.07,2.31h14.22ZM107.55,61.29l-.21-2.2-14.01-.02.19,2.27,14.03-.04ZM107.42,65.4c.13-1.1.31-1.98-.03-2.02l-1.37-.16-12.64.03.14,2.18,13.9-.02ZM106.16,69.44c.46,0,1.49-.61,1.49-1.05s-1.02-1.03-1.48-1.02l-12.84.03.36,2.11,12.48-.06ZM107.46,73.46l-.08-2.16-12.35.07c-.36,0-1.51-.13-1.5.23l.04,1.84,13.9.03ZM108.75,121.25c3.65.27,4.89,4.49,8.43,4.28,1.02-.06,2.59-1.29,3.34-2.2l2.56-3.14-.17-40.14-14.9.15-.62-4.21-13.87-.04-.35,4.14-15.19.11.08,40.37,5.33,4.94c.98.91,4-.82,4.84-1.87,1.09-1.37,3.11-2.47,4.77-2.38,3.42.18,4.78,4.08,7.33,4.29,2.72.23,4.59-4.59,8.43-4.31Z"/>
  <path class="cls-1" d="M114.7,145.93c0,.41-.87,2.03-1.1,1.77s-.93-1.22-.93-1.59l.08-10.44c0-.3,1.44-.77,1.54-.48s.38,1.19.39,1.56l.03,9.18Z"/>
  <path class="cls-1" d="M88.62,146.57c0,.34-1.42,1.1-1.46.79l-.22-1.54.04-9.18v-1.15c0-.27,1.19-.52,1.24-.26l.29,1.47.1,9.88Z"/>
  <polygon class="cls-1" points="95.76 147.55 95.75 135.38 96.89 135.38 96.96 147.26 95.76 147.55"/>
  <polygon class="cls-1" points="103.64 147.55 103.64 135.38 104.77 135.38 104.85 147.26 103.64 147.55"/>
  <path class="cls-1" d="M101.51,106l-.17-15.48,2.4,2.25c-.18.03,1.04-.18,1.5-.26.33-.06-.25-1-.47-1.25l-4.27-4.72-4.52,4.67c-.33.34-.47,2.02-.02,1.96s1.34-.36,1.65-.71l1.72-1.93.15,15.53c0,.45.63,1.33.9,1.59s1.14-1.1,1.13-1.65ZM87.59,115.94c0,.46.7,1.84,1.01,1.55l1.03-.97-.12-12.14c1.72,1.47,1.61,3.45,4.56,2.35l-5.49-6.21-4.05,4.23-.98,1.31c-.2.27.33.96.77,1.59l3.25-3.2.02,11.49ZM112.9,116.72l-.05-11.65,2.7,3.09c.15.17,1.13-.6,1.61-.98l-5.43-5.81-5.39,6.29c3,.99,3.1-1.27,4.53-2.71l.17,12.69,1.11.63c.19.11.75-1.19.75-1.55Z"/>
  <path class="cls-1" d="M101.51,106c0,.55-.86,1.91-1.13,1.65s-.9-1.14-.9-1.59l-.15-15.53-1.72,1.93c-.31.35-1.2.65-1.65.71s-.31-1.62.02-1.96l4.52-4.67,4.27,4.72c.22.25.8,1.19.47,1.25-.46.08-1.67.3-1.5.26l-2.4-2.25.17,15.48Z"/>
  <path class="cls-1" d="M112.9,116.72c0,.36-.56,1.66-.75,1.55l-1.11-.63-.17-12.69c-1.43,1.44-1.53,3.71-4.53,2.71l5.39-6.29,5.43,5.81c-.49.38-1.46,1.15-1.61.98l-2.7-3.09.05,11.65Z"/>
  <path class="cls-1" d="M87.59,115.94l-.02-11.49-3.25,3.2c-.45-.63-.97-1.32-.77-1.59l.98-1.31,4.05-4.23,5.49,6.21c-2.95,1.1-2.84-.88-4.56-2.35l.12,12.14-1.03.97c-.31.29-1.01-1.09-1.01-1.55Z"/>
</svg>