<?xml version="1.0" encoding="UTF-8"?>
<svg id="Layer_3" data-name="Layer 3" xmlns="http://www.w3.org/2000/svg" viewBox="0 0 2528 1684">
  <defs>
    <style>
      .cls-1 {
        fill: #03c;
      }
    </style>
  </defs>
  <path class="cls-1" d="M1978.78,1576.89c2.07,3.3,6.19,7.46,9.06,8.3-2.79-3.81-4.41-6.54-9.06-8.3Z"/>
  <path class="cls-1" d="M2526.66,655.73l-329.86,114.75c-12.41-12.47-16.57-31.3-10.3-47.74l329.01-124.39,11.13,41.02v-28l-21.62-89.58c3.96-4.03,10.2-7.68,14.72-9.38l6.91,20.96v-22L2408.74-2.63h-7.99s40.73,179.57,40.73,179.57l-78.21,45.55-10.39-25.45c-1.89-4.62-9.61-6.43-14.36-3.61l-259.15,154.25-205.19,122.44c-3.58-.86-8.41-1.71-10.75-1.2-2.34.52-2.71,7.82-2.99,10.63-15.37,15-31.77,2.55-49.3,9.3l-.8-11.99c-.09-1.39,3.81-5.07,2.68-5.9l-4.6-3.34-13.62-104.88,178.06-123.14c13.01-9,30.86-13.26,44.76-9.07l27.26,8.22c2.04,9.2,6.54,15.49,12.32,18.22,7.54,3.56,17.11,4.67,24.34.67,24.03-13.29,37.3-42.44,30.17-68.58-2.81-10.29-10.71-17.54-18.44-19.47-10.38-2.58-18.14,1.74-26.22,8.97l-22.03-7.77c1.74-13.81-4.63-23.08-12.75-27.73-10.31-5.9-20.4.15-29.45,4.4-15.25-3.53-30.33-11.85-46.13-13.3-23.46-2.15-46.03,6.49-64.01,20.53l-37.56,29.33-34.5-9.75-4.12-13.74-2.24,14.02c-5.79,2.2-9.43,5.96-8.99,11.66.49,6.23,5.65,7.77,12.69,9.37,2.56,2.35,3.58,10.49,2.97,15.57l-40.3,31.5-31.38-245.27h-4l1.95,12.28,29.83,235.98-17.55,13.78L1727.28-2.63h-11.99l33.3,269.42c-4.07,4.29-8.24,7.65-13.03,10.61L1701.3-2.63h-4l34.88,281.97c-5.49,6.11-11.76,11.05-18.44,14.61L1683.31-2.62h-7.99s32.09,302.36,32.09,302.36l-31.49,24.42L1643.35-2.62h-7.99s34.23,332.29,34.23,332.29l-122.48,95.66c-10.15-.99-21.11-3.79-29.4-7.08l-3.2-13.71-3.16,14.24c-4.88,1.91-8.34,5.63-8.04,9.34.45,5.59,3.16,7.4,10.28,8.51l.75,14.5-177.15,137.92-22.04-4.12-2.74-13.75-3.77,12.52c-2.37,2.83-4.9,6.07-5.57,8.51-.53,1.91,4.26,4.78,6.35,5.67,2.24.96,3.62,7.84,2.21,9.84-1.17,1.66-3.44,3.58-6.16,5.7l-129.12,100.51c-4.15-2.71-8.64-.71-3.33,2.87l-10.42,6.76c-.48-5-.95-8.94.64-9.3l7.39-1.68-8.24-2.09-1.59-244.82-2.65-19.79,18.08-20.64,19.83,3.15c2.54.4,7.65-4.43,7.66-6.93l.07-27.8,77.72-88.33,25.68,5.57c2.11-.71,5.63-5.45,5.61-7.97l-.33-32.15,105.48-119.47,25.81,5.79c2.43.54,6.95-5.05,6.88-7.47l-1.05-34.54,95.2-108.19,6.63-9.53h-8.34s-98.51,112.9-98.51,112.9l-23.83,28.48-32.52-8.8c-2.17-.59-7.16.62-8.65,2.28s-1.31,7.66.37,9.5l31.25,8.13-31.38,33.89-96.27,109.89-30.24-7.21c-2.45-.58-7.99,3.36-7.62,5.78.31,2.02,3.81,6.13,4.71,5.81l.51-1.82c6.63,6.16,14.33,5.55,23.25,7.48l-98.44,111.85-24.01-5.56c-2.13-.49-5.98,1.13-7.02,2.95-1.06,1.85,2.08,7.31,4.25,7.63l19.63,2.87-15.93,18.49c-10.14-5.93-19.39-2.23-23.82,7.32l-39.12-7.02c-6-17.8,6.69-31.31,17.64-47.49l3.03,18.47,39.64-47.75-.84-21.33,24.15-32.51,3.97,19.38,74.14-91.53-2.01-24.32,31.26-40.28,3.34,21.9,89.55-111.32c1.2-8.07,1.27-17.59-2.6-25.28l39.84-51.24,3.69,26.08,28.94-37.61h-5.92s-3.2,6.55-3.2,6.55l-17.59,21.75c-.63-4.38-2.01-13.39.12-16.87l6.67-11.44h-10.09l-56.58,73.57-252.94,322.26-6.91-5.28-4.58,1.02c-.98.27-1.17-4.43-1.18-5.86l71.03-93.44L1385.17-2.63h-8.06l-277,362.55-62.54,5.23L1293.18-2.63h-5.55s-226.3,327.16-226.3,327.16l-27.56,41.33-25.93,2.07-23.98,1.92-24.37,1.95-30.22,2.02-6.02-5.65-5.16,6.72c-.99,1.28-6.07-.24-6.87-1.33l86.7-150.25L1129.75-2.63h-4l-66.37,113.74-134.17,231.28-18.92,33.97-17.19,1.18c-2.15-4.6-4.64-8.84-5.77-8.68l-4.65,8.48c-.93,1.69-6.3,1.7-8.49,1.88l-35.99,2.83-24.23,1.86-24.05,1.82,2.66-11.29c.45-1.92-6.35-2.81-8.55-3.04l10.53-27.17-40.38-6L886.2,10.03l3.75-12.66h-4l-2.02,8.13-75.54,182.23-83.56,203.16-60.86,4.8-27.83,2.19-23.98,1.96-25.96,2.12-23.98,1.96c-9.9.81-19.33,1.73-27.47.75L624.16-2.63h-4l-80.59,368.87-8.3,41.07-28.99,1.48-26.09,2.16-152.59,12.63,1.84-107.04,2.05-136,1.84-138.09,1.07-45.07h-4l-1.03,78.97-2,145.85-1.94,144.1c-.26,19.69-1.08,36.97-1.1,57.43l-23.76,2.22-24.15,2.01-24.01,1.95-23.98,1.94-25.97,2.1-23.99,1.96-23.98,2.01-23.95,2.03c-9.46.8-18.01,1.39-28.17,1.13L25.07,107.1,2.65-2.63H.62C.58.52,0,7.68.77,11.22l30.11,140.16,64.7,290.82-24.95,2.57-25.99,2.12-24.04,1.96-19,1.17.18,3.99,26.95-2.11,25.86-2.02,22.16-1.8,49.73-4.28,22.04-1.9,23.98-2.03,23.98-2,23.98-2,23.98-1.99,23.99-1.98,22.17-1.83,51.69-4.25,24.05-1.95,22.21-1.78,30.05-2.4,310.07-25.54c-1.44,10.33-16.67-1.97-26.59,5.65-2.93,2.25-5.11,8.84-5.59,13.59l-7.75,77.53-195.16-28.76-32.01,374.43,30.7,3.34,23.99,1.98,22.01,1.88,23.96,2.04,23.98,2.03,23.98,2.01,23.98,2,23.98,1.99,23.98,1.98,23.97,1.97,25.96,2.12,24,1.95,23.98,1.94,25.97,2.09,23.99,1.9,27.96,2.15,23.87,1.83,18.21,1.39-.16-43.96,1.56-27.79.83-86.02.79-36.76,1.3-111.42c.17-14.91,3.38-29.28.17-44.26l-169.54-25.43,48.75-107.65,88.36-6.77-6.17,12.09c-6.85,5.6-12.66,10.41-12.3,19.12.31,7.62,4.44,12.99,12.07,17.6-3.17,20.96,8.21,45.01,30.58,49.07l144.81,26.27-.37,53.37-1.5,250.75c-.04,7.08-3.92,12.58,1.46,19.44,5.96,7.6,8.91,15.42,5.45,26.67l-58.38-4.84c-7.91-.66-14.26,4.18-14.23,12.69l.45,117.94c.03,7.36-.95,14.71-2.5,21.92l-167.11-10.21-.23-7.97,147.75,9.12c4.26.26,11.54-3.08,11.65-6.65l1.31-41.72,1.16-156.26.83-79.5.59-183.03c0-1.71-8.16-.68-8.1,1.08l.24,7.72-.63,162.84-1.23,212.56.12,67.73c0,2.05-2.28,6.92-4.08,7.53-1.44.48-4.57-.44-6.86-.59l-142.49-9.49.69-9.21,134.73,8.42c6.97.44,10.14-8.39,9.07-14.19-1.12-6.01.69-12.49.72-18.24l.78-145.68.8-28.39,1.61-132.79,1.21-92.74-4.15-5.62c-.84-1.13-3.82.41-5.96,1.92l-.02,147.27-1.9,10.25-.5,143.88-.57,70.9-1.58,55.59-134.54-8.95c-.25-5.02-.44-7.84-1.41-9.26-.96-1.41-6.83-.84-7.12.85l-1.4,8.05-32.32-2.12-24.5-1.6-28.11-1.84-31.97-2.05-31.96-2.03-33.84-2.14-28.12-1.78-33.94-2.08-35.97-2.15-24.74-1.96-2.29-7.24c-.47-1.48-5.7-.16-6.07,1.34l-1.43,5.84-31.04-2.03-26.4-1.73-31.86-2.09-32.9-2.15,4.08-42.31c.88-9.07-2.74-19.24-11.58-22.53,5.26,7.64,9.57,13.63,8.78,21.38l-4.45,43.52-29.36-2.16-67.44-4.38.53-10.13,33.92,1.93,1.37,10.17,1.78-10.05c8.47-.73,17.02-2.82,23.89-8.02l20.76-15.71c1.86-1.41-.23-8.3-2.58-8.23-11.15.33-21.14,17.41-40.27,21.97l-1.35-25.1-2.1,24.67-34.69-2.69,2.59-25.47c.64-6.25,3.81-20.74-5.6-23.29l-63.38-5.45.23-11.03,12.27-1.38-11.52-1.13,17.53-151.82-16.61-111.16L1,549.95l.29,7.06,186.8,23.64-2.67,26.53-174.89-19.32c-1.7,1.08-3.75,4.43-4.42,6.74-1.19,4.06,11.06,2.48,10.89,3.79l-.63,4.89-15.2-2.57c.06,2.83-.08,3.64.56,4.03.65.4,4.41,1.29,4.74,1.98l10.94,23.35c-11.26,2.87-6.31-15.5-16.4-21.29l6.63,19.04c-.76.33-3.16.29-3.87-.31l-2.75-2.3.51,8.91,55.7,6.02-2.46,13.64-53.64-5.66c-.06,1.21.03,4.03,1.04,4.46l4.89,2.06-6.95,11.91c11.05-1.82,16.53-1.8,21.77,5.7,8.11,11.61,10.5,28.16,2,40.23-2.05,2.92-8.95,7.35-12.15,6.63-2.84-.64-6.46-4.03-10.73-7.4-1.55,7.2,8.83,12.92,5.5,15.86l-5,4.43-.04,19.85,6.87-18.36c7.42-3.6,9.57,5.35,13.44,8.76,5.53,4.88,16.27,4.65,23.89,4.16l-4.33-19.27c13.91-5.1,24.49-13.13,35.41-22.69l75.33,7.45-16.6,134.83-30.67-2.09-26.33-1.79-29.93-2.05-21.9-1.96c-9.39-.84-17.67-1.76-26.18-.72l24.26,3.56,27.93,2.22,26.09,1.88,31.78,2.15,24.76,1.68-5.24,46.6-21.54-1.42-27.91-2.02-26.12-1.89-31.96-1.86c-7.89-.46-15.13-4.86-23.64,1.24l21.61,1.73,26.13,1.96,26.12,1.84,31.84,2.04c8.57.55,16.76,1.31,25.58,3.99l-35.76-.92-29.99-1.91-35.73-2.28-28.43-1.33c3.22,3.8,5.57,3.66,10.25,3.89l28.14,1.42,33.82,2.27,25.98,1.75,30.29,2.04-2,10.37-46.27-2.45-23.89-1.37-18.11-1.18-37.42-3.42.69,7.83,105.36,194.31-3.25.33L1.82,924.88l-.13,11.43,6.89,10.1-8.12,1.58,9.97,4.06c-5.9.19-9.15.41-10.27,2.54l14.21,2.92,15.3,27.95-20.51-1.04c-3.48-.18-6.6.22-8.8,1.74l34.39,4.1c-12.48,8.44-22.45-2.56-35.17,3.69l34.8,3.89c2.65.3,5.95,6.58,6.15,8.65l-40.32-.81c6.77,3.32,12.69,3.31,20.44,3.83l23.96,1.59.22,4.12-14.4-.31c-10.22-.22-20.99-4.9-31.53,1.2l49.76,4.05,55.32,101.74-1.78,18.59-101.03-3.1-.03,5.37,99.83,2.95-1.49,14.42-98.49-2.92v10.02s97.62,2.92,97.62,2.92l-1.82,16.4-94.84-2.58.02,5.55,94.46,2.19-12.77,109.08c-1.92,16.39-14.63,30.53-18.84,46.66l-63.78.03.06,5.85,79.03-.03-1.83,13.87-77.21.22.03,6.06,52.19-.35-43.26,98.63c-8.1-5.62-5.09-19-1.93-26.24.63-1.45-5.62-3.02-5.68-1.6l-.26,6.21c-.23,5.42-.1,15.09,2.32,19.39,2.81,4.98,2.89,6.89,2.47,12.37l-3.3,42.61-3.2,36.5c11.53-3.05,21.89-5.88,32.44-11.44l-28.9,7.32c-4-10.37,13.93-5.33,29-15.23l-28.43,6.33,1.6-28.58c.37-6.57,2.11-12.03,4.77-17.93l55.27-122.43c1.25-2.78,2.41-5.12,3.86-6.13,1.45-1.01,6.52-.02,8.39.7l-9.9,88.42-.51-35.55c-2.2,10.1-2.3,22.3-6.51,31.71-1.95,4.37-5.52,7.07-4.03,12.66,4.21,15.78-2.92,24.06.05,26.2l7.51,5.42-1.76,21.16c-5.47,4.34-8.62,6.85-10.41,14.46l9.55-6.66-4.68,44.91c-19.24,6.64-37.67,6.76-57.61,1.33,12.92,10.02,28.45,7.46,45.23,5.84-13.52,9.1-28.42,8.33-45.21,6.47,18.83,7.95,39.24,3.65,57.29-9.12l-6.65,70.34-50.44,2.87c1.87,3.61,2.82,5.36,3.09,5.6l46.8-2.73-1.87,17.72-44.01,2.78c-.96.06-3.47.31-3.56,1.05l-.22,2.93,54.01-.05,29.96-313.72,12.54-122.02,36.28-329.06,34.04-273.74,2.96-31.1-25.82-3.35,1.08-1.58c12.26.9,25.41,2.52,38.16,4.82-30.77,239.99-59.42,477.97-82.2,718.47l-33.02,351.26h6s2.61-27.16,2.61-27.16l5.31,3.6-1.93,23.59h4l6.91-55.95,1.26,3.45-2.4,26.46-1.77,26.01,9.99.03,7.59-12.93-1.59,12.91,6.48.02,7.46-71.85c9-7.76,13.33-19.31,15.31-30.73,2.99-2.99,10.84-8.75,11.33-13.05l3.19-28.12-21.92.29c-1.21-1.49,1.52-5.94,4.41-8.41,6.82-5.85,6.76-18.87,1.64-26.22-1.7-2.44-8.21-3.38-13.13-3.51l7.27-72.7c6.08-3.61,9.68-8.11,10.41-12.81.6-3.86-2.79-13.6-6.71-13.76l-26.49-1.08-3.4,8.93,4.49-54.41,18.74,1.13,2.94-39.75,62.94.07-8.81,106.01-21.78,1.65-9.53,125.17-3.38,51.36-2.08,29.78-1.93,26-1.47,26h2l2.62-30.04,1.92-23.95,2.26-25.52,6.28-76.67,100.96-3.2,18.39-3.86-.85,16.81-8.38,3.79,7.82,1.54c1.14.22.43,4.11-.55,4.74l-4.32,2.76-4.34,2.77c-.59.38,2.46,1.09,3.1.8l4.27-1.92c4.63,11.89-8.69,11.86-9.06,19.17l8.88-5.33c.05,4.7.5,11.97-2,13.74l-9.4,6.64,9.74-2.41c1.86,9.4.04,16.6-7.17,21.58l6.77-1.02c.58-.09-.04.79-.09,1.46l-.36,4.47c-.5,6.12-2.44,10.78-6.07,15.4l4.72-1.44c.64-.2.67,1.87.47,2.51l-1.32,4.22-1.37,31.18-9.7,10.27,9.03-4.58-.36,16.11h2s2.83-35.85,2.83-35.85l1.68-22.16,1.75-28.09c.57-9.09,2.16-19.58,6.2-25.66,6.03,4.17,9.11,4.96,14.31,2.99,2.66,6.37,3.54,15.39,3.81,22.66l.83,22.09,2.56,64.01h79.94c.1-1.07,3.87-1.46,5.75-1.56l40.33-2.04,231.45-14.47,22.23-1.42,27.92-1.95,24.09-1.69-.04,23.14h4l6.34-237.81,2.18-82.2,1.55-89.99,1.45-20.32.77-64.79,6.65-1.25c1.35-.25,1.06,4.83,1,6.28l-1.32,32.02-1.57,63.32-2.12,81.54-2.01,76.04-2,81.98-1.43,81.03-1.03,18.07-.45,56.08h2s1.98-24.02,1.98-24.02l1.45-99.94,2.08-80.03,1.97-78,2.08-71.99,1.07-61.81,1.33-24.11,1.47-49.47c9.29,10.7,3.02,22.32,2.79,33.21l-1.2,57.44-2.09,73.56-1.91,78.38-2.08,87.67-1.83,102.02-2.17,33.54,26.83-1.78,27.22-1.81c.29,10.79-14.05,11.33-11.03,27.14h4c-1.66-5.22,1.36-12.28,5.89-13.71l-.1,13.72h4.2s.58-61.43.58-61.43l17.47,2.11c13.49,1.63,26.64,1.05,40.27.29,22.3-1.24,44.13-2.07,66.82-6.24l.76,65.27h41.97c-.87-.68,3.18-1.71,4.31-1.76l19.41-.82,20.12-1.87c.76-.07,3.96.81,4.03,1.56l.08,2.89h6s-.57-23.98-.57-23.98c-.02-.91.82-4.31,1.67-4.09l4.43,1.17.47,26.9h4s-1.1-24.74-1.1-24.74c-.07-1.7-1.25-5.88-2.79-6.48l-6.76-2.63c1.44-4.04,6.27-9.39,9.53-9.51,3.2-.11,9.27,5.52,9.63,8.76l3.49,34.59h6s-5.01-40.95-5.01-40.95l68.52-4.07,2.43,14.64.32,14.35c.07,3,8.35,5.08,11.07,3.67,13.54-7.04-3.12-23.69,1.65-34.82l53.34,15.98c-.73,9.89-.78,15.91.57,25.16l-26.37,2.29c-1.75.15-6.52,2.85-6.59,3.75h61.95l5.84-1.56,36-2,110.03-6.13c10.84-.6,21,3.2,27.99,9.68h9.88c-4.92-5.79-12.4-10.14-21-13.63l-2-10.46,22.71,1.87c9.39-1.42,17.19-3.1,25.46.4l.92,21.84h4l.3-20.1,1.7,1.08v19.02s3.99,0,3.99,0l-1.48-19.75,16.31,2.81,1.15,16.94h2l.75-16.29,3.25,16.29h2s-.1-14.59-.1-14.59l45.46,9.39c2.07.43,6.56,3.53,6.6,5.21l28.27-.61c-39.57-9.24-79.36-14.48-119.39-27.41l92.58,18.48,48.5,9.54h37.97l36.24-5.98,222.44-34.46,1.38,2.38-94.34,15.85-137.75,22.22h21.98l11.77-2.6c1.08-.15,4.14-1.45,4.15-.5l.07,3.11h9.99l.99-4.02c.37-1.04,3.67-1.4,4.98-1.62l25.11-4.2.89,9.83h2s1.21-10.86,1.21-10.86l2.79,10.87h2l.45-11.19,29.78-4.63,1.75,15.82h2s.84-16.43.84-16.43l3.16,16.43h2l-.34-17.09,29.08-4.6,1.24,21.69h2l.69-22.28,3.3,22.28h2l-.83-23.2,39.85-6.54,2.95,29.75h7.99l-1.53-31.15,13.48-2.22-7.96,33.38h4l5.86-24.66c7.97-.38,11.65-1.49,16.03-4.94l-1.89,13.6,8.32-20.31,22.12-7.01,1.94-8.32c.42-1.81,7.48-.47,9.28-.12l14.05,2.73c-2.3,3.58-4.64,6.84-6.85,7.73-1.84.74-6.63-2.78-7.68-4.31-.71,1.13-4.45,4.88-6.71,5.9l-11.31,5.12,27.92-4.23-11.13,38.83h2l4.62-13.64,28.25-91.59,1.91-4.93c.39-1,4.52,1.05,4.32,2.1l-.81,4.36-30.29,103.71h2l13.66-43.52,14.69-.15-13.63,6.37,36.31-.87c1.63-.04,4.2,4.38,4.18,6.38-15.32-4.77-29.39-1.27-42.94,5.19l42.24-2.2-1.34,23.53-41.2,5.27h45.96s6.27-69.85,6.27-69.85c.27-2.65.98-8.38,3.16-8.36l8.35.11c-5.32,10.58-6.79,19.48-5.25,31.37l18.31,1.99c7.44,5.04,12.71,4.78,21.39,3.42l16.13-2.54,4.55-31.37,16.28,2.53-7.93,54.3-1.33,18.4h2l8.62-65.94c.52-3.8,1.64-7.54,3.9-7.61,2.29-.07,7.74.7,7.45,2.62l-1.51,10.28,18.34-2.5c1.14,3.14,2.46,9.06,4.9,9.17l10.86.46,13.38,53.52h6s-18.55-77.64-18.55-77.64c-1.26-5.29-4.33-14.2-7.9-17.32-11.08-9.68-20.85-17.75-29.67-29.03-12.76-16.33-27.6-32.23-36.08-51.15-4.03-8.99-2.4-19.67-8.15-28.75l8.5-9.43c5.18,9.56,6.49,21.16,14.65,26.44l22.45,14.51c-7.75,9.81-4.6,19.11-2.09,28.15l.43,1.42,4.45,9.73-2.48-10.96-1.47-1.23c0-6.07-1.18-18.8,1.93-24.19l17.18-16.71c11.68,14.08,22.38,29.31,31.21,45.91,5.12,9.62,5.91,19.52,7.54,30.48,1.75,11.79,9.31,22.88,13.71,34.04l29.79,75.72,4.52.02-17.76-50.74-67.65-554.52,41.19,4.46,25.92,205.18,50.27,395.63h4s-47.06-364.76-47.06-364.76l-29.76-236.04,204.46-39.44,7.19,6.26,22.5-1.77,1.92,13.66-206.35,38.32,75.08,583.78h4l-75.59-581.23,203.41-37.39-.72,3.65-192.92,34.95,4.82,29.62,71,550.4h2l-73.09-577.49,190.07-33.95,53.81,350.5,39.05,260.93h11.99s1.45-27.83,1.45-27.83l28.53,1.84v-10c-4.15-10.84-6.78-22.15,0-26v-2l-5.44-14.78c-1.8-6.75-.15-14.08,5.43-16.59v-10.63c-5.91,1.23-13.49,5.61-15.77,10.44-2.92,6.19-2.59,16.45-2.82,23.65-4.72-6.62-5.29-17.08-.44-25.55,3.22-5.63,11.7-10.83,19.02-12.54v-6c-9.56,2.37-19.25,8.1-23.38,16.16-4.6,8.99-6.99,21.6.24,28.93,12.19,12.36,7.51,31.67,2.76,32.89l-13.41,3.44-3.01,24.88-13.78-94.1-81.15-531.98c2.56-7.66.39-12.65-3.88-18.03-3.47-19.55-20.58-21.88-13.4-43.82l105.13,9.91,38.17,4.83,5.72,14.9v-6l-2.99-13.15-86.93-9.13-30-2.39-31.39-1.17c-6.88,13.38,3.97,25.45-4.38,27.8-2.54-6.03-4.25-13.4-4.36-19.74-.16-9.33,7.22-15.85,16.13-14.95l85.94,8.7c18.57,1.88,36.7.82,53.92-1.49l-13.13-65.68,8.09-1.8,9.09,41v-16l-5.76-24.17,5.76-3.43v-7.84s-579.08,136.06-579.08,136.06l-760.6,169.98c-5.15,1.15-6.94,1.98-11.71,4.34-5.99-6.56-10.72-20.23-2.46-27.03l2.11,10.89,1.46-9.42c.25-1.62,2.71-1.7,6.53-2.5,331.47-85.26,661.75-172.12,992.69-261.98l351.05-94.88v-8s-30.3,7.62-30.3,7.62l-23.35-108.07,43.4,8.6,3.66,13.59,6.59-1.74v-3.89s0-14.11,0-14.11v-4s-65.36-12.53-65.36-12.53l-2.34-15.76,47.1,10.61c2.43.55,4.85,1.07,6.38,1.14,1.14.05,1.81-4.71,1.56-5.88l-5.5-26.58,18.17-6.68v-7.96ZM1445.49,120.02l1.08,25.46-19.25-5.17,18.17-20.29ZM1307.71,276.22l.16,23.3-16.71-4.95,16.55-18.35ZM1250.91,296.14l1.85-6.66c.32-1.16,5.26.75,4.59.77-1.76,1.22-4.53,3.35-3.48,3.7l4.15,1.38,49.65,10.52-1.11,1.82-55.65-11.54ZM1199.39,398.83l-.03,19.54-20.14,4.52,13.44-4.8-8.83-1.42,15.56-17.84ZM1153.5,418.27l14.11-2.51c-3.86,3.07-8.4,4.25-14.11,2.51ZM1167.45,420.36l12.17-2.67c-3.32,2.75-7.08,3.93-12.17,2.67ZM1369.04,69.1l.89,14.14-83.56,104.2-1.03-12.16,83.7-106.17ZM1179.53,309.37l66.94-84.49.23,13.48-68.38,85.28c-.43-4.94.01-10.26,1.22-14.27ZM1114.32,393.5l31.14-39.75-.16,10.9-33.29,40.71c-.16-3.24.47-9.51,2.31-11.86ZM769.59,345.31l15.69,2.88-7.55,18.61c-.81,1.99-5.43,3.33-8.71,3.04l.57-24.52ZM708.34,401.52l16.3.63-5.03,13.14-18.82-7.42c-.69-.32,4.92-6.45,7.54-6.35ZM700.69,411.52l17.42,7.73-23.48,58.19,6.05-65.92ZM696.01,485.03l57.37-140.36,11.98.02-1.18,23.59-13.41-2.38-75.34,179.89-2.1-3.83,22.69-56.93ZM497.72,465.84l188.15,28.1c1.6.24-.73,6.54-2.99,6.21l-185.83-27.07.67-7.24ZM496.43,477.02l187.63,27.22-15.11,39.2c3.45,4.41,2.78,8.77,1.63,14.44l-1.58,7.79c-.35,1.74,5.19,3.49,6.85,4.05l24.67,2.74,28.14-61.84,165.04,23.98-.34,70.79-1.41,97.29-375.3-41.61-28.86-1.74-12.94,160.52c-1.93.11-5.67-.33-7.7-.88l29.28-341.95ZM889.52,707.58l-394.48-43.35c-2.25,5.9-2.65,14.51-3.34,23.11l-1.92,24.03-2.08,26.02-2,21.77-1.86,21.21-1.95,25.18-2.98,16.04c-.86-8.55-.02-16.86.83-26.24l1.99-21.94,1.96-24.06,2.11-25.98,1.82-22.18,1.3-15.73,1.4-24.32,401.12,44.29.67,12.92-1.63,1.1-.96-11.88ZM889.8,727.23l-.81,75.21-1.14,49.89-1.67,3.35.71-61.54,1.11-65.77,1.79-1.14ZM854,779.71l-129.93-12.61-31.53-2.13-1.81,24.72-1.21,24.35-2.52,25.56c-1.61-11.88-.17-23.46.6-36.14l1.32-21.68c.39-6.38,2.16-12.88-.85-18.17l-197.89-18.89c8.91-2.5,17.91-.75,28.22.24l171.48,16.42,1.63-22.27,1.18-27.37,2.54-22.68c1.14,8,.09,15.79-.37,24.51l-1.46,27.62-1.17,20.2,165.68,16.52,26.29,2.62c-9.75,1.29-19.36.25-30.19-.8ZM882.54,817.28l-.71,38.4-156.13-13.5-34.51-2.98,1.94-36.74,1.58-34.93,188.08,17.88c1.56,10.01-.06,21.01-.26,31.87ZM686.13,765.5l-1.39,37.61-3.19,35.35-163.76-14.26-34.36-2.76,6.04-73.45,166.5,15.82,30.16,1.69ZM490.19,739.42l2.66-27.87,1.99-24.2,1.61-19.85,194.21,21.38-1.62,33.27-1.24,35.99-197.61-18.73ZM883.73,777.29l-187.09-18.37.84-35.4,2.28-33.52,185.82,20.09-.99,35.65-.87,31.56ZM894.34,869.77l-174.27-14.78-27.99-2.19-25.97-2.03-24-1.94-23.02-1.9-24.92-2.04-25.98-2.11-23.98-1.96-25.75-2.12-20.28-1.67-32.48-2.26,1.25-11.09,428.33,36.62c1.11,2.62.78,7.28-.93,9.48ZM738.07,501.65l163.9,24.26-1.06,88.24-1.15,93.16-1.71,20-.47,94.25c-.06,12.17-1.57,24.68-4.09,37.48-3.76-34.83-.35-67.46.32-101.65l.87-44.07.64-20.12,1.65-74.75.99-87.09-165.49-24.35c-.24-.66-.88-4.35-.06-4.48l5.67-.89ZM697.85,568.59l-25.67-3.34,80.26-192.61,32.42,4.91-87.02,191.05ZM962.74,582.18l1.23-52.05c4.22,20.41.75,39.72.68,60.44l-.76,207.81-1.92,3.29.77-219.49ZM955.72,991.06c2.03-.15,4.02-5.62,4.18-7.65l.06-80.21,1.99,1.12-.18,86.14c-7.72,3.56-15.23,3.78-21.95,1.76l15.91-1.15ZM934.94,989.25l1.08,1.84-23.12.36-1.08-1.84,23.12-.36ZM904.96,987.25l1.08,1.84-23.12.36-1.08-1.84,23.12-.36ZM872.98,985.24l1.08,1.82-21.11.38-1.08-1.82,21.12-.38ZM843.01,983.25l1.08,1.84-23.12.36-1.08-1.84,23.12-.36ZM945.95,594.56l3.21-52.28c1,55.95.28,110.45-.29,166.01l-.97,96.12-1.98,3.26.03-213.11ZM945.84,843.21l.1,125.13-1.97,1.14-.1-125.13,1.97-1.14ZM928.94,971.25l1.08,1.82-21.11.38-1.08-1.82,21.11-.38ZM898.96,969.25l1.08,1.84-23.12.36-1.08-1.84,23.12-.36ZM864.99,967.25l1.08,1.82-21.11.38-1.08-1.82,21.12-.38ZM837.01,965.25l1.08,1.85-25.12.34-1.08-1.85,25.12-.34ZM11.25,1488.55c-.96-3.69.5-8.69,2.84-13.95l45.28-101.35,3.24.23-51.36,115.07ZM66.44,1494.98c-.14,1.7-5.8,1.86-5.5.47,2.14-9.8,2.13-19.75-.39-31.07l8.48-.02-2.6,30.61ZM71.47,1347.73c.48-9.28,5.52-18.14,11.05-26.58-.71,9.57-4.09,17.62-11.05,26.58ZM87.58,919.35h30.01s1.07,1.93,1.07,1.93l-32.02-.15.93-1.77ZM32.63,914.73l29.98,2.01,23.93,1.29-.99,1.5-26.95-.76-32.14-1.89-20.03-2.86,26.19.71ZM106.11,1098.45l-41.83-77.72,50.41,2.86-8.58,74.85ZM60.63,1015.98l-.17-4.12,53.24,2.84,1.78,4.03-54.86-2.76ZM116.14,1011.06l-57.78-3.11-5.98-9.4,35.04,1.82,28.96,1.73-.24,8.97ZM84.99,996.39l-33.02-1.89c-1.17-.07-4.02-4.43-3.34-4.16l37.97,1.27,33.53,3.43c-12.62,3.94-22.47,2.07-35.14,1.35ZM118.29,990.32l-36.89-1.92-35.93-2.04-15.76-28.72,45.04,2.24,11.6,1.13,35.07,1.41-3.13,27.9ZM26.26,952.12l14.33-.43-1,2.02-13.33-1.6ZM40.68,955.11l.94-1.76h28.01s1.07,1.92,1.07,1.92l-30.02-.16ZM72.48,955.56l31.12-.3,1.09,1.88-31.12.3-1.09-1.88ZM107.55,959.52l-1.02-1.77,12.95-.57,3.39,1.66-15.32.68ZM120.54,954.16l-25.74-1.38-30.34-1.96-31.95-1.97c-6.58-.41-11.42-1.65-12.15-10.71l30.13,1.91,20.11,1.27,21.98,1.38,30.66,1.93c1.15,1.77-.46,9.02-2.69,9.52ZM16.37,934.43l26.22-.71-.97,1.97-25.25-1.26ZM42.68,937.03l.95-1.82,30.9.49-.94,1.79-30.91-.45ZM100.64,939.94l-26-1.22.98-1.49,28.79.65,20.37,2.74-24.14-.69ZM124.59,934.95c-2.03.8-7.18,1.12-9.79.95l-30.11-1.96-30.07-1.96-40.55-2.88-5.29-10.17,19.92,1,30.06,1.92,31.89,2.1,35.14,2.67c.11,2.98.43,7.7-1.2,8.35ZM144.51,605.63l-1.01,2.11-15.3-1.56,16.31-.55ZM123.48,603.18l3.39,1.66-15.32.68-1.02-1.77,12.95-.57ZM93.63,600.98l15.29,1.56-16.31.55,1.01-2.11ZM75.64,599.14l16.93.8-.99,1.62-16.97-.76,1.03-1.66ZM74.57,597.65l-1,2.08-15.32-1.57,16.31-.52ZM53.53,595.18l3.39,1.66-15.32.68-1.02-1.77,12.95-.57ZM23.68,592.98l15.3,1.55-16.31.55,1.01-2.1ZM10.31,592.14l12.3-.38-1,1.93-11.29-1.55ZM10.78,607.77l8.27-.41c1.76-.09,1.9-5.09,2.19-9.02,16.84,1.22,31.99,2.85,50.37,5.84l-56.19,13.15-4.65-9.55ZM16.95,623.53c18.96-9.72,39.55-8.73,59.35-16.77,5.23-2.12,12.16-1.72,19.84.62-25.26,5.98-50.41,12.93-79.19,16.14ZM17.6,662.95l-5.86-1.92c-1.44-.47-.7-6.1.5-6.63l14.07,1.29c8.64,21.45,22.02,42.41,11.45,61.75-8.66-.85-7.37-8.71-5.98-14.37,3.68-14.94-1.27-32.99-14.19-40.12ZM10.11,724.37c7.59-3.23,11.92-5.6,17.96-10.36l8.11,10.98c-9.73,5.57-20.26,6.25-26.07-.62ZM21.57,734.43l13.76-3.47,4.37,9.59c-5.69,1.88-13.03,1.32-18.13-6.12ZM40.45,723.89c1.06-5.06,2.76-10.34,4.2-13.48l11.63-8.26,16.36,2.06c-10.12,9.06-17.31,14.76-32.19,19.68ZM139.53,707.48l-1.1-1.7,11.11-.54,1.1,1.7-11.11.54ZM153.58,702.37l-109.46-10.63-7.33-23.38,44.31,5.15,3.02-8.68,22.35,2.01,20.21,1.82,30.76,2.77-3.87,30.94ZM165.72,614.16l-7.67,53.88-75.63-7.62-5.2,7.42-38.97-4.23c-2.38-.26-5.46-3.41-6.55-6.89l28.75,3.16,2.08-23.51c-15.85-2.34-26.6-3.15-42.25-7.18,31.73-7.79,59.71-14.69,90.4-19.46,18.02-2.8,36.56,5.56,55.04,4.43ZM132.81,1410.69l-3.68,8.76-.62-12.22c1.55.8,4.74,2.41,4.3,3.46ZM99.55,1413.05c1.18,5.79,1.21,10.76-.22,18.26l.22-18.26ZM98.15,1433.23l.54,11.12-1.7,1.1-.54-11.12,1.7-1.1ZM112.54,1507.05l-11.49,6.77,5.29,39.34-12.78,6.7,11.66-124.39,14.03-.08-6.7,71.65ZM115.64,1513.17l6.74,45.89c.41,2.78-8.4,3.7-8.78,1.27l-7.05-45.46,9.08-1.7ZM96.9,1485.44l-.43-17.12,1.79-1.08.43,17.12-1.79,1.08ZM96.2,1487.23l.5,13.12-1.74,1.09-.5-13.12,1.74-1.09ZM94.16,1507.23l.54,11.12-1.7,1.1-.54-11.12,1.7-1.1ZM92.16,1527.23l.54,11.12-1.7,1.1-.54-11.12,1.7-1.1ZM90.2,1547.23l.5,13.12-1.74,1.09-.5-13.12,1.74-1.09ZM85.3,1567.17c1.85,6.28,3.5,13.78-1.97,20.91l1.97-20.91ZM84.31,1643.46c-.43,3.12-1.54,6.28-2.61,5.99-1.13-.3-4.26-1.13-4.23-1.12l5.53-56.56c2.65.57,7.63,2.75,7.89,4.34l-6.57,47.34ZM107.85,1656.86c-3.7,6.38-7.2,11.8-13.53,18.8l8.21-83.8,13.14-10.76-7.82,75.76ZM142.41,1541.77l-2.4,21.63c-.21,1.88-2.51,5.33-5.14,8.31l-.21-14.57-6.15,1.44-1.31-14.97,15.2-1.85ZM128.44,1567.25c-1.28,11.5-2.58,19.65-7.31,29.36l.59-28.12-19.79,16.73c-3.43,2.9-9.5,5.2-13.25,2.97l1.06-21.24,16.94-8.84,3.94,8.54,17.82.6ZM129.14,1506.26c3.82,7.64,1.74,17.86-3.64,23.3l-6.33-24.17,9.97.87ZM104.09,1403.45l18.05-.25-2.3,26.51h-17.51s1.76-26.27,1.76-26.27ZM100.75,1462.26l-1.66,3.39-.68-15.33,1.77-1.02.57,12.96ZM1847.46,1679.44l-.38-21.13,1.82-1.08.38,21.13-1.82,1.08ZM2518.86,1646.54c-4.87-8.78-4.68-18.01-3.25-27.64,4.67,7.6,5.84,17.1,3.25,27.64ZM2515.05,1587.08l.46,27.8c-4.02-2.03-4.72-18.98-.46-27.8ZM2376.57,1043.35c3.43-3.23,7.53-4.43,12.43-3l-12.43,3ZM2369.47,1013.07l10.13-.81,8.71,23.21-21.64,2.93,2.8-25.33ZM2453.29,690.98l4.39,3.92-.05,10.37c0,1.82-5.62,2.79-8.91,3.59-2.58.62-4.46-5.08-4.59-8.93-.13-3.88,3.7-6.6,9.15-8.96ZM2216.13,772.4c-6.56,7.69-15.19,5.86-21.5,1.5l21.5-1.5ZM2196.73,710.93c-9.88,3.74-19.23,3.14-27.21,12.5l-195.15,73.24-3.88-28.08,282.51-111.01,167.6-66.15,2.68,15.98,27.94,7.07-254.49,96.44ZM1965.03,799.68l-8.05,3.69-3.43-22.71c-.24-1.62.67-5.21,1.57-6.53.9-1.31,6.38-.46,6.58,1.06l3.32,24.49ZM1963.94,769.82c5.84,10.09,6.27,19.36,3.8,29.55l-3.8-29.55ZM1953.64,804.3l-27.31,8.4-40.7,13.56-2.76-23.46,66.41-25.98,4.37,27.49ZM1926.59,822.28l242.81-91.11c-3.31,16.85,2.02,31.83,14.16,46.17l-247.81,85.83c-12.26-11.31-15.38-26.59-9.16-40.89ZM2172.76,734.33l1.77-1.02.57,12.96-1.66,3.39-.68-15.33ZM2424.42,589.86l14.08-5.39-.82,15.9-2.29.35-9.17,2.57-1.81-13.43ZM2456.03,611.03l-24.41-5.61,5.32-3.11,1.09-1.43,31.49,6.76c-3.86,2.29-10.16,4.15-13.49,3.39ZM2506.16,557.65l7.19,33.52-38.87,14.71-31.46-6.7-2.39-16.4,51.03,11.65-4.94-29.19,19.44-7.58ZM2449.41,580.17l33.44-13.67,4.01,23.36-37.45-9.69ZM2517.67,506.1c-7.94,3.16-16.58,7.77-19.04,12.98l5.53,30.96-250.77,99.06-834.79,325.2-252.43,96.68c-7.55-6.81-9.04-16.91-4.14-25.58l917.66-391.21,364.74-158.43,64.36-28.78,8.89,39.13ZM1882.61,827.17l-7.41,3.89-2.1-23.55c-.15-1.73,6.69-2.52,6.91-.82l2.6,20.47ZM1815.41,838.52l-.63-10.53,47.27,7.06c-3.39,2.1-10.69,5.8-14.18,5.57l-32.46-2.1ZM1836.01,844.32l-32.94,13.05-2.6-22.37,10.04-3.77,1.64,10.77,23.85,2.32ZM1825.88,824.93l22.6-8.87,1.7,13.09-24.29-4.22ZM1854.24,830.46l-2.72-15.39,17.99-7.29,2.5,25.13-17.77-2.45ZM1799.84,858.27l-101.31,37.49-193.06,71.01-1.26-17.37,291.85-112.89,3.78,21.76ZM1499.09,970.74c-2.36-6.96-2.38-13.84.17-20.99,3.34,7.12,3.5,12.99-.17,20.99ZM1453.59,979.66l-6.56-1.2c-1.87-.34.89-8.08,3.15-7.87l33.46,3.21c-9.87,6.47-19.58,7.76-30.04,5.85ZM1457.6,984.3l-171.52,63.2-.42-14.4,155.69-59.78,2.32,9.38,13.94,1.59ZM1457.66,967.72l36.05-14.46,1.5,19.63-37.55-5.17ZM1283.29,1047.19l-3.6,2.34.57-14.52,3.03,12.18ZM1233.79,1056.46l2.03-5.19,32.12,2.36c-13.15,8.32-34.88,4.71-34.15,2.84ZM1244.23,1062.43l-74.5,27.39.24-13.26,59.77-21.88c.94,2.25,1.95,6.01,3.63,6.24l10.86,1.5ZM1246.61,1048.36l29.12-11.55,1.45,14.05-30.56-2.5ZM1142.33,1128.55l22.14-4.64,1.17,60.16-32.72,15.34-1.57-60.22,10.98-10.63ZM1130.73,1101.83c9.85,1.16,1.32,10.92,8.85,24.41l-8.18,8-.67-32.41ZM1140.58,1100.94c-2.83,1.1-9.96-2.22-9.98-5.37l-.13-17.28,33.39-.06.02,13.66-23.29,9.05ZM1094.82,1160.05l-28.66-4.16,1.71-75.39,16.36-2.32-15.33-.81c5.48-23.88,27.01-37.51,52.06-34.85l.75,17.6-.97.93-2.35,8.74c-.3,1.11-5.2,1.92-5.52.8l-2.32-8.11-2.13,8.3c-5.96,2.33-13.94,9.06-13.91,16.17l.31,73.1ZM1029.19,1194.12l9.83-.95c2.94,8.6,5.1,12.24,14.7,18.08-2.93,1.07-9.39,1.62-14.43-.15-3.93-1.38-8.2-8.28-9.46-12.37l8.92-2.24-9.56-2.37ZM999.91,1189.3c-10.54-.1-17.24,10.4-17.28,19.86l-.19,47.23c-17.59,1.35-37.75,1.53-54.84-1.23l3.25-29.86,15.59,1.97c2.89.31,3.73-8.71,3.84-11.84l1.48-43.62-36.17-1c-3.74-.1-10.73.45-14.15,3.35l-1.05,50.67,19.67.89-2.11,29.73-15.96-.31c-2.3-.04-5.82-5.43-5.81-7.71l.24-82.08.84-26.24,1.29-71.51.33-24.76,32.8,1.94,31,1.84,38.92.68c4.2-1.69,12.13-9.62,12.13-14l.21-125.87c0-5.36,4.43-10.99,9.38-10.56l24.35,2.11.05,256.11-.76,17.34c-10.72.66-18.65,6.21-21.48,17.1l-25.56-.24ZM1023.75,1194.66l-32.3,1.73c4.45-4.1,11.37-5.63,18.07-5.33l14.23,3.6ZM993.7,1322.88c1.69-6.22,6.28-12.64,6.31-19.08l.06-14.48,3.78-.09-1.87,70.44-10.55.68c.85-13.67-.8-26.13,2.28-37.47ZM996.05,1269.78l-.47,43.05-3.26,3.96-.55-51.64,4.28,4.63ZM994.36,1259.48l6.05.17c1.27.04,1.35,3.88,1.64,6.26.21,1.72,4.62,1.31,7.38.54l-7.2,17.76-2.15-17.03-5.72-7.7ZM1023.43,1363c9.11-.14,14.23-6.7,19.3-14.95,1.74,12.42-10.98,18.18-21.93,18.48l-38.07,1.07-.98-3.96,41.69-.64ZM1069.92,1341.33c1.49-3.5,3.9-10.67,3.51-13.9l-.77-6.3c-.11-.93,3.02-.82,3.84-.35l-3.29,24.5-58.54.48-.12-25.74,5.75.29-.39,21.01h50.02ZM1021.77,1338.04l.95-13.52,47.02.42.07,12.73-48.03.37ZM968.52,1356.18c2.47-3.16,11.15,1.4,10.19,5.08-.5,1.72-5.86,3.04-7.58,2.43-2.12-.75-3.98-5.76-2.61-7.51ZM963.79,1358.01l2.77-17.03c3.69.67,5.12.74,5.11,1.52-.01,1.16-.66,5.83-1.35,6.76l-6.53,8.76ZM978.05,1337.88c-2.23,1.85-9.19.64-11.65-.38l.35-14.97c5.53-.27,11.78.7,12.6,3.48.82,2.78.93,10.02-1.3,11.87ZM966.83,1300.85c1.94-.18,5.82-.48,5.86.39l.29,5.43c.29,5.4.56,10.3-5.96,11.65l-.19-17.47ZM961.53,1282.7l-28.36-.69-3.26-12.97-37.88.18c-4.98-3.93-11.39-12-14.09-17.87l.99-101.18,1.12-92.91-1.97-15.43,17.21.95-.38,35.63-1.97,85.74-.79,79.13c-.13,12.82,6.77,22.24,19.67,22.22l70.34-.11,1.22,33.75c-13,.24-20.34-3.36-21.85-16.44ZM853.86,1286.32l1.79-1.08.43,17.12-1.79,1.08-.43-17.12ZM854.04,1372.37l-1.91,1.1-.23-45.15,1.91-1.1.23,45.15ZM839.16,1277.27c-1.45.04.15-3.96.88-5.98l.88-125.05,2.25-106.11,30.43,1.72c3.33,5.87,5.12,14.45,4.69,21.3l-1.74,28.17-1.54,103.1-1.04,56.77,8.13,14.18c4.53,7.9-6.35,15.82-11.06,17.8l-2.51-18.72c-18.68,1.53-18.73,12.54-29.37,12.81ZM849.6,1313.34l-.83,60.55-7.69,1.92c-1.91.48-1.8-4.27-1.77-6.73l1.12-84.14,5.76,9.41.09-6.29c.02-1.13,1.16-1.74,4.25-2.49,4.22,11.65-5.6,18.64-.93,27.76ZM829.09,1280.83l-.05-1.35,13.85,1.37c-4.95,2.3-11.09,1.97-13.79-.01ZM837.5,1301.12l-.26,37.4c-10.83-5.54-4.38-13.87-2.43-20.11l2.68-17.3ZM835.79,1253.24l.16,24.25-1.97-1.1v-22.07s1.81-1.08,1.81-1.08ZM835.71,1211.52l.37-95.18,1.89-1.17-.03,126.38c-6.07-9.61-2.26-19.74-2.22-30.04ZM845.34,1281.59l5.91-6.74.42,7.26c.09,1.5-5.01.2-6.33-.52ZM924.51,1293.43c-4.25-3.2-4.3-5-6.2-12.91l-.88,12.17-16.61-1.33-.1-18.54h29.03s-5.23,20.62-5.23,20.62ZM954.4,1286.17l1.32,5.09-27.45-.05.66-5.15,25.47.11ZM911.7,1358.95c.05,2.1-5.35,3.78-7.34,3.11s-3.33-6.08-3.01-8.18l.82-5.47c.1-.67.68-.66,1.2-.26l4.51,3.51c1.65,1.28,3.78,5.18,3.82,7.29ZM903.53,1293.4l-1.06,41.81c-1.95-.79-6.82-3.91-8.61-5.84l-.12-32.23c.09-2.41,7.28-4.23,9.79-3.74ZM896.49,1338.37l.16,22.74-14.69-.14-.12-67.52,9.51-1.72-1.09,40.39,6.23,6.25ZM875.45,1290.8c3.62-9.13,12.05-14.72,22.07-12.93l.88,11.31-22.95,1.62ZM859.71,1316.07c-.76-.7,1.73-3.85,2.75-4.2l4.46-1.51c.86-.29,1.75,3.29,1.02,3.83l-3.3,2.46c-.29.55-1.34,2.75-1.85,2.28l-3.08-2.86ZM860.07,1350.37l-1.84,1.08-.36-23.14,1.84-1.08.36,23.14ZM865.34,1289.28l.91-18.96,1.83-1.15-.62,38.13c-3.05-5.61-2.45-11.14-2.12-18.02ZM876,1307.31l-2.09-13.84,3.49-.46,1.48,29.64.85,38.78-9.52-.99c-1.97-.2-3.65-5.48-3.66-7.79l-.08-29.21c8.1-2.1,10.76-7.97,9.53-16.12ZM862.07,1271.4l-.28,16.82-3.1,23.36c-3.98-17.15,6.04-29.89-2.16-39.79l5.54-.38ZM858.99,1359.86c3.45,9.19,10.85,9,19.36,8.98l-.66,23.05-10.71-7.55c-8.67-6.11-11.2-15.22-7.99-24.47ZM869.81,1365.6c-3.02.08-8.34-5.06-8.24-7.77l1.31-32.76,1.08,30.82c.1,2.74,4.58,7.68,7.43,7.64l19.47-.3,3.36,1.7-24.42.67ZM880.9,1370.36l10.63-2.26c8.05-1.71,16.46-2.37,23.93-1.47,2.07,14.33,9.55,21.48,22.69,23.81l-30.57,1.92-26.74.54.08-22.54ZM924.18,1370.34l7.79.54c1.9.13,4.95-4.32,5.26-6.34l2.19-14.42,19.73.27c2.18,6.15,3.49,15.9.94,21.41-4.52,9.76-11.92,13.44-20.55,12.69-6.77-.59-13.59-7.84-15.36-14.16ZM936.04,1357.94l-1.81,6.81c-.47,1.78-5.78,2.53-8.03.58l9.84-7.39ZM934.3,1351.1l-6.99,10.21c-1.61-3.8-2-10.84,6.99-10.21ZM910.39,1346.82l.72-49.42,52.35.47-.85,48.8-52.23.15ZM907.9,1223.1l1.53-49.32,38.46-.6.04,50.21-40.04-.29ZM927.5,1224.26l-.87,14.14c-2.68-3.11-3.87-4.7-4.4-6.2-1.06-3.03-.88-7.08,5.26-7.93ZM978.83,1259.38l3.42,1.78-76.62.33-4.04-4.37,18.48,1.77,58.77.5ZM986.14,1362.41l-1.48-21.57c-.29-4.25.76-10.66,4.67-14.84l-3.19,36.41ZM985.84,1204.35l1.96-1.13.11,103.13-1.97,1.13-.1-103.13ZM1043.61,1176.71l-5.11,14.54-8.82-.22c1.85-7.65,6.81-12.2,13.93-14.33ZM1042.26,1191.61c-.29-10.15,6.93-11.82,15.15-13.85,5.03-1.24,8.4-12.24,8.84-18.67l28.18,3.24c.14,9.7-2.46,20.55-7.7,29.88-8.26,14.71-19.2,8.2-29.93,16.12-5.94-1.1-14.35-10.07-14.54-16.72ZM1117.92,818.27c3.03,3.6,13.47,6.14,17.41,3.33l24.12-17.23.75,43.13.61,20.46-102.87-9.42-1.3-21.6c-5.43-7.97-7.08-14.04-7.07-23.86l.45-303.97,63.89,11.98-3.5,280.25c1.69,6.74,3.79,12.53,7.5,16.94ZM1057.93,881.9l103.47,8.55-.45,5.19c-.09,1.06-2.42.68-4.86.37l-92.29-7.07-4.8-.34c-1.24-.09-1.09-2.98-1.06-6.69ZM1057.7,877.77l11.11-.54,1.1,1.7-11.11.54-1.1-1.7ZM1081.68,879.77l11.11-.54,1.1,1.7-11.11.54-1.1-1.7ZM1105.67,881.73l13.11-.5,1.09,1.74-13.11.5-1.09-1.74ZM1129.65,883.77l11.11-.54,1.1,1.7-11.11.54-1.1-1.7ZM1160.78,882.47l-96.93-7.95c-1.52-.13-5.36.18-5.41-1.02l-.3-6.99,102.75,9.33-.12,6.63ZM1085.83,893.94l25.94,1.89,28.02,2.04,23.54,2.85c-7.6,4.95-14.06,1.5-21.46.99l-26.11-1.79-28.01-2.25c-10.69-.86-21.33,2.2-31.51-5.74l29.59,1.99ZM1906.64,485.51l13.62,7.99-60.8,34.86-6.75-5.79c-1.4-1.2-6.85,1.14-6.65,2.97l1.03,9.33-197.09,111.05-2.88-11.42,259.52-148.99ZM1891.37,485.33l-22.64-3.05c6.09-2.95,11.82-2.75,18.79-1.9l18.02,2.21c-4.2,2.69-9.62,3.35-14.17,2.74ZM2396.98,236.94c8.86,1.61,16.77,4.21,25.51,11.14l-58.02,34,42.81,221.43-446.55,193.78-19.04-152.16-79.15-13.91,66.26-36.61,433.04-235.67,35.15-21.99ZM2373.31,233.25l16.06,2.88-14.6,9.58-1.46-12.46ZM2384.23,321.79l-7.55-42.41,47.33,16.4,38.25,183.63-40.91,17.87-37.12-175.5ZM2416.64,493.36l-.65,6.19c-.12,1.18-3.71,1.05-5.76.57l-40.87-211.35c-.49-2.52,1.43-6.59,3.23-7.09l44.06,211.67ZM1950.82,697.43l-1.64,5.28c-.48,1.55-6.07.12-6.35-.98l-16.57-134.34c.46-2.18,1.37-6.15,2.84-6.57,1.98-.57,4.02-.96,7.71-2.97l-80.63-13.73-1.19-11.96,16.57,4.49,65.67,11.15c2.36,6.9,3.15,13.81,4.11,21.61l16.03,129.84-3.81.27-17.04-138.7-2.18,1.94,16.49,134.66ZM1861.31,708.63c-1.53,2.83-1.77,7.82-1.3,11.17l2.8,19.98-17.44,7.48-24.38-192.89,25.14-13.77c.49,7.94,3.35,11.5,9.35,12.51l66.54,11.23,17.71,142.11-65.35,28.36-3.25-27.73c-.73-2.66-8.37-1.12-9.8,1.54ZM1870.4,734.47c.07.92-4.29,4.43-4.49,3.53l-1.09-4.76-2.17-18.17c-.24-1.99,4.71-6.61,6-5.55l1.76,24.95ZM1816.47,759.7l-23.14,9.99-21.35-187.63,45.21-25.46,24.99,192.18-22.97,9.52-20.33-170.07-3.27-1.09,20.87,172.55ZM1096.52,953.82c.3,2.47,5.99,6.47,8.32,5.14l56.58-32.15,1.54,35.1.79,76.36-44.23-2.65c-27.51-1.65-56.78,16.27-57.1,45.89l-.78,71.82c-.04,3.66-2.04,9.87-3.73,14.3l-.07-267.98,23.99,1.12,27.98,2.02,26.18,1.93c9.06.67,17.26.07,26.44,4.61l-61.93,36.65c-2.08,1.23-4.21,5.73-3.96,7.85ZM1104.01,955.37c-1.9.26-4.01-1.72-5-4.94l60.96-35.15c1.86-1.07,7.28,1.72,7.83,3.58l-63.78,36.51ZM1202.25,905.92l92.25-53.86,140.31-79.21-5.25,6.52c-1.3,1.61.36,5.93,1.98,8.18l52.1,8.48,2.45,27.26,1.43,24.06,1.15,19.65,1.35,32.58-322.16,135.97-1.11-65.28-.44-46.62,35.95-17.75ZM1290.55,845.63l-6.71-9.94,2.94-.45,4.93,7.2-1.16,3.19ZM1639.26,652.62l-126.47,71.99-79.19,45.66c-5.7-3.89-9.48-8.66-12.61-16.15l206.43-123.01c8.29,2.8,14.79,13.47,11.84,21.51ZM1633.71,628.95c6.54,2.17,12.54,8.82,11.31,17.75l-11.31-17.75ZM1427.39,772.52l-132.95,75.11c-1.63-6.79.93-8.9,5.82-11.71l120.72-69.45,6.41,6.05ZM1489.05,817.18l-2.91-23.95-53.59-8.99c-.29-1.68-.61-2.81-.02-3.05l5-2.08,53.19,7.48,3.39,38.88,1.81,40.02c.51,11.25,3.32,21.67-.63,33.72-4.67-15.4-3.57-28.97-4.32-44.02l-1.9-38ZM1496.8,824.32l-1.34-25.21c-.25-4.72-1.24-10.32-3.12-15.01l-56.6-9.31,207.61-119.34,125.64-71.62,20.94,187.55-289.21,123.41-1.79-31.62-2.13-38.87ZM1849.09,545.85l.64-20.74,3.63,16.05-4.27,4.69ZM1854.39,546.59l68.74,11.66,2.12,2.85-72.25-12.2,1.39-2.32ZM1929.21,489.53c-13.2.02-25.42-10.76-22.69-18.95.9-2.69,4.95-4.57,9.16-6.98l424.44-243.6c11.68,7.57,22.12,16.81,24.79,31.72l-435.7,237.82ZM1769.86,559.72l-4.22-37.64,13.78-7.84,4.54,36.94-14.1,8.55ZM1787.13,549.38l-4.2-40.02,3.94.36,4.52,34.79c.04.35-3.72,4.43-4.26,4.87ZM1781.92,505.91l-15.03-120.51c-.21-1.65,2.65-5.18,4.55-5.78l14.83,122.87-4.35,3.43ZM1779.08,508.9l-14.02,8.53-14.56-123.92,13.22-8.5,15.36,123.89ZM1761.27,519.09l-22.44,13.23-7.07-70.22c8.55-9.33,12.51-25.29,3.82-35.05-1.84-2.06-7.52-4.23-8.66-6.52-1.3-2.62-1.18-10.07,1.37-11.72l19.23-12.44,13.77,122.72ZM1728.69,433.66l-.63-3.77c-.16-.95.98-2.89,1.8-2.38,8.98,5.59,8.05,17.06,2.44,27.66l-3.6-21.5ZM1733.79,545.71c-.65.94-3.84,3.42-3.28,4.52l3.02,5.9c-8.33,6.88-26.68,8.06-34,2.04-3.97-3.27,8.79-10.46,30.45-9.41-9.63-5.04-20.39-2.63-31.96,2.99l-10.91-113.92,32.72-22.71,13.96,130.58ZM1691.46,555.19c.59,6.04,4.49,10.37,9.91,12.46,12.16,1.64,25.05,3.07,35.08-5.64,5.62-4.88,3.74-16.66,2.71-24.07l22.87-13.14,4.83,36.57-122.27,70.5c-4.64-4.32-9.25-7.25-14.57-8.14l-210.97,125.95-1.93,14.61-124.57,71.86c-6.93-7.1-13.26-6.01-20.01-1.89l-106.47,64.93-.72-8.46,6.17-1.23c1.35-.27-1.42-4.67-2.44-5.65l-4.59-4.45c-1.19-1.16,2.55-3.37,5.26-5.27,1.5-1.13-1.83-5.04-5.17-6.49l-.74-66.67,516.57-358.42,11.05,112.62ZM1278.98,835.66c4.19,4.09,7.03,8.11,9.83,14.54l-109.7,63.35c-6.95,4.01-14.99.67-16.57-7.03l116.43-70.86ZM1101.02,1087.26c0-5.22,5.64-10.91,10.09-10.64l13.66.85,1.59,126.57-25.41,13.79.07-130.58ZM1121.64,1071.83l.51-7.98,1.17-2.59.49-18.84,31.79,2.45c-2.36,10.79-1.49,17.48,4.36,27.24l-38.32-.29ZM2506.74,459.3l-40.39,18.3-38.52-184.77c-14.81-7-29.27-11.71-45.76-15.89l41.32-23.82c1.78-8.68-2.31-19.5-9.28-25.91l34.35-19.94,58.28,252.03ZM2442.7,181.61l4.54,21.76-36.76,21.33c-1.83,1.06-8.65-.27-8.89-2.22l-1.97-15.78,43.08-25.09ZM2394.69,208.92l1.66,13.95-22.93-1.4,21.27-12.55ZM2396.74,225.72l12.76,4.14c4.96,1.61,8.98,6.32,8.62,9.94-23.23-10.89-43.28-5.66-49.64-13.9l28.27-.18ZM2368.1,247.84c-2.94-10.56-9.33-18.24-18.11-26.59,14.04.27,23.79,13.59,18.11,26.59ZM2343.68,195.66c1.33-.62,5.46,1.92,6.07,3.39l7.33,17.46c-8.41,2.12-4.25-10.91-18.19-18.61l4.78-2.24ZM2063.92,362.22l269.51-159.86c6.01-1.9,13.37,6.03,14.83,12.21l-10.92,1.63-224.4,129.04-198.71,113.85c-8.73,5-13.91,7.11-12.58,19.41l-28.32-3.39,190.6-112.88ZM1865.46,471.87c.29-1.44,5.97,1.66,5.64,3.09-.33,1.43-1.35,2.76-5.46,6.57-.5-1.79-.71-7.07-.18-9.66ZM1841.3,491.14l16.29-5.42,36.19,2.62-76.62,44.12-5.57-38.86c9.53-4.59,20.01-4.84,29.72-2.46ZM1813.19,534.18l-17.99,10.63-4.9-37.98,17.78-10.24,5.11,37.58ZM1807.48,491.04l-18.01,10.95-14.79-125.5,16.85-11.15,15.94,125.69ZM1997.16,222.42c3.28-14.7,1.2-29.24-4.32-45.81l31.85-2.49c5.68,15.89,4.05,32.47-3.93,48.63l-23.59-.32ZM2092.68,176c4.47,1.6,10.55,7.59,12.15,13.7,6.04,23.02-4.31,48.51-24.45,60.47-10.98,6.52-25.78,3.35-29.28-10.85,13.51,4.05,27.47,4.11,36.28-7.68,6.91-9.26,9.15-22.13,6.9-33.45-1.98-9.99-9.34-15.62-19.59-17.69,3.77-4.26,12.44-6.47,17.99-4.49ZM2082.79,189.62c9.53,2.62,8.66,16.87,6.94,25.09-3.45,16.47-17.03,25.23-32.08,19.94l-17.35-6.1c16.7-11.38,19.22-26.95,15.95-46.22l26.54,7.29ZM2051.83,180.57c7.2,16.9,2.52,36.64-14.58,46.35-3.29.69-11.29-2.01-14.2-3.54,7.79-15.97,10.21-30.49,5.28-48.34l23.51,5.53ZM2031.38,149.86c4.51,3.18,7.64,10.44,8.79,18.51-12.45,5.88-10.44-10.1-29.47-18.12,6.85-3.55,14.85-4.5,20.68-.38ZM1993.41,152.81l20.15,6.42c2.94.94,7.84,5.14,9.84,7.31l-30.7,2.39.7-16.12ZM1995.35,223.23l-15.02,4.26c-.6.17-2.97-2.81-3.44-3.24-.45-.4-2.06-.55-1.86,0l1.87,5.02-14.32,8.76c-13.73-6.41-21.36-18.82-21.59-34.45l21.67-14.48c1.91,13.49,4.27,24.72,12.12,35.02l-10.53-36.63,26.57-10.39c4.48,16.67,5.09,29.39,4.52,46.14ZM1789.24,307.35c-1.35-1.8-1.89-7.49-1.75-12.08l116.56-86.82c11.78-7.7,22.92-14.47,37.86-14.58l-152.66,113.48ZM1990.02,151.04l.39,18.35-25.95,10.02c3.67-12.43,6.42-22.75,1.22-36.16l24.34,7.79ZM1962.53,142.04c3.84,12.77,5.31,27.39-2.64,39.82-4.43,6.93-18.84,5.68-24.76,4.82,3.71-16.42,2.14-29.02-3.93-43.16,10.52-2.17,20.31-3.04,31.33-1.48ZM1928.81,144.23c6.15,15.01,8.36,28.17,3.18,43.42l-16.01,5.57c-6.56-11.48-10.44-23.4-12.09-38.24l24.92-10.75ZM1818.9,177.8l32.1,8.66c-.39,1.1-6.2,6.42-8.55,6.04l-27.17-8.09-.42-6.09c-.06-.89,3.09-.78,4.05-.52ZM1810.15,187.68l-.85-7.93c3.59,0,6.85,5.23.85,7.93ZM1813.41,187.33l27.55,7.4c-7.3,8.04-12.67-.2-18.4-1.83-3.55-1.01-8.77.02-9.14-5.57ZM1833.12,200.53l-7.38,6.55-.58-6.99c-.11-1.33,3.73-.66,7.96.44ZM1541.81,427.84c.26.95-3.29,5.42-4.97,5.13l-21.62-3.8c.44-1.32-.56-4.36-1.19-6.92l27.78,5.59ZM1509.39,432.66l5.42-2.93c.2-.11.33-.3.41-.55l19.07,8.32-24.9-4.84ZM1527.59,440.89l-8.96,5.72.38-8.37c.06-1.39,4.49.74,8.58,2.66ZM1308.11,592.93c-1.06.12-.36-5.76.68-5.56l22.75,4.37c-1.34,2.6-6.01,6.4-8.37,5.34l-10.47-4.67-4.59.51ZM1316.25,605.09l-.5-7.46,5.08,2.11c2.06.86-4.58,5.34-4.58,5.34ZM1141.25,445.76c3.46-1.52,12.26,2.58,12.31,8.14l2.56,274.17c-2.05,8.7-13.03,12.96-21.74,11.36l-.39-281.93c0-5.6,3-9.87,7.26-11.74ZM1152.68,740.45l90.95-70.14-6.34,15.68,13.77-2.55-.1-6.43,26.15-19.99-2.93-2.49-22.99,17.78c-.75.58-3.02.89-3.36.16l-2.01-4.3,115.39-89.39,287.57-223.9,165.11-129.02c1.1,8.61,2.18,13.42,4.53,17.86-.62-7.44-1.25-15.35-.89-21.51l61.38-47.73c2.35,12.15,5,23.46,16.44,27.1-8.1-8.82-13.72-17.89-14.15-29.34l20.32-15.1c2.13,14.64,5.22,24.09,11.9,37.15l-13.21,8.54c-.67.43-4.85-1.64-4.67-.86l.82,3.62-57.66,43.34-9.04,4.48-115.02,87.62-289.83,215.64-274.81,204.52c-2.57,1.92-8.16,2.88-10.37,2.04-1.84-.7-4.87-4.66-4.97-6.75l-.68-13.94,18.71-2.07ZM1784.26,311.44l-17.37,11.9-.92-12.54,17.22-12.11,1.06,12.75ZM1763.13,326.75l-17.88,12.88-1.91-11.7,18.98-13.64.81,12.45ZM1740.49,330.63l-.02,13.16-19.35,13.57-.91-12.4,20.28-14.34ZM1714.52,362.26l-32.3,23.36c-.61-2.33-1.04-8.33-.73-11.49l31.56-23.25,1.47,11.38ZM1675.17,391.44l-510.52,373.73c-4.01-.49-2.63-5.95,1.72-7.66l507.9-377.69c.71,2.86.99,6.58.89,11.62ZM1146.31,779.15l-2.04-6.9,12.99-8.44c3.96,9.57-11.28,14.23-10.95,15.35ZM1139.72,769.94c1.35,2.1,2.15,11.06.12,13.76-3.98,5.3-13,10.59-18.32,13.28,3.5.28,10.93-.22,13.73-2.26l165.35-120.62,637.47-467.88c2.19,15.38,8.73,26.57,21.41,33.59l-281.87,195.89-335.07,232.54-213.08,148.55c-7.67-.25-11.91-9.67-11.82-17.75l3.07-280.48-.77-25.22,7.73,2.73.08,255.07c0,8.58,4.87,15.02,11.97,18.8ZM1121.98,487.18l-70.91-12.96.39-5.35,75.49,13.05.73,4.66c.21,1.36-3.94.92-5.7.6ZM1096.49,364.31l-9.28,12.88c-3.06,4.25-2.99,14.92,1.89,15.66l12.29,1.87c-11.26,15.3-22.38,25.43-19.67,45.94l-31.38-5.18.78-29.32c.27-9.98-8.03-15.75-16.75-17.3l-39.96-7.08-11.64,11.71,9.44,5.99c4.72-4.6,8.44-6.49,12.67-5.76l26.53,4.54c3.31.57,9.63,3.98,9.85,6.98l-.52,28.89-22.3-3.47-1.42-24.81-18.97,21.41-56.32-9.42-.92-20.6c-.37-8.35-2.87-14.15-9.57-19.57l165.24-13.37ZM1044.1,421.29l-.2-16.33c-.04-3.18-5.31-8.36-8.51-8.92l-37.83-6.57-4.84,6.03c-.87,1.09-4.45-2.77-4.45-3.49,3.88-6.06,9.83-7.01,16.36-5.75l30.53,5.88c7.51,1.45,13.06,6.79,12.79,15.17l-.45,14.08-3.4-.1ZM1047.48,422.9l-.09,13.31-3.85-5.95c-1.05-1.63,1.86-5.52,3.95-7.36ZM1016.13,428.56h-2.6s.37-14.22.37-14.22l1.58-1.1.65,15.32ZM1011.77,428.41c.12,2.1-6.95.22-8.59-.87l8.03-8.76.56,9.64ZM914.95,388.26c1.74-6.16,16.08-5.93,17.73.27,3.98,14.98-5.18,33.91,15.31,37.32l179.07,29.76.59,19.06-190.79-31.98c-23.41-3.92-28.43-31.41-21.92-54.42ZM1040.57,472.06l-21.68-3.9-.42-4.58,22.01,3.43.1,5.06ZM911.88,379.74c-5.41,9.38-5.82,16.35-6.37,25.48-1.31,21.94,9.89,41.01,31.99,44.76l73.95,12.54.47,4.29-102.73-18.59c-5.94-1.08-9.26-7.14-9-12.58l1.77-36.5c.36-7.31-3.36-12.52-10.31-17.3l20.22-2.11ZM865.42,427.4c-4.91-3.52-7.99-8.38-8.07-13-.13-6.8,2.14-11.58,8.9-13.9l-.83,26.9ZM899.31,474.34c-14.31-2.61-25.62-12.59-26.66-27.55-1.28-18.39-.91-35.95.39-54.97.28-4.08,9.79-6.95,13.47-5.68,4.64,1.61,8.41,7.23,8.31,12.88l-.78,42.59c-.13,7.03,9.43,12.54,16.05,13.74l206.97,37.52.26,21.21-218.02-39.76ZM1042.81,730.25l1.2-206.66c.02-3.95,1.99-10.13,3.48-14.43l-.66,105.25-1.1,202.08-3.85,1.06.93-87.3ZM1044,819.34c3.68,7.42,5.12,11.2,9.77,17.09l.07,331.26c0,1.26-1.66,5.61-2.1,5.21l-1.92-1.74-.03-334.64c-6.48-4.79-9.79-10.26-5.78-17.17ZM843.89,1021.77c7.68-2.68,16.44-1.96,25.58-1.43l72.12,4.21,36.04,1.8c5.47.27,13.89,2,18.03-3.56l1.07-110.35,1.53-35.6,41.7,3.17c1.58.12,6.34.31,6.45,1.77l.46,6.18-19.02-1.25c-6.18-.41-12.34-.48-16.84,2.72-4.75,3.38-7.14,9.66-7.67,15.7l-1.26,14.32-.38,114.98c-8.83,4.94-17.08,2.17-26.01,1.58l-33.64-2.2-25.01-1.68-70.16-3.79c-.43-.17-3.8-1.42-3.81-1.46-.02-.08.2-1.26.83-5.12ZM843.96,1015.38l31.87,1.07-29.36,1.45c-2.76,2.03-5.44,1.92-2.5-2.52ZM895.84,1017.67l17.11-.44,1.08,1.79-17.11.44-1.08-1.79ZM931.81,1019.65l19.11-.41,1.08,1.81-19.11.41-1.08-1.81ZM961.35,1021.77l30.46-.95.08-137.59c0-3.64,2.44-8.6,4.25-10.67.16-.18.41-.24,1.2-.6l6.7.05c-5.33,1.46-10.05,4.42-10.06,9.58l-.31,141.63-30.87.2-1.47-1.64ZM1013.74,873.77l11.11-.54,1.1,1.7-11.11.54-1.1-1.7ZM1038.85,859.24l1.08,1.79-17.11.43-1.08-1.79,17.11-.44ZM1014.86,857.23l1.1,1.7-11.11.54-1.1-1.7,11.11-.54ZM975.75,1005.83l.18-109.47,1.89-1.19.03,112.67c-4.92,2.55-7.5.99-2.11-2.02ZM932.93,1005.23l1.09,1.74-13.11.5-1.09-1.74,13.11-.5ZM898.95,1003.23l1.1,1.7-11.11.54-1.1-1.7,11.11-.54ZM866.97,1001.23l1.1,1.7-11.11.54-1.1-1.7,11.11-.54ZM803.83,1002.94l166.07,10.3c6.41.4,11.77-3.16,11.8-10.22l.51-143.12,64.43,6.14.02,6.54-50.6-3.95-1.88,1.73-4.36,5.16.08,137.47c-.56,1.81-1.22,5.12-2.41,5.47-1.58.47-4.78.4-7.66.25l-130.89-7.04c-7.89-.42-14.1,7.56-13.71,15.6l-32.02-.95.62-23.37ZM801.39,951.92l.25,14.61c-6.13-4.23-5.62-10.34-.25-14.61ZM797.87,987.58l1.01-19.81c4.66,4.76,3.06,9.45,1.48,13.91l-1.22,45.13c-6.97-13.46-1.95-26.2-1.28-39.24ZM820.81,1030.45l99.28,5.41,29.86,1.93,34.18,2.38c7.03.49,21.43.91,21.48-11.32l.43-123.31c.02-6.17,4.48-14.62,10.02-15.39,11.47-1.58,21.1-1.99,32.04,3.87l-24.59-.27c-2.39-.03-7.85,1.06-9.51,2.71-1.94,1.92-3.83,7.5-3.86,11.1l-1.14,127.09c-.11,11.88-19.86,11.86-26.65,9.01l-36.3-1.84-32.03-2.09-134.08-6.92-40.01-2.07-36-1.86-41.91-2.16-37.97-1.97-37.97-1.99-37.98-2-35.96-1.9-41.9-2.36-28.19-1.08-236.31-12.52-33.13-2.93c11.35-5.1,20.58-2.02,31.36-1.45l230.65,12.04,57.69,2.73,25.9,1.37,32.95,1.74,40.11,1.88,33.04,1.69,36,1.84,41.91,2.16,37.99,1.96,33.88,1.76,46.74,2.76ZM797.81,1045.61c-2.16.13-2.13-8.37.03-8.29,3.03.14,2.91,8.11-.03,8.29ZM482.66,1029.83l-4.58-3.7c-.91-.73,1.3-4.38,2.88-5.94l1.7,9.63ZM211.56,1465.46l-33.71-.23-2.97,42.04c-3.88-15.87-4.73-28.46-5.85-44.86l43.6,1.29-1.08,1.76ZM212.37,1467.85l-2.09,36.47-31.73,1.62,1.39-37.89,32.43-.21ZM189.37,1452.81l-10.7,2.32,15.17-9.02c11.34,1.36,18.76,3.85,16.71,12.77l-28.54-.05,8.59-4.28-1.23-1.74ZM211.02,1419.17l-2.04,25.96-13.17-3.99,8.77-123.44c-2.49-5.16-3.66-10.74-3.06-17.04l22-229.88,4.46-41.43,16.44,1.17-19.28,218.89-2.19,25.92-2.01,23.97-2.03,23.98-1.88,22.04-1.96,23.15-2.03,24.84-2.03,25.85ZM171.39,1022.02c7.53-8.67,16.82-3.41,24.95-2.99l106.3,5.6,51.74,2.4,27.94,1.85c7.81.52,13.82-1.14,21.1,6.7l-17.55-1.41-39.48-2.5-29.94-1.75-145.06-7.9ZM174.45,1012.35l.13-5.9c.03-1.31,4.29-1.33,5.66-1.23l20.48,1.44,25.78,1.44-.17,8.61-45.85-2.29c-1.68-.08-6.06-.77-6.03-2.06ZM228.41,1016.85l.18-8.78,17.94,1.15-.12,8.58-17.99-.95ZM248.49,1018.22l.8-8.83,30.99,1.55c1.57.08,2.44,4.18,2.14,8.84l-33.92-1.55ZM324.42,1022.01l-39.44-1.92c-.33-2.75.94-8.66,2.79-8.57l58.34,2.9.58,8.67-22.27-1.08ZM444.35,956.44l-26.14-1.56-33.85-2.18-27.79-2.27.25-9.6,31.42,1.99,31.95,2.02,30.05,1.9,28.96,1.83-.2,9.82-34.64-1.96ZM478.6,962.82l-15.33.7-1.01-1.77,12.92-.61,3.43,1.69ZM458.41,961.14l-31.12.3-1.09-1.88,31.12-.3,1.09,1.88ZM424.43,959.13l-29.12.31-1.09-1.87,29.12-.31,1.09,1.87ZM392.45,957.1l-25.12.34-1.08-1.85,25.12-.34,1.08,1.85ZM402.42,962.05l31.92,1.87,37.11,2.48c2.11.14,6.12-.57,6.35.67l1.07,5.7c.31,1.65-4.09,2.78-6.53,2.64l-117.48-7.05.2-8.66,47.36,2.35ZM468.39,979.09l-23.12.36-1.08-1.84,23.12-.36,1.08,1.84ZM434.42,977.1l-25.12.34-1.08-1.85,25.12-.34,1.08,1.85ZM398.44,975.07l-21.11.38-1.08-1.82,21.11-.38,1.08,1.82ZM365.37,971.23l1.1,1.7-11.11.54-1.1-1.7,11.11-.54ZM477.89,983.85l-.8,24.98-42.82-1.96-82.57-4.19,2.25-26.02,123.93,7.18ZM352.54,950.29l-32.07-1.85-27.09-1.52-.64-10.06,35.43,2.01,25.45,1.56-1.09,9.86ZM352.69,954.83l-15.32.68-1.02-1.77,12.95-.57,3.39,1.66ZM332.51,953.13l-29.12.31-1.09-1.87,29.12-.31,1.09,1.87ZM299.44,949.26l1.09,1.87-29.12.31-1.09-1.87,29.12-.31ZM289.59,946.4l-35.29-2.09,1.72-9.79,34.03,1.9-.46,9.98ZM266.55,949.28l-32.02-.15.92-1.77h30.03s1.07,1.92,1.07,1.92ZM185.82,910.55l68.86,5.35-.76,10.1-18.69-2.46-50.88-2.02,1.47-10.97ZM184.98,904.09l35.52,1.87,26.1,1.51c4.3.25,6.19-.5,9.97,3.92l-28.17-1.44-20.84-1.72c-7.67-.78-15.17.43-22.59-4.13ZM244.58,929.13l-29.12.31-1.09-1.87,29.12-.31,1.09,1.87ZM210.6,927.1l-25.12.34-1.08-1.85,25.12-.34,1.08,1.85ZM232.03,933.16c.51.91,2.47,4.52,3.14,3.87s3-3.1,3.97-3.06l13.08.62-.04,7.58c0,1.78-5.65,1.97-7.82,1.83l-61.99-3.87.53-10.15,49.13,3.18ZM234.4,945.66l-.94,1.81-32.91-.44.96-1.82,32.89.44ZM200.47,943.7l-.99,2.02-17.3-1.47,18.29-.56ZM209.74,950.39l82.59,5.06,22.15,1.35,37.43,2.54-.86,8.49-28.55-1.5-31.22-1.87-1.67-7.24-2.71,6.05c-.55,1.23-4.38.19-6.71.06l-97.5-5.31c-2.33-.27-2.36-8.31-.74-9.4l27.78,1.78ZM208.26,964.49c14.23-2.14,28.61-2.05,42.47,2.38l-42.47-2.38ZM249.96,970.11l-.34,7.78-.57,1.57-1.06,17.57-17.93-1.18,2.84-26.83,17.06,1.1ZM250.82,982.01c0-.25.77-2.03.84-2.18l1.32-9.36,34.73,2.32-2.95,26.2-34.25-1.8.31-15.17ZM252.42,965.74l12.95-.57,3.39,1.66-15.32.68-1.02-1.77ZM274.32,967.58l27.12-.33,1.08,1.86-27.12.33-1.08-1.86ZM290.14,972.96l60.16,3.71-2.01,25.69-61.4-3.29,3.25-26.1ZM306.3,969.58l27.12-.33,1.08,1.86-27.12.33-1.08-1.86ZM201.35,961.18l3.48,1.78-23.36.54-.97-1.86,20.84-.46ZM230.5,969.37l-2.82,26.47-31.03-1.83-20.64-1.22,3.52-26.72,50.97,3.3ZM791.02,963.1l3.3,1.62-11.3.8-1.08-1.7,9.08-.72ZM775.07,961.26l1.08,1.86-27.12.33-1.08-1.86,27.12-.33ZM717.07,959.35h28.03s1.06,1.92,1.06,1.92l-30.02-.16.92-1.76ZM687.1,957.21l28.92.5-.95,1.78-28.91-.47.94-1.81ZM686.05,955.62l-.94,1.73h-28.02s-1.06-1.93-1.06-1.93l30.01.21ZM623.14,953.36h30.03s1.07,1.92,1.07,1.92l-32.02-.15.92-1.77ZM591.2,951.21l30.9.48-.94,1.79-30.91-.45.95-1.82ZM527.26,947.09l32.11,1.14,30.76,1.84-1.01,1.73-38.77-1.88-24.09-1.2.99-1.63ZM494.79,944.99l31.4.81-.99,1.62-32.96-.25c-2.69-4.1-.46-4.65,2.55-2.19ZM516.14,950.88l31.94,1.96,31.97,2.04,28.08,1.85,22.09,1.25,29.07,1.82,32.95,2.06,32,2,31.82,2.05,38.38,2.55-.81,9.45-304.54-19-.62-9.73,27.68,1.7ZM782.14,981.1l-25.12.34-1.08-1.85,25.12-.34,1.08,1.85ZM750.17,979.12l-27.12.33-1.08-1.86,27.12-.33,1.08,1.86ZM716.2,977.1l-25.12.34-1.08-1.85,25.12-.34,1.08,1.85ZM684.22,975.1l-25.12.34-1.08-1.85,25.12-.34,1.08,1.85ZM652.25,973.1l-25.12.34-1.08-1.85,25.12-.34,1.08,1.85ZM620.27,971.1l-25.12.34-1.08-1.85,25.12-.34,1.08,1.85ZM586.3,969.09l-23.12.36-1.08-1.84,23.12-.36,1.08,1.84ZM556.32,967.1l-25.12.34-1.08-1.85,25.12-.34,1.08,1.85ZM524.35,965.12l-27.12.33-1.08-1.86,27.12-.33,1.08,1.86ZM488.9,967.35l304.39,18.99-.17,8.15-305.27-18.42,1.05-8.72ZM732.18,994.97l-13.11.5-1.09-1.74,13.11-.5,1.09,1.74ZM700.2,993.05l-19.11.41-1.08-1.81,19.11-.41,1.08,1.81ZM670.22,991.05l-19.11.41-1.08-1.81,19.11-.41,1.08,1.81ZM636.25,989.05l-19.11.41-1.08-1.81,19.11-.41,1.08,1.81ZM604.28,987.05l-19.11.41-1.08-1.81,19.11-.41,1.08,1.81ZM568.52,984.83l-15.32.68-1.02-1.77,12.95-.57,3.39,1.66ZM534.34,983.1l-25.12.34-1.08-1.85,25.12-.34,1.08,1.85ZM500.36,980.93l-11.11.54-1.1-1.7,11.11-.54,1.1,1.7ZM487.59,984.57l305.88,17.72.25,23.09-27.58-1.46-37.95-2-37.97-2-37.97-2-37.97-1.99-37.95-1.99-33.02-1.69-36.79-1.59-20.5-1.1,1.56-25ZM482.32,944.18l3.23-8.49.88,11.79c-1.77-.91-4.5-2.28-4.11-3.3ZM482.6,949.31l3.67.09-1.91,29.03-2.53,3.44.78-32.56ZM483.99,983.33l.46,23.52-4.06,2.46v-25.98s3.6,0,3.6,0ZM463.29,943l17.34,1.39-18.32.64.98-2.03ZM462.22,941.63l-.93,1.72h-28.02s-1.06-1.94-1.06-1.94l30.01.21ZM429.34,939.26l1.09,1.87-29.12.31-1.09-1.87,29.12-.31ZM369.35,937.35h28.02s1.06,1.92,1.06,1.92l-30.02-.16.93-1.76ZM368.32,935.72l-.96,1.96-29.23-1.19,30.19-.77ZM335.42,933.26l1.08,1.86-27.12.33-1.08-1.86,27.12-.33ZM277.43,931.35h28.01s1.07,1.92,1.07,1.92l-30.02-.16.94-1.76ZM276.42,929.72l-1,1.99-19.29-1.39,20.29-.6ZM324.12,896.76c3.9-3.66,8.89-7.69,14.64-6.89-9.72,8.05-20.47,18.91-33.12,22.26-9.99,2.64-37.74,2.66-47.39-2.25,27.78-2.95,42.68,8.64,65.87-13.11ZM218.21,855.47c12.59.8,18.17,7.35,21.6,20.37,1.15-6.78-1.14-11.53-5.28-19.04l17.33,1.1c9.53.6,8.26,11.86,7.58,17.72l-3.44,29.43-35.04-2.5-34.55-2.4,4.57-46.42,27.23,1.74ZM189.7,597l13.19,82.24c.78,4.85.55,8.68-1.59,15.89l-10.43-68.18-3.61-10.02,2.44-19.92ZM179.02,687.05l3.1,17.72-6.29-.21,3.19-17.51ZM168.67,809.33c1.3-32.57,3.01-63.21,6-95.36l12.43,1.57-16.2,132.91-3.83.85,1.6-39.98ZM165.92,867.38l1.27-16.4,3.57-.07-5.32,46.15c-1.42-9.45-.34-19,.49-29.68ZM157.23,897.28l1.72-27.06,2.61-31.11c1.72,10.44.23,21.03-.36,32.23l-1.66,31.37-6.3,137.46,17.25-148.84,19.6-168.15c1.26-10.78-7.6-28.75-8.67-50.05-.76-15.05,2.61-29.59,4.63-44.29l14.4,84.86-26.32,237.54-22.94,216.51c-3.12-1.88-7.19-6.01-8.34-8.57l4.87-82.72,6.92-135.01,2.6-44.17ZM150.45,947.32l-1.74,8.97c-2.76-2.61-1.21-6.56,1.74-8.97ZM142.49,990.72c4.57-5.61-.88-17.23,5.46-27.36l.62,26.93c.02.75-6.55,1.01-6.08.43ZM144.23,1003.04c.23.49,2.06,4.2,2.76,5.63.71,1.47-4.59,3.01-5.99,2.41l3.24-8.05ZM140.6,1017.69l4.66-1.97c1.01-.42,2.06,3.98,1.03,4.32l-2.82.95c-1.04.35-3.99-2.83-2.87-3.3ZM139.64,1028.43l3.9-4.14c.94-1,2.68,3.62,2.59,5.25l-2.18,41.73-1.56,25.11-4.61,57.22-10.53-10.78,12.39-114.39ZM126.59,1151.2l19.28,21.07c3.92,4.29,5.75,9.24,2.22,15.5l-23.26-24.9,1.76-11.66ZM134.24,1181.38l-4.5,46.41-5.54-55.19,10.05,8.78ZM105.95,1349.35l11.38-116.16c1.26,8.02,3.7,18.69,2.77,25.66l-6.4,47.69-4.63,41.83-3.11.99ZM125.64,1307.29c-13.06,12.38-1.66,31.76-12.5,43.35l8.51-67.85c2.85,7.84,4.24,17.4,3.99,24.5ZM122.23,1235.26c-1.43-10.43-2.02-20.58-.85-29.96l9.89,80.96-1.92,1.11-7.12-52.1ZM131.76,1299.7l-1.55-11.32,1.94-1.05-.39,12.37ZM135.26,1295.81c-.89-14.59-3.27-28.64-2.12-42.38l5.57-66.85,9.7,7.75-11.71,116.2c-8.17-3.56-1.6-10.2-1.43-14.72ZM143.91,1309.05l28.7-282.41,52.6,2.61-22.78,235.82-4.38,47.55c-1.32-.77-5.91-3.28-7.72-3.29l-46.42-.29ZM164.5,1428.1l24.73-1.02,3.5-33.94,2.37-29.78,1.85-26.17,2.86-20.07c.89,8.44,0,16.87-.77,26.21l-1.96,23.98-2.08,27.73-3.55,47.71-6.55-7.81-20.91,6.48.52-13.32ZM185.19,1440.95c-8.19,5.92-15.39,8.67-23.66,9.33,6.52-6.76,15.77-9.75,23.66-9.33ZM163.79,1460.3l2.46,17.04c.17,1.15-4.87,3.81-6.12,4.29.35-8.4.8-14.27,3.66-21.33ZM156.51,1519.44l2.98-34.56c3.37,10.51,3.65,20.64,3.65,33.56l-6.63,1ZM167.48,1517.71l-2.85-31.55c-.04-.34,3.01.28,3.21,1.36l1.25,6.92c1.52,8.39.9,16.15-1.61,23.26ZM172.56,1517.24l.32-7.56,19.42-.87c.92-.04,1.6,3.04,2.27,6.93l-22.01,1.5ZM243.76,1514.66c-3.71.07-7.73-1.11-7.48-5.72,1.16-1.47,8.23-1.87,12.48-.37,2.23.79-1.95,6.03-5,6.09ZM250.3,1518.95l28.11-8.11c-.43.95-2.49,4.28-3.18,4.38l-24.93,3.72ZM263.21,1508.21l1.76-26.92,2.06-27.95,1.92-26,2.07-28,1.94-26.02,2.03-25.99,1.95-24.02,1.95-24,2.07-25.98,2.03-26,1.89-24.28,1.89-35.53c.06-1.21.89-4.39,1.26-5.37.37-.98,3.53.56,4.67,1.03l72.85,1.11,77.55,2.07,76.68,1.43,72.45,1.59,10.07,1.84,78.87.77,59.22,1.22c2.43.05,5.87,3.41,5.45,5.84-17.27.39-33.68.95-50.69-1.19l-82.86-.66-10.08-1.88-78.83-1.35-90.26-1.64-87.85-1.96-52.53-1.19-1.77,24.17-2.05,27.96-1.92,26.01-2.07,28.01-1.95,25.12-2,24.86-2.03,26-1.96,26.01-2.09,28-1.94,25.94-1.98,26.47-2,29.1c-.08,1.13-4.89,1.78-5.8,1.37ZM294.06,1530.46l2.32,14.51.06,23.13-21.07-1.29,3.23-39.42,13.9,1.68-1.97-2.75,1.3-1.38c4.68,2.63,8.83,7.2,10.01,13.67l-7.78-8.14ZM277.94,1524.09l13-.52-1.74,2.42-11.26-1.9ZM298.31,1556.31l1.81-1.08.41,19.13-1.81,1.08-.41-19.13ZM300.34,1580.31l1.9-1.09.24,41.15-1.9,1.09-.24-41.15ZM302.59,1675.46l-.25-31.16,1.86-1.09.3,31.15-1.91,1.1ZM346.39,1677.75l-37.94,1.57-1.64-78.01-1.26-60.25c-.27-13.07-12.05-22.04-27.36-20.51l9.99-11.27-16.43-.75,2.12-27.17,2.02-26.04,1.96-26,2.08-28,1.96-25.99,2.02-26,2.04-25.98,1.89-24.02,2-26.01,2.12-27.99,1.83-24.26.81-27.8,84.94,1.04,89.83,1.96,63.1,1.27-6.49,144.08-16.14,326.25-163.43,9.85ZM743.01,1262.22l-1.34,59.14-2.11,77.96-2.08,76.14-5,178.74-24.45,1.72-27.91,1.97-22.1,1.46-143.25,8.42,21.75-459.73,38.79.32,105.83,1.9,63.15,1.35-1.26,50.6ZM661.25,1206.29l-102.91-1.45-18.08-.9c-1.28-.06-3.88-1.99-3.94-3.12-.06-1.14,3.09-3.34,4.33-3.27l19.59,1.22,79.09,1.53,76.79,1.09c10.2,2.15,20.08.55,31.03,5.03-29.06,1.44-56.85.28-85.9-.14ZM896.46,1618.22l-23.47,1.18-29.12.95c-10.03.33-20.3-1.23-32.2-3.15,10.4-4.26,19.46-5.57,29.57-6.33l54.28-4.09c10.62-.8,21.59,2.27,33.99,5.94-11.05,3.79-21.56,4.92-33.05,5.5ZM849.52,1606.71c6.18-2.19,11.64-3.8,18.41-3.95l26.28-.56-30.05,3.83-14.63.68ZM959.96,1581.66l5.62.85c1.17.18-.86,4.71-2.05,4.72-3.93.06-13.09,1.49-15.99,2.69,7.59,21.23,10.97,47.63-1.07,62.92-1.8-.63-5.09-3.72-6.21-5.53-1.74-2.81,4.07-5.91,5.32-8.1,5.4-9.5,4.7-24.03,1.23-34.33l-10.17-4.68,8.22-11.9c3.96-5.73,7.02-7.85,15.09-6.64ZM938.15,1575.88l35.14-1.45c-11.36,4.39-32.31,6.04-35.14,1.45ZM963.05,1654.87l-12.92.43c10.44-21.67,8.95-40.9,1.42-63.11l11.37-2.1c9.84,21.45,9.29,43.04.13,64.78ZM938.77,1639.17l-.15-6.04-.68-23.75.65-4.9c.2-1.48,5.75,1.48,6.25,2.9,7.51,21.27-5.88,39.54-6.07,31.79ZM937.41,1655.43l7.08,2.19c18.56,5.75,24.76-4.34,24.85-4.3l7.31,3.26,27.47,1.77-39.23,2.6-27.53,1.82c-.45-1.75-1.36-7.77.05-7.33ZM989.51,1653.07l.02-11.19,23.37-1.43,1.51,10.61-24.89,2.01ZM1022.85,1655.22l1.09,1.74-13.11.5-1.09-1.74,13.11-.5ZM1006.1,1637.96l-26.6,2.31,8.36,3.56-12.31,1.87,3.16-9.77,17.24-.89c10.59-.54,20.25-4.99,31.76,1.05l-21.6,1.87ZM986.35,1655.44l-12.23-4.82,11.24-2.51.99,7.33ZM1008.72,1631.64c-11.58.88-21.24,2.59-31.27-.02,18.25-6.17,34.33-4.83,50.94-3.38-5.59,4.03-12.31,2.83-19.66,3.39ZM980.05,1626.76l.24-4.88,25.62-.78c7.31-.22,15.85-6.13,23.9,2.49l-49.77,3.17ZM977.96,1616.62l31.95-3.09,17.86-.1.09,3.43-19.88.97c-9.8.48-19.53,4.61-30.02-1.22ZM1000.02,1611.94c-7.72.5-15.03,2.68-22.8-1.3l14.61-2.24,1.26-.98,26.08-.26c1.13-.01,4.85-1.55,5.88-1.88,1.02-.33,2.16,2.66,2.86,4.84l-27.9,1.82ZM1024.76,1604.17l-32.16,1.75-1.82,1.81-14.98-2.82,24.84-2.93,25.56-.47-1.45,2.65ZM976.09,1600.53l7.79-4.69c-3.65-.88-6.1-1.45-9.5-3.16l37.8-2.1c2.42-.13,5.99-.28,7.59.49,1.92.92,4.45,5.97,4.62,7.47l-48.3,1.99ZM974.84,1637.84l-4.28-45.11c7.34,9.9,8.29,31.95,4.28,45.11ZM1023.75,1671.41l-86.08,6.36-.81-9.85,87.09-5.62-.21,9.11ZM1017.45,1650.36c.88-4.51,6.91-4.09,8.07.61l-8.07-.61ZM1046.26,1634.63c-15.44-3.19-15.49,6.69-21.6,8.97-2.21.82-8.4-2.03-8.65-3.38,2.75.16,10.38.51,11.62-1.63,5.56-15.44,4.19-36.72-3.29-50.26,11.92-2.97,19.98,1.98,22.87,11.94,3.22,11.1,2.78,24.23-.95,34.35ZM1029.64,1582.22l-18.29,3.71-41.08,2.54c-.62-.26-2.62-3.41-1.93-4.19l4.11-4.63c1.2-1.36,2.52-5.23,2.13-6.86-.49-2.04-4.81-5.46-7.19-5.43l-27,.38c-2.59.04-7.19,6.24-6.19,8.61,1.01,2.37,5.2,4.95,9.03,7.25-5.4,6.86-10.07,15.3-11.62,23.97l-21.72-3.51c-6.04-.98-9.74-2.57-15.36-5.46-5.09-2.62-15.13-.42-24.52.94l.04-88.5,20.25-11.45c8.07-4.56,11.43-14.55,11.93-24.19,1.26-23.96-33.55-22.26-61.97-17.83-4.75.74-10.15,4.12-12.48,7.6,9.52-4.67,16.17-5.92,26.35-6.46,15.4-.81,37.75-3.47,43.83,7.97,6.74,12.67-2.38,29.68-20.81,37.82-6.68,2.95-11.42,6.97-11.34,14.71l.38,72.26c.51,1.29.83,7.7-.8,7.93l-7.34,1.03-.2-89.49-28.18-13.68c5.89,7.41,15.52,10.16,23.92,15.02,5.39,10.77.67,24.94.75,36.91l.33,50.4-8.49,4.15c-19.73,9.64-40.32.76-40.69,19.52l-.54,27.48-29.07,2.09-19.89.53,1.06-75.24,1.98-81.96,2.07-81.65,1.89-86.31,2-72.02,1.55-62.65-7.64-4.61c-.41-5.5-3.32-7.54-8.15-7.3-4.19.21-5.28,3.08-4.82,10.09l-31.81-1.74-69.17-1.57-71.98-2.01-77.93-2.01-81.5-2.08-76.28-1.91-52.45-1.17-1.82,26.15-1.97,27.98-2.09,27.97-1.92,24.01-2.08,25.99-1.92,24.02-2.01,25.99-1.94,26.02-2.09,27.99-1.95,26-2.14,27.69-3.39,41.93-5.81-8.24-20.18.67-2.23,10.89-32.36.58c1.17-4.82,3.71-6.97,7.58-7.06,1.92-.05,7.51-1.58,7.64-3.24l2.04-25.07c.2-2.5,8.59-2.99,9.14-1l-3.36,32.14c-8.12-1.39-2-.21,2.73.72l3.56-37.74-10.53.23-3.47-20.57c-1.84-10.93-1.32-20.76-.37-31.92l2.04-23.91,2.25-28.36,29.07-338.9,33.32,1.74c1.68,5.13-.06,11.49-3.65,16.51l-2.23,16.45c-.33,2.43,3.08,7.57,5.17,8.46,2.44,1.04,8.81-2.51,9.5-5.11,5.52-20.7-7.69-24.75-4.69-36.08l37.96,1.82,23.32,1.53c-2.04,6.56-2.51,15.46,1.21,20.97l21.09,1.56,23.73,1.76c1,6.92,5.61,11.05,12.39,11.45l24,1.41,39.83,2.18,38.08,2.07,176.13,8.74c8.08.1,8.43-20.85,2.16-21.45l-36.39-3.48-30.09-1.84-35.87-2.19-22.07-1.48-155.86-8.75c-4.43-.25-8.94,4.63-11.11,9.31l-34.56-.66c-3.1-.06-9.4-2.01-10.9-4.34-1.72-2.66-.54-9.45.96-14.63l21.76.69,29.9,2.14c1.76.13,5.3-1.42,6.43-2.61,1.41-1.49-1.88-7.81-4.08-8.08l-28.08-3.47-24.47-1.71.58-8.21,91.63,4.36,33.63,1.87c.23,6.38.25,8.26,1.05,9.77.81,1.51,7.18,1.39,7.42-.31l1.24-8.8,22.51.99,41.89,2.09,38.01,1.9,41.91,2.14,36.02,1.88,37.98,1.99,37.94,2,40.14,2.13c3.64.19,10,.62,10.62,3.31l1.44,6.24c.38,1.63,6.89,2.39,7.21.75l1.71-8.88,31.61,1.44-1.01,85.57-1.08,29.99-.74,114.17c-.03,4.26-1.39,7.58-3.84,8.85l-1.68.48-.31,5.21c-.08,1.27,3.46,1.93,5.64,2.67-.07,9.01,1.36,23.1-.97,31.02-3.16,10.73-2.18,14.27.61,24.17,5,17.73-2.97,44.86,4.5,51.09,5.39,4.5,18.61,2.63,25.84-4.49,3.02-2.01,9.95,2.83,13.24,7.47l75.14-2.08c8.54-.24,14.48-12.9,16.68-18.31l1.84,16.53c.16,1.42,4.85,3.72,5.97,2.83,1.12-.88,3.68-4.3,3.69-5.75l.13-18.37,45.38-1.6c12.17-.43,20.86-7.59,24.55-20.06l26.2.26c3.08-10.05,4.66-18.99,5.22-32.13l-68.71-.5.91,32.56,25.15-.07c-1.45,3.37-6.13,9.56-9.29,9.69l-19.71.86.12-68.12c0-4.18,3.2-13.22,4.45-17.51,3.65-2,8.02-11.82,4.16-12.78l-25.18-6.28-.21-17.47c-1.76-13.34-3.21-26.52,4.6-38.58,7.99-2.1,20.57-1.94,28.41-.55,3.37,9.2,8.3,15.61,15.61,18.15,9.36,2.14,18.44.41,24.65-7.21,14.89.15,23.3-8.3,30.39-23.07l.37,34.79-37.12,8.32c-9.94-4.34-18.62-7.17-27.63-.46-7.08,5.28-12.02,13.75-11.14,24.37.84,10.2,7.17,18.26,15.5,21.85,9.96,4.29,17.05-2.01,25.97-6.74l34.31-5.57,1.79,170.49-.21,41.24c-4.13,0-9.14.06-9.24,1.84l-.48,8.05c-.13,2.26,5.48,2.58,9.73,2.58.86,14.41-.84,30.55,2.23,44.87,4.09,19.05,11.07,44.22-3.76,56.05-7.2,5.75-14.94,5.06-23.43,5.22l-21.62.4c-4.68-8.16-11.41-13.31-20.63-11.44ZM286.43,1047.91l.44,15.09c.04,1.26-1.25,5.58-2.49,5.67l-5.96.44.22-17.24c.01-.85,1.12-3.24,1.55-3.97.65-1.1,6.21-1.27,6.24,0ZM396.63,1056.66c1.82-4.13,6.32-6.17,11.68-5.86l151.78,8.55,22.09,1.34,35.83,2.14,34.25,2.04c9.25.55,22.72.38,31.05,3.36,2.04.73,1.68,11.47-.48,11.84l-9,1.55-169.6-8.76-36.06-2-38.14-2.11-29.83-1.85c-3.17-.2-4.72-7.6-3.56-10.22ZM1063.39,1260.92l-21.92,2.82c-8.58-3.14-10.54-19.82-1.5-24.07,5.9-2.77,15.31-3.1,21.34-3.72-3.76,9.24-3.98,16.59,2.08,24.97ZM1037.83,1269.03c-10.9-.91-15.86-14.67-12.66-23.31,4.03-10.88,12.85-19.6,24.95-15.38-9.65,2.28-17.94,5.25-21.02,13.52-3.45,9.25.73,17.5,8.73,25.18ZM1052.83,1637.68l-1.05-1.95,12.93-.56,3.41,1.62-15.29.89ZM1078.46,1629l-24.55,1.54-.3-30.51,22.07-1.07c5.82,9.36,5.5,19.16,2.78,30.03ZM1081.57,1634.7c15.45-1.68,27.88-3.8,39.54-11.36l.46,8.69s-25.49,4.85-40,2.68ZM1120.08,1611.8c-4.04,13.89-24.45,15.57-35.52,15.35,1.5-9.92,1.22-18.4-2.29-27.72,13.57-1.03,24.62-10.12,26.94-25.17l12.54-.98c-.6,12.75,1.96,26.03-1.67,38.52ZM1109.92,1571.06c1.38-13.95-1.28-25.45-4.61-39.08-3.34-13.64-2.01-28.07-2.17-43.3l17.94-.47-.32,44.13,1.54,38.71h-12.37ZM1089.26,1480.2c11.26-3.27,21.54-2.05,33.76,1.04-11.08,3.51-22.19,5.28-33.76-1.04ZM1142.83,1267.2c5.19,6.53,14.11,8.12,24.19,3.45l2.16,90.69.54,102.83c-6.34,3.2-8.34,5.64-8.36,15.91l-25.49-1.36-1.42-103.5-.71-125.92c0-1.34-.06-5.35.96-5.67l4.98-1.55c-3.55,10.25-2.32,18.25,3.14,25.13ZM1476.83,1174.82l164.77-33.74c-6.97,15.16-3.76,31.33,7.95,41.8l-277.06,45.24-186,30.69-29.47,5.48c-3.72.69-8.22-6.96-8.85-10.63-.64-3.67,1.32-12.68,6.53-13.73l322.15-65.11ZM1158.09,1230.23c.37-.24,5.95-3.83,7.41-4.77,1.75,4.87-1.39,8.49-7.41,4.77ZM1743.98,1164.31l-84,14.41c-13.43-6.6-16-27.53-5.39-38.12l82.92-17.38c-5.11,13.94-3.65,26.64,6.48,41.1ZM1841.88,1114.87c-5.91-7.55-12.84-9.22-24-9.69,3.73-5.35,9.84-9.49,16.16-9.41,4.99.06,12.18,4.02,15.88,9,14.5,19.48,13.88,47.26-.98,65.67-9.13,8.41-22.11,11.44-30.39-1.66,10.68-.25,21.16-3.18,26.91-13.27,7.22-12.66,5.3-29.28-3.59-40.64ZM1828.86,1114.11c16.69,6.6,19.77,33.42,4.88,44.75-7.95,6.05-21.37,2.5-29.39,1.68,6.62-17.24,7.34-32.32-1.36-47.35,8.19-.3,18.59-1.95,25.87.93ZM1799.65,1161.52l-38.69,2.32-9.32-8.89,5.57,10.67c-27.73-13.14-13-49.47-8.84-47.88l3.48,1.33c11.14-8.2,29.35-7.36,44.91-6.23,13.95,13.58,12.79,34.56,2.89,48.68ZM1210.18,1476.68c2.37-.87,3.48-4.38.48-8.37l29.87-2.09,47.97-1.01.71,7.8-36.34,1.99-29.46,2.56-15.11,1.66c-.21.02-1.46,1.89-1.65,2.14-1.75,2.46-7.19,6.23-10.35,5.75-4.53-5.3-4.86-15.84.62-20.36,1.79-1.47,8.96-1.31,9.7.89.94,2.79-.23,5.58-2.71,11.33l6.26-2.29ZM1242.73,1444.69l-.41-12.66,20.71-.77,1.56,8.19c.9,4.73,23.06-4.62,23.38,12.58-1.63,2.61-3.75,6.55-5.45,10.84l-52.83.86-21.78,1.59-.11-43.41c6.81,7.34,5.57,13.28,6.04,21.63l24.98-.95c.26,1.03,3.53,5.68,4.97,5.54l19.9-1.81-20.96-1.63ZM1344.78,1460.29l39.43,1.67,38.08-1.62c-1.69,2.85-5.84,4.94-8.68,4.92l-56.06-.53-33.88-2.01-37.38-2.22c4.21-6.14,10.84-1.86,15.6-1.69l42.89,1.49ZM1329.56,1453.73l12.95-.57,3.39,1.66-15.32.68-1.02-1.77ZM1395.61,1453.71l26.02.35-18.16,2.82-40.1-.37,32.24-2.81ZM1381.45,1449.64l19.11-.41,1.08,1.81-19.11.41-1.08-1.81ZM1511.47,1459.54c34.5.7,67.44,2.55,101.62-.52l36.28-3.25,163.8-14.74,29.73-2.59c3.93-.34,6.16-.62,8.37,2.83l-122.26,11.37-27.7,2.19-24.22,1.91-23.83,2.35c-50.53,4.99-98.98,6.12-149.7,4.24l-59.9-2.22-18.33-3.3,86.14,1.74ZM1427.41,1445.62l21.12-.38,1.08,1.82-21.11.38-1.08-1.82ZM1761.05,1439.64c-7.27,3.4-14.92,3.46-23.89,3.98l-39.76,2.34-10.25-1.48c-9.13,2.51-21.69,6.09-30.57-.66l32.54-3.82,71.93-.37ZM1697.17,1435.42l107.05-.11,1.14,1.96-107.05.11-1.14-1.96ZM1647.12,1438.38l20.05-1.76,20.01-.32c-12.94,3.96-26.31,3.86-40.06,2.08ZM1650.36,1442.65l1.15,4.77-28.52-.81,27.36-3.96ZM1621.03,1443.2c5.52-4.21,11.14-5.07,20.15-2.59l-20.15,2.59ZM1637.51,1451.98l-21.16,2.67-34.96,2.22-32.14-.22,36.18-3.58,23.81-1.37,28.26.29ZM1599.55,1444.11l-26.29.5,44.09-5.14.02,3.22-17.83,1.42ZM1583.68,1447.84l16.68-.71,1.1,1.67-10.07.66c-18.04,2.95-34.93,5.36-52.14,2.96l24.13-2.6,20.3-1.99ZM1539.49,1448.83l-33.02,2.28c-15.49,1.07-28.68,3.12-43.12,1.39l30.12-2.79,19.92-1.78,28.05-2.2,30.11.61-32.05,2.5ZM1527.63,1442.06l-20.32,1.62-34.99,2.2c-6.33.4-13.15,3.81-18.34-1.51l29.57-2.55,25.89-1.01,30.06-2.09c7.58-.53,13.69-1.53,20.28,1.94l-32.15,1.4ZM1830.16,1461.11l4.66,46.01c-4.18-7.41-3.87-16.27-3.78-25.81-1.18-6.79-2.04-13.19-.88-20.2ZM1783.59,1490.32l-2.04.99.7-22.27,1.34,21.28ZM1783.25,1453.46c-.32-1.67,7.01-2.44,9.37-1.38,1.43.64-.55,5.45-2.2,5.43-2.18-.03-6.7-1.52-7.18-4.05ZM1784.45,1491.37l1.84,21.94-2.82.06-.33-21.02,1.31-.98ZM1785.47,1461.69l40.9.74,2.58,30.15c-3.4.75-13.32,3.82-17.81,3.66l-23.02-.85-2.64-33.7ZM1798.19,1450.41l26.77-2.2.25,9.43-26.89-.53-.12-6.7ZM1828.8,1495.23l1.14,13.57-40.2,4.5-1.05-15.08c13.8,2.26,26.6,1.64,40.11-2.99ZM1671.42,1505.15l-1.66-21.91-.89-21.67,29.1-2.11,5.71,46.64c-11.29,1.7-21.06,1.25-32.26-.95ZM1703.56,1522.99l-30.42,3.36-1.79-17.53,31.83.9.38,13.27ZM1610.5,1467.29l48.66-4.4,3.99,45.11-32.05-1.61-17.33,3.27-3.27-42.37ZM1608.27,1535.05l-1.96-32.88c-.71-11.86-1.49-22.9-.71-35.62l3.41,28.86.92,18.72c.36,7.24,4.56,14.33-1.67,20.92ZM1634.79,1509.88l28.13,1.48,2.04,16.02-50.79,5.82-.7-20.46,21.33-2.85ZM1663.75,1481l.46-19.89,2.7,20.62c1.03,7.87.41,17.17-.44,25.27l-2.72-26.01ZM1669.38,1509.33l-.88,17.99-2.97-17.96,3.86-.03ZM1702.94,1472.37l1.86-1.18,4.66,34.08c.02,5.91,1.16,11.06-1.03,17.06l-5.49-49.95ZM1707.26,1458.16l30.87,2.2,3.4,30.82-26.23-2.99-.09,2.57,22,2.67c1.78.22,5.72,1.49,5.11,2.77-.61,1.27-3.31,3.71-5,4.03l-24.88,4.76-5.17-46.83ZM1742.33,1502.31l1.16,15.9-29.24,3.29-1.31-13.34,29.39-5.86ZM1743.14,1476.33l1.7-1.1.54,11.12-1.7,1.1-.54-11.12ZM1745.93,1489.41l3.29,22.17c.17,1.11-.57,5.97-.63,5.91-.05-.05-3.54-2.66-3.52-3.33l.86-24.75ZM1746.85,1460.17l29.06.61,3.85,36.37-29.25-.42-3.66-36.56ZM1747,1456.57l30.53-3.37-4.25,4.56-26.28-1.2ZM1779.29,1499.51l1.79,14.28-28.1,3.29-1.76-17.16,28.07-.41ZM1577.94,1518.31c6.95.88,16.48-2.07,26.56-2.96l.79,18.96-55.83.52-1.39-20.3,29.87,3.78ZM1546.56,1469.86l54.4-.93,3.4,42.96-23.08,3.02-32.94-3.8-1.79-41.24ZM1545.03,1517.3l.57,12.96-1.66,3.39-.68-15.33,1.77-1.02ZM1541.64,1501.46l-.3-31.15,1.87-1.09.3,31.15-1.87,1.09ZM1539.53,1512.67l1.32,20.85-18.46-1.41-.12-20.25,17.26.8ZM1522.13,1507.62l-1.79-39.59,16.99.98,1.15,40.27-16.34-1.66ZM1518.56,1531.57l-2.5-24.48-.68-38.72,1.64-1.1.91,28.24c.41,12.57,2.44,24.29.62,36.07ZM1499.89,1511.02l13.45,2.5.32,17.34-50.84-4.91-.93-16.05c13.36-3.8,24.91-3.14,38,1.12ZM1459.88,1465.28l51.39,2.16.71,21.82,1,19.95c-6.83.2-12.36-.37-18.29-3.02-6.66-2.97-12.43-2.16-19.77-1.74l-13,.75-2.04-39.93ZM1457.54,1512.42l-1.9.08-.5-42.19c-2.85-3.21-1.9-5.73,2.23-3.07l.17,45.18ZM1436.09,1480.6l-.95-15.8,15.16,1.31-14.21,14.49ZM1450.65,1471.79l1.62,31.81-14.06-1c.05-11.62.47-22.89,12.43-30.81ZM1452.8,1507.63l.49,17.44-14.6-.73-.54-17.53,14.65.82ZM1433.62,1496.36l-1.79,1.08-.43-17.12,1.79-1.08.43,17.12ZM1376.81,1592.13l19.86.09c9.47.04,19.55-3.91,30.23.2-16.92,5.03-33.2,4.14-50.09-.29ZM1383.37,1645.38l-2.23-1.07-1.08-15.43.32-31.75,2.68,26.55.31,21.7ZM1377.54,1534.42l1.66-1.16,1.03,33.85,1.19,20.12c-1.67-2.97-3.85-7.77-3.85-10.24l-.03-42.56ZM1384.23,1587.67l-1.6-53.51,18.69.71,27.66-2.14,1.96,53.01c-15.31,3.32-31.17,4.92-46.71,1.93ZM1374.17,1529.35l.36,28.4,2.22,60.26.76,27.09-80.72-16.21-4.18-110.55,83.79,8.11,50.43.9c-17.08,7.59-33.44,3.71-52.65,2.01ZM1293.51,1478.32l1.79-1.08.43,17.12-1.79,1.08-.43-17.12ZM1300.19,1497.05l-2.31-31.3,9.13.17.7,30.67-7.52.46ZM1309.1,1505.24l-.45,10.05c-.08,1.73-8.12,1.57-8.15-.17l-.14-7.63.05-6.25c.01-1.49,4.24-1.46,5.78-1.26,1.47.19,2.99,3.77,2.92,5.27ZM1311.49,1504.33l1.7-1.1.54,11.12-1.7,1.1-.54-11.12ZM1316.66,1498.2l-1.29-32.23,35.77,2.23.8,30.59-35.28-.6ZM1352.34,1501.89l.8,18.04-35.37-3.32-.83-15.13,20.7.68,14.71-.28ZM1355.45,1506.32l1.74-1.09.5,13.12-1.74,1.09-.5-13.12ZM1360.69,1499.1l-.89-29.87,11.56.39.94,28.76-11.6.72ZM1372.46,1502.05l.75,19.64-11.52-.86-1.31-18.37,12.08-.41ZM1375.47,1484.31l1.87-1.09.31,29.14-1.87,1.09-.31-29.14ZM1380.24,1470.17l46.57-2.75,1.96,29.63-28.72,5.89c-4.68.96-14.6-3.68-19.33-4.91l-.48-27.85ZM1405.62,1523.98l-23.54-.31-.86-22.78c12.08,5.47,22.76,5.58,34.35,2.68l13.29-3.32-.05,21.19-23.18,2.55ZM1408.51,1449.45l-1.08-1.79,17.11-.44,1.08,1.79-17.11.43ZM1350.55,1453.44l-1.08-1.85,25.12-.34,1.08,1.85-25.12.34ZM1256.01,1525.75c-1.24-.12-4.08-2.52-4.72-3.49-.64-.97,3.18-2.51,4.42-2.33l33.02,4.9-.27,4.11-32.46-3.19ZM1271.71,1570.37l-1.89,1.09-.25-39.15,1.92-1.1.22,39.16ZM1232.58,1619.78l-.39-101.06,12.34-.1c2.62-.02,4.11,5.25,5.24,8.82l15.8,3.32-.42,36.58.43,59.25-5.23,1.21c-.67.15-.58-.02,4.76,3.07l-27.56,2.9c-1.45.15-4.46-2.16-4.52-3.5-.09-1.99-.08-6.76,1.67-6.85l10.18-.51-12.3-3.14ZM1265.29,1634.77l.91,10.39-27.67-7.4,26.76-2.99ZM1265.97,1516.65c7.29-6.78,13.91-2.72,19.78.55l-19.78-.55ZM1231.2,1503.82c1.28-5.7,7.3-10.72,11.88-9.92l20.17,3.54,27.25.48-.1,10.08-59.21-4.19ZM1218.03,1516.72l-25.75,1.85,1.37-28.88c6.66.2,12.48-1.94,14.44-6.83.5-1.02.87-1.77.82-1.68l37.21-2.65-.44,10.87c-9.94-.06-15.6,4.81-18.82,13.12l-11.82,3.57,2.98,10.63ZM1251.75,1478.29l6.86-.62c1.71-.15,1.75,6,1.29,7.67l-1.99,7.18c-.43,1.55-6.17,1.32-6.63-.22l-2.14-7.16c-.49-1.62.89-6.7,2.61-6.86ZM1261.02,1495.32l2.77-16.46,25.96-1.44.77,17.67-29.5.23ZM1198.18,1463.02c1.14-11.36,1.84-21.85.75-32.09-1.72,9.24-.28,20.44-4,28.65-4.62,10.21-5.78,14.63-6.36,26.67l-6.98-13.82-2.9,7.07c-.63,1.53-6.52.73-7.13-.81l-3.37-8.56,10.76-1.79,8.99-38.87c.73-3.16,3-7.46,5.35-8.39,2.36-.93,8.67.54,11.45,2.22l1.04,39.66-7.61.08ZM1183.77,1486.76l-24.29-2.26c7.73-2.06,16.39-2.36,24.29,2.26ZM1189.26,1490.48l.26,27.39-65.07-10.85-.34-24.59,65.16,8.06ZM1136.44,1537.35l-2.3-24.52,38.22,6.55.75,31.91.76,63.6-37.96,2.71c-1.69-9.08-.79-18.73,1.68-28.35,4.52-17.65.5-34.36-1.14-51.9ZM1163.61,1618.63l25.24-1.12.66,18.77-49.54-14.72,23.64-2.93ZM1175.93,1520.1l11.66,1.34.22,83.13c0,2.37,2.7,8.89.77,9.14l-10.26,1.28-1.75-34.47-.64-60.41ZM1102.74,1474.69l-.48-43.51-.56-170.82,25.77-12.61,1.58,103.65.75,123.67-27.06-.39ZM1123.72,1644.42l.06-134.07,1.92-1.16.09,135.24h-2.07ZM1131.69,1511.29l.09,107.04-2.44,1.42-.53-69.39-1.08-39.02,3.95-.05ZM1133.41,1660.87c-2.22-1.29-6.44-5.22-5.01-6.01l5.65-3.14-.65,9.15ZM1129.59,1632.32l1.77-1.02.57,12.96-1.66,3.39-.68-15.33ZM1188.87,1645.78l-58.79-17.11-.78-4.42c-.17-.97,3.32-.85,4.47-.54l50.31,13.33c4.35,1.15,6.77,4.02,4.78,8.74ZM1194.86,1669.28l-3.05-2.59-.71-88.42-1.56-55.95,1.86-1.1,1.29,49.31,1.63,56.94,1.84,37.05c.04.87-.78,5.19-1.3,4.75ZM1198.05,1669.46l-.82-40.14-2.3-68.06-1.34-33.7.34-5.11c.08-1.22,3.75-1.06,4.82-.47,1.07.59,1.22,3.31,1.28,5.22l1.05,34.12.62,107.15-3.66,1ZM1204.27,1585.34l-.33-63.37,16.33-2.27,1.33,19.53.13,79.48-16.12-3.5-1.34-29.87ZM1205.71,1617.7l15.71,4.05.96,13.53-16.62.65-.06-18.23ZM1206.57,1639.81l14.03-.41c1.32-.04,1.56,5.88.23,6l-6.79.57-7.14.6c-1.46.12-.78-5.51-.34-6.76ZM1207,1674.92l-.76-24.72,15.92-1.47.47,25.14-15.63,1.06ZM1221.24,1510.16l20.59.43,21.61,2.53c-14.85,4.76-27.77,1.58-42.2-2.95ZM1229.27,1673.37l-3.3.04-.39-155.05,2.51-1.42.55,67.37.84,55.94,34.29,8.19c1.86.44,1.84,6.88-.16,6.38l-33.27-8.25-1.07,26.81ZM1234.31,1673.35l-.44-21.73,31.37,8.14.97,11.71-31.9,1.88ZM1270.29,1603.65l-.71,34.58-1.75,3.32-.24-52.23c-.01-2.4,2.53-7.9,3.92-10.21l-1.22,24.54ZM1271.65,1670.51v-42.21s1.8-1.09,1.8-1.09l.32,43.25-2.13.05ZM1276.12,1670.94l-1.21-75.65-.76-37.91-.46-25.92,15.59,2.34.64,34.35c.03,1.65-4.69,5.18-5.43,6.65-.93,1.84,4.28,5.76,4.71,7.97,2.07,10.69,2.84,29.11,1.65,39.17-.21,1.82-4.46,5.66-5.16,7.33-.84,2.01,2.38,5.72,7.17,7.57l2.05,32.87-18.79,1.24ZM1297.83,1669.45l-.3-31.15,1.87-1.09.3,31.15-1.87,1.09ZM1303.6,1669.44l-.41-28.91c.51-1.45,9.11.16,9.2,2.59l.94,24.88-9.73,1.44ZM1315.84,1667.45l-.32-23.14,1.81-1.08.42,23.14-1.91,1.09ZM1320.29,1668.41l-.28-25.54,36.5,7.49,1.57,15.84-37.79,2.22ZM1377.39,1664.34l-9.31,1.44c-2.55.4-2.93-7.41-1.69-12.19l9.2.81c2.55.22,4.32,9.55,1.79,9.94ZM1399.24,1655.38l-107.94-23.36,83.72,15.93c17.14,3.26,32.69,4.1,52.4,2.27-6.17,5.16-18.29,7.3-28.18,5.16ZM1409.93,1648.36c-7.75,1.28-15.5.2-23.39-2.32l-1.74-47.88,46.97-1.03,1.65,47.36-23.49,3.87ZM1442.69,1652.51l-5.67-121.7-8.42-4.22,118.85,11.34c19.14,1.83,36.8,1.9,56.06-.3l177.59-20.3,78.11-8.26-.9,3.28-81.19,8.99-177.6,20.51c-15.27,1.76-29.38,1.98-44.03-.07l-14.7-2.05,1.65,38.42,1.82,32.22,21.47,2.42,29.42-.12,270.47-35.02c-7.29,4.71-17.15,6.08-26.82,7.36l-183.26,24.24-58.23,6.6c-10.82,1.23-21.36,1.9-32.03.25l-20.81-3.21,1.56,36.51.85,24.09-104.18-20.97ZM1837.17,1493.42l-1.35-27.2c8.94,5.83,12,14.42,14.59,26.01l-13.24,1.19ZM1850.15,1506.94l-9.71.04c-2.22,0-1.7-6.92-1.35-11.09l11.01,1.74c2.19.35,2.32,9.3.04,9.31ZM1749.57,1551.55l.04-23.66,3.34,35.44,2,21.23c.11,1.12.02,5.23-.45,4.74l-2.69-2.7-2.23-35.05ZM1749.8,1590.52l-30.14,4.2-4.8-62.9,30-3.23,4.94,61.93ZM1753.49,1528.04l28.56-3.71,5.72,61.12-29.09,4-5.19-61.41ZM1785.07,1524.38l1.83-1.21,3.7,36.43,2.21,25.92c-3.8-2.54-2.98-6.87-3.44-12.13l-4.3-49.01ZM1791.14,1523.34l40.04-4.16,5.44,59.58-40.32,5.75-5.16-61.17ZM1833.96,1518.38l2.62-1.03,1.22,13.85,1.87,21.23c.85,9.59,2.31,17.46.06,25.21l-5.77-59.26ZM1840.62,1517.93l12.6-.54,5.3,56.53-13.33,3.05-2.75-35.49-1.83-23.55ZM1668.86,1535.79c2.75,11.33,3.14,20.53,3.92,31.88l1.99,28.89c.07,1.04-2.61,3.96-2.68,3.08l-.34-4.3-1.89-24-.99-35.55ZM1669.1,1601.24l-49.35,5.35-1.73-29.25-2.01-34.15,48.61-5.56,2.09,29.63,2.39,33.97ZM1673.53,1536.44l31.5-4.02,3.17,36.27,2.36,26.95-32.51,4.3-2.32-36.46-2.2-27.04ZM1709.7,1551.33l-.61-20.57c4.2,9.57,4.48,18.55,4.7,28.69l.8,36.12-2.89-18.06-2.01-26.19ZM1609.45,1546.29c-.43-2.55,4.46-4.54,3.32-.04l2.13,31.1-.33,29.64-2.58-23.56-2.53-37.14ZM1610.56,1607.55c-10.1,1.05-22.67,3.88-32.35,3.07l-25.47-2.13-1.93-39.17-1.18-23.91,56.83-.36,1.89,29.38,2.21,33.11ZM1548.28,1607.13c-3.17-13.26-2.92-26.88-3.45-41.84l-.78-22.2c4.14,10.93,3.08,22.11,3.74,34.41.51,9.56,2.61,17.93.49,29.63ZM1548.8,1641.9c-1.37-8.26-1.57-15.77-.77-24.9,2.07,5.03,3.27,10.56,3.38,16.08l.84,41.61c-5.53-11.1-1.61-21.76-3.45-32.8ZM1583.41,1679.16l-27.22-4.08-1.42-29.84-1.41-26.92,57.67-.27,1.76,31.17,1.87,27.39-31.24,2.56ZM1618.6,1675.43l-2.99-23.68-.74-35.89c2.63,10.65,4.13,19.44,4.02,29.75l-.29,29.82ZM1623.62,1675.42l-1.54-26.33-1.68-32.66,49.61-5.32,4.66,56.64-51.05,7.67ZM1678.01,1667.16l-2.08-23.92-2.4-27.67-.18-5.09c-.02-.67,1.37-.94,1.83-.4.44.51,1.59,3.04,1.65,3.92l1.95,26.96,1.48,20.15c.14,1.94-.25,3.67-2.25,6.06ZM1683.89,1666.07l-2.04-26.7-2.29-29.94,31.63-4.08,4.52,56.03-31.81,4.68ZM1716.85,1639.25c-.99-11.6-2.02-22.12-.86-34.13l2.88,18.69,1.04,16.31.72,21.47c-4.05-7.71-3.11-14.48-3.78-22.33ZM1724.59,1659.77l-2.4-29.26-1.61-26.2,30.24-3.89,4.54,54.81-30.78,4.54ZM1757.49,1650.71l-1.61-23.39-1.6-23.3c-1.87-3.37-.71-5.35,2.24-2.53l2.29,28.69,1.65,20.68c.97,3.93-3.27,1.95-2.98-.15ZM1764.04,1653.57l-2.1-26.43-2.23-27.97,28.52-4.16,4.86,54.35-29.06,4.21ZM1796.25,1649.62l-2.39-26.59-1.91-29.07c6.29,7.98,2.2,17.03,3.48,25.32,1.66,10.76,2.42,20.45.82,30.34ZM1801.02,1648.26l-2.32-34.94-1.28-19.25,39.27-5.52,4.57,53.41-40.24,6.29ZM1842.76,1621.37l-1.96-35.53c2.39,10.41,3.33,19.74,3.98,29.32l1.74,25.59c-2.64-5.42-3.35-12.07-3.76-19.38ZM1850.22,1639.7l-4.04-51.25,13.37-3.32,4.48,52.45-13.81,2.12ZM1947.72,1635.21c-.04-.59,1.49-5.27,2.54-5.35l23.75-1.8c2.62-.2,6.97,2.54,9.06,4.99l-35.35,2.16ZM1988.18,1641.08l-5.07-4.18c-.86-.71,6.06-2.08,5.96-.95-.1,1.13-.02,5.85-.89,5.13ZM1990.69,1632.22l-10.77-8.82-28.9,1.42,13.63-49.39,31,24.51-4.96,32.28ZM2019.73,1633.37l-15.02-2.25c3.08-16.86,6.25-31.65,17.15-27.92l-2.13,30.17ZM2027.81,1632.83c-2.31-9.2-.86-19.6,1.47-28.87l25.48,1.65c-7.19,24.82-25.08,34.69-26.96,27.22ZM2031.15,1599.49l4.3-15.09,23.55,16.7-27.85-1.6ZM2057.65,1632.61c-.41,2.48-9.46,3.69-10.1,2.69l13.23-21.83-3.13,19.14ZM2054.59,1593.65c-33.69-22.93-48.27-36.06-95.53-34.13,1.32,4.85,4.85,8.39,9.3,9.53l-3.22-6.5c24.9-1.13,45.52,4.09,64.31,18.69l-4.69,15.91c-21.71,3.81-24.75-8.38-36.92-11.96l15.13,13.15-1.9,2.12-42.91-34.12c-1.69-1.34-3.78-5.93-3.94-7.94-.68-8.35,49.32-2.2,61.99,6.15l58.3,38.46c-8.69-1.2-13.84-5.24-19.91-9.38ZM2099.55,1576.7c10.22,6.81,17.87,14.56,21.5,26.89l-23.41,1.01,1.9-27.9ZM2101.36,1608.37l20.65-.21,2.89,14.25c-1.02,1.16-7.56,2.57-8.21.95l-2.99-7.43c-1.92-4.76-18.69-.67-16.98-3.74.65-1.17,3.23-3.81,4.64-3.82ZM2096.7,1574.24l-3.09,29.85c-2.19.78-10.09.84-12.67-.91l-15.36-10.44c2.28-13.96,4.97-26.02,11.68-41.27l19.43,22.76ZM2059.1,1587.76l-20.42-14.15c8.18-12.6,18.05-23.75,33.53-28.73-5.58,13.71-9.47,26.17-13.12,42.88ZM2061.09,1531.51l-32.36-4.59c-2.95-.42-9.72,1.39-11.45,3.09l16.23.64c12.16.48,24.08,1.93,35.57,8.22-16.98,8.5-29.36,16.22-36.06,32.77-17.11-14.23-36.19-18.32-59.61-19.7l14.55-43.89,59.54,2.85,13.59,20.62ZM2041.18,1473.96c-3.88-9.24-2.93-18.31,1.89-27,5.67-2.02,12.87-2.18,21.45-.56l-23.34,27.56ZM2030.44,1438.62l5.89-9.68c2.82,6.06,3.28,12.29.46,18.01-3.43.42-7.8-5.96-6.35-8.34ZM2030.58,1459.53c-2.5-3.69-3.53-7.36-2.92-12.41,2.15,3.76,3.14,7.43,2.92,12.41ZM2027.09,1433.78l-3.66-20.17,11.87-4.55-.7-23.46c-.09-2.85-8.11-4.65-12.27-4.24l-.53-10.6,27.2.02,34.89-.4,10.37,86.58c-2.37,4.56-15.31.57-13.74-4.62,1.57-5.18,3.61-10.23,3.64-17.14.03-5.77-3.34-11.24-8.12-12.11-4.47-.81-10.39,2.97-11.24,7.27l-1.86,9.43-13.48-.61c1.31-7.84-.8-14.38-7.68-15.4-6.7-.99-10.89,1.61-14.7,9.99ZM2016.35,1401.1c-1.52-4.49.91-10.25,5.73-14.12,1.19-.96,5.07,3.77,4.84,5.66l-1.89,15.62c-3.22-.5-7.73-4.37-8.68-7.16ZM2028.92,1394.33l1.74-1.09.5,13.12-1.74,1.09-.5-13.12ZM2097.44,1432.18c1.15,9.56,3.11,17.86-.42,25.86l-10.45-86.69,3.52-.02,7.35,60.84ZM2092.84,1369.44l21.41-.11,10.72,85.79-21.9,2.1-10.23-87.78ZM2079.39,1447.62l-.52-13.29,1.74-1.09.5,13.13-1.72,1.26ZM2073.68,1447.29c-8.32-1.93-9.05-15.58-2.31-18.08,5.19,1.72,5.48,14.34,2.31,18.08ZM2066.64,1486.45l-10.88-22.41,12.13-14.77,17.04,16.96-18.29,20.23ZM2093.05,1506.46l-23.14-15.59,17.25-22.21,18.42,23.61-12.53,14.18ZM2144.11,1536.12l-9.13-14.96,16.56,1.23-7.43,13.74ZM2360.66,1036.85l-206.08,39.98c-10.29,2-23.01-2.12-32.19-4.54l241.98-48.7c-.3,3.68-1.68,9.02-3.71,13.25ZM2516.25,977.79l-3.32-8.32c3.48-1.22,7.52,5.47,3.32,8.32ZM1175.97,1221.14l26.59-7.57,779.53-173.87,9.96,79.57.63,1.1,1.57,15.33.52-16.32-1.29-1.14-2.06-24.9-6.32-53.66c2.12-1,6.81-1.62,8.85-1.17l23.99,210.93c1.77-8.71.45-15.79-.52-24.45l-21.06-188.6,2.9-1.34,10.75,91.47,17.28,141.08c-.25,1.39-2.18,2.97-5.46,4.66l-.97-21.98-1.59-.96-.22,21.88-13.24,3.65,9.12,88.1,41.93-.19,19.97-.98,37.88-.71-1.45-31.63-7.77-61.47c-25.2-2.14-49.37-1.2-74.59,2.91l-27.54-236.05,502.38-117.86,9.77,47.67-8.01-.49,5.55,14.98-44.4.27-86.05-8.65c-5.15-.52-13.21,2.55-16.01,5.67-3.16,3.51-4.62,11.8-4.27,16.69l1.9,26.9-149.04,29.76-109.56,22.66,39.24,320.84,27.74,224.44-20.02-47.43-5.59-30.67,6.76-17.92c-7.73-3.17-13.15-3.95-21.02-4.47l-43.82-55.4,38.31-2.69-1.9-25.84-8.87-67.94-99.59,2.06-.37,18.89-5.31,12.06c-1.34,3.05,5.7,8.84,7.28,11.97l4.24,29.18c-32.57,7.87-75.25,6.67-82.12-25.88l65.85-2.35-12.47-114.5c-.79-7.28-2.34-14.83-4.45-21.37l-42.45-.54-94.33,7.48,11.57,130.82,55.04.17c3.01,15.47,15.05,23.67,28.88,29.06,24.43,9.52,48.99,13.6,75.78,4.56l1.22,12.38c12.04,13.14,20.76,29.68,20.5,47.36l-56.43-2.65c9.53-15.25,20.38-24.85,33.83-36.06-.34-3.36-7.48-7.92-11.57-8.03l-12.53,12.34,1.78,1.67,10.95-10.19c1.86-.82,6.98,1.48,7.39,3.49-12.04,11.46-27.45,21.2-33.07,37.15l-15.62,44.37c-.53,1.51-6.21,2.02-5.67.15l6.44-22.2-.93-3.24-9.6,27.02c-3.59,1.53-8.5,4.01-9.61,6.47-1.1,2.46,1.93,8.32,4.26,10.87l-17.32,58.63c-11.32,2.22-21.37-6-26.29-1.96-1.8,1.48-3.33,5.68-4.68,9.08-8.62,3.15-20.19,5.86-26.67,12.61-3.84,4.01-7.94,6.2-11.83,4.2l7.05-8.33c1.71-2.02-5.82-7.53-6.26-10.24l-4.19-45.33,4.7-8.39c1.18-2.1-3.39-6.28-6.89-8.05l-4.09-51.62,5.55-8.25c1.39-2.06-3.62-6.82-6.54-8.47-2.74-11.92-3.37-28.22-14.57-36.63-6.29-4.72-13.28-7.21-8.99-17.67l17.47-1.38c2.04-.16,5.74-3.88,6.07-5.92.4-2.45-3.56-7.45-6.38-7.5l-94.25-1.58-37.83-.5-82.05,2.77-63.94,1.53-65.02,1.29-214.34,15.57c-5.87-19.21-18.42-12.44-26.94-14.6-1.63-.41-1.84-5.18-2.58-7.56-3.62-2.13-11.89-2.31-16.94-1.49l-8.54,1.39c-2.19.36-1.88,7.11-1.79,9.06l-20.02,2.45-1.49-9.73c-.31-2.03.01-8.25-1.89-8.95l-8.43-3.11c-2.91-1.07-10.39-2.03-13.29-.91-3.27,1.26-7.42,7.08-8.34,10.66l-8,30.84-1.87-34.62-1.51-157.48,482.49-78.29,23.9-5.93,70.31-11.6,28.2-2.37,32.64-1.22c5.74,8.67,13.39,15.4,22.3,15.96,9.96.62,19.92-5.13,25.86-14.48,12.78-20.12,11.67-49.17-2.25-68.57-6.07-8.45-15.92-11.99-25-11.25-8.6.7-16.25,8.62-21.55,15.74l-46.14.46c-8.24.08-14.31,6.61-20.93,8.04l-71.76,15.54-33.78,5.06-275.06,56.63-188.08,38.01c-.88-.35-3.45-3.99-2.57-4.91.88-.92,3.47-2.94,4.92-3.36ZM2087.63,1359.25l-3.27-.87-9.82-87.97,3.55-1.67,9.54,90.51ZM2081.35,1269.54l21.47.37,10.19,86.97-21.75,1.81-9.92-89.14ZM2081.18,1359.02l-61.99.79-8.23-83.44,60.28-6.12,9.94,88.78ZM1869.6,1408l-11.36-121.39,82.96-7.5,12.6,128.89h-84.2ZM1937,1431.56c-7.11-4.66-10.98-10.13-13.97-17.8l7.55-.6,6.42,18.4ZM1960.77,1407.76l-3.77.6-13.16-126.02c-.28-1.39,1.44-2.62,4.25-2.88l12.68,128.3ZM1951.24,1279.03l36.61-1.04,14.05,128.35-38.32,2.11-7.95-79.45-2.09-23.61-2.31-26.36ZM1171.83,1215.52l-41.18,22.63-35.72,18.57c-4.81,2.5-13.86.7-17.9-1.19-.32-.15-1.3-1.13-1.4-1.41l-5.13-15.56c-1.6,5.14.35,12.53,3.87,16.63l1.4,1.63-3.2,2.94c-1.2,1.11-5.64-1.29-6.81-2.99-4.23-6.15-3.82-18.98,3.5-23.24l3.73,3.25c.64.56,2.47-2.53,3.03-3.48,16.48-4.53,31.64-10.37,46.42-19.32l43.01-23.57c.63,10.19,2.39,17.24,6.38,25.1ZM1157.42,1118.75c-4.02,1.34-8.41,1.96-10.82.57-3.08-1.78-4.53-10.87-1.63-13.25l767.86-281.85c-3.09,15.47.17,28.39,8.53,40.2l-133.1,43.96-280.73,93.91-200.29,66.55-149.82,49.91ZM1815.74,924l-1.71,1.08-3.99,1.99c.26-.13-6.57-17.83,2.25-19.19l3.45,16.12ZM1819.03,906.95l-.17,10.28-3.03-5.88c-.62-1.21.92-2.41,3.19-4.4ZM1815.23,926.33l1.14-1.76,42.08,3.57,2.37,18.86-33.53,4.36-15.63,2.55-1.82-22.75,5.39-4.82ZM1822.76,920.15l18.4-.47-1,2.07-17.41-1.6ZM1841.26,922.4l.97-1.58,27.16,1.92,25.05,4.26c.37,1.38-2.24,5.54-3.46,6.16-1.53.78-3.64-2.28-4.87-6.15l-44.84-4.62ZM1828.88,916.88c-3.15-.29-6.6-2.24-7.52-4.76-.74-2.03,3.56-6.8,5.79-6.64l33.6,2.36,16.25,1.2-16.87-4.88-.95-12.2,18.39-5.59,2.88,22.01c-3.61,1.78-3.68,3.88,2.61,3.48l-1.1-21.07c-.1-1.99.37-5.12,1.05-6.56.7-1.46,6.58-.34,6.79,1.62l3.97,37.06-64.89-6.03ZM1832.3,901.75l23.22-8.76,1.96,11.61-25.17-2.85ZM1500.86,1033.92l.99-22.6,3.24-.06,1.37,38.83c-2.75-2.29-3.56-4.23-4.52-8.04l-51.3-5.26c-.4-.31-2.27-4.23-1.46-4.66,1.22-.64,4.91-1.83,6.58-1.7l45.1,3.49ZM1456.63,1026.61l41.17-13.74,1.91,18.5-43.08-4.76ZM1279.95,1100.2l-.02-14.84,3.63-.09.48,28.98-4.32-6.57c-.93-1.42-6.16-.23-8.21-.34l-32.37-1.62c-.99-.1-2.09-1.74-3.57-5.94l44.39.42ZM1247.02,1096.7l29.51-10.42,1.44,10.9-30.95-.48ZM1342.25,1137.81l-171.67,44.39-.92-60.32,62.85-20.44,1.44,6.29c.27,1.19,3.48,1.15,6.06,1.23l36.91,1.18c2.59.08,3.12,10.78,10.34,5.82l-.23-32.87,156.33-51.83,2.43,9.49,27.81,2.08,26.13,3.29c.43,2.36,1.31,8.17,2.68,7.61l7.75-3.17-2.46-40.5,295.91-98.92,11.12,102.55-472.49,124.13ZM1812.8,955.99l24.98-3.85,22.93-2.07,2.62,22.76-34.55,6.89c-.4.08-2.73,1.55-2.65,1.54h-11.33s-2-25.27-2-25.27ZM1819.95,1012.37c-1.77-4.56,1.52-6.56,4.98-6.96l30.67-3.48-35.65,10.44ZM1817.67,1003.34l-2.14-19.49,10.67-1.04c.33-.03,1.82-.78,2.11-.92l35.36-6.63,2.54,19.59-48.53,8.5ZM1870.94,998.6l-8.13-69.76,19.5,1.04,3.74,8.58c3.86-.9,10.07-3.62,12.49-6.24l-5.91-50.98,33.94-11.09,13,2.83c7.36-6.27,12.97-8.93,21.18-9.99l13.55,107.69-103.37,27.92ZM1977.33,969.22l-13.59-107.82,9.23-2.16,13.15,106.09c.23,2.3-5.85,4.3-8.79,3.89ZM1988.97,967.63l-13.98-110.28,3.52-.08,13.07,100.93c.6,4.67,1.35,6.61-2.61,9.42ZM2465.33,719.44l3.87,3.86,23.63,107.32-8.67.98-23.37-109.6c.06-1.23,3.69-3.42,4.54-2.56ZM2480.87,833.66l-485.41,131.55-13.13-110.6,208.12-71.77c17.14,6.72,27.28,1.57,35.71-14.61l214.29-74.2,2.39,19,13.35,5.02,24.69,115.59ZM2510.77,699.34l-46.67-11.97,40.57-16.02,6.11,27.99Z"/>
  <path class="cls-1" d="M1149.85,319.17c-3.07,2.73-4.48,4.75-6.3,8.31,3.15-2.68,4.55-4.69,6.3-8.31Z"/>
  <path class="cls-1" d="M2526.64,981.35l-4.06.48c.47,1.84,2.37,5.95,4.06,7.52v-8Z"/>
  <path class="cls-1" d="M1879.16,1681.34l2.01-16c-2.13,4.89-3.9,10.37-4.01,16h2Z"/>
  <path class="cls-1" d="M1200.64,255.88L1392.29,8.51l7.25-11.15h-4l-7.21,11.18-199.17,257.78c4.36-2.19,7.61-5.45,11.48-10.45Z"/>
  <path class="cls-1" d="M1751.84,1119.07c-10.45,10.3-8.06,26.23-.2,35.88l-3.4-11.11c-2.42-7.88.69-16.45,3.61-24.77Z"/>
  <path class="cls-1" d="M1117.87,361.38c-2.49,1.81-6.41,5.04-8.14,7.62l-12.72,18.92c8.95-7.35,16.09-16.93,20.86-26.54Z"/>
  <path class="cls-1" d="M1123.89,353.14c-3.07,2.76-4.54,4.83-6.02,8.23,2.84-2.06,4.38-4.81,6.02-8.23Z"/>
  <path class="cls-1" d="M1978.78,1576.89c-2.52-4.01-5.95-6.69-10.42-7.84,2.39,3.29,6.52,6.96,10.42,7.84Z"/>
  <path class="cls-1" d="M1829.66,253.4l-11.24-9.67c2.41,4.55,5.77,9.04,11.24,9.67Z"/>
  <path class="cls-1" d="M1189.16,266.33c-7.53,7.79-14.69,17.6-19.5,27.03,7.99-6.89,16.41-16.33,19.5-27.03Z"/>
  <path class="cls-1" d="M1143.56,327.48c-7.7,6.55-15.31,16.55-19.67,25.66,7.78-6.46,15.34-16.45,19.67-25.66Z"/>
  <path class="cls-1" d="M1169.66,293.36c-7.89,6.8-15.35,16.55-19.81,25.81,7.96-6.58,15.13-16.39,19.81-25.81Z"/>
  <polygon class="cls-1" points="2526.64 337.36 2502.76 237.07 2449.3 13.15 2446.71 -2.63 2442.71 -2.63 2526.64 351.36 2526.64 337.36"/>
  <path class="cls-1" d="M2512.99,1369.64c3.55-3.79,9.44-7.01,13.64-8.3v-6c-18.95,5.81-32.27,25.08-38.36,45.75-15.18,51.54,1.39,111.29,38.36,148.13v-8.03c-40.52-42.39-53.53-128.89-13.64-171.55Z"/>
  <polygon class="cls-1" points="2526.64 265.36 2462.69 -2.61 2458.7 -2.62 2526.64 281.36 2526.64 265.36"/>
  <polygon class="cls-1" points="2526.64 127.36 2524.72 119.51 2496.66 -2.61 2488.67 -2.61 2526.64 155.36 2526.64 127.36"/>
  <path class="cls-1" d="M2455.47,1205.84c-4.62,1.41-9.17,3.29-12.66,5.94l18.62,106.65c7.5,1.09,16.23,2.84,22.82,2.43l26.45-1.64,15.94-1.87v-2l-24.21,1.4-38.46.12-17.39-104.72,23.22-7.49c14.05-4.53,26.54-6.58,40.75-3.58l16.1-1.73v-2l-28.22-1.51c-14.65-1.03-29.1,5.77-42.94,10.01Z"/>
  <path class="cls-1" d="M2526.64,1427.21v-3.87s-14.89-14.8-14.89-14.8c-8.11,28.31-4.48,55.36,4.89,82.91l9.99-4.01v-6.02s-7.28,5.91-7.28,5.91c-7.83-24.04-9.05-47.65-5.72-72.14l13,12.01Z"/>
  <path class="cls-1" d="M2497.73,1423.14l.19,32.21c.15,26.23,10.96,51.7,28.73,69.99v-4c-13.2-16.59-25.64-37.19-25.55-60.01l.18-45.39c.08-18.9,11.56-34.25,25.36-44.6v-2c-19.45,10.33-27.24,31.75-28.91,53.79Z"/>
  <path class="cls-1" d="M257.77,1587.13l1.42-21.58c.53-8.09,1.33-15.26.41-22.49l-2.64,24.24-2.01,24.02-2.01,24-2.01,23.99-1.87,22.27-.61,19.77h2l1.42-22,2.12-25.97,1.96-23.99,1.82-22.24Z"/>
  <path class="cls-1" d="M2130.86,1591.12l20.08,90.21h4s-16.22-69.63-16.22-69.63c-1.68-7.49-3.82-14.39-7.86-20.58Z"/>
  <polygon class="cls-1" points="2079 1681.34 2081 1681.34 2089.54 1622.46 2087.1 1621.14 2079 1681.34"/>
  <path class="cls-1" d="M2518.24,1392.34c0,3.96,4.95,9.16,8.4,11v-4c-1.58-.58-7.02-4.73-5.75-6.68l5.75-7.32v-4c-3.45,1.84-8.4,7.04-8.4,11Z"/>
  <path class="cls-1" d="M.43,506.92l5.22,17.28-4.39,2.81c-.91.58-.08,4.81.16,5.68l114.76-10.67,4.67,13.48c.83,2.4,8.66,2.22,9.18-.11l-3.12-14.3,214.73-20.4c14.99,22.91,44.59,27.66,63.56,9.55,9.28-8.86,11.85-21.56,8.71-34.79-2.14-9.01-9.88-18.21-19.55-23.9-23.95-14.08-48.25-17.3-76.32-14.86L2.08,464.17l-.16,7.42,97.54-8.11c1.72,15.31,3.65,27.99,8.97,40.93l-6.52-41.14,76.23-6.83c5.48,18.36,7.88,34.2,8.05,52.09l-63.24,5.96-7.09-11.5c-.68,5.61-.53,6.76.69,12.08l-108.46,10.03c-2.24-10.05-2.79-13.61-7.67-18.19ZM407.09,475.11c2.98,10.29,2.09,22.08-5.68,30.17-14.19,14.79-36.31,13.73-51.63-3.37l19.91,9.37c11.44,1.69,21.18-.29,28.38-7.1,7.43-7.03,8.57-17.52,9.01-29.07ZM401.79,479.77c2.4,10.63-4.3,19.75-11.8,24.41-9.7,6.03-20.52,4.69-29.77-3.84l7.61-5.58,1.74-.94c13.83-7.5,17.79-23.88,13.46-39.2,10.3,6.13,16.46,14.98,18.76,25.15ZM375.75,452.24c12.54,10.43,5.44,31.73-6.95,38.94l-2.12,2.56c-3.19,3.85-13.15,3.53-19.27,1.57l-5.95-1.91c-3.68-1.18,10.18-26.22-2.94-50.06,12.24.56,27.4.73,37.22,8.9ZM335.48,443.06c3.66,8.15,7.49,19.71,6,28.69l-3.71,22.3-22.9,1.81c.25-18.65-.48-33.6-6.75-50.81l27.36-1.99ZM180.68,456.27l123.99-10.95c6.88,15.96,8.79,33.82,7.21,50.85l-122.59,11.77c-.76-16.82-3.12-33.85-8.61-51.67Z"/>
  <path class="cls-1" d="M345.3,531.17l-9.98,93.19-23.31,235.69c-1.73.26-1.93,4.53-1.04,4.11-.6.29-3.16,1.53-5.19,2.53l7.13,1.68c1.3.31,3.03-3.72,4.24-4.23l23.42.61-25.32-4.72,29.28-298.35c1.12-11.41,2.9-20.47.77-30.5Z"/>
  <path class="cls-1" d="M351.32,660.88l12.63-129.65-2.23,1.14-9.73,101.06c-.97,10.03-1.99,19.21-.67,27.45Z"/>
  <polygon class="cls-1" points="91.61 829.25 68.49 829.61 69.57 831.45 92.69 831.09 91.61 829.25"/>
  <polygon class="cls-1" points="341 771.28 343.95 744.94 344.16 727.33 342.67 728.36 341.67 745.12 341 771.28"/>
  <path class="cls-1" d="M346.9,703.34l2.15-15.87c1.14-8.44,1.52-16.51.54-24.37l-1.89,16.1c-1.01,8.61-1.37,16.34-.8,24.14Z"/>
  <polygon class="cls-1" points="346.49 724.38 346.08 705.25 344.27 706.33 344.68 725.46 346.49 724.38"/>
  <polygon class="cls-1" points="340.49 792.38 340.08 773.25 338.28 774.33 338.68 793.46 340.49 792.38"/>
  <polygon class="cls-1" points="338.5 812.37 338.06 795.25 336.27 796.33 336.71 813.45 338.5 812.37"/>
  <polygon class="cls-1" points="63.62 827.24 46.52 827.67 47.6 829.46 64.7 829.03 63.62 827.24"/>
  <polygon class="cls-1" points="211.47 841.52 226.79 840.84 223.4 839.17 210.45 839.74 211.47 841.52"/>
  <polygon class="cls-1" points="336.56 830.27 335.99 817.31 334.22 818.33 334.9 833.67 336.56 830.27"/>
  <polygon class="cls-1" points="235.45 843.52 250.77 842.84 247.38 841.17 234.43 841.74 235.45 843.52"/>
  <polygon class="cls-1" points="257.43 845.47 270.54 844.97 269.45 843.23 256.34 843.73 257.43 845.47"/>
  <polygon class="cls-1" points="291.41 861.47 304.52 860.97 303.43 859.23 290.32 859.73 291.41 861.47"/>
  <polygon class="cls-1" points="115.58 831.23 102.47 831.73 103.56 833.47 116.67 832.97 115.58 831.23"/>
  <polygon class="cls-1" points="37.64 825.23 24.53 825.73 25.62 827.47 38.73 826.97 37.64 825.23"/>
  <polygon class="cls-1" points="332.27 840.34 332.81 851.46 334.51 850.36 333.97 839.24 332.27 840.34"/>
  <polygon class="cls-1" points="13.65 823.23 2.54 823.77 3.64 825.47 14.75 824.93 13.65 823.23"/>
  <path class="cls-1" d="M2256.1,722.25l3.42,2.68,78.61-28.77,1.43,7.66,22.04-19.84-28.4-1.3,1.49,7.52-76.61,28.19c-.68.73-2.7,3.3-1.99,3.85Z"/>
  <path class="cls-1" d="M234.3,1530.98l-63.91.64,1.12,1.68,76.88.94c-21.93,6.67-42.48,1.36-63.71,3.34l-18.01,3.05,33.1-.21,47.15-.57,3.47-9.69-16.09.83Z"/>
  <path class="cls-1" d="M1891.8,1673.01l7.49-19.99c-6.48,5.38-8.46,13.19-7.49,19.99Z"/>
  <path class="cls-1" d="M1931.79,1228.43c3.53,8.87,7.32,21.02,17.99,24.82,7.46,2.66,18.85.12,26.95-1.11.44.29.88,4.93-.31,5.36s-3.47.98-5.23,1.15l-45.12,4.43-.84,2.67,55.59-5.36c2.24-5.9,4.69-10.79,7.39-12.65,2.4-1.65,11.1-2.66,11.87.08l3.69,13.14c.37,1.3,1.65,3.53,2.44,4.47.53.63,3-.47,3.09-1.31l.52-4.85-9.5-83.93-.89-1.01-1.46-17.31-.56,18.3,1.19,1.13,2.14,26.88,3.77,37.67-24.66,5.24c-18.16,3.86-24.26-.63-32.94-20.13l38.82-4.63-10.9-99.12-25.68-1.89-65.81,10.39,9.17,95.46c12.58,3.84,26.44,2.84,39.28,2.11ZM1955,1250.13c-10.04-3.96-16.27-12.1-19.46-22.63,3.18.01,5.7,1.47,7.06,3.57l12.39,19.07ZM1952.31,1218.46l-6.02-55.96,2.09-1.25,6.82,57.27-2.89-.06ZM1971.51,1125.6l10.03,92.38-23.14-.09-10.23-93.19,23.34.9ZM1946.72,1145.24l.51,13.13-1.83,1.09-.38-13.13,1.71-1.09ZM1940.02,1125.38l9.91,93.4-52.68,4.74-9.13-90.71,51.91-7.43Z"/>
  <path class="cls-1" d="M1976.92,1505.32l18.53-28.06c-9.3,7.08-16.71,16.78-18.53,28.06Z"/>
  <polygon class="cls-1" points="1997.24 1152.27 1996.67 1139.31 1994.9 1140.33 1995.58 1155.66 1997.24 1152.27"/>
  <path class="cls-1" d="M825.14,1466.88c-4.31,4.59-4.96,11.22-3.43,18.16l5.28,10.68c-2.4-12.5-3.17-18.1-1.86-28.84Z"/>
  <path class="cls-1" d="M1811.01,320.77c.21.99,4.2-.58,5.24-1.33l44.63-32.06,5.4,4.25,10.81-18.83-21.96,4.69,3.54,5.04-48.46,34.38.81,3.87Z"/>
  <path class="cls-1" d="M1529.6,525.13l33.69-26.29-3.24-2.89-36.06,27.36-3.63-6.47-10.07,18.73,18.52-2.71c-.26-2.98-.35-6.83.79-7.73Z"/>
  <path class="cls-1" d="M1823.98,878.45l45.7-15.63,4.9,6.4,16.11-16.84-22.35-1.98-.89,7.54-43.39,14.91c-1.13.39-3.32,2.86-3.88,3.5-.54.61,2.98,2.36,3.8,2.08Z"/>
  <path class="cls-1" d="M1926.48,1338.24c-5.83-.03-9.06,2.87-8.58,8.35.37,4.17,3.97,6.26,9.23,5.98,3.36-.18,9.03-1.61,9.67-3.89.65-2.28-.47-7.63-2.23-9.22-1.46-1.32-4.61-1.21-8.1-1.23ZM1922.16,1348.93c-1.08-.4-.66-4.72-.17-6.02.4-1.07,4.87-1.42,4.88-.28l.05,5.62c0,1.15-3.68,1.07-4.76.68ZM1932.78,1349.24c-2.21-1.64-4.85-3.86-4.05-4.56l4.25-3.73-.2,8.29Z"/>
  <path class="cls-1" d="M1919.88,1323.53c1.71,1.23,5.53,1.9,7.4.92s2.67-6.19,2.19-8.25c-.48-2.06-5.92-3.4-8.04-2.47-2.3,1-3.6,8.32-1.55,9.8Z"/>
  <path class="cls-1" d="M1882.26,1317.35c-1.76-.56-7.48,0-8.89,1.21-2.12,1.81.29,11.08,2.44,10.24l6.82-2.64c2.16-.84,1.84-8.11-.36-8.81Z"/>
  <path class="cls-1" d="M1922.53,1362.38l-.26,8.35c-.05,1.64,5.56,1.85,8.31.3,2.53-1.43,2.16-7.46.36-9.26-1.85-1.85-8.34-1.52-8.41.61Z"/>
  <path class="cls-1" d="M1926.91,1304.7c1.94-1.17,4.38-5.23,3.78-7.31-.6-2.09-5.31-6.08-7.26-5.14-3.03,1.47-5.08,7.1-3.82,8.86,1.27,1.76,5.44,4.71,7.3,3.59ZM1927.21,1296.37l-.11,3.91c-.02.78-3.24,1.9-3.28,1.12l-.33-5.79c-.04-.77,3.74-.03,3.72.75Z"/>
  <path class="cls-1" d="M1901.83,1323.57c-.41.93-3.53-.84-3.71-1.85-.18-1,.18-2.19.99-2.81l4.32-3.3c-1.27-1.06-7.77.3-8.31,2.78-.45,2.07.57,6.4,1.99,7.96,1.42,1.56,7.26.92,7.54-1.19.29-2.15.4-7.71.27-8.6l-3.09,7Z"/>
  <path class="cls-1" d="M1871.95,1305.77c1.33,1.16,5.53,1.16,6.69-.17,1.57-1.79,2.28-6.22,1.23-8.07-.87-1.54-4.94-2.14-6.6-1.68l-2.55,2.35c-1.54,1.42-.73,5.85,1.23,7.56ZM1874.26,1297.24c.62.03,2.84.34,2.86,1.12l.06,3.93c.01.79-3.09,1.85-3.23,1.07l-.91-4.97,1.23-1.14Z"/>
  <path class="cls-1" d="M1901.53,1293.74c-2.02,1.58-2.95,7.46-1.74,9.64,1.01,1.82,6.6,3.02,7.54,1.16.94-1.85,1.74-5.73,1.88-7.96.13-2.09-6.04-4.13-7.68-2.84ZM1905.25,1302.65c-.52,1.29-3.54-2.02-3.97-3.71-.27-1.03,6.24-1.92,5.85-.94l-1.88,4.65Z"/>
  <path class="cls-1" d="M1869.13,1341.22l-3.06,7.23c-.52,1.24,2.61,2.85,5.78,4.14l5.08-4.19-2.47-7.83c-.32-1.02-4.92-.34-5.33.64Z"/>
  <path class="cls-1" d="M1887.25,1295.98c-1.62,1.22-2.48,5.9-1.3,7.54,1.18,1.65,6.91,2.85,7.57.93.66-1.93,1.39-5.97,1.62-8.16.17-1.62-6.6-1.3-7.9-.32ZM1893.51,1299.54l-3.43,3.64c-.86.92-2.69-4.33-1.56-4.89,1.11-.55,5.65.54,4.99,1.25Z"/>
  <path class="cls-1" d="M1012.37,482.87l-27.28-6.55-1.47,3.23,25.75,7.08c6.15,4.11,11.38,6.3,20.7,1.66l-11.88-9.09-5.82,3.67Z"/>
  <polygon class="cls-1" points="1141.56 611.95 1145.48 615.07 1146.1 579.55 1151.63 575.49 1143.63 559.44 1135.67 577.13 1142.08 576.28 1141.56 611.95"/>
  <polygon class="cls-1" points="70.8 1422.31 70.19 1409.29 68.43 1410.32 69.11 1425.66 70.8 1422.31"/>
  <path class="cls-1" d="M50.46,1533.13l-12.1,5.46c5.39,1.29,9.93-.76,12.1-5.46Z"/>
  <path class="cls-1" d="M1122.25,1317.64l-8.4-18.13-8.13,18.52,6.47,3.54c.81,24.48-1.76,50.42,2.52,74.62,4.48-26.13,1.4-50.15,1.82-74.8l5.72-3.76Z"/>
  <path class="cls-1" d="M1704.97,445.56l-6.41,23.06,6.07-.42c2.97,16.56.34,34.08,8.56,50.18,2.23-17.52-1.93-33.3-3.5-48.97l5.84-3.74-10.56-20.11Z"/>
  <polygon class="cls-1" points="240.58 894.37 240.08 881.24 238.34 882.34 238.85 895.46 240.58 894.37"/>
  <path class="cls-1" d="M2056.17,1409.45c3.55,2.52,14.16,2.2,16-2.49,2.07-5.26,1.38-13.2-.63-19.57-1.85-5.86-9.39-6.43-13.87-4.74-3.39,1.27-7.53,6.56-8.19,11.02-.93,6.32,2.29,12.67,6.69,15.78ZM2058.53,1385.59c7.19,6.21,7.11,11.59,2.33,21.29-2.65.37-6.77-4.88-7.53-9.09-.63-3.49,2.79-10.07,5.2-12.2Z"/>
  <polygon class="cls-1" points="1141.61 1215.48 1113.63 1231.49 1116.95 1234.85 1146.03 1217.93 1151.2 1221.71 1159.79 1206.95 1144.69 1207.82 1141.61 1215.48"/>
  <path class="cls-1" d="M885.77,1492.26c3.92.06,7.05-3.84,8.74-8.3,2.56-6.78,2.02-13.45-5.26-16.15,7.82,4.79,3.94,20.01-3.48,24.46Z"/>
  <path class="cls-1" d="M885.77,1492.26l-15.75,9.43-.05-36.34c5.99-.25,14.5-.47,19.28,2.45-.5-2.33-4.52-4.32-6.86-4.66l-14.16-2.06-.89,23.97-1.52,18.96c8.9-1.23,14.33-4.16,19.95-11.76Z"/>
  <path class="cls-1" d="M830.13,1489.92c2.44,4.01,9.44,7.48,14.57,9.65.4.4,1,1.08,1.29,1.21l11.88,5.17.17-42.7-14.17.43,1.09,1.62,11.04.08-.05,36.17-9.01-1.96-.88-1.56-8.01-4.55c-8.65-4.92-9.24-12.95-6.18-22.32-5.9,3.08-5.13,13.17-1.74,18.75Z"/>
  <path class="cls-1" d="M918.76,1194.72c-1.26-.44-6.22.58-6.76,1.81-.6,1.37,1.69,6.07,2.9,5.48l4.52-2.21c1.2-.59.6-4.64-.66-5.08Z"/>
  <path class="cls-1" d="M1081.48,1105.31l-3.5.28.02,21.7c0,1.8-4.32,4.94-5.52,5.23l7.74,16.72,7.56-16.29-5.75-3.73-.56-23.9Z"/>
  <polygon class="cls-1" points="987.81 1593.63 988.83 1595.48 1014.2 1594.97 1010.83 1593.15 987.81 1593.63"/>
  <path class="cls-1" d="M1904.1,1182.64l.62-7.82c.13-1.65-7.3-2.01-8.08-.57-1.09,2.01-.84,6.63.2,8.42.84,1.43,7.13,1.63,7.26-.03Z"/>
</svg>