<?xml version="1.0" encoding="UTF-8"?>
<svg id="Lag_1" data-name="Lag 1" xmlns="http://www.w3.org/2000/svg" viewBox="0 0 2409.45 5669.29">
  <defs>
    <style>
      .cls-1 {
        fill: #1a0a3d;
      }
    </style>
  </defs>
  <path class="cls-1" d="M1488.53,4403.66l-1.15,27.25,18.19,28.77.42-367.43-.04-29.94.05-116.87.04-37.88.04-36.49-.03-27.62-.05-15.3.18-45.85-.2-21.19.07-53.68.09-28.15-.23-58.21.71-145.3-.27-46.84.24-16.7.22-26.28-.04-38.09-.37-17.03.11-61.02.16-32.41.33-42.14-.24-13.36v-107.82l.45-20.09-.34-29.93.07-31.68.71-9.69-.95-32.45.22-12.39.95-32.63-18.68.04-.14,448.65c-.41-.41-3.54-3.42-3.83-4.38l-.24-444.45-43.36-.3-.38,129.63-.04,38.54.15,45.53-1.47,55.78.99,165.92.42,211.8-.07,20.77c-.01,5.09-.81,11.07-1.61,14.75,1.19,5.87,1.7,13.57,1.63,20.54l-.22,25.22.14,21.69.03,30.96-.27,56.33.16,24.57.03,21.2-.07,43.3-.76,35.61c-.11,4.97-1.42,6.89-.41,10.91,2.17,8.51,1.33,17.91,1.25,26.83l-.16,17.05-.18,19.39.04,23.21.33,70.82-.08,16.58-.12,30.4v80.19l-.3,151.93-1.89,55.95c5.47,1.06,10.54,3.04,13.01,5.72-2.51,15.44-2.96,31.41.05,47.05-1.95,3.7-7.22,6.89-12.74,8.94,10.79,34.63,2.78,70.22-15.89,100.88-37.62,61.78-113.66,96.54-184.62,108.06l-.04,169.16-1.75,68.22-.33,267.22c0,1.72.73,8.06-.79,7.77s-5.48-.83-7.1-.73l-25.07,1.49-49,.11-3.36,1.14-1.66-9.69.26-249.54.81-33.5.79-33.56.09-12.78.23-173.42c-60.52-4.68-125.39-30.48-163.31-77.31l-25.42-36.81c-10.72-15.51-10.28-36.7-11.07-54.79l-1.14-26.02.05-7.37c.76-3.15,1.42-3.09,1.61.04l1.71,14.22c2.13,17.72-.38,37.9,8.02,54.21l21.27,41.27c32.82,52.81,106.02,79.62,168.22,84.3l-.03-180.45,1.9-17.65c.87-3.41,1.72-3.22,2.37.11l1.52,18.23.19,77.6-1.26,25.18.5,73.45.58,105.88-1.38,18.49-.31,319.62-1.74,37.65-.56,32.55c-.03,1.19,1.63,5.15,2.51,5.05l16.75-1.84,59.61.27.15-309.07.5-17.03v-29.18l-.05-41.21.45-18.75v-14.2l.37-23.32,1.52-52.92c.2-6.96-.28-12.77-.12-19.73l.87-36.81,1.18-47.51,1.61-31.12c-.76-24.39.33-47.2,2.81-71.21l-1.23-2.47-3.16-2.29,24.62-2.02c12.58-1.03,25.8.42,39.07,2.55l-55.96,3.16-1.36,62.35-1.94,66.66-.96,66.14c39.17-6.36,76.46-18.68,109.05-40.37l17.58-11.71c24.05-19.09,45.39-41.43,55.91-70.06,8.18-22.28,11.48-44.51,4.35-66.54l3.32-5.18c.47-.75,2.59-3.35,1.76-3.69-1.11-.45-3.89-1.59-5.22-1.56l-43.94,1.02-39.56-.66-35.07-.94-4.91-.1c-.77,0-.75-1.21-.03-1.32l5.14-.76,87.92-.27,44.5-1.64c4.14-11.78-.18-22,3.58-41.99.33-1.75.12-5.87-1.14-6.92-1.57-1.3-5.89-2.47-8.18-2.59l-24.27-1.17-71.54-.56-26.13,2.47-36.29,1.64c-1.07-.88-4.1-3.36-2.63-2.17-.8-6.76-1.03-7.07-2.47-11.88-2.47-8.23-1.6-18.61-1.51-27.7l.26-23.88,1.09-159.53,1.41-20.36.26-417.34.65-39.41.34-16.4-.11-27.13.65-29.94.84-329.8,1.11-30.2-.04-49.27-2.01-35.33-1.57-37.27-1.83-20.81-.26-196.43-26.78-.05-.28,131.62-.61,19.96-.42,16.4-.41,19.4.64,28.42-.98,18.91-.42,414.69-.47,38.41-1.21,87.87.09,39.07-.42,275.55-.34,33.47-.43,15.78-.9,22.14-.26,152.84c-5.62,7.01-11.88,15.64-19.71,20.02-30.37,16.99-69.68-2.17-77.11-35.3l.64-17.5.45-49.45.15-14.94.68-191.72.31-23.4.24-40.48-.47-42.73,1.09-38.83-.68-33.5.64-20.59.41-18.36v-89.92l.38-522.75v-13.08l.11-99.12.09-14.52.34-53.14v-31.54l.04-19.82.15-21.3.6-15.97-.12-17.85-.31-15.49.54-57.59.43-51.96-.08-921.94c0-12.92,2.09-19.14,12.06-29,11.11-10.99,24.05-19.22,42.57-15.02,17.83,4.06,36.06,17.03,46.67,33.75l.84,160.56.65,88.03-1.45,110.67-1.13,12.01c1.87,10.07-.39,19.35-.41,29.82l-.47,436.2-.85,22.07-.2,11.53-.54,15.14-.28,258.07,27,.23.35-16.58.38-34.63.03-23.28.07-18.83.56-65.81.08-58.31.35-14.94.52-319.24.16-35.14.23-34.02.2-16.84.2-27.68.27-29.07.69-378.36v-263.57c.26-4.23,2.17-4.25,4.14.53l.11,767.07.2,44.93.05,46.11.58,56.87v12.77l.09,29.34.34,16.12v18.82l-.24,13.38.54,30.21.47,300.22,6.06-.07,29.06-.3v-614.95l.09-67.71c-.87-2.82-9.29-2.98-14.2-2.74l-4.71.2-3.96-.12-4.26-1.07c-2.28-.84-4.61-2.79-1.75-2.86l29.15-.31-2.05-29.63-.2-295.23.46-16.63.24-30.67-.18-9.52.11-19.29.64-22.87.04-2.1.77-112.37-.71-116.17c.54-.58,4.02-2.89,4.08-2.06l.58,6.88v602.13l.14,47.81,15.97-.18c.72,0,3.98-1.21,3.83-1.87l-.98-4.68-1.06-90.39-.15-15.7-.52-54.74.22-59.53.42-58.8.33-31.18.11-25.26.09-25.36v-255.56c-.01-12.64-4.48-23.37.41-35.14l-4.23-.37-55.97.03h-4.53l-3.93-.23-15.99-2.08-5.32-.03c-1.03,0-3.57-.91-2.55-1.19l7.12-2.02,25.21-.77,146.08.35c4.82,0,12.36,1.33,14.8-2.58-4.07-21.46,2.79-41.28-.87-41.95l-5.62-1.02-64.18-1.38-72.66-1.7-48.84-2.36c-2.2-3.64-3.74-6.27-2.47-4.37l17.07-1.68,15.09.04,50.25,1.99,96.28.91h5.2c.92,0,.39-2.5.41-3.96l.08-14.72,1.95-21.04-.09-42.5-2.92-29.79c-.22-2.2-2.52-7.26-3.83-8.85l-14.24-17.38-21.15-18c-42.71-36.06-94.35-58.54-149.41-69.92-1.76.35-3.74.62-3.66,1.21l.62,4.61-2.43,1.63c-.34.23-3.76,1.56-4.67,1.6l-38.19,1.51-4.14.04-17.68.19c-.71,0-3.39-1.6-3.96-2.03-.84-.65.23-3.27,1.29-3.26l5.09.08,15.71-1.11c24.2,6.63,46.04-3.2,43.29-7.48l-3.74-5.83c-.54-22.7.68-45.26-1.78-68.43l-.5-137.62-1.63-33.22-1.38-131.85-2.33-140.34-1.28-194.24c-2.75-10.79-4.71-19.35-12.86-25.55-24.16-42.83-68.92-69.8-118.03-67.61l-4.42.2c-1.29.05-.95-4.3-.98-5.77l-.2-14.86-18.38,12.68-42.16,28.14-17,10.04-1.3-5.56,50.4-36.76c6.91-5.03,14.9-12.67,23.42-16.33,2.82-1.21,9.16,2.27,10,5.09.98,3.27,1.61,9.29,1.6,12.83v5.47c-.03,3,22.21-2.93,47.37,7.65,31.65,13.31,57.17,35.07,77.97,62.99,3.81,5.11,7.19,15.28,9.14,21.38-2.75,17.17-1.22,32.17-.91,48.93l.91,48.59v9.32c0,1.17,3.01.52,4.4.3,19.24,2.58,35.88,1.79,55.36-1.03,4.84-.71,10.73,7.64,11.03,11.8l1.67,23.61c.99,13.93,14.56,1.98,14.53,34.46l-.05,62.31-21.33,12.93c-2.59,4.37-2.73,13.15-2.4,19.48,1.32,26.2,1.42,51.74-.2,79.89l120.06-1.29,60.9-1.9,52-1.06,36.62-.68c1.07-.01,3.65-.62,3.81.2l1.07,5.39-.03,187.12-1.7,26.89.27,43.05c.03,4.64.05,13.59,3.81,16.73,11.86,9.89,17.19,20.24,18.34,36.14l1.49,20.58,1.33,67.64,1.4,17.19c3.05,37.39-27.13,62.03-32.33,53.95-2.36-3.66,1.34-12.77,6.32-15.34,17.2-8.91,20.58-25.76,20.4-43.33l-.91-90.81-2.9-19.49c-1.93-12.93-14.03-20.2-22.21-30.04-6.77-8.14-3.68-22.94-1.72-33.05l.46-52.57c.68-1.26,1.67-3.05,1.67-3.5l.07-3.73.07-4.42-.11-76.72.72-3.58.69-3.42.71-4.4v-50.34l.04-4.92,2.44-19.63-.77-5.86c-.2-2.37-.84-4.26-3.15.62l-21.61-1-18.15.12-21.77.61-45.65-.22-15.76-.62-63.6.19-45.66,1.02-25.45-.54c-8.22-.18-18.23-3.27-18.26-13.67l-.22-86.93c-.03-8.85,3.35-14.31,11.08-18.17l11.17-5.56,2.81-38.38,1.8-25.72c.27-3.88-6.55-8.3-12.62-10.27l-4.16-29.9c-1.59-11.37-8.86-9.44-24.43-7.31v350.4c0,1.93,0,4.48.81,4.29l4.5-1.09c47.58-11.45,139.16,48.21,179.13,81.93,25.86,21.81,43.33,51.71,56.42,81.78-3.11,2.32-7.65,4.29-9.41,3.28s-4.4-4.23-5.4-6.17l-12.1-23.36c-26.82-51.81-92.71-101.76-147.26-122.21-21.41-8.03-43.39-10-66.79-12.05l1.13,42.49,1.52,46.83,2.08,74.52,47.14-.18c9.18-.03,18.5,0,25.55,6.1l-98.23.34-3.8-1.38-4.44-2.66,22.18-1.47.27-42.72-.42-106.41-1.66-17.38.77-63.5,1.34-23.7.79-189.26,2.06-71.66-1.19-6.08c-.28-1.45-3.17-.85-5.77-.46l-24.22-3.66c-1.8-.27-6.95,2.66-6.74,4.23l2.14,16.55.43,128.46,1.44,25.23,1.47,147.71,1.61,120.88,1.52,31.24.57,90.91,1.47,25.41c.12,2.05,1.82,5.39,3.58,6.65,61.36,8.19,117.1,33.94,163.87,73.8l35.72,36.72c-2.5,8.04-1.4,13.92-.96,21.42l2.21,38.96.61,62.43,13.38-1.37c8.13,6.67,2.97,16.17,4.07,24.54l4.18,32.04c-3.53,4.52-10.73,7.73-16.69,7.83l-18.6.3c-5.16.08-9.62-.16-15.38,1.56l.19,404.33,1.42,26.03.81,41.72,22.05,17.39.45-39.22-.14-445.91,3.07-3.03c-.09-.07.3.23,2.94,2.27,0,0-.54,1.07-1.75,3.46v454.84l1.8,32.87,43.56,34.91-1.15-37.51-.68-14.99-.23-558.01-1.44-28.16-1.09-133.51-1.42-21.23c-.76-11.37-.62-21.52-2.75-32.41-3.39-17.34-6.16-35.26-16.59-49.75-15.11-20.99-31.79-39.59-49.15-58.47-18.3-19.89-39.46-34.13-64.85-43.07l-53.9-18.75-4.82-2.81c-.91-.53,2.44-2.03,3.61-1.63l55.15,18.95c18.22,6.25,35.14,14.34,49.61,27.49,26.35,23.94,50.29,50.79,69.55,81,11.02,17.27,12.49,38.56,16.86,58.01,5.1,22.66-5.41,34.91,3.32,41.2l.19,377.55.9,48.47.79,47.93.42,286.66,2.82,17.8,11.1,9.59,5.05,3.41c1.13.76,1.34-3.05,1.33-5.45l1.09-45.83-.12-15.68-.08-19.39.22-21.75-.14-24.58v-29.19l.08-64.51.05-50.05.3-47.39v-72.04l.08-18.91.28-49.48.81-192.9.14-39.08,3.24-59.75c.39-7.15,2.14-14.38,2.17-21.68l.07-12.97-.16-59.2c-5.36-9.14-6.63-19.03-5.52-29.95.94-8.02.62-15.8-1.18-23.63l-23.94-4.61c-1.63-.31-2.71-6.24-1.17-6.78s6.25-2.18,7.95-2.06l16.51,1.23c2.62,1.37,7.57,8.42,7.62,11.91l.64,36.94c12.6,2.06,22.48.9,32.36,8.59l.57-27.87-1.55-13.92c1.28-.72,4.03-1.13,3.76-.45l1.66,18.74.65,28.91,1.95,20.8c2.31,24.55,1.78,46.9-7.76,69.85l1.64,35.84,1.53,26.71c-2.29,21.19,3.58,39.57,3.62,60.44l.65,322.29.04,52.62.08,98.53v28.33l-.28,178.56,75.65,61.82,3.41,5.89-79.01,64.06.08,121.34v56.96l-.15,444.5,115.35.37,28.8.35,17.23.34,15.17.3,28.71.34,37.08-1.41,4.99-.26c.95-.05.87-2.39,1.07-3.91l2.21-16.86c13.01-64.2,69.03-109.21,133.67-112.61l11.67.05c12.73.07,24.28,2.06,36.3,5.54,53.71,15.49,92.29,59.52,97.05,116.13,3.09,36.83-12.17,69.5-35.42,97.75-20.57,24.96-47.12,42.11-79.92,48.95-50.75,10.57-104.75-10.36-137.07-51.14-17.47-22.03-29.13-47.89-27.8-75.46l-203.29-.39-41.76-1.45c-1.41-.05-3.99-.1-3.99.8v5.26l-.28,206.09-.64,18.37-.09,8.15.04,9.96-.08,18.83.14,13.57.09,25.56-.16,26.77-.46,26.62-.08,45.46.35,21.48-.24,31.65.08,23.82.42,62.2-.66,20.35-.03,27.51-.18,43.11.49,37.17.43,18.75-.46,5.32v31.27l.3,4.78.04,5.11-.33,15.22-.47,30.7.15,62.72-.39,21.1.19,531.05.08,62.09-.39,273.33c0,1.57,2.27,5.09,3.54,5.91l16.25,10.41c7.91,12.86,7.76,27.76,7.03,42.9l1.15,3.96,1.11,3.87-.26,74.56-2.47,20.74c-.61,5.17-3.32,12.02-6.59,15.14l-8.03,7.66c-1.86,1.78-3.88,7.08-4.06,10.13l-1.53,27.51v204.78c0,16.18-6.88,28.79-22.14,29.75l-19.2,1.21-30.67,1.89c-.54-.09-3.07-.6-3.41-.81l-6.23-3.92c-.31-.2-1.42-1.7-2.05-2.44l-2.56-3.05-.5,3.76.16,6.65-5.85,10.13-33.83-3.4-28.27-.96-28.69-3.01-57.4-6.19-7.08-.75c-2.89-.31-4.1,1.6-3.88,4.29l1.53,18.75c1.78,21.75-17.08,23.69-17.36,25.07l-1.99,9.74v4.41l-3.17,8.66c-3.92-9.35-1.75-16.96-.35-28.16l16.7-14.79v-4.53l.11-3.23,1.74-17.42c.04-.37-1.9-2.62-2.27-2.63l-3.91-.08c-9.97-.2-12.7-8.34-13.89-17.18l-.47-3.53-.5-3.93.2-3.99.43-4.42,1.79-33.12-.03-4.12-.05-4.12-.05-4.12-.05-4.68-.08-6.55c-.01-1.26.9-2.5,2.21-4.57.66-1.04,2.01,1.36,2.01,2.63v8.44l.03,4.73v12.4l-.03,4.23-.11,19.45-.87,5.47-1,5.64-.46,4.53.19,4.65c.11,2.51,1.38,8.33,3.3,9.9,2.21,1.83,8.15,3.13,11.68,3.42l44.51,3.59,60.7,5.17,25.76,1.32,18.06,1.38c1.66.12,6.4-.5,7.85-1.28,1.8-.98,3.27-4.91,3.53-6.93l.38-2.96.16-3.3-1.72-35.6,1.86-47.51-.45-64.63-2.13-49.12-1.26-4.79-.09-4.33c-.09-4.27.56-14.46-1.56-18.46-2.48-4.71-14.35-4.49-16.54-10.84l-1-2.92-1.04-3.07-.64-3.69v-20.47s-.09-18.93-.09-18.93c0-.88.05-3.39.28-3.8l1.93-3.49c.58-1.04,4.16-.83,4.15.39l-.03,6.76-.03,4.49-.03,4.08-.14,18.97c-.04,5.49.31,11.9,2.27,14.98-1.55-2.44,17.26,2.82,17.95,20.53l1.34,34.24c-.49,4.91.53-.5,1.07-3.43l.91-29.29,1.55-31.01c1.33-26.71,20.19-16.96,20.92-30.74l1.68-31.72c.6-11.29-1.07-28.08,7.58-30.62l23.01-6.77,14.62-3.8c1.07-.27,3.65-3.53,4.57-4.71l-.03-84.3c-2.33-3.43-4.8-7.95-4.72-11.19l1-42.63-.05-10.81v-69.6l.12-36.79.08-27.08-.08-37.81-.18-45.42.76-21.33.35-18.44-.2-20.08.62-48.02.04-12.81.49-188.23.69-31.72-.35-24.12.75-18.97.11-18.07.16-13.15-.19-52.16.18-34.31.18-25.29.73-222.66.18-19.81-.61-66.04,1.49-19.75c.58-7.81-1.7-13.42-.53-20.73,1-6.29-.5-15.47-.3-21.2l.15-4.33v-22.52l1.02-35.56.19-163.72.08-324.78,1.57-5.55c.31-1.07-4.59-1.25-5.79-1.17l-16.25,1.18.18,57.55.08,28.25-.05,76.64.38,95.86.12,24.28-.28,19.16.49,30.29.07,11.33.28,66.15.07,19.96-.27,22.44-.14,11.46v16.25l-.15,18.83.6,21.64.08,45.34.56,197.44.33,47.75-.04,24.61-.18,30.36.19,41.08.16,30.46-.27,22.83.39,34.61.03,74.32.16,31.96v18.61l-.03,70.49.41,50.63.31,54.6.04,37.99.07,43.68-.19,199.9.05,102.76.05,43.89c0,.88-1.76,4.16-2.44,4.38l-10.98,3.4c-10.34,38.08-56.31,90.04-87.67,106.9l-54.75,29.44c-4.27,3.07-2.54,3.69-.11,3.53l10.19-.71,36.56-1.34c18.65-2.35,37.57-2.37,56.11-1.14,1.17.67,3.16,1.83,3.55,1.91l7.62,1.71c1.34.3-.35,4.16-1.63,4.52l-4.12,1.15-3.77.52-4.16-.24-4.06-.26-3.23-.2-2.65-.18-2.94.15-3.64.19-4.07.16-56.35,1.7-3.34.08-3.3-.65-3.5-.67-3.96-.2-4.29-.2-4.07-.19-3.22-.16-2.48-.45-2.1-.39-2.84-.54c-.69-.14-3.87,0-3.6.64l2.36,5.36c-1.78,49.15-33.64,89.19-79.29,105.74l-8.4,3.91-4.1,1.59c-3.01,1.17-2.59,7.35-2.79,12.09l-1.19,27.95-.3,121.93-.12,14.95-1.61,13.95-.15,75.01c-9.52-5.43-6.73-13.15-6.53-20.63l1.38-49.21,2.17-67.86,1.53-68.96c2.86-21.67,1.72-42.42-.58-63.95,1.14-2.4,4.45-8.28,6.57-9.25l31.31-14.27c8.79-4,17.32-11.88,24.69-18.15,11.63-9.88,18.74-21.41,25.48-35.14,10-20.38-10.15-40.18,15.97-54.22l21.52-11.56,39.18-21.18,17.54-11.25,18.87-16.05,28.57-29.29c9.9-10.15,14.8-24.72,21.1-37.52l-4.97-2.73c-1.44-.79-1.4-4.67-1.4-7.42l.03-155.37-6.34-.03-3.65-.6-3.31-.56c-1.75-.3-3.36,1.6-3.36,3.46v12.26l-.05,4.16-.03,4.18v4.14l.62,3.58.65,3.43.68,3.57.73,3.87c-.92,21.81-3.09,43.28-8.32,63.99l-1.87,2.98-1.45,3.08-5.7,12.14c-.39.84-2.65,2.54-3.43,2.97-1.17.66-4.3-2.89-3.28-3.79l2.86-2.5,2.29-2.01c.27-.24,1.33-2.16,1.42-2.51l.94-3.47.9-3.28.87-3.15.9-3.17.95-3.28.96-3.27.92-3.11.92-3.2.54-3.31.54-3.79c6.15-21.26,4.72-41.95,1.9-63.96l.18-4.27.15-4.18.12-4.18.12-3.85c0-.41-1.8-3.07-2.18-3.08l-7.07-.22-3.85.34-4.72-1.9-5.98-2.96,15-20.73,2.67-2.47,1.93-2.22,1.61-2.47,1.66-2.54c.24-.37.8-2.96.8-3.38v-4.02l-.03-49.87v-12.39l-.03-4.14-.03-4.14-.03-4.14-.04-4.16c0-1.19-.18-3.74,0-4.23l2.05-5.41c.35-.92,2.06,1.06,1.97,2.08l-.5,5.52v3.26l.2,15.37.69,4.65-.77,22.82v11.29h.2v.05ZM1521.66,2054.8l.8,57.51c.08,5.82,9.75,12.64,14.04,15.71l12.58,8.99.22-339.93.96-24.51.43-17.36-.83-35.31-1.26-220.02-4.97-36.57-1.91-112.61c-.26-15.25,2.66-27.51,7.56-42.48,4.31-13.19,1.9-31.61.09-45.01l-27.4-2.56,1.93,18.53-.04,80.29-5.4,29.48.04,67.95.22,33.63.76,31.3-.28,23.02.79,18.29.5,204.2.19,44.27.5,16.06.26,26.71-.15,31.12.38,169.33h0v-.03ZM1359.15,2064.38l.31-28.92.18-35.33.39-30.59-.68-27.4.61-20.89.14-23.35v-18.21l.46-29.11.03-297.62-16.42-2.35.24,384.27.33,33.89.88,15.68.27,34.17.12,14.53-.46,111.18-1.8,64.59,17.46.07-1.61-40.45-.45-104.15h0ZM1381.39,2006.41c-2.33-2.2-4.73-4.9-3.69-5.21l3.69-1.09.24-99.22,1.3-36.85.62-311.28-18.67.14v640.83l2.54,15.19,16.7.05-2.7-20.88-.05-181.71h.01v.03ZM1404.56,1769.77l-.07-25.07.28-37.1.03-34.21-.39-44.59-.26-73.72-14.39-2.46-.04,455.23,14.38,10.79.34-132.61,1.3-16.88-1.15-33.89.16-39.1-.19-26.41v.03h0ZM1406.7,2208.97l-1.64-54.33-.83-127.16-14.31-12.06-.45,147.22-1.04,19.2.39,27.12h17.88ZM1435.3,2208.61l.03-154.45-22.66-19.36-.68,143.48.54,30.86,22.76-.53h.01ZM1439.18,2209.01h47.92l-.08-111.34-47.05-40.25.94,21.88-.35,27.72-1.38,101.99h.01-.01ZM1508.27,2153.13l.12-21.67.18-16.12-19.44-16.43v109.98l19.67-.38-.39-32.63-.14-22.76h0ZM1548.79,2208.97l.45-59.31-26.79-21.98-.76,81.21,27.09.1h.01v-.02ZM1618.33,2208.65l-62.7-53.18-.37,53.71,63.07-.53h0ZM1341.72,2783.96l-.23-14.58-.37-49.65-.58-56.34-.52-449.89-18.63.08.09,632.16.47,33.5-.14,19.44,20.36-.15-.49-114.57h.04ZM1347.65,2805.99l.26,22.25.56,70.36,14.35-.5v-684.52l-18.71-.23.19,235.01,1.79,21.67.31,260.54.57,33.05.65,42.39h.03v-.02ZM1383.69,2570.12l-.26-154.22c-4.31,3.76-7.87,7.22-12.78,8.15l12.94-14.11-.08-196.62-16.55.28v684.56l16.48.54.3-51.84-.05-12.71.04-212.49-.03-51.54h-.01,0ZM1409.37,2370.61l.49-19.35.03-62.15-.41-17.55-1.13-58.39-20.72.08.09,120.2,1.91,16.08.18,56.49,18.48-15.67c3.96-3.35.95-14.75,1.09-19.73h-.01ZM1414.65,2385.21l20.54-16.44.11-155.7-22.89.16.26,92.78,1.75,16.73.22,62.49h.01v-.02ZM1487.12,2324.31l-.09-111.16h-47.64l.12,150.64,47.62-39.48h-.01ZM1508.38,2305.98l-.84-93.25-18.45.84.12,107.68,19.17-15.26h0ZM1546.45,2257.48l1.34-21.29,1.68-21.01-27.23.1.03,78.86,18.26-15.15c6.54-5.43,11.37-11.08,5.93-21.5h-.01ZM1615.13,2215.59l-59.85-.53.35,51.92,59.5-51.39h0ZM1524.62,2863.61l.18,35.03,20.01-.03.76-39.27.46-18.75.07-35.2-.61-18.65.96-32.72.03-19.05.56-18.86.05-432.53-25.02,18.91.65,57.43.08,47.98.57,112.19.2,34.81-.07,26.93.14,35.25v20.78l.26,33.63.72,192.14h0v-.02ZM1507.46,2793.95l-.38-60.3-.34-18.92.98-81.28.12-13.4-.28-28.6.53-277.2-18.95,15.52-.03,568.29,17.53-.31.34-57.64.16-27.08.31-19.05v-.03h0ZM1440.38,2828.44l.54,70.12,44.12.12.22-35.83.05-153.84,1.52-52.77.07-323.69-47.52,38.47.68,313.56.23,53.13-.31,20.05-.2,24.37.61,46.33h0v-.02ZM1416.59,2649.41l.11,249.02,18.63-.16-.05-523.66-20.76,17.23.39,239.07,1.7,18.5h-.02ZM1410.48,2897.67l-.11-435.56-.03-12.83-.2-53.14-20.47,15.98.15,486.2,20.66-.65h0ZM2050.58,2975.44c18.74-23.89,24.93-54.63,22.47-85.22-5.39-66.98-63.37-115.11-129.67-116.45-73.16-1.48-132.11,55.34-134.92,127.27l8.14,2.78c1.4.47-3.99,3.88-6.57,4.88,3.51,52.35,39.49,97.92,91.94,111.43,52.43,13.51,114.91-1.72,148.59-44.69h.02ZM1316.81,4368.02c-.77-2.01-1.63-5.59-1.63-9.84l.23-847.64.75-17.7.39-24.72.66-28.19.03-534.89-35.08-1.86-.68,200.32-.2,43.78,2.46,22.57,1.84,21.04-.04,47.1-1.4,23.29-3.26,18.87.11,20.72.39,40.05.35,54.71.19,40.01v322.02l-.28,17.46-.49,26.56.05,25.29-1,22.53-.04,311.47,1.49,36.3-.69,13.8.66,66.69-.88,16.75,1.07,12.37-.19,66.05,30.55.28c1.15,0,4.8-4.27,4.25-3.99l.39-1.26v.06ZM1341.43,3897.13l-.52-74.22,1.42-271.73-.14-62.04.85-72.21.83-35.99.03-169.01-1.75-17.49-.12-289.41-20.2.39,1.11,90.62.31,28.92.05,189.97-1.44,19.12-1.72,36.02-.31,149.88.53,44.44.26,23.05-.38,17.81.68,24.61-.16,13.65.16,54.69-.14,15.02.05,34.57-.04,19.21-.07,19.64v27.42l.09,27.05.04,25.23v24.42l.09,31.68-.28,68.96-.11,50.48-.05,23.74v29.76l-.68,53.22-.8,274.51-.28,45.84-1.48,1.9,27.38-.91,19.51-1.55-2.78-19.02-1.41-109.02.5-25.31.33-348.63.04-51,1.8-214.44.04-12.98.2-194.2.83-8.51-.38-20.55.09-19.77.11-23.47.24-25.12.41-23.93.54-31.77-1.63-27.68-.31-307.85-14.54-.2.49,119.83,1.4,66.37-.5,122-.28,31.07-.84,33.69-.38,272.91-1.61,56.38-.49,237.53-.42,12.97-.04,26.17-.64,11.94.92,1.19-1.42,21.23.72,13.48.6,3.57c.12.73-.37,2.47-.54,3.2-.27,1.09-4.27-2.6-4.27-3.73l.07-28.58-.43-5.86c-.08-1.17,2.48-2.2,3.46-2.6l-2.65-.64.05.07h0ZM1368.9,4369.07l17-.16-1.87-79.09-.76-254.16-.98-30.14.65-57.4.27-148.47-.08-14.56.15-58.78.45-518.56.03-17.66-.07-267.49.99-17.19-17.32-.61.54,33.25.76,77.29.57,481.33.41,27.49.75,42.53.14,27.13.27,20.11.75,584.55,1.15,79.51-.34,21.73-1.63,54.97-1.82,14.41h0v-.03ZM1411.07,4278.33l-.31-149.6,1.19-217.54-.3-23.73.27-12.62-.85-26.93.03-50.25-.05-34.63.19-16.13-.23-42.65-.28-95.38.31-16.5.3-34.87.99-174.25-.15-26.9.07-29.03-.75-187.54-.64-115.68.26-24.73-.88-94.41-20.5-.14.12,28.76.54,69.81.96,18.03.08,175.25-4.16,28.19.9,277.96.79,89.2-.24,25.34-.07,16.69.81,31.76.52,274.2,1.45,20.34.08,91.75-.6,76.3.64,56.5-.24,119.74-1.94,64.34,23.54.04-2.02-43.43.18-47.28h.01l-.02.02ZM1433.45,4189.82l.72-30.02.05-72.05.04-123.22.19-40.35.19-34.35.2-21.58-.34-58.63v-6.74l.27-100.17.34-60.57-.07-18.95v-83.47l.41-283.94.91-24,.43-24.93-1.09-49.38-.46-252.32-18.6-.26.71,50.34.73,52.83-.3,167.82c-.03,18.34-3.16,34.69-2.59,53.1l1.34,43.21.35,511.64-.24,19.71.71,14.22-.37,49.25-.28,22.86-.31,70.42v32.59l1.52,128.4.54,144.09-.43,56.18-1.7,47.55,19.74-.18-1.97-59.53-.8-78.7.14-40.81v-.03l.02-.03ZM1550.9,5047.15l1.33-119.99,1.6-71.09c.08-3.47.19-5.63-.94-8.57-10.54,17.74-19.28,35.48-33.25,51.15l-15.47,17.36-26.71,18.64-2.77-4.87c-2.69-4.73,16.47-14.98,20.5-18.49,25.29-22.05,46.17-49.72,59.5-80.67,3.34-7.73,2.32-16.08,10.5-21.07,8.19-5.01,8.32-13.42,9.31-22.03l2.37-20.61c1.25-10.83.24-20.59,0-31.51l-1.18-53.17c-.2-9.27-6.21-17.04-12.25-22.59l-15.98-14.68,1,16.78.5,48.92-1.51,10.79c-.76,5.4-2.35,18.83-8.18,20.01l-30.19,6.08c-6.01,1.21-12.62,5.93-11.4,12.44,3.53,18.83-.31,43.89-7.05,61.29l-15.67,9.52-1.45,42.72v115.68l1.75,38.54,1.33,26.82,2.12,30.63,54.67-4.69c8.47-.73,14.49-8.23,15.38-15.72l2.1-17.57v-.06h.04Z"/>
  <path class="cls-1" d="M962.53,2998l.3,23.09,1.45,363.06.05,151.74-1.37,283.29-1.09,32.25-1.03,223.93-.83,38.68-.45,17.23-.68,111.45-1.42,43.36-.12,14.6-.43,54.1-2.16,16.23,23.23-.22.19-239.3,1.13-32.25.88-137.66.85-26.33,1.3-156.5,1.37-27.51.47-154.18,1.49-18.98.28-17.08-.05-549.22-.04-29.14-.8-90.98-.73-84.82-.5-533.31-.71-39.68-1.09-44.51-.47-515.91-1.53-42.14-.31-61.62c1.61-4.21,2.78.11,1.89,2.74l2.17,36.41.34,328.6.72,16.43,1.07,22.29.3,375.04,1.66,32.46.39,304.71.34,26.83,1.1,51.02,1.03,297.44.79,67.48.27,23.05.26,29.22-.77,221.8-1.37,232.3-1.6,15.55-.37,218.72-.43,14.73-.28,31.16-.12,26.86-.76,19.66-1.28,221.74-1.66,149.92-1.8,35.19,17.05.24c1.15,0,4.08-.41,4.1-1.28l.04-4.91-.84-45.39v-18.92l.05-52.98.23-25.23.76-182.28.52-28.69.69-44.69.8-109.24.56-14.3.95-21.92.57-137.9.14-20.8,1.48-21.12.23-194.11,1.83-16.59-.34-80.3-3.31-25.91-.6-131.95.2-23.35.03-1613.77,1.76-1.15.71,61.93,1.53,28.22.28,1080.79.26,20.02.38,36.48.66,39.68.16,13.54,1.53,488.97.65,195.61-1.55,19.92-.43,350.13-.19,61.51-.75,33.58-.69,28.98-.35,176.67-1.04,37.43-.49,12.77-.81,84.9-1.98,45.49,16.99-.07-.26-113.85.45-175.14.42-32.88.52-16.08.52-39.49.62-133.42-.04-10.98.35-53.63,1.13-19.07.11-35.77,1.29-263.23.37-172.33-.3-66.11.52-19.81-.18-19.49.22-25.57.28-26.1.27-795.24.12-33.66.05-19.37.3-36.14.23-14.56.53-87.83v-37.47l.12-20.39.05-17.53.35-41.59.08-61.44-.08-241.14v-21.45l.28-159.39-.19-6.74c-.05-1.71-4.79-3.38-6.61-3.27l-19.29,1.19-55.87-1.51c-1.93-2.05-2.33-4.44-.61-4.67l20.88-.19,93.42,1.75,69.2.35,13.85-1.15c-4.54,11.02-11.54,6.72-17.89,6.54l-50.66-1.42-44.24-1.13.18,699.36.71,15.55.14,42.38.8,77.64.39,694.59.23,37.8.62,37.5.34,18.86v39.71l.6,92.58-3.84,23.66-.26,288.51-1.91,17.62-.11,578.21-.47,32.56-1.03,18.48-.49,78.64-1.84,22.95c-.09,1.1-.08,3.91.81,3.92l5.01.05,10.83.1c1.06,0,3.77-.39,3.77-1.26v-5.2l.19-208.83.81-15,.84-39.53.52-197.74.43-13.06,1.23-23.39.33-245.5,1.71-17.88-.31-268.04-.26-44.02-1.61-22.52.83-160.15.19-19.28.24-21.88.19-20.7.2-28.41.23-31.3.72-303.71.41-39.36.66-9.69.75-111.24.9-360.92,1.29-111.23-.07-310.26v-180.46l.11-4.97c.01-.73,1.91-.72,1.93,0l.08,4.99.24,75.92-.43,1378.88-.04,41.11-.85,230.38-1.97,192.66-1.48,334.21-.27,20.81-1.25,44.27-.57,394.7-1.32,97.51,57.75.07c9.35,0,15.98.66,19.98-8.9l58.17-79.04,6.55.03c.37,0,2.21,2.22,2.5,2.58l40.13,50.85,42.95,56.42,16.51,25.02,1.68,2.62c.2.33,1.17,2.28,1.23,2.66l.73,4.65c.11.71-1.72.2-2.73-.16l-30.23-34.31-29.95-40.54-45.35-61.73-49.46,62.91-55.38,72.12,6.12.64h3.88l4.21-.1,4.15-.1,4.61-.18,24.22,2.47,4.76.1,4.21.1,3.24.76c1.1.26-4.99.99-6.44,1.03l-48.34,1.55-30.94.14-27.57,1.04-18.78.38-14.54-.47-51.77-2.27c-.8-.04-4.59-.91-4.07-1.41l2.24-2.2c.5-.49,3.04-.99,3.84-.98l47.54.87,43.53-.08,41.23-1.26,35.34-48.96-45.49-.16-24.93-.61-37.2-1.48c-1.89-.07-6.16,2.67-7.73,1.98-4.23-1.89-14.2-3.36-18.21-1.93l-4.67,1.68-29.74.66-1.59,4.04-.05,3.79v4.29l-.04,4.34-.33,3.73-2.9,19.81-.52,3.59c-.05.41-.72,3.11-1.07,3.32l-4.67,2.96c-1.04.66-3.08-3.05-3.11-4.33l-.34-13.2,1.29-33.66c.27-7.18,15.95-4.29,15.9-6.36l-.2-7.11-.76-14.94-.18-23.85.54-40.58,1.4-240.63.83-40.88.84-119.46,1.02-39.64.26-14.53.81-109.15.77-26.28,1.84-173.66.33-110.5-2.47-30.85-.34-99.86-.41-32.71.69-34.92-.92-14.08v-966.03l-.54-31.01v-18.57l.05-19.63-1.87-4.86,1.1-31.95c0-.31-.54-2.43-.79-3.34l-.04-330.18.03-223.59v-11.5c.81-3.05,1.78-3.76,2.02.77l.11,275.29,1.93,17.47.33,586.8,1.23,51.21,1.07,425.15.42,45.65.5,39.98-.19-.04v.02Z"/>
  <path class="cls-1" d="M873.71,4516.12l.04,17.01.22,21.8,1.55,31.72-.62,33.37c-.15,8.19,3.42,20.95,7.81,27.99l24.08,38.64c14.15,22.7,36.82,37.97,60.91,50.81,35.84,19.1,70.22,10.36,74.13,41.08l17.89,3.01c-4.54,9.29-10.2,6.2-15.68,3.73l.49,34.99c3.65,29.85,27.91,49.07,55.69,56.18,5.72,1.47,14.43,5.83,18.69,10.12,6.4,6.46,11.71,19.71,11.72,29.94l.28,247.82,66.43,1.78,82.73.39c.75.27,4.72,2.41,3.87,2.98l-4.92,3.2-62.89-.52-93.38-2.28-20.88-.75c-11.02-16.93,6.77-29.57-13.53-36.97-3.55-1.3-5.16-9.4-5.2-12.83l-.28-21.25-30.5,2.03-74.7,12.45c-15.07,2.51-29.63,7.43-44.92,3-5.85-1.7-9.86-13.67-11.75-18.84l-28.1-2.51-62.12-6.62-.19-100.09-61.92.16c.22,1.68-.12,9.29-2.13,11.6l-17.31,19.36c-9.78,6.57-24.89,3.45-35.77,5.63-12.55,2.52-23.88,3.22-35.42-.85l-7.75-17.83c-30.74-.69-26.26-43.68-24.74-77.49l.56-12.33.52-68.22c.07-9.51,7.31-18.38,15.32-21.56,6.4-2.55,8.14-6.65,7.1-14.24l13.42-13.96,4.41,3.8c.72.62,2.41-3.24,2.88-4.42l59.2-5.45c9.44,12.3,16.5,25.88,20.91,39.17l61.9-1.57-13.24-11.92c-4.4-3.96-10.5-14.57-10.47-21.62l.41-113.08c.04-9.67,3.15-23.66,11.18-27.85l20.34-10.6-.04-14.41.64-184.26.28-63.71.46-24.6.11-53.51.18-36.75.14-30.44.07-19.21.2-66.26-.08-27.44-.08-16.58.04-92.6-.26-22.21.15-45.8-.28-20.47-.05-24.93-.14-16.48.09-64.96.08-60.26-.43-222.56,1.17-10.24-.66-19.68-.07-30.39-.05-26.5-.05-19.48-.08-27.32.42-63.29-.38-23.21.23-43.13v-24.27l-.14-35.38.03-20.02v-30.43l.27-67.38v-21.37l.11-20.34.19-86.44.03-13.65-.37-28.34.27-17.55.23-22.44-.26-22.72-.04-18.02.28-17.24.07-18.57.14-47.97-.33-67.64.33-20.73.47-66.49.05-28.83.08-122.72.26-1067.37c0-10.87,3.69-22.13-8.09-28.26-14.23-7.42-24.22-21.73-24.6-39.51l-1.21-55.27-1.23-28.46.87-27.97c.37-12.02,3.43-23.2,11.79-32.27l.84-2.6-18.04-.05-32.75-1.71-4.56-.85c-.9-.16,1.04-2.98,2.13-4.45l57.63-1.25c1.33,1.87,3.42,4.54,2.66,5.35l-3.38,3.53c-10.12,10.58-11.88,21.38-11.88,35.01v31.19l1.41,77.45c.3,16.5,12.35,29.18,25.93,33.59l.18-5.81.04-4.21c.09-12.49,1.79-26.94-2.81-37.89-4.06-9.67-6.27-17.89-5.39-28.3l4.78-71.41,1.99-4.04c.34-.68,1.06-.68,1.17.03l.8,5.85-2.36,40.29c.57,2.65,1.17,5.45.79,3.69l5.11-1.55c7.99-2.43,15.22-1.14,19.66,3.64,6.28-6.84,14.62-16.36,13.81-25.61-2.01-22.75,1.71-42.35,13.77-61.1l5.72-8.9,2.17-3.35c.38-.6.47-1.37-.16-1.3l-4.72.54-21.08,1.28-75.21-1.32-27.91-2.46c-1.37-.12-3.91-5.17-2.73-5.68s4.79-1.83,6.15-1.93l18.94-1.29c29.51-2.01,57.39-2.28,86.89-.39l21.23,1.36c2.31,1.91,3.85,3.2,2.93,2.44l9.35-14.94,3.65-4.03c.66-.73,4.64-.88,4.35.09-.41,1.37-1.93,5.64-2.93,7.37l-26.35,45.19c-20.86,35.8,3.34,53.18-24.61,73.35-2.65,2.6-.62,11.5.24,15.04l.95,3.87.87,3.57-.03,134.28v527.55c.3,2.59-.83,6.93-2.03,1.11l-.09-635.93c0-13.53-7.26-26.05-8.51-38.3l-19.98-5.78-2.14,17.64c-.71,5.82,4.33,15.23,6,21.58,4.56,17.23,4.65,34.4,4.52,52.22l-.15,18.53c-.2,27.17,1.61,53.79,1.61,81.48l-.03,2647.51-.18,138.54-.09,36.22.99,108.69.09,11.44.35,54.75.11,38.37.05,20.72.53,35.35-.46,173.96.62,16.06c.04.94,1.99,4.92,2.88,4.79l26.28-4.04c3.84-.6,10.81,6.59,11.92,10.26,4.64,15.34,4.4,29.32,5.29,44.85l1.68,29.36,17.34,7.41c6.25,14.26,8.22,28.11,10.23,43.9l9.48,17c9.84,17.62,19.82,36.72,37.17,47.29l53,32.26c20.49,13.76,42.68,23.32,67.9,25.18,3.19.88,8.63,2.58,11.15,4.18,4.29,2.75-1.42,9.58-1.53,16.01l-.88,52.49-1.38,33.85c-.08,1.87-3.04,5.07-4.68,5.24l-4.35.45c-1.36.14-5.01.62-5.11,1.97l-.61,7.23c-1.49,17.54,15.3,11.03,17.15,34.8l1.71,22.07,12.68-1.42,6.28-.71c.14.38-1.51-4.34-1.99-5.24l-.03-86.88,1.55-17.35.66-111.45.09-18.76c.04-8.55-.52-21.76-7.68-27.49-9.85-7.88-22.53-9.09-33.67-14.27-22.94-10.68-42.64-31.24-43.6-57.17l-1.34-35.84-1.28-7.04c-.3-1.66-4.35.35-6.43,1.04-14.68,4.91-29.36,7.16-45.43,6.78l-29.3-.69c-.91-.03-4.84-2.7-4.98-1.9l-.99,5.83-2.55,23.01c-2.41,21.75-3.13,44.8,11.11,62.68l11.75,14.76,69.03,53.3c7.18,5.55,16.96,9.55,25.53,11.78l23.09,6.01c2.69.71,10.7,2.18,11.3-.3l2.97-12.45.77-3.74.22-3.36.3-4.12.3-4.22.26-3.73.19-2.89.12-2.41.34-2.75,1.22-9.81c1.04-8.4-43.05.09-66.14-40.71l-1.53-2.7-1.48-2.62-1.38-2.97-1.36-2.9-1.59-3.28-11.53-34.23c-1.4-4.14.52-9.77.84-8.86l1.06,2.94,1.3,3.43,15.41,36.67c9.36,22.28,29.7,36.33,53.55,39.52,10.72,1.42,17.81,7.2,17.11,18.82l-1.76,29.11-1.63,19.44c-.15,1.82-1.79,6.19-3.47,6.58-18.78,4.38-52.34-8.4-72.86-23.56l-54.51-40.29c-24.84-18.35-35.76-45.83-34.16-76.31l1.26-24.01,1.3-15.38-.34-7.16c-.12-2.46-41.2,2.86-45.92-16.39l37.77,3.5c3.31,1.32,8.45,3.98,10.73,3.24l50.13,1.03c10.04.2,20.24-2.98,30.37-5.36l7.61,5.49c.07-2.18.16-5.41-.19-6.96s-4.02-3.57-5.67-4l-24.69-6.35c-25.12-6.46-48.55-14.26-68.47-30.93l-12.43-10.41-11.19-11.53-22.47-31.42c-13.27-18.56-20.77-39.93-20.76-62.74v-21.8l1.83-74.66-.11-1-.5-51.04c7.37,10.35,4.76,22.49,3.74,34.36l-1.36,15.59.85,1.11h0l-.02-.08ZM911.41,4830.4c-12.9-1.32-19.82-10.04-18.91-22.36,1.59-21.37-.73-41.28-5.29-62.6-23.12-6.81-46.93,1.03-47.13-11l-.49-29.72c-.14-8.3,2.16-16.93-1.03-22.78l-9.75,1.18c-1.93.23-5.16-6.05-3.83-7.45,2.66-2.81,9.9-2.27,15.11,0v-23.36l-12.77,7.27c-10.01,5.71-13.42,13.4-15.09,25.29l-.24,91.99c3.45,20.24,1.09,36.45,23.06,45.38-.31,5.55.26,9.71,2.27,12.06l46.97,54.9,35.39,30.09-.28-71.22c-.01-5.09-3.85-15.23-7.96-17.69l-.03.03h0ZM681.95,4876.03c-7.35-5.21-7.88-19.82-2.21-26.35,19.79-5.24,39.23-5.97,60.21-6.72,4.68-.16,8.19,6.73,6.54,10.76-3.47,8.48,2.39,15.55,2.69,22.33l1.74,41.05-1.51,28.58.27,25.75c-3.38,2.94-11.4,4.8-15.99,5.06l-29.28,1.66c-12.55.71-23.71-2.98-30.82-14.61l1.34,30.92,3.69,19.55c14.79,1.66,25.97,1.03,40.55-.69,5.78-.68,19.51,1.45,23.42-2.82l19.29-21.14,1.57-30.16-.77-37.61-.45-76.24c1.04-3.19,3.47-11.37,2.05-14.18l-10.27-20.19c-4.35-8.55-9.01-8.75-17.45-8.15l-37.93,2.73-11.37-1.04-13.78,14.68-.26,82.18-1.06,18.75,1.71,39.49c2.33-11.04,10.5-10.49,20.16-11.33,7.77-.69,14.57-1.14,21.15,1.57l-30.61,3.8c-.83,5.6-.19,11.87,2.08,14.86,2.6,3.42,11.3,5.58,15.38,5.26l35.99-2.71,3.74-16.04-13.76-3.85c3.47-2.4,9.31-4.06,15.7-5.29l-1.79-14.96,2.33-19.36,1.51-34.17-12.58-1.48c5.02-5.85,8.45-9.96,9.32-19.4l-17.26-1.9-20.84-1.07-16.2-1.02c-2.62,5.39-2.16,15.04.75,22.32l28.49-2.67c-5.26,8.52-23.33,8.06-35.46,3.81l-.03.04h.01ZM653.19,4971.7c0,10.88,7.95,17.96,16.14,20.16l-2.25-12.05-.11-151.49-16.63,16.48,2.98,40.14-.08,22.71-.07,64.06h.02ZM829.94,4932.62l.12-20.92-.2-19.68.22-24.38.71-32.82-12.43,2.06-45.34.26c-1.38-.69-4.33-2.28-4.79-1.3s-1.66,4.53-1.68,5.78l-.53,26.96,1.6,56.41,1.07,57.06,32.94-2.41c10.2-.75,17.19.77,29.03,4.6l-.83-28.83.12-22.78h-.01,0ZM923.22,4986.9l.22-46.02c.01-3.31-3.26-10.47-4.45-13.84-20.62-10.07-36.34-25.56-49.99-43.53l-17.81-23.47-14.83-21.98,1.06,94.12,2.08,69.45c29.44-4.22,56.18-4.33,82.05,5.36l1.68-20.09h0ZM1078.27,5091.1l19.13,1.83-.47-18.08,1.75-36.63c.46-9.7-2.02-19.75-3.55-29.63-.79-5.09-1.76-10.08-4.57-16.02-28.75-3.64-53.33-15.91-78.01-30.67-18.61-11.14-38.09-20.21-53.26-35.68-15.19-15.48-24.6-32.79-32.68-52.32l1.23,25.3,1.4,42.38-.16,76.99-1.25,75.37c-.27,16.47,50.71,4.86,76.65,2.18l51.42-5.32c7.15-.73,13.92-.5,22.4.3h-.03ZM920.16,5018.05c.01-.75,1.37-5.55,1-4.91s-3.45,2.92-4.18,2.88l-31.53-1.49-17.6-1.87-28.91-1.7v71.03c21.67-6.82,44.8-6.31,67-1.04l13.05-.54,1.15-62.35h.02Z"/>
  <path class="cls-1" d="M860.86,1011.78c0,3-8.48,5.28-11.48,4.08l.65-69.92,1.59-25.67c7.14-2.18,16.13-3.6,24.76-3.61l202.56-.15,21.12-1.97c2.84,8.09,4.29,16.42,4.18,24.76l-.6,45.92c-.08,6.67-10.81,13.77-16.77,15.42-14.37,4-25.34,8.59-37.05,17.36l51.93-.04c8.06,0,17.03-2.9,24.89-6.34l.73-32.91.35-18.64.56-37.01.11-27.13-.26-23.36-.22-14.23.41-37.01-.38-36.71.91-110.27c.05-6.55.31-11.34,5.89-14.5l.16,150.91-.79,58.8-.8,20.97-.49,125c-8.38,11.38-23.24,13.39-35.83,6.8h-107.08l-16.23,1.91-113.66.54-25.6,1.45-69.81.3-1.86,39.15c-.52,10.8-.73,22.25.42,32.6,3.24,29.13,2.17,78.17-18.23,92.79-14.3,10.26-32.69,7.38-49.07,5.98-10.15-.87-19.1-2.89-27.51-7.87l-1.78-13.91c-14.03-.2-20.8-10.32-21.61-23.75-2.2-36.36.08-71.6.9-108.34l-1.84-18.8c-1-10.23,2.17-22.05,12.58-25.07-1.91,3-7.85,9.21-7.92,13.16l-1.15,73.23c-.41,25.64-2.39,49.98,3.03,74.79l14.23,10.92,3.3-32.6c1.86-18.34.85-36.81.66-54.84l-.58-53.82c-.16-14.83-5.09-32,6.25-44.38l13.8-15.04c21.91-1.38,41.62.34,62.87,6.97l10.16,21.33,13.25-1.63,51.5.03,3.05-49.92,2.32-24.34,2.67-22.57,58.96-2.17,210.97-.43-1.09-48.51-1-52.91,2.06-9.27c-4.57.26-9.54.23-13.84-.64-3.58-.73-6.93-8.38-6.92-12.9l.31-77.11,15.83-4.29c2.46-15.68,5.11-28.61,9.82-43.53l42.95,2.77-1.15-94.91c-.18-14.12-15.71-23.5-25.82-29.44-7.15-4.21-12.64-3.5-19.87-3.61l-20.02-.31.34,24.57c.19,13.97-17.73-.33-32.98-14.29l-23.02-21.1c-5.24-4.8-10.81-8.75-14.29-14.5,6.85,4.46,11.87,8.15,16.43,12.36l22.79,21.01c7,6.44,15.91,12.26,23.78,16.8l5.35-29.18c17.55-4.78,35.83-4.84,49.72,8.34l18.97,18c3.27,12.21,3.39,25.06,3.85,37.94l1.79,49.61.15,20.69.73,37.2.56,14.77,1.44,146.08,2.16,140.37,1.22,119.23,1.72,16.54.34,122.22,1.66,15.1-8.7-4.63c-40.9,3.43-79.29,18.46-114.72,39.99-35.92,21.84-64.21,53.23-83.61,90.2l-1.11,25.12c-1,22.67-1.56,45.85-4.91,67.98l33.06,1.74,45.39,1.44,30.94.66,19.21-.43,18.95.47,45.57.99c-1.42,3.08-4.15,7.52-6.44,9.66s-8.57,1.03-12.51.8l-33.26-1.98-35.14-2.33-21.15-1.72-55.38-1.34-25.1-1.97c-26.86-2.12-4.82,17.7-14.52,56.65-5.89-3.08-5.91-8.22-6.25-14.52l-1.6-29.87c-.35-6.5,8.26-14.9,13.89-17.76l.81-66.2,1.57-23.05c-.66-10.68,4.33-18.59,11.87-24.53,43.13-73.26,113.56-106.45,195.44-115.18l-.85-141.33-1.17-25.9-1.48-141.55-2.05-136.5-1.42-153.67-20.42,1.37-22.32,2.17c-3.26,11.9-4.35,21.16-5.29,33.39-.47,4.54-9.43,9.18-14.86,11.49l-1.52,19.29c-1.29,16.32-1.93,31.89-.9,48.28l17.35,6.35,2.39,32.23.83,88.76-45,1.51-126.42,1.93-97.26,1.17.52,25.71-2.21,68.94c-10.17,3.85-21.26,4.87-32.36,4.83l-41.62-.15c-1.71,3.64-2.28,12.07-1.21,14.46l18.61-.79,33.47.3,232.24.53,7.04-10.23c13.84-7.9,27.43-12.97,43.34-17.39l.08-68.05c-6.81-2.22-13.05-1.8-20.88-1.79l-219.34.16,2.58,39.25.58,16.56.09,35.06.03.04.04.06ZM749.13,995.28l-5.66,15.63c-24.16-4.4-52.31,5.49-59.3-1.41-4.21-4.16-3.04-15.52-1.45-19.74.52,8.14,1.3,15.57,5.36,18.94,18.36-2.97,34.43-4.86,54.63-5.33.96-3.15,2.25-10.32,2.63-15.33-23.93-14.14-69.66-11.33-71.05,2.78-2.44,25.02.14,50.22-.31,75.44l-1.22,69.96-2.22,20.74c-1.1,10.34-1.72,25.25,10.95,29.13,8.63,2.65,19.73,2.84,29.45,3.69,10.42.92,23.01.53,31.6-4.57,14.27-8.48,14.75-24.08,16.55-38.15,2.86-22.26-.23-42.54-2.33-64.83-2.58-27.47,4.64-57.39-7.66-86.93h.04v-.02Z"/>
  <path class="cls-1" d="M1110.41,3653.06l.28-96.74.07-24.35-.33-27.54-.07-243.05.39-14.69-1.67-21.14-.46-14.19.24-50.13v-43.55l-.27-60.74.43-38.19-.45-18.18.5-23.08-.09-32.19.71-34.2-.62-14.11.52-21.23-.33-28.39.46-15.36.37-29.86.33-863.31v-34.04l-.04-56.3-.03-65.85,1.21-47.92.45-20.69,1.19-153.35,2.85,108.07.58,642.62.61,23.97.09,18.31.6,45.01.99,492.97.28,52.24.46,12.96-.24,30.77.71,23.24-.6,16.1.65,50.64.05,68.41-.37,31.87.12,14.8-.15,37.54-1.32,25.21.05,839.77v16.9l-.04,78.74-.49,141.06-2.29,36.98-2.47-4.08c-.38-.64-.84-3.53-.88-4.71l-2.02-45.18-.11-647.42.09-14.46h.03l.03.04Z"/>
  <path class="cls-1" d="M869.05,4107.42l.07-74.19-.58-70.22.23-32.04-.24-14.16-.08-32.48.34-18.36-1-77.02,3.23-5.16c.68-1.1-2.4-4.76-2.86-6.08l.15-91.3-.03-42.52.04-45.54.11-50.72-.26-41.91.26-60.87-.16-41.65-.22-164.71v-12.79l.14-110.78v-36.82l.12-111.73.35-43.01-.28-34.7.16-37.47v-61.94l.19-21.61.41-34.72-.41-38.77.14-13.99.04-37.73.04-44.5.2-34.35.09-17.43.04-24.43v-21.24l.45-65.93.09-158.85-.2-58.7-.11-22.52-.16-26.24-.56-80.27,3.3,1.32.05,781.58.26,39.06.49,36.14,1.06,78.64.07,63.49.46,617.36.23,31.31.28,31.92.04,74.98-.28,28.23.11,45.62.19,22.72.45,34.68-.58,64.36.73,52.75-.92,36.66.54,43.33-.03,14.77.09,36.74-.15,25.15-.39,13.23-.15,46.11.27,35.22-1.06,15.44.88,20.78-.31,6.38-.38,27.46c-.22,15.75-1.14,31.12,1.1,47.29l-3,3.39-1.17-12.45-.57-37.08.11-26.89-.72-24.95.83-38.38-.24-35.64-.16-16.69-.24-16.78-.76-85.44-.12-62.35h-.05Z"/>
  <path class="cls-1" d="M1071.71,3164.17l.27-24.77-.66-31.6.68-27.08-.37-26.68.61-32.9.57-48.66.31-658.71.98-18.14.68-41.92.26-683.59,2.05-1.38.05,2415.16.72,31.57,1.19,69.85.14,194.55-.22,85.93c-3.2,3.62-3.62,2.82-3.41.07l-2.51-32.63-.23-1065.44-1.23-31.24.14-72.36h-.01v-.03Z"/>
  <path class="cls-1" d="M464.83,1142.8c-.37-9.37,5.05-16.14,14.31-16.48l26.58-.99,43.51-2.2c20.78-1.06,40.58-1.72,60.87-.38l20.76,1.37,1.14,1.55-68.33.9-35.41,1.99-39.55,1.53c-3.34.12-9.54,1.15-11.1,3.65-1.44,2.31-2.01,6.84-2.14,10.7l-1.25,34.15c-.09,2.47-3.43,7.1-5.44,7.41s-6.95-.8-8.55-2.08l-31.22-24.81-36.47-27.87-33.43-22.62-19.35-9.94c-1.79-.92-5.05-3.58-5.93-5.32s1.25-6.96,2.97-8.38l31.39-25.83,27.95-24.08,26.4-25.45,26.98-27.17c4.06-4.1,14.58-5.18,19.05-2.02,10.5,23.04-3.6,53.42,4.25,54.78,3.09.53,8.45.38,12.4.15,16.31-.96,32-.03,48.16.47l52.88,1.66,29.13,1.38c7.65.37,14.22.81,20.23,3.11-12.36,3.93-20.49,2.18-30.52,1.76l-42.99-1.8-101.53-1.42-1.28-54.37c-14.38,13.7-24.3,26.86-38.43,38.32l-53.71,43.6-23.65,19.54c11.12,8.22,20.17,12.26,30.42,18.82,23.43,14.99,45.26,31.72,65.08,50.62,8.82,8.41,16.37,14.56,27.23,22.25l-1.42-36.48h.01v-.02Z"/>
  <path class="cls-1" d="M1155.74,1613.65l-1.02,58.63c-.19,11.3,11.29,24.8,21.29,29.72,18.91,9.31,45.03-3.16,50.71-24.69,3.51-16.62,1.98-35.39,2.37-53.3l2.13-95.47,1.7-78.47,18.38-2.47,35.46-1.56c-8.15-14.99-17.61-25.52-28.48-37.46-25.38-27.89-45.88-57.21-65.88-91.33l-30.85,44.39-45.11,60.45-14.84,20.34,52.65,6.92c-13.44,3.66-26.09-.33-40.29-1.95-7.22-.83-14.61-2.97-21.84-5.89,8.23-8.3,13.38-13.31,18.5-20.86l15.15-22.32,58.04-82.67,6.06-3.6c1.34-.8,4.57,2.65,5.49,3.93l34.78,48.08,31.65,38.83,23.16,30.62,12.32,16.51-39.91,4.16c-5.72.6-14.57.07-20.11-.76l-.34,14.2-1.45,59.18-2.17,65.8-1.83,54.94-.18,33.75c-9.58,18.76-31.16,32.91-51.62,29.33-25-4.37-31.22-29.95-30.24-50.91l1.38-29.55,1.79-101.22,1.13-78.47c8.04,5.78,4.76,13.82,4.64,21.77l-1.41,90.11-1.28,51.25h.04l.03.04Z"/>
  <path class="cls-1" d="M900.85,3768.39l1.61-164.14,1.09-673.26,1.49-35.25.19-530.39,2.06-1.32v889.94l-1.63,42.58-.54,486.35c-3-3.46-4.33-8.98-4.27-14.54h0v.03Z"/>
  <path class="cls-1" d="M1095.29,4807.67c-7.07-6.31-6.5-13.19-5.89-20.19,2.63-30.06-7.52-56.44-27.34-78.48-5.97-6.65-12.02-16.85-20.04-20.74l-37.99-18.48c-24.31-11.83-49.23-24-67.61-43.6-20.89-22.29-34.24-49.29-34.59-79.61l-.81-67.87c-11.76,3.87-22.59-2.2-21.1-5.25l3.95-8.02,9.56-29.45,7.62-3.8v-204.97l2.06-1.28v211.44l21.45,28.34c3.72,4.91,6.91,10.58,4.95,14.68l-26.6-1.99.83,35.73,1.56,28.94c2.63,49,34.84,87.9,77.9,108.08l29.81,13.97c14.81,6.95,29.86,15.22,40.29,27.69,19.11,22.83,42.54,50.29,42.29,79.61l-.3,35.23h0v.02Z"/>
  <path class="cls-1" d="M1295.7,990.78c30.2,2.78,58.51,15.78,85.05,32.17l42.3,26.13c23.92,14.77,44.12,32.17,62.47,53.52l17.31,20.15,15.6,23.65,15.89.23-1.67-16.44-.8-34.63-.28-38.81-.8-42.91.24-67.03c.03-8.71-.58-21.64,1.47-28.73.24-.84,3.34-4.3,3.54-3.58.3,1.07,1.7,4.97,1.68,6.13l-.47,40.58,1.17,18.1-.07,154.32-.57,17.76c-7.66,2.37-24.01,3.32-31.89-2.55l-35.63-49.6-32.61-33.54-24.49-17.17c-36.62-25.68-76.68-44.09-118.88-55.17l-1.3-2.05c-3.64-3.35-1.11-9.52-1.04-14.73l.66-51.89c8.64-4.12,18.64-5.94,28.76-6.51l27.08-1.53,118.6,3.27,62.09,1.55c-5.2,4.49-11.98,5.72-19.22,5.9l-48.13,1.18-84.42.81-70.15-.15c-18.63-.04-1.66,31.77-12.37,61.05l.88.58h.03l-.03-.06Z"/>
  <path class="cls-1" d="M1441.09,4855.82c1.02,27.01-25.84,59-47.64,80.3-14.54,14.2-32.86,20.13-51.8,26.59l-51.57,17.57c-4.08-2.48-5.72-9.35-6-14.49l-1.34-25.4-.77-30.85c-.18-6.91,5.25-10.04,11.29-11.72,18.22-5.09,45.83-33.06,55.96-49.5l16.78-27.25c.58,18.33-10.45,32.29-20.93,45.99-13.19,17.24-27.43,34.01-47.36,43.49-6.32,3.01-10.35,5.29-9.82,13.43l3.05,46.74,46.61-18.31c30.54-12.01,61.13-28.8,79.02-57.37l24.53-39.18v-.03h-.01Z"/>
  <path class="cls-1" d="M992.13,1245.72c2.75-18.45,25.71-29,29.17-61.31,3.45-32.21-10.84-57.63-38.58-72.25l-18.22-11.67-5.17,14.91c-8.66-9.9-12.14-17.64-15.48-27.88l20-13.88,1.47,17.28,29.18,21.99c18.79,14.15,27.42,34.54,30.13,57.25,2.79,23.36-5.78,44.8-21.04,62.36l-11.45,13.17h0v.03Z"/>
  <polygon class="cls-1" points="907.31 2109.95 907.28 1534.91 909.35 1533.62 909.37 2106.51 907.31 2109.95"/>
  <path class="cls-1" d="M969.89,1280.15l-14.38-20.76c-1.25-1.8-2.96-5.55-2.74-7.54s4.5-5.77,6.63-6.1l27.44-4.3-8.36,26.14c-1.04,3.27-4.98,8.18-8.6,12.56h0Z"/>
  <path class="cls-1" d="M1346.7,4692.63c-42.38,31.88-46.22,61.51-46.4,117.12-5.21-8.48-2.97-18.6-2.48-28.58,1.52-30.73,9.65-59.33,31.22-81.47,8.55-8.78,18.06-16.27,28.81-19.83l2.81-3.66c.58-.76,2.59.76,3.53,1.52,1,.8-1.83,3.11-3.07,4.04l-14.42,10.85h0Z"/>
  <path class="cls-1" d="M1242.24,1727.42l-.19,5.33c-.03.88-4.06-.45-3.65-1.22l2.06-3.98.43-56.8,1.87-23.09,1.56-20.62.69-70.46,4.08,3.89-.35,62.58-2.41,29.02-2.1,33.12-1.99,42.26v-.03h0Z"/>
  <path class="cls-1" d="M1238.5,4302.79l.08-53.93c0-7.57-1.32-15.75,5.87-22.13l.72,109.24c-6.29-11-6.69-22.11-6.67-33.18h0Z"/>
  <path class="cls-1" d="M909.36,1356.04c4.46,19.83,1,44.06,2.18,66.99l-2.1,1.18-1.15-51.52c-.18-7.62-6.05-18.76-5.17-27.24,2.93-28.43,18.41-52.39,38.65-70.97,5.11-4.69,9.73-10.08,16.28-9.12l-18.31,15.21c-9.27,7.69-15.98,17.65-21.65,28.06-8.75,16.06-12.14,32.22-8.71,47.43h-.01v-.02Z"/>
  <path class="cls-1" d="M1146.92,1734.5c-1.03-2.75-3.45-10.47-3.42-14.29l.81-108.68,1.36-49.69,1.7-1.18-.92,113.27.47,60.56h0Z"/>
  <path class="cls-1" d="M932.52,1088.12c-21.45.61-41.12.99-61.55-.39l-34.97-2.37-41.54-1.03-1.15-1.76c22.22-.19,44.62.38,67.51.84l50.7,1c7.61.15,14.52.66,21.03,3.74v-.03h-.03Z"/>
  <path class="cls-1" d="M1393.51,4662.98c-5.07,2.67-7.22,4.15-12.21,1.26l19.77-12.97,22.09-10.53,17.74-11.3,3.39-3.92c.75-.87,4.22,2.43,3.34,3.15l-4.19,3.47c-6.96,5.77-13.47,11.6-21.19,15.67l-28.72,15.14v.03h-.02Z"/>
  <path class="cls-1" d="M1146.04,4332.01c-2.2-7.18-3.81-16.06-3.76-24.2l.34-49.3-.05-22.72c4.64,10,5.39,21.9,5.11,33.79l-.76,33.2-.88,29.22h0Z"/>
  <path class="cls-1" d="M1110.14,1191.82l-28.77-.08-27.23-2.66,23.04-2.5c20.77-2.25,40.12-1.19,61.81.77-10.39,2.86-19.03,4.49-28.86,4.46h.01,0Z"/>
  <path class="cls-1" d="M954.37,1189.7l-30.51-.8c-9.97.03-20.08,4.38-30.86-1.83l47.5-3.45c10.46-.76,20.62.43,31.37,2.79-4.22,5.06-10.32,3.46-17.5,3.27h.01v.02Z"/>
  <polygon class="cls-1" points="1485.95 3422.7 1485.45 3401.74 1485 3356.34 1489.01 3356.3 1489.2 3421.67 1485.95 3422.7"/>
  <path class="cls-1" d="M1151.44,4778.63c-12.02,6.35-35.04,8.33-37.81.14,13.48-2.7,24.04-3.5,37.81-.14Z"/>
  <path class="cls-1" d="M1269.11,4778.37c-8.57,2.73-17.19,4.49-25.94,5.45-.39-2.47-.91-6.78.34-7.1l7.46-1.87c5.71-1.42,11.69-6.08,18.14,3.5h0v.02Z"/>
  <path class="cls-1" d="M1329.82,4783.76l-8.34.34c-1.52.05-2.41-5.77-1.76-6.46l19.75-3.27,4.88-.67c1.09-.15,2.33,4.71,1.34,5.15-3.45,1.56-12.07,4.73-15.89,4.88h.01v.03Z"/>
  <polygon class="cls-1" points="907.41 2182.21 907.23 2112.69 909.25 2111.53 909.41 2181.07 907.41 2182.21"/>
  <path class="cls-1" d="M1489.17,3654.01c0,.91-3.34,5.52-3.36,4.82l-.15-4.14-.96-25.6c-.08-2.12,2.13-6.35,4.15-7.62l.34,32.55h-.02Z"/>
  <path class="cls-1" d="M1488.98,3588.9c-7.43-6.51-3.38-15.02-2.79-23.65.26-3.88-4.79-9.7,2.75-13.58l.04,37.24h0Z"/>
  <path class="cls-1" d="M1488.65,3456.46c-6.38-9.16-5.47-21.5.03-32.06l-.03,32.06Z"/>
  <polygon class="cls-1" points="904.99 3863.99 900.88 3860.19 901.26 3834.39 905.42 3838.18 904.99 3863.99"/>
  <path class="cls-1" d="M740.08,1081.24c-.68-9.37-3-18.71-7.26-27.49l-27.2.46-23.84.5c18.9,12.77,37.35,2.56,50.81,5.13l6.35,22.33,1.14-.94h0ZM739.94,1083.44l-1.19,23.66c-.24,4.83-10.89,3.81-15.09,3.66l-29.82-1c-2.28-.08-6.27-.8-7.77-1.59-5.1-2.67.52-31.13-5.77-50.87-1.03,10.46.22,19.14.65,29.37l1.03,24.43c1.99,1.57,8.72,5.25,11.97,5.32l46.74.94.66-34.99-1.42,1.07h.01ZM701.39,1142.8l28.57-.8c1.51-.04,5.4-1.42,6.54-1.97s.92-3.84.76-6.73l-39.67,4.5c-1.68.19-6.31-2.31-6.74-3.93l-2.13-7.92c-1.03,1.71-2.08,11.48.75,13.12l9.59,5.59,2.35-1.86h-.02ZM701.12,1145.69l-.88-.03-8.61,1.06c-3.43.42-10.28,3.19-11.22,6.4-.88,3-.72,9.82-.38,12.11l5.24-13.72,20.88,1.37,28.46,1.22c2.73.12,7.39.58,9.02,2.2s1.86,6.7,1.49,10.03c-.52,4.65-5.47,10.09-9.88,9.82-26.73-1.68-39.68,6.97-51.77-4.35,3.04,13.61,16.61,9.39,26.09,9.54l32.29.52c4.19-3.95,7.87-12.05,7.31-16.67-.71-5.9-4.15-14.91-9.81-15.49l-38.22-4.03v.03h-.01Z"/>
  <path class="cls-1" d="M1343.87,4335.91l-1.41,31.41-4.69-4.34.66-128.03c2.29-4.03,1.68-6.78,1.7-10.69l.07-37.77,3.79,4.45-.11,57.89v87.08h-.01Z"/>
  <path class="cls-1" d="M1344.15,4088.86c-3.43,3.24-4.75,2.35-2.98-1.61l-.58-55.07c-.11-10.16-.03-19.32,2.32-29.98l.75,11.31.27,41.26.22,34.09h.01-.01Z"/>
  <path class="cls-1" d="M1344.53,3962.23c-.31,3.64-.09,6.28-.07,9.75l.23,27.39-3.26.71-.96-53.27,1.76-5.7c.31-1,2.43.61,3.92,1.74l-1.63,19.37h0Z"/>
  <path class="cls-1" d="M1925.43,2991.7c-7.57-8.51-10-14.49-5.48-24.43l-4.14-7.53c-1.11-2.02,2.66-7.52,4.73-9.14,8.67-6.77,21.41-6.99,32.79-7.83l11.26-.83c1.61-7.01,2.67-14.42,6.47-18.64l21.77-24.13c4.33-13.7.85-32.14-7.1-43.98-13.42-19.97-41.57-28.22-63.34-20.8-19.45,6.63-29.34,23.97-24.99,43.94,5.01,23.02,29.03,31.16,21.57,61.63-1.06-26.17-27.38-32.79-26.79-67.59.49-28.73,27.19-49.38,55.03-47.56,34.24,2.25,61.6,27.42,56.37,63.16-3.45,23.54-34.55,34.81-35.96,57.26-6.28,3.36-16.94,3.96-24.91,5.55l-21.49,4.29c5.56,14.23,24.61-9.61,48.21-.07,1.33,7.94-7.15,13.42-16.04,15.72l12.81,5.03c2.81,1.1-1.29,9.51-4.3,10.49l-19.54,6.32c6.77,4.18,8.09,12.58,2.77,18.03.07-4.72-1.29-11.73-4.42-11.95-6.28-.27-11.38-2.54-15.3-6.93h.02ZM1963.81,2961.04c-9.84-4.46-18.1-2.12-25.79,1.87,9.69,3.69,18.04,1.66,25.79-1.87ZM1952.39,2972.15l-21.96-3.3c-2.44-.37-8.66,2.02-9.58,4.03s1.79,5.18,3.8,7.73c3.41,4.34,8.42-7.95,27.74-8.47h0Z"/>
  <path class="cls-1" d="M1930.05,2883.31c-2.67,19.75,24.66,26.62,15.06,55.07,1.13-14.42-1.93-25.55-13.97-31.56-8.28-13.16-7.41-31.11,7.84-36.21l20.15-6.74-7.99,6.84c3.95,3.73,8.29,8.7,8.42,12.26.16,4.16-3.58,10.88-7.83,12.39-3.62,1.29-11.07-2.37-12.13-5.59-1.41-4.3.85-9.79,3.11-16.25-5.83-.26-11.99,5.01-12.64,9.78h-.02ZM1954.34,2889.8c2.52-4.48-2.08-12.2-8.26-14.15-2.02,2.28-3.58,7.81-2.2,10.19s8.53,5.52,10.45,3.96h.01Z"/>
  <path class="cls-1" d="M1881.53,2840.33l5.03,6.17c1.28,1.56-.58,5.89-2.78,9.16-6.58-6.04-10.88-11.04-16.99-19.87,6.09-2.93,10.72-.39,14.75,4.53h-.01Z"/>
  <path class="cls-1" d="M1911.47,2823.75l-6.85,6.1c-4.52-7.52-6.42-11.91-7.81-21.33,7.22,3.93,8.78,6.53,14.68,15.21h-.01v.02Z"/>
  <polygon class="cls-1" points="2030.76 2866.4 2011.7 2877.08 2010.64 2865.11 2030.76 2866.4"/>
  <path class="cls-1" d="M1880.22,2877.32c.9.83-.47,5.85-1.64,6.17s-4.79.94-5.81.34l-10.01-5.86c5.02-5.01,14.27-3.59,17.46-.65h0Z"/>
  <path class="cls-1" d="M2000.51,2844.98c-.15-3.53,1.72-10.04,4.27-10.81l11.37-3.47c-3.08,9.61-8.21,12.41-15.66,14.3h.01v-.02Z"/>
  <path class="cls-1" d="M1940.05,2818.22c-4.54-7.83-2.22-17.17,3.87-25.6,1.45,7.92.58,15.93-3.87,25.6Z"/>
  <path class="cls-1" d="M699.04,1144.66l-9.59-5.59c-2.82-1.64-1.76-11.41-.75-13.12l2.13,7.92c.43,1.63,5.06,4.12,6.74,3.93l39.67-4.5c.16,2.89.38,6.2-.76,6.73s-5.03,1.91-6.54,1.97l-28.57.8-.27,2.89,38.22,4.03c5.66.6,9.1,9.6,9.81,15.49.56,4.63-3.12,12.73-7.31,16.67l-32.29-.52c-9.48-.15-23.05,4.06-26.09-9.54,12.09,11.31,25.04,2.67,51.77,4.35,4.41.27,9.35-5.17,9.88-9.82.38-3.32.15-8.42-1.49-10.03s-6.29-2.08-9.02-2.2l-28.46-1.22-20.88-1.37-5.24,13.72c-.34-2.31-.5-9.13.38-12.11.95-3.22,7.79-5.98,11.22-6.4l8.61-1.06-1.19-1,.03-.03h0Z"/>
  <path class="cls-1" d="M740.93,1046.46l-51.48.96c-3.64-8.9-3.08-16.29-.45-26.31l42.54-3.73,9.39,29.07h0ZM700.03,1041.55l35.16-.81c.19-2.67-1.71-10.47-3.95-13.65-2.74-3.87-10.64-2.2-15.13-1.52l-26.31,4.03c-.09,3.77-.15,9.48,1.9,10.32,1.64.68,6.55,1.66,8.32,1.61h0v.02Z"/>
  <path class="cls-1" d="M738.94,1082.18l-6.35-22.33c-13.46-2.56-31.91,7.64-50.81-5.13l23.84-.5,27.2-.46c4.26,8.78,6.58,18.1,7.26,27.49l1.29,1.13-.66,34.99-46.74-.94c-3.24-.07-9.97-3.74-11.97-5.32l-1.03-24.43c-.43-10.23-1.68-18.91-.65-29.37,6.27,19.73.66,48.2,5.77,50.87,1.51.79,5.48,1.51,7.77,1.59l29.82,1c4.19.14,14.84,1.17,15.09-3.66l1.19-23.66-1-1.26h-.02Z"/>
</svg>