<svg width="1262" height="424" viewBox="0 0 1262 424" fill="none" xmlns="http://www.w3.org/2000/svg">
<mask id="mask0_642_236" style="mask-type:alpha" maskUnits="userSpaceOnUse" x="0" y="0" width="1262" height="424">
<path d="M1260.26 422.158C1261.82 421.019 1262.16 418.83 1261.02 417.268C1259.88 415.706 1257.69 415.363 1256.13 416.502L1258.19 419.33L1260.26 422.158ZM0.194824 3.49463L0.000120655 6.98921C54.1789 10.0078 141.207 32.0282 224.788 58.3282C308.31 84.6096 387.875 114.999 427.029 134.533L428.592 131.401L430.154 128.27C390.51 108.491 310.536 77.9719 226.889 51.6509C143.301 25.3486 55.5297 3.07223 0.389528 4.86374e-05L0.194824 3.49463ZM428.592 131.401L427.029 134.533C465.75 153.852 666.17 231.172 860.258 300.953C957.359 335.864 1052.99 368.931 1126.17 391.958C1162.75 403.468 1193.78 412.49 1216.6 417.978C1228 420.718 1237.44 422.601 1244.55 423.461C1248.09 423.889 1251.16 424.077 1253.66 423.961C1255.98 423.852 1258.47 423.464 1260.26 422.158L1258.19 419.33L1256.13 416.502C1256.19 416.463 1256.05 416.575 1255.52 416.701C1255.02 416.823 1254.3 416.923 1253.33 416.968C1251.39 417.059 1248.75 416.918 1245.39 416.511C1238.68 415.7 1229.54 413.89 1218.24 411.172C1195.66 405.741 1164.81 396.776 1128.27 385.28C1055.23 362.295 959.695 329.265 862.626 294.366C668.372 224.525 468.418 147.36 430.154 128.27L428.592 131.401Z" fill="black"/>
</mask>
<g mask="url(#mask0_642_236)">
<rect x="-13.8052" y="-13.5054" width="1278" height="440" fill="#0044FF"/>
</g>
</svg>
