<svg width="1280" height="1258" viewBox="0 0 1280 1258" fill="none" xmlns="http://www.w3.org/2000/svg">
<path opacity="0.2" d="M213.441 630.608C208.975 541.711 198.962 483.704 274.117 422.627C354.36 357.415 351.781 285.19 478.736 282.949C724.596 278.607 1058.04 454.365 1067.28 638.178C1072.25 737.181 917.329 807.506 826.745 870.125C749.148 923.767 745.487 976.977 629.731 979.021C378.845 983.451 222.677 814.421 213.441 630.608Z" fill="url(#paint0_radial_896_216)"/>
<path d="M624.335 1021.54C496.305 1018.11 381.681 972.852 298.401 902.989C209.483 828.397 156.296 725.752 160.675 616.008C169.155 403.478 390.946 229.069 655.672 236.16C798.256 239.98 890.051 379.439 974.623 462.743C1047.07 534.104 1123.32 541.624 1119.33 641.688C1110.68 858.563 889.06 1028.63 624.335 1021.54Z" fill="white"/>
<path opacity="0.2" d="M624.335 1021.54C496.305 1018.11 381.681 972.852 298.401 902.989C209.483 828.397 156.296 725.752 160.675 616.008C169.155 403.478 390.946 229.069 655.672 236.16C798.256 239.98 890.051 379.439 974.623 462.743C1047.07 534.104 1123.32 541.624 1119.33 641.688C1110.68 858.563 889.06 1028.63 624.335 1021.54Z" fill="url(#paint1_radial_896_216)"/>
<path opacity="0.2" d="M625.238 1021.4C497.203 1018.18 382.471 973.113 299.021 903.386C209.923 828.938 156.486 726.378 160.596 616.623C168.556 404.072 389.915 229.294 654.651 235.949C797.242 239.534 889.376 378.846 974.15 462.014C1046.77 533.257 1123.04 540.651 1119.29 640.725C1111.17 857.621 889.975 1028.05 625.238 1021.4Z" fill="url(#paint2_radial_896_216)"/>
<path opacity="0.2" d="M649.305 977.637C540.738 981.019 470.014 989.037 394.137 927.323C313.125 861.432 224.903 863.32 220.079 759.382C210.737 558.095 420.053 285.659 644.537 278.664C765.446 274.897 853.933 401.942 931.946 476.292C998.774 539.982 1063.86 543.143 1068.26 637.913C1077.79 843.316 873.788 970.642 649.305 977.637Z" fill="url(#paint3_radial_896_216)"/>
<path opacity="0.2" d="M1120 629C1120 733.971 1064.66 711.065 982.168 781.557C894.088 856.82 774.506 1022 640.5 1022C380.985 1022 161 846.048 161 629C161 512.095 328.109 432.356 426.957 360.367C511.634 298.7 518.315 236 640.5 236C905.321 236 1120 411.952 1120 629Z" fill="url(#paint4_radial_896_216)"/>
<path opacity="0.2" d="M898.734 960.122C815.034 1039.55 741.486 999.927 640.883 996.253C533.47 992.331 399.439 1018.72 327.322 926.113C187.661 746.765 209.571 461.599 382.637 297.368C475.852 208.911 629.365 264.062 739.963 277.904C834.703 289.761 888.293 246.936 954.049 331.377C1096.56 514.392 1071.8 795.891 898.734 960.122Z" fill="url(#paint5_radial_896_216)"/>
<path opacity="0.2" d="M1057.51 435.608C1095.52 535.886 1085.24 647.683 1038.93 748.212C989.474 855.546 898.938 950.036 782.233 1003.95C556.222 1108.36 300.92 1028.77 222.319 821.43C179.984 709.752 296.642 566.347 356.659 457.808C408.071 364.831 391.184 302.246 497.595 253.089C728.226 146.548 978.908 228.264 1057.51 435.608Z" fill="url(#paint6_radial_896_216)"/>
<path opacity="0.2" d="M355.638 375.498C411.215 299.332 446.799 341.643 533.105 334.052C625.254 325.947 768.861 272.76 848.431 343.514C1002.53 480.537 1039.99 724.356 925.074 881.844C863.179 966.668 721.735 936.294 624.926 936.337C541.997 936.373 504.833 978.34 432.282 913.827C275.036 774.003 240.722 532.985 355.638 375.498Z" fill="url(#paint7_radial_896_216)"/>
<path opacity="0.2" d="M644.344 979.321C537.856 983.791 468.422 992.54 394.7 931.342C315.987 866.001 229.463 868.77 225.871 764.484C218.914 562.523 427.133 286.979 647.319 277.736C765.913 272.758 851.285 399.41 926.965 473.27C991.794 536.541 1055.58 539.07 1058.85 634.158C1065.95 840.247 864.53 970.078 644.344 979.321Z" fill="url(#paint8_radial_896_216)"/>
<path opacity="0.2" d="M751.132 1011.13C626.428 1035.21 640.944 985.815 538.276 936.178C428.657 883.18 204.993 825.676 174.25 718.78C114.713 511.766 273.273 295.926 531.122 246.142C670.003 219.328 803.07 334.34 911.269 396.68C1003.95 450.081 1079.97 441.029 1108 538.496C1168.76 749.742 1008.98 961.35 751.132 1011.13Z" fill="url(#paint9_radial_896_216)"/>
<path opacity="0.2" d="M1120 628.5C1120 708.764 1064.66 691.25 982.168 745.15C894.088 802.698 774.506 929 640.5 929C380.985 929 161 794.462 161 628.5C161 539.111 328.109 478.14 426.957 423.095C511.634 375.942 518.315 328 640.5 328C905.321 328 1120 462.538 1120 628.5Z" fill="url(#paint10_radial_896_216)"/>
<path opacity="0.2" d="M925.141 393.145C1014.78 442.99 1065.66 513.621 1076.86 587.737C1088.82 666.87 1055.56 749.975 975.978 815.996C821.856 943.851 540.954 968.68 355.605 865.615C255.774 810.104 286.923 689.91 284.152 607.026C281.779 536.026 232.204 502.962 304.768 442.765C462.041 312.296 739.792 290.08 925.141 393.145Z" fill="url(#paint11_radial_896_216)"/>
<path opacity="0.2" d="M726.073 1038.56C592.366 1057.35 611.637 1005.92 507.082 947.975C395.45 886.109 163.647 813.39 139.661 698.776C93.2091 476.813 277.952 257.172 554.416 218.33C703.323 197.409 834.803 326.067 944.193 397.729C1037.9 459.117 1118.96 453.611 1140.83 558.115C1188.23 784.616 1002.54 999.718 726.073 1038.56Z" fill="url(#paint12_radial_896_216)"/>
<path opacity="0.2" d="M893.173 348.377C975.072 413.825 1022.4 503.414 1034 595.679C1046.38 694.19 1018.02 795.75 947.519 874.232C810.982 1026.22 557.964 1045.36 388.622 910.029C297.412 837.141 323.118 689.555 318.958 586.779C315.395 498.738 269.991 455.733 334.275 384.174C473.603 229.078 723.83 213.051 893.173 348.377Z" fill="url(#paint13_radial_896_216)"/>
<path opacity="0.2" d="M977.991 348.331C1083.97 407.263 1027.25 441.845 1040.42 529.532C1054.48 623.154 1131.88 770.462 1037.67 848.616C855.222 999.969 522.92 1029.49 303.783 907.634C185.753 842.003 222.729 699.776 219.541 601.71C216.81 517.705 158.204 478.609 244.104 407.348C430.281 252.901 758.854 226.478 977.991 348.331Z" fill="url(#paint14_radial_896_216)"/>
<path opacity="0.2" d="M956.295 924.31C859.498 993.059 844.169 943.959 724.827 939.294C597.407 934.313 366.32 968.809 278.051 886.236C107.109 726.326 124.456 475.538 324.602 333.387C432.404 256.823 616.009 307.57 747.503 321.331C860.145 333.119 922.363 296.173 1002.85 371.461C1177.28 534.64 1156.44 782.159 956.295 924.31Z" fill="url(#paint15_radial_896_216)"/>
<path opacity="0.2" d="M952.602 927.362C855.427 995.806 767.547 959.289 648.491 953.973C521.375 948.297 363.472 968.853 276.079 885.555C106.835 724.241 126.256 472.772 327.185 331.25C435.408 255.024 618.207 306.905 749.314 321.41C861.624 333.835 924.025 297.106 1003.71 373.056C1176.41 537.668 1153.53 785.839 952.602 927.362Z" fill="url(#paint16_radial_896_216)"/>
<path opacity="0.2" d="M266.775 382.077C347.107 300.364 393.155 342.202 511.357 329.738C637.56 316.431 836.639 253.765 941.017 322.655C1143.16 456.066 1179.85 706.121 1013.75 875.077C924.289 966.079 733.103 942.244 601.017 947.466C487.869 951.94 434.683 997.312 339.511 934.5C133.239 798.361 100.674 551.033 266.775 382.077Z" fill="url(#paint17_radial_896_216)"/>
<path opacity="0.2" d="M1033.23 854.662C1124.87 781.292 1077.11 717.016 1071.03 629.007C1064.53 535.039 1093.09 417.731 983.243 354.801C770.504 232.932 436.566 252.609 247.086 404.314C145.029 486.024 212.405 620.232 230.591 716.968C246.17 799.834 196.91 846.796 297.072 904.174C514.16 1028.53 843.749 1006.37 1033.23 854.662Z" fill="url(#paint18_radial_896_216)"/>
<defs>
<radialGradient id="paint0_radial_896_216" cx="0" cy="0" r="1" gradientTransform="matrix(-17.5378 -349.06 426.434 -7.52962 640.029 629.47)" gradientUnits="userSpaceOnUse">
<stop stop-color="#D1BBFD" stop-opacity="0"/>
<stop offset="0.411458" stop-color="#D1BBFD" stop-opacity="0.109375"/>
<stop offset="1" stop-color="#6A93FF"/>
</radialGradient>
<radialGradient id="paint1_radial_896_216" cx="0" cy="0" r="1" gradientTransform="matrix(-479.328 -12.8398 15.6686 -392.688 640.003 628.848)" gradientUnits="userSpaceOnUse">
<stop stop-color="#E1F1FE" stop-opacity="0"/>
<stop offset="0.421875" stop-color="#E1F1FE" stop-opacity="0.0989583"/>
<stop offset="1" stop-color="#E1F1FE"/>
</radialGradient>
<radialGradient id="paint2_radial_896_216" cx="0" cy="0" r="1" gradientTransform="matrix(-479.349 -12.0509 14.7066 -392.725 639.945 628.674)" gradientUnits="userSpaceOnUse">
<stop stop-color="#F3DAFA" stop-opacity="0"/>
<stop offset="0.307292" stop-color="#F3DAFA" stop-opacity="0.0885417"/>
<stop offset="0.848958" stop-color="#F3DAFA"/>
</radialGradient>
<radialGradient id="paint3_radial_896_216" cx="0" cy="0" r="1" gradientTransform="matrix(-426.293 13.2822 -16.2031 -349.124 640.91 628.406)" gradientUnits="userSpaceOnUse">
<stop stop-color="#D1BBFD" stop-opacity="0"/>
<stop offset="0.411458" stop-color="#D1BBFD" stop-opacity="0.109375"/>
<stop offset="1" stop-color="#6A93FF"/>
</radialGradient>
<radialGradient id="paint4_radial_896_216" cx="0" cy="0" r="1" gradientUnits="userSpaceOnUse" gradientTransform="translate(640.5 629) rotate(90) scale(393 479.5)">
<stop stop-color="#D8F7F9" stop-opacity="0"/>
<stop offset="0.453125" stop-color="#D8F7F9" stop-opacity="0.0885417"/>
<stop offset="1" stop-color="#D6F8FF"/>
</radialGradient>
<radialGradient id="paint5_radial_896_216" cx="0" cy="0" r="1" gradientTransform="matrix(-313.363 297.368 -258.049 -331.377 640.685 628.745)" gradientUnits="userSpaceOnUse">
<stop stop-color="#C2C5FD" stop-opacity="0"/>
<stop offset="0.510417" stop-color="#C5C8FD" stop-opacity="0.0989583"/>
<stop offset="1" stop-color="#E8F2FF"/>
</radialGradient>
<radialGradient id="paint6_radial_896_216" cx="0" cy="0" r="1" gradientTransform="matrix(142.319 375.43 -417.595 192.911 639.914 628.519)" gradientUnits="userSpaceOnUse">
<stop stop-color="#F3DAFA" stop-opacity="0"/>
<stop offset="0.307292" stop-color="#F3DAFA" stop-opacity="0.0885417"/>
<stop offset="0.848958" stop-color="#F3DAFA"/>
</radialGradient>
<radialGradient id="paint7_radial_896_216" cx="0" cy="0" r="1" gradientTransform="matrix(208.074 -285.156 284.718 253.173 640.356 628.671)" gradientUnits="userSpaceOnUse">
<stop stop-color="#F3F3FD" stop-opacity="0"/>
<stop offset="0.546875" stop-color="#F3F3FD" stop-opacity="0.0989583"/>
<stop offset="1" stop-color="#F3F3FD"/>
</radialGradient>
<radialGradient id="paint8_radial_896_216" cx="0" cy="0" r="1" gradientTransform="matrix(-418.132 17.5524 -12.0667 -350.292 639.935 628.845)" gradientUnits="userSpaceOnUse">
<stop stop-color="#D1BBFD" stop-opacity="0"/>
<stop offset="0.411458" stop-color="#D1BBFD" stop-opacity="0.109375"/>
<stop offset="1" stop-color="#6A93FF"/>
</radialGradient>
<radialGradient id="paint9_radial_896_216" cx="0" cy="0" r="1" gradientTransform="matrix(-466.878 90.1423 -110.005 -382.496 641.127 628.638)" gradientUnits="userSpaceOnUse">
<stop stop-color="#D8F7F9" stop-opacity="0"/>
<stop offset="0.453125" stop-color="#D8F7F9" stop-opacity="0.0885417"/>
<stop offset="1" stop-color="#D6F8FF"/>
</radialGradient>
<radialGradient id="paint10_radial_896_216" cx="0" cy="0" r="1" gradientUnits="userSpaceOnUse" gradientTransform="translate(640.5 628.5) rotate(90) scale(300.5 479.5)">
<stop stop-color="#D8F7F9" stop-opacity="0"/>
<stop offset="0.453125" stop-color="#D8F7F9" stop-opacity="0.0885417"/>
<stop offset="1" stop-color="#D6F8FF"/>
</radialGradient>
<radialGradient id="paint11_radial_896_216" cx="0" cy="0" r="1" gradientTransform="matrix(335.605 186.615 -284.768 236.235 640.373 629.38)" gradientUnits="userSpaceOnUse">
<stop stop-color="#E1F1FE" stop-opacity="0"/>
<stop offset="0.421875" stop-color="#E1F1FE" stop-opacity="0.0989583"/>
<stop offset="1" stop-color="#E1F1FE"/>
</radialGradient>
<radialGradient id="paint12_radial_896_216" cx="0" cy="0" r="1" gradientTransform="matrix(-500.584 70.3302 -85.8282 -410.115 640.245 628.445)" gradientUnits="userSpaceOnUse">
<stop stop-color="#D8F7F9" stop-opacity="0"/>
<stop offset="0.453125" stop-color="#D8F7F9" stop-opacity="0.0885417"/>
<stop offset="1" stop-color="#D6F8FF"/>
</radialGradient>
<radialGradient id="paint13_radial_896_216" cx="0" cy="0" r="1" gradientTransform="matrix(306.622 245.029 -252.275 280.826 640.897 629.203)" gradientUnits="userSpaceOnUse">
<stop stop-color="#F3DAFA" stop-opacity="0"/>
<stop offset="0.307292" stop-color="#F3DAFA" stop-opacity="0.0885417"/>
<stop offset="0.848958" stop-color="#F3DAFA"/>
</radialGradient>
<radialGradient id="paint14_radial_896_216" cx="0" cy="0" r="1" gradientTransform="matrix(396.783 220.634 -337.104 279.652 640.887 627.982)" gradientUnits="userSpaceOnUse">
<stop stop-color="#F3F3FD" stop-opacity="0"/>
<stop offset="0.546875" stop-color="#F3F3FD" stop-opacity="0.0989583"/>
<stop offset="1" stop-color="#F3F3FD"/>
</radialGradient>
<radialGradient id="paint15_radial_896_216" cx="0" cy="0" r="1" gradientTransform="matrix(-362.398 257.387 -315.846 -295.461 640.449 628.849)" gradientUnits="userSpaceOnUse">
<stop stop-color="#D8F7F9" stop-opacity="0"/>
<stop offset="0.723958" stop-color="#D8F7F9" stop-opacity="0.0885417"/>
<stop offset="1" stop-color="#D8F7F9"/>
</radialGradient>
<radialGradient id="paint16_radial_896_216" cx="0" cy="0" r="1" gradientTransform="matrix(-363.815 256.25 -312.708 -298.056 639.894 629.306)" gradientUnits="userSpaceOnUse">
<stop stop-color="#C2C5FD" stop-opacity="0"/>
<stop offset="0.510417" stop-color="#C5C8FD" stop-opacity="0.0989583"/>
<stop offset="1" stop-color="#E8F2FF"/>
</radialGradient>
<radialGradient id="paint17_radial_896_216" cx="0" cy="0" r="1" gradientTransform="matrix(300.753 -305.923 373.489 246.5 640.264 628.577)" gradientUnits="userSpaceOnUse">
<stop stop-color="#F3F3FD" stop-opacity="0"/>
<stop offset="0.546875" stop-color="#F3F3FD" stop-opacity="0.0989583"/>
<stop offset="1" stop-color="#F3F3FD"/>
</radialGradient>
<radialGradient id="paint18_radial_896_216" cx="0" cy="0" r="1" gradientTransform="matrix(343.086 -274.686 -393.072 -225.174 640.158 629.488)" gradientUnits="userSpaceOnUse">
<stop stop-color="#C2C5FD" stop-opacity="0"/>
<stop offset="0.510417" stop-color="#C5C8FD" stop-opacity="0.0989583"/>
<stop offset="1" stop-color="#E8F2FF"/>
</radialGradient>
</defs>
</svg>
