<?xml version="1.0" encoding="UTF-8"?>
<svg id="Lag_1" data-name="Lag 1" xmlns="http://www.w3.org/2000/svg" viewBox="0 0 206.7 206.78">
  <defs>
    <style>
      .cls-1 {
        fill: #002bb3;
      }
    </style>
  </defs>
  <path class="cls-1" d="M145.68,139.65c-15.44,2.11-30.18,2.38-45.46,2.21-17.92-.05-43.09-.8-59.13-6.47-1.83-.65-3.76-2.59-3.73-4.58l.54-36.79.48-18.35c3.2-2.4,6.9-3.64,10.95-4.42,14.5-2.8,28.98-3.96,43.69-3.97h12.49s21.12,1.26,21.12,1.26c9.63.58,18.95,1.66,28.36,3.67,3.06.65,5.85,2.19,8.38,4l.32,23.18.27,33.23c.01,1.27-2.39,3.42-3.69,3.72l-14.59,3.32ZM113.29,76.13l-.03-6.24-15.56-.81-9.61.54-.05,5.74,25.25.76ZM86.11,75.41l.06-5.89-22.73,1.92-.09,6.16,22.76-2.19ZM142.96,79.11l-.33-6.82-27.5-2.28c-.14,2.27-.01,4.39.48,6.24l27.35,2.87ZM61.64,77.9l-.25-6.22-13.24,2.24c-2.71.46-5.39,1.76-7.63,3.32,3.24,1.37,7.28,3.22,10.35,2.65l10.76-2ZM150.17,80.76c3.68.81,8.07-1.25,11.52-3.3-5.53-3.27-11.26-3.78-17.28-4.85l.28,6.94,5.48,1.21ZM124.87,91.27l.29-7,21.32-2.31c-18.79-2.76-37.38-4.58-56.56-4.62-11.74-.03-22.83,1.82-34.07,3.43l31.56,2.39,23.73.66.74,8.4,13-.95ZM60.76,90.49l.31-6.62c-7.24-.67-14.05-1.66-20.87-4.01l.16,5.68c3.83,1.61,7.31,2.71,11.26,3.39l9.13,1.56ZM161.07,85.68l.24-5.69c-5.42,2.27-10.39,3.36-16.02,4.28l-.16,4.83c5.52-.61,10.78-1.64,15.94-3.41ZM86.63,85.98l-14.07-.9-9.66-.96.14,6.72,23.56,1.66.03-6.51ZM127.3,90.86l15.83-1.57-.02-4.79-15.94,1.65.13,4.71ZM109.17,92.22l-.1-6.09-20.31-.1-.02,6.44,20.42-.26ZM136.49,132.75c8.92-.4,17.02-1.77,25.41-4.54l-.94-40.26-9.54,2.62-24.38,2.75-.54,39.87,9.99-.45ZM106.57,134.03l3.17-.4-.09-38.59c-18.66.77-36.22.13-54.14-2.57-5.37-.81-10.17-2.13-15.22-4.11l-.69,38.96c14.92,5.01,43.5,6.84,59.8,6.75l7.16-.04ZM119.98,118.32l1.42.1c.37.03.13,2.07-.25,2.07l-8.73.03-.1,7.13,7.82-.13c.51,0,1.5.68,1.57,1.1s-1.08,1.2-1.54,1.19l-7.66-.1-.15,4.04,11.5-.38.44-8.09.38-31.88-12.59.75.08,5.54,9.66-.07c.55,0,1.45,1.47,1.04,1.69-.27.15-1.27.56-1.66.56l-8.89-.05-.05,7.05,7.89-.11c.39,0,1.4.39,1.74.55s-.31,1.76-.68,1.76h-8.83s-.12,7.35-.12,7.35l7.73-.12ZM161.84,130.52c-6.53,2.05-12.05,3.03-18.24,3.82-30.31,2.89-61.71,2.79-91.94-1.53-4.28-.61-8.02-1.63-12.15-3.14-.24,1.47.86,3.5,2.58,3.99,27.71,7.79,72.17,7.04,101.41,4.07,5.74-.58,10.78-1.64,16.15-3.29,1.75-.54,2.7-3.05,2.19-3.92Z"/>
</svg>