<?xml version="1.0" encoding="UTF-8"?>
<svg id="Layer_2" data-name="Layer 2" xmlns="http://www.w3.org/2000/svg" viewBox="0 0 1280 1024">
  <path d="M768.38,524.53c16.65,40.53,13.93,81.41-8.37,119.82-37.84,65.17-121.82,89.26-187.38,52.21-63.84-36.08-91.34-113.25-59.61-183.17,33.15-73.03,75.6-137.25,127.21-200.45l44.66,59.85c27.02-31.23,69.69-41.06,106.79-23.31,34.14,16.33,56.94,52.77,52.77,92.93-3.92,37.76-29.5,71.46-76.08,82.12ZM751.79,525.83c-33.01-4.4-64.02-20.97-77.04-46.67-15.81-31.2-17.32-61.22.95-93.21l-35.79-49.65c-44.05,56.55-80.33,112.24-110.21,174.71-28.94,60.51-17.56,123.47,37.25,164.94,45.7,34.58,108.14,31.95,152.87-5.2,39.94-33.17,60.48-96.16,31.97-144.92ZM771.35,508.55c32.76-7.7,53.06-34.62,57.53-61.85,4.84-29.52-6.29-58.3-31.16-76.74-29-21.51-68.6-17.74-94.97,5.68-25.17,22.36-33.66,59.75-17.8,91.09,15.21,30.06,48.38,50.75,86.4,41.81Z"/>
  <path d="M476.25,271.32l-42.43,24.52,11.24-46.7-38.47-30,49.43-5.17,19.12-46.17,17.78,46,48.76,4.3-35.4,30.06,9.61,48.22-39.65-25.06ZM500.74,269.82c-2.44-6.06-9.76-20.87-5.43-25.66l16.37-18.11c-6.11.24-24.91,2.18-26.91-3.46l-8.78-24.71-13.16,27.64-27.84,1.78c9.76,7.56,21.01,13.76,20.3,19.89l-2.74,23.83c5.5-3.61,18.03-12.74,23.95-10.47l24.23,9.28Z"/>
  <path d="M804.59,271.34l-41.89,23.96,9.09-48.25-36.21-28.46,49.96-5.1,18.37-45.72,17.09,46.49,50.33,3.69-37.85,31.67,10.45,47.2-39.33-25.47ZM825.9,269.86c-1.87-10.9-5.08-24.66-.69-28.69l15.86-14.58c-7.8.16-25.96.4-28.57-5.72l-9.95-23.34c-3.36,9.59-6.19,22.55-12.28,25.98-5.33,3-19.95,3.19-26.57,3.51l19.66,16.89c3.84,3.3-.88,16.77-2.16,25.95,6.17-2.84,16.03-12.95,21.43-10.51l23.28,10.51Z"/>
  <path d="M639.45,224.09l-41.98,25.38,11.16-50.58-36.73-27.8,49.47-7.27,17.28-43.87,18.12,45.37,48.27,4.71-36.49,30.75,10.56,47.4-39.66-24.09ZM662.68,224.38l-5.88-25.12c-1.41-6.01,13.58-15.18,17.74-19.2-8.74-1.85-24.22-2.76-26.76-8.47l-9.42-21.19c-3.89,8.77-6.05,23.23-12.49,24.53l-26.23,5.32c5.82,3.14,18.99,9.42,19.72,15.9.74,6.49-2.2,20.05-3.74,28.31,4.59-3.25,17.4-15.51,23.08-12.56l23.99,12.46Z"/>
  <path d="M477.02,835.76l-43.32,23.64,9.75-43.9-35.29-33.93,48.49-3.18,18.07-45.68,17.51,44.94,48.82,3.67-36.5,32.58,11.58,46.58-39.11-24.73ZM497.35,834.7c-1.42-8.86-6.07-22.3-2.45-26.04l16.95-17.5-26.41-2.05-12.38-24.68c-4.19,10.63-6.15,22.63-11.59,23.56l-24.16,4.14c7.09,6.41,18.58,13.68,17.84,19.72l-2.95,23.95c6.38-4.02,18.26-14.32,23.93-11.53l21.23,10.43Z"/>
  <path d="M924.62,716.89l-41.15,23.63,9.49-46.88-35.27-31.43,49.24-4.47,17.55-45.13,16.72,45.23,50.01,4.56-36.76,31.66,10,46.19-39.84-23.35ZM945.98,714.96c-1.36-12.1-3.59-24.79.58-28.93l15.53-15.43c-5.96,0-24.57,2.04-27.07-3.15l-11.55-23.94-8.97,26.11-30.15,1.48,19.72,17.98c4.22,3.85-1.64,20.69-2.3,26.31,6.31-3.37,18.85-12.31,24.43-9.69l19.78,9.26Z"/>
  <path d="M640.63,878.96l-42.9,23.45,10.53-46.05-37.15-33.7,50.25-2.45,17.76-44.47,16.32,43.84,51.04,3.61-37.73,33.99,11.96,46.88-40.07-25.1ZM662.77,877.46c-3.19-9.38-8.45-24.56-3.56-28.77l18.68-16.07c-6.71,0-25.82,1.69-28.85-4.11l-10.73-20.55c-3.7,9.06-7.03,22.36-13.36,22.98l-24.91,2.45c7.35,6.61,17.81,13.75,19.37,19.56s-2,17.77-3.24,24.41c9.29-4.47,20.74-11.3,26.32-8.84l20.28,8.94Z"/>
  <path d="M356.48,717.13l-42.21,23.57,9.98-45.32-36.34-32.68,48.85-4.33,17.54-45.63,17.69,45.21,49.5,4.81-35.79,30.52,9.98,48.11-39.2-24.27ZM376.21,714.93c-1.36-12.17-4.25-25.06.35-28.83l17.73-14.55-29.14-1.93-11.11-24.61c-4.48,10.25-6.82,23.26-12.36,23.96l-25.45,3.26c7.94,7.56,19.55,13.85,18.82,19.77l-2.99,24.32c6.73-3.42,18.4-12.67,23.89-10.27l20.26,8.87Z"/>
  <path d="M356.63,390.53l-42.95,24.13,10.86-47.61-36.39-30.7,48.46-4.03,17.24-45.1,19,44.73,48,4.02-34.97,30.42,8.79,48.6-38.04-24.45ZM379.49,390.8l-6.52-25.34c-1.56-6.05,13.92-15.1,18.18-19.02-8.11-1.54-25.48-1.26-27.64-7.19l-8.02-21.96-11.03,24.52-27.55,4.91c8.85,6.37,19.87,13.17,18.89,19.32l-4.01,25.32c5.2-3.99,17.63-15.37,23.39-12.53l24.32,11.96Z"/>
  <path d="M970.2,553.14l-40.65,23.44,8.76-45.78-34.5-31.11,47.22-4.32,17.89-43.66,17.71,42.81,48.89,5.12-35.97,31.61,10.22,46.83-39.59-24.94ZM969.24,540.3l22.91,12.34c-2.29-10.21-5.86-25.64-1.23-29.77l16.53-14.75c-7.07-.18-26.24,1.38-28.77-4.77l-9.74-23.69-10.06,23.74c-2.51,5.93-22.41,4.39-28.57,4.64l18.39,17.55c4.54,4.34-1.82,21.56-3.82,27.81l24.37-13.09Z"/>
  <path d="M804.17,835.54l-40.89,24.28,9.11-46.03-35.06-31.78,48.64-4.58,17.36-44.94,17.44,44.97,49.45,3.24-36.62,33.04,11.41,45.87-40.85-24.07ZM826.02,834.64c-1.25-9.15-5.46-22.52-1.83-26.24l16.95-17.35-26.69-2.17-12.27-26.11c-2.5,7.88-5.32,23.54-11.74,24.82l-23.78,4.71c6.83,6.35,18.24,13.54,17.56,19.55l-2.69,23.82c6.55-4.43,17.5-14.08,23.11-11.37l21.38,10.35Z"/>
  <path d="M925.2,390.56l-42.3,24.52,11.75-46.82-36.15-30.27,48.82-6.03,16.7-44.78,18.42,45.33,49.12,3.83-37.14,31.69,10.79,46.97-39.99-24.45ZM947.71,390.11c-1.94-10.23-6.98-25.38-2.43-29.31l16.93-14.63c-8.02-.83-25.84-.73-28.2-6.77l-9.09-23.34-12.75,27.9-29.26,2.5c8.21,5.23,20.34,11.36,21.26,17.43s-1.18,18.27-2.11,27.58c5.45-4.08,18.15-15.36,23.71-12.53l21.94,11.18Z"/>
  <path d="M311.15,553.67l-40.17,22.51,7.66-46.25-34.18-30.86,47.32-3.36,18.28-44.27,17.31,43.25,48.67,4.48-35.58,30.44,8.01,47.48-37.32-23.42ZM310.72,540.79l22.59,12.19c-2.83-8.86-6.59-25.79-1.68-30.01l17.2-14.8c-7.63-.4-26.56,1.2-29.04-4.97l-9.49-23.64-10.25,23.92c-2.55,5.96-22.61,4.28-29.36,4.66l18.7,17.42c4.48,4.17-1.34,20.25-3.18,27.96l24.5-12.72Z"/>
  <path d="M554.43,583.89c5.16,50.71,42.22,72.82,89.67,83.59,2.18.49,2.36,3.57.25,4.29-50.85,17.25-116.27-54.86-102.47-97.62,2.42-7.49,11.19-3.62,12.55,9.74Z"/>
  <path d="M791.32,442.07l-74.28-.31c-3.12-.01-8.28-4.93-8.55-7.88-.25-2.66,5.07-8.2,8.21-8.19l71.62.2c2.08,0,8.62,3.14,9.86,4.82,1.84,2.49-2.97,11.37-6.86,11.36Z"/>
</svg>