<?xml version="1.0" encoding="UTF-8"?>
<svg id="Layer_3" data-name="Layer 3" xmlns="http://www.w3.org/2000/svg" viewBox="0 0 1280 1024">
  <path d="M561.5,492.62l98.79-44.15,1.01,335.44-392.15-.06.03-235.98,39.87-17.14,15.74-235.87,70.37-.32,11.56,194.4,59.85-24.29,11.9-170.09,70.36.17,12.67,197.89ZM380.36,341.43l-.71-30.01-38.98.09-1.86,29.93h41.55ZM534.48,341.4l-1.59-30.14-39.25.38-1.24,29.89,42.08-.13ZM389.92,495.92l-8.32-137.74-44.36.32-10.68,164.62,63.35-27.2ZM508.07,519.44l37.15-18.72-9.4-142.13-44.72-.38-6.8,97.65,22.64-4.98,1.12,68.56ZM402.53,767.21l242.18.05-.72-295.89-151,72.81-3.19-71.87-203.5,85.28-.34,209.42,38.22.8.38-95.05,76.69-.48,1.28,94.93ZM386.06,766.83l-.92-78.47-44.15.07-.07,79.14,45.14-.75Z"/>
  <path d="M1022.26,784.49l-285.35-.05c-26.77,0-49.53-32.57-37.62-56.39l117.5-234.89.48-119.46c-12.73-6.76-21.66-16.45-21.69-28.96-.03-11.11,11.11-25.28,23.74-25.32l111.29-.35c15.07-.05,28.18,7.95,30.27,22.6,1.86,13.06-6.03,25.71-21.48,30.32l.22,123.34,115.03,224.7c6.4,12.5,7.15,29.37,1.31,40.9-4.55,8.98-18.31,23.54-33.69,23.54ZM934.2,358.31c4.7,0,13.79-6.92,14.06-11.05s-3.18-10.96-6.57-15.33l-129.04.18c-1.98,5.77-3.72,14.1-3.07,18.46.55,3.63,9.93,7.67,14.38,7.67l110.23.07ZM924.95,445.86c-18.83,1.33-28.84,6.64-40-9.35l39.57-4.21.73-22.12-35.91-.64,2.34-13.24,33.52.29.15-24.5-94.93.17c-.97,43.82,2.83,83.32-3.09,124.52-3.54,24.63-24.74,46.65-30.9,69.66,25.56-11.57,58.56-15.6,82.41,1.26,26,18.38,58.53,17.93,81.48-2.13l-33.69-69.55c-1.62-3.34.14-13.86-3.04-13.66l-13.31.85c-9.74.62-19.89.41-24.46-10.95l38.87-3.98.26-22.41ZM1018.7,771.8c20.43,0,35.34-23.39,27.18-39.31l-79.42-154.94c-29.29,20.24-61.18,21.77-89.19,3.84-27.92-17.87-60.78-13.88-90.78,2.55l-73.57,145.7c-3.67,7.27-3.36,21.65.79,27.86,3.77,5.64,15.62,14.33,23.55,14.33l281.44-.04Z"/>
  <path d="M846.89,248.5l23.92,22.88-2.19-41.37c-.4-7.56-17.87-15.83-25.1-16.06l-153.31.22c-16.9,1.45-29.49,12.73-29.57,29.95l-.03,165.01-9.01,6.65c-2.13,1.57-6.82-7.17-7.12-9.37l-.13-158.35c-1.22-25.54,17.96-48.75,44.96-48.67l161.54.5c19.56.06,33.29,17.82,34.25,34.25l2.17,37.29,24.94-24.52c2.01-1.98,9.96-2.71,11.17-.34s-.03,11.3-2.6,13.76l-41.98,40.28-42.09-40.3c-2.14-2.05-3.48-12.38-1.27-13.34,2.91-1.26,8.88-.89,11.44,1.56Z"/>
  <path d="M373.59,261.36l-18.35,16.7c-9.05-22.19,7.2-32.4,23.75-36.8,4.37-20.23,16.32-37.61,37.62-40.59l103.44-.48c15.88-.07,17.13-19.43,28.89-30.48,2.04-1.91,8.59,6.49,8.51,9.63-.41,16.08-17.28,36.91-38.06,36.82l-91.02-.39c-20.72-.09-32.33,13.92-32.56,35.23l-22.22,10.37Z"/>
  <path d="M542.7,253.6c-21.12-1.45-25.46,26.29-29.35,24.04l-10.53-6.09c2.77-22.04,18.59-34.59,41.28-33.87,24.52.78,29.36-28.44,32.88-26.3l9.93,6.05c-2.79,23-19.54,37.87-44.22,36.17Z"/>
  <path d="M498.9,641.04l-70.02-.93.09-65.8,69-.65.92,67.39ZM482.87,624.78l-.44-35.13-36.88-.04-.04,35.23,37.35-.07Z"/>
  <path d="M604.29,640.29l-69.05.68-.98-67.02,69.34-.11.7,66.45ZM587.84,624.78l-.41-35.11h-36.71s.06,35.09.06,35.09l37.06.03Z"/>
  <path d="M395,640.3l-69.5.55-.98-66.9,69.57-.07.91,66.43ZM378.82,624.72l.05-35.07-37.53.07.03,34.91,37.45.08Z"/>
</svg>