<svg width="47" height="47" viewBox="0 0 47 47" fill="none" xmlns="http://www.w3.org/2000/svg">
<g filter="url(#filter0_d_367_719)">
<path fill-rule="evenodd" clip-rule="evenodd" d="M36.7716 8.19646C36.7716 7.88403 36.7718 7.57157 36.7698 7.25911C36.7682 6.9959 36.7651 6.73275 36.7579 6.46967C36.7421 5.89627 36.7077 5.31795 36.604 4.75094C36.4988 4.17574 36.327 3.64041 36.0562 3.1178C35.7901 2.60412 35.4424 2.13407 35.0276 1.72656C34.6129 1.31905 34.1346 0.977495 33.6119 0.71601C33.0797 0.449798 32.5345 0.280968 31.9488 0.177581C31.3719 0.0757595 30.7835 0.0419999 30.2002 0.0265094C29.9324 0.019387 29.6646 0.0163847 29.3967 0.0147558C29.0787 0.0128395 28.7607 0.0129992 28.4427 0.0129992L24.7503 0H21.9887L18.3616 0.0129992C18.043 0.0129992 17.7244 0.0128395 17.4057 0.0147558C17.1373 0.0163847 16.869 0.019387 16.6007 0.0265094C16.016 0.0419999 15.4263 0.0757914 14.848 0.177741C14.2615 0.281096 13.7155 0.449862 13.1826 0.715882C12.6588 0.977399 12.1795 1.31899 11.7639 1.72656C11.3484 2.13404 11 2.60399 10.7334 3.11757C10.4619 3.64045 10.2898 4.1761 10.1843 4.75161C10.0805 5.3184 10.0461 5.89652 10.0302 6.46967C10.023 6.73279 10.0199 6.99593 10.0183 7.25911C10.0163 7.5716 10 7.95976 10 8.27222L10.0001 11.7884L10 14.5323L10.0165 18.1231C10.0165 18.436 10.0164 18.7489 10.0183 19.0618C10.0199 19.3253 10.023 19.5888 10.0303 19.8523C10.0461 20.4264 10.0805 21.0056 10.1845 21.5734C10.2899 22.1493 10.462 22.6854 10.7333 23.2087C10.9999 23.7231 11.3483 24.1938 11.7639 24.6019C12.1795 25.0099 12.6587 25.3519 13.1824 25.6138C13.7156 25.8804 14.2618 26.0494 14.8487 26.1529C15.4267 26.2549 16.0163 26.2888 16.6007 26.3042C16.869 26.3114 17.1374 26.3144 17.4058 26.316C17.7244 26.3179 18.043 26.3178 18.3616 26.3178L22.0214 26.3179H24.7899L28.4427 26.3178C28.7607 26.3178 29.0787 26.3179 29.3967 26.316C29.6646 26.3144 29.9324 26.3114 30.2002 26.3042C30.7837 26.2887 31.3723 26.2549 31.9495 26.1528C32.5349 26.0493 33.0797 25.8803 33.6116 25.6139C34.1345 25.3521 34.6128 25.01 35.0276 24.6019C35.4424 24.1938 35.79 23.7232 36.0561 23.2089C36.327 22.6854 36.4989 22.149 36.6041 21.5727C36.7078 21.0051 36.7421 20.4262 36.7579 19.8523C36.7651 19.5888 36.7682 19.3253 36.7698 19.0618C36.7718 18.7489 36.7716 18.436 36.7716 18.1231C36.7716 18.1231 36.7714 14.5957 36.7714 14.5323V11.7855C36.7714 11.7387 36.7716 8.19646 36.7716 8.19646Z" fill="url(#paint0_linear_367_719)"/>
</g>
<mask id="mask0_367_719" style="mask-type:luminance" maskUnits="userSpaceOnUse" x="10" y="0" width="27" height="27">
<path fill-rule="evenodd" clip-rule="evenodd" d="M36.7716 8.19646C36.7716 7.88403 36.7718 7.57157 36.7698 7.25911C36.7682 6.9959 36.7651 6.73275 36.7579 6.46967C36.7421 5.89627 36.7077 5.31795 36.604 4.75094C36.4988 4.17574 36.327 3.64041 36.0562 3.1178C35.7901 2.60412 35.4424 2.13407 35.0276 1.72656C34.6129 1.31905 34.1346 0.977495 33.6119 0.71601C33.0797 0.449798 32.5345 0.280968 31.9488 0.177581C31.3719 0.0757595 30.7835 0.0419999 30.2002 0.0265094C29.9324 0.019387 29.6646 0.0163847 29.3967 0.0147558C29.0787 0.0128395 28.7607 0.0129992 28.4427 0.0129992L24.7503 0H21.9887L18.3616 0.0129992C18.043 0.0129992 17.7244 0.0128395 17.4057 0.0147558C17.1373 0.0163847 16.869 0.019387 16.6007 0.0265094C16.016 0.0419999 15.4263 0.0757914 14.848 0.177741C14.2615 0.281096 13.7155 0.449862 13.1826 0.715882C12.6588 0.977399 12.1795 1.31899 11.7639 1.72656C11.3484 2.13404 11 2.60399 10.7334 3.11757C10.4619 3.64045 10.2898 4.1761 10.1843 4.75161C10.0805 5.3184 10.0461 5.89652 10.0302 6.46967C10.023 6.73279 10.0199 6.99593 10.0183 7.25911C10.0163 7.5716 10 7.95976 10 8.27222L10.0001 11.7884L10 14.5323L10.0165 18.1231C10.0165 18.436 10.0164 18.7489 10.0183 19.0618C10.0199 19.3253 10.023 19.5888 10.0303 19.8523C10.0461 20.4264 10.0805 21.0056 10.1845 21.5734C10.2899 22.1493 10.462 22.6854 10.7333 23.2087C10.9999 23.7231 11.3483 24.1938 11.7639 24.6019C12.1795 25.0099 12.6587 25.3519 13.1824 25.6138C13.7156 25.8804 14.2618 26.0494 14.8487 26.1529C15.4267 26.2549 16.0163 26.2888 16.6007 26.3042C16.869 26.3114 17.1374 26.3144 17.4058 26.316C17.7244 26.3179 18.043 26.3178 18.3616 26.3178L22.0214 26.3179H24.7899L28.4427 26.3178C28.7607 26.3178 29.0787 26.3179 29.3967 26.316C29.6646 26.3144 29.9324 26.3114 30.2002 26.3042C30.7837 26.2887 31.3723 26.2549 31.9495 26.1528C32.5349 26.0493 33.0797 25.8803 33.6116 25.6139C34.1345 25.3521 34.6128 25.01 35.0276 24.6019C35.4424 24.1938 35.79 23.7232 36.0561 23.2089C36.327 22.6854 36.4989 22.149 36.6041 21.5727C36.7078 21.0051 36.7421 20.4262 36.7579 19.8523C36.7651 19.5888 36.7682 19.3253 36.7698 19.0618C36.7718 18.7489 36.7716 18.436 36.7716 18.1231C36.7716 18.1231 36.7714 14.5957 36.7714 14.5323V11.7855C36.7714 11.7387 36.7716 8.19646 36.7716 8.19646Z" fill="white"/>
</mask>
<g mask="url(#mask0_367_719)">
<rect x="8" y="-2" width="30" height="29" fill="#0044FF"/>
<rect x="8" y="-2" width="30" height="29" fill="#D9D9D9" fill-opacity="0.01"/>
<g filter="url(#filter1_ii_367_719)">
<path fill-rule="evenodd" clip-rule="evenodd" d="M36.7716 8.19646C36.7716 7.88403 36.7718 7.57157 36.7698 7.25911C36.7682 6.9959 36.7651 6.73275 36.7579 6.46967C36.7421 5.89627 36.7077 5.31795 36.604 4.75094C36.4988 4.17575 36.327 3.64041 36.0562 3.1178C35.7901 2.60412 35.4424 2.13407 35.0276 1.72656C34.6129 1.31905 34.1346 0.977495 33.6119 0.71601C33.0797 0.449798 32.5345 0.280968 31.9488 0.177581C31.3719 0.0757595 30.7835 0.0419999 30.2002 0.0265094C29.9324 0.019387 29.6646 0.0163847 29.3967 0.0147558C29.0787 0.0128395 28.7607 0.0129992 28.4427 0.0129992L24.7503 0H21.9887L18.3616 0.0129992C18.043 0.0129992 17.7244 0.0128395 17.4057 0.0147558C17.1373 0.0163847 16.869 0.019387 16.6007 0.0265094C16.016 0.0419999 15.4263 0.0757914 14.848 0.177741C14.2615 0.281096 13.7155 0.449862 13.1826 0.715882C12.6588 0.977399 12.1795 1.31899 11.7639 1.72656C11.3484 2.13404 11 2.60399 10.7334 3.11757C10.4619 3.64045 10.2898 4.1761 10.1843 4.75161C10.0805 5.3184 10.0461 5.89653 10.0302 6.46967C10.023 6.73279 10.0199 6.99593 10.0183 7.25911C10.0163 7.5716 10 7.95976 10 8.27222L10.0001 11.7884L10 14.5323L10.0165 18.1231C10.0165 18.436 10.0164 18.7489 10.0183 19.0618C10.0199 19.3253 10.023 19.5888 10.0303 19.8523C10.0461 20.4264 10.0805 21.0056 10.1845 21.5734C10.2899 22.1493 10.462 22.6854 10.7333 23.2087C10.9999 23.7231 11.3483 24.1938 11.7639 24.6019C12.1795 25.0099 12.6587 25.3519 13.1824 25.6138C13.7156 25.8804 14.2618 26.0494 14.8487 26.1529C15.4267 26.2549 16.0163 26.2888 16.6007 26.3042C16.869 26.3114 17.1374 26.3144 17.4058 26.316C17.7244 26.3179 18.043 26.3178 18.3616 26.3178L22.0214 26.3179H24.7899L28.4427 26.3178C28.7607 26.3178 29.0787 26.3179 29.3967 26.316C29.6646 26.3144 29.9324 26.3114 30.2002 26.3042C30.7837 26.2887 31.3723 26.2549 31.9495 26.1528C32.5349 26.0493 33.0797 25.8803 33.6116 25.6139C34.1345 25.3521 34.6128 25.01 35.0276 24.6019C35.4424 24.1938 35.79 23.7232 36.0561 23.2089C36.327 22.6854 36.4989 22.149 36.6041 21.5727C36.7078 21.0051 36.7421 20.4262 36.7579 19.8523C36.7651 19.5888 36.7682 19.3253 36.7698 19.0618C36.7718 18.7489 36.7716 18.436 36.7716 18.1231C36.7716 18.1231 36.7714 14.5957 36.7714 14.5323V11.7855C36.7714 11.7387 36.7716 8.19646 36.7716 8.19646Z" fill="url(#paint1_linear_367_719)" fill-opacity="0.01"/>
</g>
<g filter="url(#filter2_ddd_367_719)">
<path d="M15.2733 12.0803C15.2733 11.1371 16.0379 10.3725 16.9811 10.3725C17.9243 10.3725 18.689 11.1371 18.689 12.0803V19.5439C18.689 20.4872 17.9243 21.2518 16.9811 21.2518C16.0379 21.2518 15.2733 20.4871 15.2733 19.5439V12.0803ZM15 6.94753C15 6.41028 15.1898 5.95511 15.5693 5.58202C15.964 5.19401 16.4346 5 16.9811 5C17.5276 5 17.9906 5.19401 18.3702 5.58202C18.7649 5.95511 18.9622 6.41028 18.9622 6.94753C18.9622 7.48478 18.7649 7.94741 18.3702 8.33542C17.9906 8.70851 17.5276 8.89505 16.9811 8.89505C16.4346 8.89505 15.964 8.70851 15.5693 8.33542C15.1898 7.94741 15 7.48478 15 6.94753Z" fill="#FAFCFF"/>
<path d="M21.1429 12.012C21.1429 11.1065 21.877 10.3725 22.7825 10.3725H23.6833C24.0913 10.3725 24.422 10.7032 24.422 11.1112V11.8217C24.422 11.8373 24.4346 11.8499 24.4502 11.8499C24.4608 11.8499 24.4705 11.844 24.4754 11.8345C24.5813 11.6307 24.7305 11.4269 24.923 11.2231C25.1203 11.0142 25.3556 10.8277 25.6289 10.6635C25.9021 10.4993 26.2133 10.365 26.5625 10.2606C26.9117 10.1561 27.2912 10.1039 27.7011 10.1039C28.5664 10.1039 29.2647 10.2382 29.796 10.5068C30.3274 10.7605 30.7372 11.1187 31.0257 11.5813C31.3293 12.0439 31.5342 12.5886 31.6405 13.2154C31.7468 13.8422 31.7999 14.5212 31.7999 15.2525V19.5439C31.7999 20.4872 31.0353 21.2518 30.0921 21.2518C29.1488 21.2518 28.3842 20.4871 28.3842 19.5439V15.9241C28.3842 15.6107 28.369 15.2898 28.3387 14.9615C28.3235 14.6182 28.2552 14.3049 28.1337 14.0213C28.0275 13.7378 27.8529 13.5064 27.61 13.3274C27.3823 13.1483 27.0483 13.0587 26.608 13.0587C26.1678 13.0587 25.811 13.1408 25.5378 13.305C25.2645 13.4542 25.052 13.6631 24.9002 13.9318C24.7636 14.1855 24.6725 14.4765 24.6269 14.8048C24.5814 15.1331 24.5586 15.4764 24.5586 15.8345V19.5439C24.5586 20.4872 23.794 21.2518 22.8508 21.2518C21.9076 21.2518 21.1429 20.4872 21.1429 19.5439V12.012Z" fill="#FAFCFF"/>
</g>
</g>
<defs>
<filter id="filter0_d_367_719" x="0" y="0" width="46.7715" height="46.3179" filterUnits="userSpaceOnUse" color-interpolation-filters="sRGB">
<feFlood flood-opacity="0" result="BackgroundImageFix"/>
<feColorMatrix in="SourceAlpha" type="matrix" values="0 0 0 0 0 0 0 0 0 0 0 0 0 0 0 0 0 0 127 0" result="hardAlpha"/>
<feOffset dy="10"/>
<feGaussianBlur stdDeviation="5"/>
<feColorMatrix type="matrix" values="0 0 0 0 0 0 0 0 0 0 0 0 0 0 0 0 0 0 0.3 0"/>
<feBlend mode="normal" in2="BackgroundImageFix" result="effect1_dropShadow_367_719"/>
<feBlend mode="normal" in="SourceGraphic" in2="effect1_dropShadow_367_719" result="shape"/>
</filter>
<filter id="filter1_ii_367_719" x="10" y="-20" width="26.7715" height="60.3179" filterUnits="userSpaceOnUse" color-interpolation-filters="sRGB">
<feFlood flood-opacity="0" result="BackgroundImageFix"/>
<feBlend mode="normal" in="SourceGraphic" in2="BackgroundImageFix" result="shape"/>
<feColorMatrix in="SourceAlpha" type="matrix" values="0 0 0 0 0 0 0 0 0 0 0 0 0 0 0 0 0 0 127 0" result="hardAlpha"/>
<feOffset dy="-20"/>
<feGaussianBlur stdDeviation="20"/>
<feComposite in2="hardAlpha" operator="arithmetic" k2="-1" k3="1"/>
<feColorMatrix type="matrix" values="0 0 0 0 0 0 0 0 0 0 0 0 0 0 0 0 0 0 0.3 0"/>
<feBlend mode="normal" in2="shape" result="effect1_innerShadow_367_719"/>
<feColorMatrix in="SourceAlpha" type="matrix" values="0 0 0 0 0 0 0 0 0 0 0 0 0 0 0 0 0 0 127 0" result="hardAlpha"/>
<feOffset dy="14"/>
<feGaussianBlur stdDeviation="32"/>
<feComposite in2="hardAlpha" operator="arithmetic" k2="-1" k3="1"/>
<feColorMatrix type="matrix" values="0 0 0 0 1 0 0 0 0 1 0 0 0 0 1 0 0 0 0.15 0"/>
<feBlend mode="normal" in2="effect1_innerShadow_367_719" result="effect2_innerShadow_367_719"/>
</filter>
<filter id="filter2_ddd_367_719" x="-87" y="-91" width="232.8" height="232.252" filterUnits="userSpaceOnUse" color-interpolation-filters="sRGB">
<feFlood flood-opacity="0" result="BackgroundImageFix"/>
<feColorMatrix in="SourceAlpha" type="matrix" values="0 0 0 0 0 0 0 0 0 0 0 0 0 0 0 0 0 0 127 0" result="hardAlpha"/>
<feOffset dx="6" dy="32"/>
<feGaussianBlur stdDeviation="25"/>
<feColorMatrix type="matrix" values="0 0 0 0 0 0 0 0 0 0.0833333 0 0 0 0 0.166667 0 0 0 0.2 0"/>
<feBlend mode="normal" in2="BackgroundImageFix" result="effect1_dropShadow_367_719"/>
<feColorMatrix in="SourceAlpha" type="matrix" values="0 0 0 0 0 0 0 0 0 0 0 0 0 0 0 0 0 0 127 0" result="hardAlpha"/>
<feOffset dx="6" dy="12"/>
<feGaussianBlur stdDeviation="54"/>
<feColorMatrix type="matrix" values="0 0 0 0 0.14875 0 0 0 0 0.424375 0 0 0 0 0.7 0 0 0 0.3 0"/>
<feBlend mode="normal" in2="effect1_dropShadow_367_719" result="effect2_dropShadow_367_719"/>
<feColorMatrix in="SourceAlpha" type="matrix" values="0 0 0 0 0 0 0 0 0 0 0 0 0 0 0 0 0 0 127 0" result="hardAlpha"/>
<feOffset dy="6"/>
<feGaussianBlur stdDeviation="20"/>
<feColorMatrix type="matrix" values="0 0 0 0 0 0 0 0 0 0.157362 0 0 0 0 0.316667 0 0 0 0.2 0"/>
<feBlend mode="normal" in2="effect2_dropShadow_367_719" result="effect3_dropShadow_367_719"/>
<feBlend mode="normal" in="SourceGraphic" in2="effect3_dropShadow_367_719" result="shape"/>
</filter>
<linearGradient id="paint0_linear_367_719" x1="0.787873" y1="0" x2="0.787873" y2="43.7419" gradientUnits="userSpaceOnUse">
<stop stop-color="white"/>
<stop offset="0.489516" stop-color="#EFEFEF"/>
<stop offset="1" stop-color="#C0C0C0"/>
</linearGradient>
<linearGradient id="paint1_linear_367_719" x1="0.787873" y1="0" x2="0.787873" y2="43.7419" gradientUnits="userSpaceOnUse">
<stop stop-color="white"/>
<stop offset="0.489516" stop-color="#EFEFEF"/>
<stop offset="1" stop-color="#C0C0C0"/>
</linearGradient>
</defs>
</svg>
