<?xml version="1.0" encoding="UTF-8"?>
<svg id="Lag_1" data-name="Lag 1" xmlns="http://www.w3.org/2000/svg" viewBox="0 0 206.7 206.78">
  <defs>
    <style>
      .cls-1 {
        fill: #002bb3;
      }
    </style>
  </defs>
  <path class="cls-1" d="M87.4,143.25c2.56,1.04,6.19-5.72,10.24-6.1,4.4-.41,7.17,5.5,11,6.39,4.92,1.14,7.92-6.32,12.65-6.14,1.72.07,4.46,2.2,5.95,3.52l2.19,1.94c.59.52.21,2.21-.58,3.69l-7.57-5.65-5.16,3.81c-9.86,7.28-14.25-3.79-17.7-3.56-2.85.19-5.18,5.06-9.78,5.9-5,.92-8.81-10.51-15.98-4.04-2.89,2.61-6.25,6.12-11.67,3.19l22.43-13.43c1.45-.87,3.63-3.23,3.89-4.7,1-5.66-9.33-9.76-10.57-15.33-1.47-6.6,3.14-12.4,7.09-16.9-1.73-4.48-9.48-4.57-11.98-1.42,1.53,4.99,2.87,9.9.62,14.8-1.52,3.31-5.61,6.2-10.58,7.59l-.21,7.95c-.02.75-1.07,3.1-1.62,2.68s-1.58-1.89-1.6-2.66l-.27-8.3c-4.84-2.24-8.53-5.28-10.31-8.48-2.74-5.86-2.18-10.91.78-15.85l10.29-21.13c.37-.76,1.51-1.87,2.12-1.79s1.65,1.25,1.87,1.84l7.53,20.35c6.28-4.19,13.57-3.49,18.06,2.55,11.56.97,22.38,1.09,33.97-.05l-.13-6.43c-5.33-.61-9.87-3.43-10.98-8.77-1.32-6.36,1.08-12.64,4.96-17.51l11.49-14.42,7.94,19.79c5.62,14.01-8.41,19.27-9.83,21.54-.6.97.12,4.68,1.13,4.47l5.14-1.13c.96-.21.58-3.38,1.17-4.41l11.81-20.51,13.22,17.79c2.76,3.71,3.18,9.57.66,13.69-2.06,3.37-6.2,5.47-11.33,6.75l.05,10.02c0,.7-1.22,2.76-1.66,2.35s-1.59-1.85-1.6-2.45l-.15-10.19c-5.5-2.2-8.77-4.42-11.92-9.54l-14.81,4.51c-.76.23-2.17,1.96-2.56,2.52-.5.7.79,2.84,1.59,3.28l15.98,8.67c3.62,1.96,7.01,5.28,9.11,8.58,5.7,8.98-3.77,14.14-2.96,23.06l2.38,1.05c.56.25.67,2.69.08,2.86-1.4.41-4.45-.64-5.29-1.79s-1.99-4.51-1.36-6l4.43-10.46c2.11-4.97-1.68-10.22-6.05-12.69l-18.86-10.66c-3.52-1.99-3.96-6.9-1.41-9.27l-24.52-.56c-4.49,1.24-8.27,7.8-8.24,12.83.02,4.47,11.27,8.97,10.94,16.7-.22,5.13-4.41,7.72-8.78,10.44.92,1.58,3.5,4.48,5.26,5.19ZM125.71,82.5c5.5-1.19,8.8-7.38,6.67-12.68l-5.91-14.71c-6.83,7.28-14.19,19.48-10.05,25.05,1.01,1.35,4.08,2.8,5.49,3.13l1.59-9c1.53,3.36,1.58,4.51,2.2,8.21ZM146.38,90.95l1.98,9.36c1.93-.42,6.13-2.49,7.23-4.52,1.16-2.14.53-6.84-.73-8.72l-9.33-13.9-7.9,13.41c-1.09,1.85-1.48,6.85-.16,8.88,1.16,1.8,4.45,3.72,6.97,4.98l1.95-9.48ZM60.72,98.58l1.25,6.51,2.03-3.12c.39-.6,2.78.94,2.36,1.52l-1.48,2.05c-1.48,2.05-2.52,3.86-3.54,6.5,4.11-.14,6.29-2.01,7.76-4.99,1.05-2.11,1.03-5.88,0-8.41l-8.71-21.13-8.52,16.84c-3.55,7.02-1.05,15.25,6.25,17.8,1.85-4.38-.81-9.04-3.53-10.51-.17-.29.14-2.81.44-2.55l1.56,1.31c.71.6,1.4,1.38,1.75.98l2.4-2.79Z"/>
  <path class="cls-1" d="M102.73,116.37c-2.8-1.53-5.26-1.22-7.62.37l-1.43.97c-.41.28-1.89-1.01-1.55-1.37l1.64-1.72c2.51-2.63,5.72-3.47,9.2-1.31,4.45,2.77,8.46-6.09,11.98.26l-5.41,1.95c-2.56.92-4.49,2.12-6.81.85Z"/>
  <path class="cls-1" d="M117.54,123.32c-3.86,6.01-7.99-2.09-13.06,2.18l-1.81-1.56c2.69-4.05,7.52-3.52,11.26-.75,2.04-2.53,5.94-5.34,8.5-4.53.64.2,2,1.46,2.31,1.9,1.31,1.87-5.24-.28-7.2,2.76Z"/>
  <path class="cls-1" d="M110.49,135.42c-2.44-1.98-7.65-2.46-9.74-.06-.56.65-3.06-.95-2.54-1.6,3-3.78,9.82-4.39,13.53-.83l1.5,1.44c.45.43-2.24,1.47-2.76,1.05Z"/>
  <path class="cls-1" d="M99.65,107.09c-4.12-4.89-14.17,2.63-12.38-.49,2.83-4.93,8.52-6.05,13.45-2.18l1.56,1.4c.5.45-2.13,1.87-2.63,1.27Z"/>
  <path class="cls-1" d="M132.62,130.03c-4.26-2.16-7.02-2.59-11.47.63-1.34-3.46,2-5.12,4.51-5.48,2.85-.41,6.74-.24,6.96,4.85Z"/>
</svg>