<?xml version="1.0" encoding="UTF-8"?>
<svg id="Layer_1" data-name="Layer 1" xmlns="http://www.w3.org/2000/svg" viewBox="0 0 2528 1684">
  <defs>
    <style>
      .cls-1 {
        fill: #03c;
      }
    </style>
  </defs>
  <path class="cls-1" d="M2527.98,412v-7.65s-132.29,21.91-132.29,21.91l-1.05-32.38-2.65-105.87-2.43-113.96-1.13-47.43,139.55-38.13v-6.49s-457.62,124.21-457.62,124.21l-21.16-10.14,236.95-66.08,241.81-65.99v-8s-259.82,71.67-259.82,71.67l-101.15,27.75-361.87,103.55-332.1,95.67-92.99,27.58-249.21,74.39-1.66-13.95,441.51-134.13,384.37-117.19,215.43-62.77,264.11-75.68,93.38-26.9v-7.48s-93.33,26.51-93.33,26.51l-274.8,78.93-213.65,62.65-385.3,118.31-340.78,104.91-72.78,23.24-.52-105.05L531.2,7.45,520,0h-9.92s6.73,5.28,6.73,5.28l153.6,80.52,288.94,150.69,183.89,93.16c-2.82,34.47-1.97,69.02,1.11,103.86l-22.06,7.95,4.5,15.81c-9.63,2.89-14.58,4.37-22.68,9.14l37.01,2.53.21,18.77c-12.87,14.03-12.38,34.76-1.16,50.47l-414.23-54.12-406.24-51.25-219.51-26.8-75.08-8.63-1.19,1.74,241.42,31.68,494.55,63.18,383.55,49.33.24,15.02-256.21-31.91c-27.68-3.45-51.61-5.13-76.31,11.42-13.1,8.78-25.85,20-37.66,31.62l-51.51,50.67c-6.44,6.34-16.88,12.51-24.6,13.66-5.66-4.73-10.28-7.89-15.88-7.48-7.14.52-12.61,1.94-15.95,11.18l12.92,2.04c12.59,22.03,12.98,48.37-.69,70.58-1.95,3.16-11.85,2.95-14.68.24l.34-82.28.06-8.07c.03-4.24-25.5-8.04-39.1-5.26-12.08,2.46-34.73,12.05-30.16,18.75,7.09-2.62,17.79-6.49,23.36-1.46,7.9,14.79,7.36,31.64,7.67,47.96.25,13.65-4.3,24.56-11,36.68,12.11-4.57,10.82-16.76,15.41-27.31l1.23,27.47-31.96,5.84-.33-7.86,15.56-.74-1.03-2.84-27.63-3.08c14.3-28.91,13.38-83.19-5.2-88.07-5.32-1.4-12.74.65-17.44,6.78L29.2,585.32,0,582v8s578.47,45.38,578.47,45.38c9.52,23.39,4.41,55.4-10.3,74.6l-4.41-3.47c-.9-.71.69-3.16,1.73-3.65l6.96-3.34-126.62-7.57-253.13-13.27-2.12-13.15c-1.59,15.02-.55,28-.83,42.52l-1.52,77.94-1.02,87.84-1.18,126.49c3.19-4.09,3.88-8.86,3.98-14.2l1.26-70.05,1.09-72.66c7.41,8.46,1.22,17.73,2.6,27.48,5.85-8.98,6.78-26.69-2.48-32.09l.62-33.32,39,.93,80.02,2.18,145.8,3.8,62.21,2.34-.03,44.97,3.44,4.73.95-19.04,1.14,1.66,1.46,19.24c2.35-13.62,2.72-27.41,3.15-41.43,6.97-.58,13.04-4.43,17.45-9.71l62.31,1.38,88.03,1.6,21.83,1.34,59.57,1.94-90.25,65.87-122.74,1.08-43.22-1.41-33.63-1.05c-2.64-.08-6.46-3.05-8.64-5.82-1.66,3.99-7.41,7.83-13.89,7.8l-173.95-.86-80.12-1.13-1.07,1.69,41.42,1.45,73.46,2.04c23.57.65,46.48,1.32,70.09-.09,26.9-1.61,53.56-.92,80.46-.68l2.28,11.79-249.45-.17-22.24-1.62-.79-20.82c-2.56,6.79-3.28,12.45-4.01,20.22l-7.51,1.01.14,2.75,79.72,1.57,205.74,1.36c4.01,8.6,5.46,16.43,4.48,25.6l-290.13.12c7.24,3.17,15.38,1.1,22.01,2.5,14.78,3.11,27.85-.16,42.56-.18l218.86-.28c1.88,0,4.19.52,5.3,1.03.58.26,3.28,11.12,4.68,7.06l1.09-3.18.84-1.08,1.91-3.48c.31-.56,2.59.89,3.47,1.42l91.13.34c11.81,2.43,24.54,1.72,36.29,1.3l-5.57,16.39c-.3,1.7,2.13,4.75,3.21,3.57.53-5.29.76-13.12,3.35-15.2l18.57-14.92c6.46,7.16,10.9,11.07,17.62,15.8l12.15,8.54-4.89-8.9,110.98-85.3,2.36,29.35-46.09,34.47c-9.92,7.42-17.16,14.59-17.82,28.72l-33.25,26.2-15.62,15.1-54.87-5.6-33,.97-2.49-12.02c-.86-4.17-16.11-1.1-17.23-4.47l-2.55-7.71c-13.82-2.96-30.04-1.72-44.21,1.6l-4.01,7.8c-.75,1.45-6.88-.21-8.28-.82l-101.71,2.85c-9.3,3.7-17.83,7.42-25.89,12.55l-39.91,25.41c-.75-5.83-2.32-12.16-4.96-13.39l-32.9.83c-10.46.26-19.09-7.27-29.69-1.88-4.39,2.23-9.68,8.06-10.57,12.18-1.34,6.18,1.75,10.96,4.97,16.96l.82,18.17-57.34-21.88-25.32-8.57,1.9-275.99.97-74.65c-8.51-2.41-15.85-3.61-24.49-4.07l-86.75-4.63L0,650v4s71.19,4.96,71.19,4.96l102.06,5.59c1.62.09,6.73,1.29,6.55,2.91l-.66,6.07-.61,5.57c-.12,1.08-4.19.02-5.4-.39L.03,668v8s178.03,8.19,178.03,8.19l-.63,55.17-34.84.18c-1.56,4.38-1.56,13.67.63,19.36l32.93,3.03-1.28,9.14-20.58-4.39c-5.34,1.48-13.77,4.04-20.31,3.73L.02,764v6s77.96,2.24,77.96,2.24l73.37,2.07c2.16,8.18,2.83,17,2.04,25.27L0,796v4l20.46.8,63.84,1.71-21.67,2.6-.18,74.31,49.13.31.33-76.22,35.62.8c1.49.03,5.45,2.8,7.47,4.17,4.42-13.28,1.03-25.81-1-41.25,8.71,13.34,6.36,26.98,3.32,43.59l5.56-5.93,13.31.18-.15,200.77-1.58,54.2-.6,118.01h-3.78s.24-111.97.24-111.97l1.19-80.12.83-135.83c.04-7.1,2.7-15.38.15-21.71l-24.88-.75c-7.41-.22-18.88,2.85-19.77,12.43-1.01,10.94-.92,22.55.38,33.84.75,6.58,11.84,9.07,18.16,8.15-3.25,12.83-36.55,15.43-39.2.04l-45.08.07L0,882v4l77.52-.09-.32,13.73-47.14-1L0,896v6s76.48.36,76.48.36l-1.85,29.36L0,932v2l73.97.28-7.76,55.89c-3.68,26.48-12.72,49.62-24.54,74.29,8.93-7.76,12.93-19.07,16.74-30.21,6.35-18.57,10.41-37.23,13.15-56.69l6.06-43.39,89.02.23-.1,127.34-22.43,1.7-43.35,1.5-49.87,1.93c-8.42.33-12.12.53-16.85-7.08-8.7-13.99-20.36-26.26-34.03-33.79v4.39c12.78,9.82,23.45,22.38,33.63,36.91l-33.62.7v6s37.14-1.69,37.14-1.69c.46,3.92.43,8.53-.9,10.43-1.34,1.91-6.47,4.61-8.9,4.68l-27.35.58v3.92c12.26,1.93,26.32,3.11,38.52-3.83,3.34-1.9,4.2-11.1,3.99-16.93l48.31-2.29,54.95-1.53,20.81-1.24.03,21.14c0,1.04-4.1,4.44-4.94,3.85-.85-.6,4.31,3.15,4.42,3.23l.11,83.93-34.54,3.99-1.29,1.48c-2.68-.24-13.06,2.75-13.93,6.67-3.4,18.55-3.89,37.83-1.39,56.12l3.6,26.35c1.8-23.75-5.03-56.97,2.03-77.44l2.87,78.43-10.95-.79c4.64,8.59,14.86,4.7,17.59-.39l-4.34-8.41.06-64.42,30.8.77-10.27,2.83,11.81,1.48c-6.78,2.53-11.25,8.85-11.79,16.68-.48,6.92,3.46,11.71,6.53,19.01,2.1,4.99,1.19,16.96,4.47,21.39,3.92,5.3,14.48,6.19,17.04.96l-13.79-1.36-4.82-19.32,19.77.78,1.41,19.23,3.44-21.71c3.15-8.57,7.6-16.57,4.93-25.98-2.47-8.73-10.86-10.5-19.34-11.73l28.79-3.14c.79-.09,1.74-3.76,1.94-5.36l7.39,2.94c1.74.69,1.48,6.54,1.57,8.42l1.71,38.19c.33,7.27.67,14.19,2.97,21.19l-.37-33.16-1.17-32.02c-.03-.96-.65-3.86.18-3.91l3.9-.26c.83-.06.25,3.21.02,4.15l1.2,64.26c-.93,1.2-2.06,2.63-3,2.61l-5.04-.16c.16.69,3.19,3.29,5.06,3.94,1.87.65,7.45-1.65,7.03-3.57l-1.66-7.53-.41-34.88,29.76-.48c1.77-.03,5.62-1.77,5.6-3.21-.14-7.27-15.61-6.39-9.16-23.5l10.38,1.13c3.63,6.14,5.9,9.38,11.48,14.21l-5.75-14.9,8.05,1.27.57,23.77,49.71,38.3c1.12.87,3.08,4.45,2.48,5.71l-2.14,4.49c1.92,2.62,3.89,13.39.55,15.93l-11.76,8.95c-24.38,2.71-53.42,1.07-67.4,18.25l.63,75.98,1.34,42.62,10.11.55,1.6,1.97-17.44-.34c1.95,4.98,6.23,6.4,11.08,6.76,8.05.6,16.29-2.48,15.17-11.11l-8.17,3.29.78-1.29.32-94.99-1.2-11.29,41.53,4.48c-14.49,5.85-19.02,22.77-13.12,36.19,9.48,21.57,6.92,27.95,9.83,47.44,11.78,6.88,25.22,6.66,35.79-2.29l.6-25.28c15.89-10.19,20.32-33.04,6.84-47.61-8.4-9.08-22.51-8.04-32.96-3.32-10.01,4.53-14.82,15.56-16.37,26.31-4.46-15.37,7.25-28.47,22.6-31.15l53.69-9.39,2.05,88.55c-1.58.93-4.15,6.33-2.87,7.59,5.55,5.44,24.12,5.23,22.93-6.65-5.76,5.33-12.24,7.95-18.31,5.1l.71-42.64-.16-54.75,3.09,1.67,2.59,91.56,5.61,1.85c.7.23.2-1.65-.25-2.93l-.18-41.44-2.24-57.96c-.1-2.7.49-10-1.84-10.92l-10.68-4.19,34.48-2.03,23.67-1.6-2.1,46.61,40.97,31.46c4.76,3.65,8.42,5.97,6.82,12.92l-52.05-39.12-1.72,2.3,52.19,40.5c6.19,28.27-28.61,32.09-15.69,51.52,21.09-1.2,41.69-4.18,61.06-8.81l-.11-9.53c27.79,19.32,49.73,40.54,79.68,54.54l-100.39-76.16,3.97-5.1,95.01,70.34c4.45,3.3,10.81,5.5,16.04,4.8l43.22-5.79c-18.82,8.29-39.6,4.5-57.3,16.44l137.2-23.69,260.01-45.75,71.96-12.27c8.14-1.39,15.1-1.03,23.74-.99,15.31.07,31.69-5.61,46.29-6.56,3.5,2.79,8.05,4.86,11.71,4.61,3.74-.25,6.76-4.85,8.03-8.9l113.44-20.71,138.13-26.01c5.12-.96,15.5,2.11,19.27-.32,4.53-2.91,7.53-4.81,12.56-5.74l136.78-25.14,128.35-25.48,4.37-4.89c.69-.77-.63-2.93-1.43-4.2l-23.76-4.04.03,2.69,12.5,4.29-264.47,50.59c-3.06.58-6.58-2.73-5.86-5.19l189.43-34.65,61.42-12.98c.04-5.3-4.24-8.49-8.43-9.57l-24.19-6.21-53.27-104.32,7.38.73c1.45.14,3.26-4.15,3.27-5.78l.39-50.79,57.84-7.27-.05-3.45-59,6.47,20.6-21.7,48.52,4.88c-1.35,22.54,2.58,44.35-1.05,66.12l-12.29,73.52c-4.86-.88-9.71,0-11.25,3.01,20.95-1.87,47.13,9.82,70.34,9.37,18.65-.37,36.51-6.73,53.6-9.3l-.26,2.75c-16.94,2.28-35.08,8.52-53.27,9.38l-68.68-9.15c22.68,5.54,46.31,11.98,70.86,12.25,10.44.12,48.44-7.63,54.49-10.5.86-.41.47-6.48-.46-6.7l-17.84-4.26-9.32-67.75c10.08.65,20.45,2.65,29.97,6.27,2.51,4.06,4.97,12.33,5.01,16.74l.39,48.78c3.65-4.21,3.46-7.56,3.93-12.35,2.52-25.31,3.65-56.9-16.44-59.84l-23.03-3.37.39-7.99,107.23,12.3-.18-4.43-108.01-12.49-.37-11.33,107.5,11.74-1.74-21.48c-1.73,3.28-3.26,7.28-4.26,6.28l-3.12-3.13c-.75-.75.74-2.49,3.13-5.27l-5.06-5.32c-1.24-1.31-3.93-.43-8.4,1.97l.39-14.12,3.26,7.84,1.47-12.92,10.08-2.31c1.68-.39,1.91-6.36,1.8-8.31l-1.29-23.24-21.35-2.52c-1.63-.19-2.65-6.38-1.9-8.08,17.65-.42,34.56.1,51.89,2.69-4.43,3.39-7.2,4.19-13.41,5.38-3.63,14.79-2.57,30.75-2.05,47.4-8.2-14.96,2.32-30.28-4.56-46.1l-.1,158.76,4.76-28.47.8,21.01c.16,4.07,2.46,7.65,6.33,10.91l-26.91,1.17c9.84,5.85,21.44,4.06,30.34.55-7.34-10.61-6.89-17.19-6.79-27.39l.37-37.24,106.49,12.45-.03,62.04-77.83-12.7c-5.45-.89-11.62-.96-16.78,1.82l89.1,14.46c10.69,1.73,42.63-6.2,45.01-8.85,1.86-2.07,2.69-7.57,3.51-12.1l55.55,7.39c40.03-7.08,79.55-12.52,121.18-25.22-53.16-12.08-103.23-12.79-153.98-21.24-6.26-1.04-12.77-.79-19.55.34l44.27,6.9,114.79,14.51-108.58,21.99-54.1-9.02-.27-43.29c-.01-1.7-1.88-5.88-3.53-5.88h-7.79s-.06-12-.06-12l-25.16-5.94.5-26.46,272.27,27.53,153.49,14.99,1.95,31c2.92-9.42,3.51-17.13,3.54-25.98l.52-163.52.12-217.8c0-3.06-.83-8.28,1.11-9.01l7.91-2.95-15.2-3.11,1.92-2.27,23.43,4.56-.43,282.47-.9,134.11-4.26-.04.42-77.85.17-34.4-1.4-302.29c-5.8,88.94-1.14,175.78-2.03,264.49l-1.52,151.57-167.21,39.63c-11.9,2.82-21.4,9.43-25.28,18.78-4.62,11.14-2.01,22.78,5.63,32.46,7.72,9.8,20.7,13.67,32.73,16.02.27,1.67.29,3.71,1.13,3.55.83-.16,4.86-1.32,5.7-1.2l22.28,3.19c-6.63,7.45-8.88,13.24-9.25,22.3l-4.75,115.18-71.69,29.82,69.83,19.6-4.06,205.23h10s2.95-51.67,2.95-51.67l4.61-188.25.74-128.1c.05-8.12,7.04-18.47,12.76-22.61l29.18,4.39,10.02,23.91-3.53,73.07-1.52,48.55-3.55,120.73-1.65,119.97h10s2.39-35.97,2.39-35.97l1.73-57.72c1.23-.99,3.5-2.6,3.06-3.27l-2.33-3.52,1.26-90.31,113.8,26.74,72.09,17.58v-7.53s-185.08-42.46-185.08-42.46l2.24-81.32,51.07-20.91,131.77,22.69v-6s-132.17-21.37-132.17-21.37l-50.88,19.64-.46-72.35c-.07-10.28-4.07-19.5-7.87-29.11l191.37,27.2v-12s-279.39-38.18-279.39-38.18c-10.75-1.46-28.27-23.58-18.46-37.51,2.4-3.4,7.84-8.05,13.48-9.38l284.37-66.93v-11.61c-6.09,1.63-16.62,6.38-23.67,5.7l-68.03-6.56-4.61-.55c-1.06-.13-2.12,4.11-2.1,5.01l57.79,6.54-61.79,15.25.46-61.29,29.78,2.06,22.2,2.04,20.02,1.84,29.96,1.58v-2l-16.13-2.28-29.89-2.36-22.1-1.74-34.01-2.05.78-120.62,6.96-13.4c6.98,5.56,16.09,9.4,23.86,7.14,7.7-2.24,12.82-9.56,14.35-19.24l24.19-7.32c9.28-2.81,14.53-7.51,14.5-18.4l-.07-29.86c-.04-15.31-15.21-24.54-28.77-20.74,12.09,2.3,24.49,7.85,24.72,20.94l.52,29.81c.17,9.59-5.77,11.7-12.96,14.3-15.5,5.62-30.38,9.87-46.66,7.22l-8.87-15.31c-.69,4.83,2.38,14.34,6.91,16.25,7.79,3.3,14.73,2.61,23.24,2.78-2.74,6.67-6.53,13.05-10.6,14.78-5.53,2.36-14.31-.03-18.12-3.11l-9.06-7.31-.45-33.87-2.74,1.31.91,34.5c.12,4.38,3.08,9.47-2.59,13.11l.8-217.33,28.93,4.08,1.76,38.63-.27,80.57,22.47-2.98c-1.53-1.96-5.36-8.83-5.38-11.88l-.66-101.8,54.4,6.18v-10s-179.18-24.7-179.18-24.7l.15-19.21,22.01,1.13,157.03,24.78v-6s-133.18-21.66-133.18-21.66l133.18-10.34v-6s-231.22,15.05-231.22,15.05l-338.23,21.86-57.46,1.48,13.83-13.82,155.14-10.6,229.99-15.62,227.96-16.35v-12s-196.87,13.89-196.87,13.89l1-17.38,195.87-16.52v-6s-126.92,10.32-126.92,10.32l-1.26-97.01,128.21-14.83v-6.47s-76.07,9.87-76.07,9.87l-121.93,14.17v-3.01s111.97-13.25,111.97-13.25l86.03-11.77v-4l-129.52,16.14-2.28-107.42,131.8-20.43v-6.28l-107.87,16.59-258.11,41.09c-47.03,7.49-92.15,17.68-139.12,18.61l274.24-45.03,230.87-37.26ZM629.44,652.38c-3.2-11.16-3.76-21.14-15.84-27.28l17.28-6.25-1.44,33.53ZM489.74,936.46l-1.17,1.52-.42-14.24c-.21-7.2-1.9-14.35-3.79-21.8,9.5,9.15,8.64,23.68,5.38,34.52ZM482.93,893.99c-.35-.29,1.07-4.19,2.25-4.25l6.81-.34,52.98,1.66c28.63.9,57.06-.06,85.66-.16l53.39-.19c-3.7,3.52-10.91,10.47-14.93,10.79l-29.06,2.29c-34.91.28-68.7-.17-102.93-.71l-37.2-.59c-7.57-.12-12.01-1.71-16.97-8.49ZM628.7,933.62l-63.92-.57-70.51-1.1-1.34-26.13,76.51.66h15.03s77.93.14,77.93.14l-33.69,27.01ZM647.51,923.57l129.66-95.42c2.46,2.53,1.25,7.81-2.51,10.66l-121.05,91.83-6.1-7.07ZM778.67,850.98l-109.53,84.75-6.12,4.21c-1.21.83-4.23-2.43-5.69-4.6l116.17-87.68,2.59-2.67c.67-.69,3.33-.1,3.21.86l-.63,5.12ZM72.47,808.09l35.03.65.1,29.52-35.74-.3.61-29.86ZM69.14,840.34l-1.62,35.77-1.56-1.13.16-67.01,3.88.05-.86,32.32ZM70.49,876.3c-.42-11.33.4-23.31,2.01-34.45l34.88.33.85,33.77-37.74.35ZM181.58,1017.91l38.38,16.32,7.57,3.99c1.85.97,1.09,7.27.12,11.85l-46.73-19.44.66-12.72ZM227.9,1054.81l-.81,31.96-46.68-24.92-.36-28.15,47.84,21.12ZM227.94,1104.63l-1.24,3.99-28.15-16.13,2.92-2.76,26.48,14.9ZM145.77,755.88v-12.22s30.54.53,30.54.53l.07,12.27-30.61-.58ZM162.33,800.25l-.42-26.02,14.33.43.29,25.31-14.2.28ZM77.85,931.92l2.59-29.56,86,.49.12,29.1-88.72-.03ZM166.26,899.92l-85.63.02-.08-14.55,24.31.98c7.98,15.13,37.71,12.67,45.7-3.61l16.03.62-.33,16.56ZM166.24,877.6l-32.61-.23-.91-42.8c12.02-4.7,22.68-5.44,36.73-3.37l-.86,24.95-2.34,21.45ZM133.06,1183.66l11.31,1.56-12.47.5,1.16-2.06ZM118.85,1191.97c3.35-3.57,7.54-1.04,8.07,4.24l-8.07-4.24ZM129.74,1197.04l28.08-2.63c-9.11,3.26-18.53,4.55-28.08,2.63ZM178.08,1210.77c2.24,1.73,4.09,7.96,4.15,11.76.2,11.63-6.92,17.37-15.19,18.11-9.05.81-17.01-5.83-16.34-16.34.2-3.11,1.35-9.3,3.21-11.33,4.03-4.4,18.72-6.39,24.17-2.19ZM168.99,1198.12l-1.1-1.7,11.12-.54,1.1,1.7-11.12.54ZM196.88,1189.74l-14.82,1.92-54.28-.06,16.38-3.7,53.77.31-1.06,1.53ZM198.03,1191.61l1.07-1.28,7.39-1.81c-6.36-3.11-14.41-4.75-22.28-4.68l-23.24.2-1.11-1.92,36.27-.11c5.44-.02,10.68,3,15.22,9.14l-13.32.46ZM216.16,1218.29l-.34-32.49c-11.98-5.92-23.77-7.23-37.99-7.78l1.5-109.82,48.38,25.53-1.51,5.47-20.72-10.2c-4.2-2.07-14.08.5-19.42,1.16l-.04,65.86,3.84-3.17.52-59.98,36.27,20.63-2.98,82.4c-.33,9.12,2.65,17.64-7.51,22.39ZM247.06,1219.99l-27.74,2.16,8.7-10.97,2.37-93.16,1.25-74.22c.03-1.82,5.13-3.91,6.16-2.49,1.03,1.42,1.14,4.53,1.1,7.4l-1.04,69.33-1.16,71.92.14,21.53,10.21,8.49ZM320.03,1409.45c-6.38,4.34-15.99,5.24-23.17,1.25l-2.47-24.32c10.08,3.24,16.26,4.14,25.76,4.11l-.12,18.96ZM290.85,1354.27c2.05-6.05,9.66-13.28,17.62-15.56,10.86-3.12,21.34,1.54,25.34,12.75,3.97,11.14-.62,22.38-7.89,27.92-8.72,6.64-21.14,7.75-29.59.25-6.79-6.02-8.62-16.07-5.47-25.36ZM1853.02,1098.96l.25,38.84c-3.67-11.7-6.24-25.11-.25-38.84ZM2270.01,1472.93l-57.42-13.51,59.03-23.44-1.61,36.96ZM2469.9,773.84l.1,87.43c.01,9,6.94,18.73-1.87,26.32l-.23-112.6,1.99-1.16ZM2463.73,771.53l.37,113.58-4.05,1.05-.11-113.27,3.79-1.36ZM2345,695.88l1.09,1.74-13.12.5-1.09-1.74,13.12-.5ZM2384.62,301.93l.99,30.33-81.31,15.32-94.86,18.79-.49-59.2-.85-39.5,175.77-37.8.76,72.07ZM2381.01,128.89l1.96,82.25-174.81,40.88-.84-43.97-.74-31.8,174.43-47.36ZM2199.22,176.24c5.09,12.7,1.99,25.16,2.99,38.8,1.02,13.97,3.64,26.36-.45,40.28-3.92-25.8-5.04-51.46-2.54-79.07ZM2080.28,210.25l87.34-23.43.47,214.18c-12.39-12.05-27.26-18.2-44.17-17.2-14.6.29-27.17,8.03-32.26,21.91l-43.75,40.31-18.07,15.76-38.07,40.17-37.38,50.52-39.87,39.82v-71.51s29.26-4.88,29.26-4.88c2.97-.5,3.85-8.2,2.43-10.51-1.41-2.29-6.74-4.88-10.26-4.3l-128.54,21.02-5.16-11.07c9.1-9.21,7.77-20.76,2.52-31.77-9.56-20.04-29.51-30.98-51.68-23.91-5.55,1.77-8.81,9.11-13.04,12.81l-41.22,36.1-17.63,12.92-40.11,35.88-18.13,17.73-39.87,38.65-.37-35.81,13.88-2.51c1.58-.29,2.25-6.83.85-7.63l-7.48-4.28-99.85,16.09-176.11,30.18c11.78-17.23-1.86-39.77-19.15-48.14-8.37-4.05-14.38.11-20.53,4.88l-31.68,24.55c-6.53,5.06-12.9,8.09-20.21,11.81-14.15,7.2-23.8,20.75-39.86,27.86,12.54-18.17,14.71-44.31-2.33-60.72-9.79-4.06-20.57-5.03-32.71-6.67l1.03-15.13,202.94-44.22,136.36-30.34,25.07-1.18c3.13-21.74,3.04-42.4,1.81-64.48l-40.59-7.05c.66-9.67.16-14.65-4.02-21.78l418.9-113.46,149.14-40.16.29,20.32-7.34,3.49c-1.42.67,2.07,6.53,3.61,7.25l23.19,10.82-3.93,2.65c-.92.62,1.45,4.71,2.66,4.43l30.71-7.14c1.36-.76,1.36-7.66-.48-8.56l-8.86-4.29,2.23-39.98ZM1646.42,815.69l-1.38,52.24-30.62,30.45.55-62.48c.08-8.53,3.57-18.16,13.37-19.22l16.43-1.77-16.83-1.69,15.96-16.29,65.03.16c-20.27-6.81-38.06-.22-59.72-5.03l22.36-22.32,67.91.21-28.3,29.18-17.01,18.99-44.65,45.09.55-39.8c.03-2.1-1.8-5.95-3.66-7.73ZM1675.34,765.77c6.82-6.56,16.63-4.03,24.98-2.34l11.59,2.34h-36.57ZM1689.74,754.14l-10.31-2.59-218.64,218.43-4.41-6.81.61,17.46c.29,8.15,1.56,17.45,4.01,24.88l-5.13,7.48c7.11-3.46,14.84-4.1,22.09-2.6-7.5,6.35-12.36,11.67-16.48,18.56l-17.85-2.37c-5.66-.75-9.58-4.47-10.27-9.79l6.95,1.01c-14.94-18.83-12.9-50.08,6.04-58.49.57-2.95,2.18-5.67,4.73-8.16l70.06-68.27,130.61-128.85,22.04-20.4,92.36,11.14-16.08,15.74-60.34-6.38ZM1611.19,831.3l-.29,71.15-36.34,36.63-.22-70.77,36.85-37.01ZM633.09,1336.42l-121.76-69.54-15.65-6.19.06-15.04,34.27,14.73,134.66,69.26-31.58,6.78ZM672.54,1337.3l1.42,22.91-41.25,7.04-.47-25.82,40.31-4.13ZM494.3,1283.7l.22-18.76,56.26,30.38,77.71,44.54-2.76,22.69c-43.76-27.64-86.3-53.92-131.42-78.86ZM624.72,1368.01l-27.18,5.57-102.6-64.73c-.81-5.44-.9-10.71-.26-17.99l106.59,63.74,23.45,13.41ZM457.67,1263.81l-1.84-20.86,14.67-.86-.75,28.29-12.08-6.58ZM468.46,1276.56l-.83,16.39-38.17-22.67,25.79-1.94,13.21,8.23ZM453.24,1238.44l-2.38,21.59-3.04-42.09-25.11,1.1-.99-17.49c-23.67-14.25-48.48-27.41-73.86-39.45l-4.7-2.23c-.99-.47-.37-3.78.01-6.18,42.83,19.33,84.35,39.71,127.06,62.4l1.18,18.67-18.18,3.66ZM339.98,1275.86l.17-56.95,15.71,9.23-.11,58.86-15.77-11.14ZM355.59,1295.43c-9.31,1.16-15.06-3.56-14.93-12.66l14.93,12.66ZM427.23,1078.17c.78-7.25-3.32-12.33-9.7-16.12l35.16.06c3.21,7.38,3.17,14.66,1.45,24.22l-18.71,3.69c-3.65.72-8.61-7.97-8.2-11.86ZM427.6,1092.52l-.26,14.15-15.58-5.26c6.52-2.71,10.28-4.78,15.84-8.89ZM421.92,1074.26c2.71,4.81,2.55,15.6-3.04,19.39-5.11,3.47-15.02,3.39-19.1.81-8.91-5.62-7.62-18.03-.96-24.41,6.17-5.9,17.91-5.02,23.1,4.2ZM390.52,1093.3c-4.44-2.06-9.17-5.93-10.13-9.04-1.27-4.1.16-11.31,2.59-15.12,4.72-7.4,13.4-9.55,21.68-8.15-14.23,6.87-18.18,16.56-14.15,32.3ZM376.33,1087.5c-5.57-.71-12.73-4.34-13.97-8.91-1.86-6.86.72-13.91,7.49-17.05,5.46-2.54,13.47-3.31,20.43-3.27-11.41,4.53-17.56,14.62-13.96,29.23ZM368.83,1056.32c-10.48,4.18-13.67,12.76-10.89,24.71l-21.43-8.84,121.82-83.44,57.51-1.01c4.37-.08,11.17-6.03,15.55,1.87l-43.23,1.33c-12.05.37-22.94,11.73-32.59,18.53l-63.63,44.83c-7.78-.64-16.67-.54-23.1,2.02ZM346.62,1217.34c-5.5-3.96-7.61-10.4-3.31-16.4l34.22,20.95c-12.09,4.16-21.65,2.11-30.91-4.55ZM341.98,1195.29l-.05-14.32,41.88,23.9-.11,16.68-41.72-26.26ZM342.81,1176.72l-.13-13.92,66.11,36.4-20.16,4.31-45.81-26.78ZM417.08,1205.59l2.05,13.63-31.09,2.69-.05-14.22,29.09-2.1ZM470.8,1207.68l-126.84-61.52.08-37.63,129.93,54.36-3.17,44.79ZM344.01,1102.69l-1.23-20.49,143.45,55.02c-1.21.02-9.34,1.35-9.51,3.09l-1.66,16.58-131.05-54.19ZM464.79,1120.13l117.4-6.34c-4.98,2-11.4,3.53-14.29,5.6-9.79,6.99-12.46,17.65-11.43,28.61.89,9.46,9.59,17.18,16.77,24.88-1.25,18.2,9.08,35.23-3.27,28.17l-17.79-10.17.06-10.74c.09-17-9.64-29.85-27.33-29.08l-5.05-9.5-55.07-21.43ZM744.89,1043.08l-31.63-43.16,12.11-10.52c6.02-5.23,11.87-6.74,18.96-1.38,11.31,8.56,20,22.04,24.68,35.7l-13.46,12.27c5.14-2.21,8.83-5.06,11.65-7.53l-1.2,19.57c-.24,3.92-7.04,9.06-11.4,10.02-2.18-2.7-5.52-7.37-6.37-9.74-.98-2.72,3.49-7.09,5.85-10.55l-9.18,5.33ZM924.04,835.51c19.86,6.52,32.5,24.63,30.96,45.22l-40.13,31.76-5.1-22.26-20.36,16.31-1.22,1c-1.95,1.25-2.87,6.74-1.45,9.2l7.4,12.85-80.63,63.84-18.45,15.38c-2.17-19.16-12.42-38.07-31.25-44.92,11.22,11.75,22.34,22.74,26.12,38.04.73,2.95.78,11.03-1.45,12.71l-14.55,10.95c-5.77-19.2-15.14-36.36-33.91-43.96-3.71-1.5-14.5-1.21-11.69-9.19l30.17-22.85,3.75,5.48c.86,1.25,5.56.9,6.77-.03l155.01-119.54ZM789.79,905.33c-.05-3.92,3.44-7.99,8.47-9.48l.3,26.42c.03,2.87-5.34,7.28-8.43,8.2l-.35-25.15ZM801.97,921.24l.59-29.36,12.7-10.38.36,30.18-13.64,9.56ZM818.38,908.21l1.51-28.5c.11-2.02,3.48-5.35,5.35-5.83l.28,27.78c.02,2.17-4.91,6.4-7.14,6.55ZM828.14,870.29l16.97-11.38.14,29.91-16.86,12.99-.25-31.52ZM847.81,857.46l3.99-3.82.48,28.46-4.14,4.29-.33-28.93ZM818.75,823.42l4.16,20.91,11.31.95-16.49,13.07,1.03-34.92ZM817.87,810.99l1.7-1.1.54,11.12-1.7,1.1-.54-11.12ZM824.19,842.16l.09-17.94c17.16-17.38,28.81-12.98,52.45-11.19l-33.51,25.93c-3.63,2.81-14.18,2.79-19.03,3.2ZM813.77,806.48c-4.65,1.69-12.07,7.48-15.38,11.97l-.22,52.08c-.01,3.46-5.93,9.02-9.01,9.62l-.57-75.68,9.32-5.26,92.4,2.89-6.28,6.35-70.26-1.96ZM802.53,833.04c-4.66-7.1,2.09-19.03,10.43-20.92,4.22,8.18.08,17.12-10.43,20.92ZM813.92,830.3v29.61c0,3.36-7.51,8.26-11.82,9.83l-.86-30.09,12.68-9.35ZM853.14,775.33l22.54-.49-21.26,16.2c-3.53,2.69-9.17,3.79-16.33,2.83l11.77-13.04,14.49-1.49-11.2-4ZM879.92,742.15l1.61-1.68,9.87-9.8-8.47,11.81c3.07.4-2.87-.27-3.01-.32ZM911.44,716.64l-2.2,17.07c-6.36,1.85-8.93,2.7-11.83,4.18l9.91,1.13c2.18.25,4.43,8.58,2.69,10.03l-25.81,21.36-16.19,1.08c-3.32-.03-6.88-.58-7.31-2.19-.72-2.7-1.39-4.57-.94-6.15.69-2.4,5.26-6.12,8.29-1.06l43.38-45.45ZM915.08,732.43l.14-6.8c.18-8.73.68-15.48,6.71-21.98l.79,30.15c-1.95.53-7.67.16-7.64-1.37ZM922.12,738.77l-3.26,3.42c-.53.56-3.86,2.8-3.97,2.08l-.5-3.47c-.15-1.06,2.2-2.97,3.24-3.22.74-.18,5.01.66,4.49,1.2ZM911.95,711.44l-2.72-.85,7.62-8.69,1.77,1.64-6.67,7.91ZM858.79,796.9l54.9-41.32c39.77-29.93,78.55-58.97,116.49-91.38l71.44-10.8c0,4.91-1.28,12.1-3.79,14.07l-53.63,42.1-3.29-.34.21,8.84c.04,1.5-6.32,2.23-7.7,1.59-3.36-1.56-6.91-8.76-7.78-13.19l10.37-9.45-1.75-1.63-11.49,8.92c-2.58,2-1.9,12-1.48,15.4l-66.97,52.6-16.35,14.23c-6.63,1.68-17.36,1.37-26.12,1.46l-14.35,10.53-38.71-1.6ZM1084.3,631.4l38.1-29.17c15.54,1.9,28,19.06,24.63,35.26l-97.02,14.62c8.62-7.56,15.42-13.58,24.79-17.5,5.73-2.4,13.87,5.08,20.19,7.25-2.26-3.43-6.9-7.46-10.69-10.46ZM1182.34,635.59l3.76,1.6-58.77,9.12-3.08-1.43,58.09-9.28ZM1149.96,635.08l1.37-4.66,25,.78c-9.69,5.79-26.95,5.87-26.36,3.88ZM1443.97,743.83l142.68-127.01,19.45-18.4c15.86-5.65,28.69,5.58,40.15,16.01-4.64-14.83-18.88-22-34.97-23.01l24.03-22.96c9.79-9.36,35.58-4.56,39.21,9.81,3.68,14.57.71,30.62,1.47,46.04l-2.84-3.02c-.5-.53-.87-1.06-1.14-.41-.39.96-1.42,4-1.54,5.02l-.58,5.02c-.12,1.05,2.4.36,5.36-.17,1.33,0,.69,8.37-1.71,8.65l-17.19,1.97-4.08-21,18.26-16.72-2.37-2.5-20.62,18.34c1.52,7,3.57,16.67,3.03,22.46l-23.89,22.85-100.68,95.12-61.16,58.94-49.21,48.33c-3.97-27.2-21.89-51.2-49.82-56.74l78.16-66.63ZM1406.39,601.31c-.26-1.06,3.92-.46,4.5-.11l.99,14.81-.41,142.9-3.36-19.5-.33-132.44-1.41-5.65ZM1419.25,594.55l-3.43-1.73,136.1-22.73,39.94-6.24.15,3.42-172.76,27.28ZM1578.25,582.42l-.52,33.65h-3.68s.12-42.35.12-42.35c2.46,1.76,4.14,5.45,4.09,8.7ZM1569.87,576.15l.13,44.97-38.88,34.12-30.53,2.94-7.86-20.16c-.33-.83-3.06-1.95-3.85-2.38-.39-.21-.66-.29-.85-.27-8.73-7.15-21.44-5.38-28.45,2.29l-1.47,1.21c-2.21,1.82-4.62,7.5-4.57,10.41l.28,15.04-38.92,4.02.06-67.77,154.91-24.42ZM1518.13,666.94l-11.43,9.72-3.82-8.52,15.26-1.2ZM1476.74,664.47c4.54-.67,11.08-.29,15.48.36l-13.09,1.93c-7.65,1.13-15.08,1.31-21.42.5l19.02-2.79ZM1456.99,663.45l2.12-21.11c.03-.28,2.41-.74,2.74-.79,2.85-.84,5.29-2.14,10.07-5.44l1.9,25.72-16.83,1.63ZM1476.61,634.68c3.19,1.34,7.3,2.25,11.12,1.35.32,2.7,6.63,13.17,7.67,23.03l-18.07,2.81-.72-27.19ZM1498.38,668.67l2.82,10.61c.66,2.49-3.53,5.56-6.04,7.7l-36.58,31.23-.43-45.56,40.23-3.99ZM1415.58,739.69l-.05-43.22-.39-17.77,38.48-4.7,1.16,48.42-17.95,14.67c-3.8,3.11-15.2,2.25-21.26,2.6ZM1430.4,742.89l-14.05,12.22-.69-11.38,14.74-.84ZM1427.88,670.42l11.12-.54,1.1,1.7-11.12.54-1.1-1.7ZM1783.85,467.15l2.12-1.09c9.27,7.83,25.2,25.29,14.41,40.13,1.01-15.32-4.64-29.67-16.53-39.04ZM1782.73,466.72c-10.58-8.1-21.62-7.38-35.21-2.68,10.48-10.56,26.26-6.51,36.89.69l-1.68,1.99ZM1766.9,463.89c17.74,2.21,32.87,20.3,29.93,38.09l4.77,20.67-57.82,10.16c-7.33-14.34-18.84-23.95-35.41-26.7l32.06-29.69c7.86-7.28,15.01-13.96,26.47-12.54ZM1713.6,511.16c10.9,3.12,21.04,12.16,26.96,22l-73.92,13.53c-1.84.34-6.64,2.88-6.35,4.7.34,2.18,1.95,5.87,3.13,7.76l-.62.4-20.89.47,45.59-40.45c7.51-6.66,14.79-11.65,26.1-8.41ZM1665.09,559.63l11.09-1.17-.78,10.35-11.59-7.91,1.29-1.27ZM1664.4,652l11.22-4.38.32,70.28-12.29,1.35.75-67.25ZM1661.73,645.23l13.56-3.31s-.2,1.15-.79,4.54l-12.77-1.23ZM1660.29,669.88l-.94,49.74-30.94,2.13,1.02-48.19,28.66-28.43c1.76,9.01,2.35,16.55,2.19,24.75ZM1625.75,721.99l-41.57,3.51c-1.68-1.5-1.18-8.29.7-10.11l38.49-37.05,2.37,43.65ZM1570.87,825.13c-10.46,6.29-24.95.71-37.4,6.11l29.65.79-31.96,29.54-2.14-57.77-2.59,63.45-16.49,15.3.95-80.27-17.4,1.44c3.36-3.51,7.38-4.12,12.38-3.83l29.98,1.75,22.32,1.62,30.39,1.83c-7.48,12.41-16.86,16.98-31.6,17.47l13.92,2.58ZM1505.95,830.7l-29.52,1.78c-1.04,28.01.76,55.75-2.11,84.87-4.1-29.83-2.06-58.75-1.71-88.55l30.06-2.08-32.73-.35v95.06s-26.48,25.87-26.48,25.87l1.11-97.08,41.41-40.86,21.08-3.04-1.11,24.38ZM1506.47,833.45l-.85,53.85-27.13,25.06-.75-76.36,28.73-2.55ZM1583.56,801.01l-32.48-2.09-51.07-1.75,10.68-10.87,68.08,4.58,23.19,1.52c-4.49,7.94-10.07,9.15-18.41,8.61ZM1600.45,788.88l-21.63-2-63.33-4.03c1.04-4.46,6.65-7.47,12.29-7.09l84.6,5.67c-2.33,5.23-7.35,7.87-11.92,7.45ZM1559.72,772.89l66.68-4.93-9.71,11.08-56.97-6.15ZM1529.07,769.51l10.73-12.23,102.94-6.03-9.74,12-103.93,6.26ZM1553.32,745.46l17.52-15.58,1.29,15.28-18.81.3ZM1576.22,750.11l-.33-27.14,1.86-1.09.33,27.14-1.86,1.09ZM1427.79,1009.59c-2.03,6.42-1,17.78,5.82,20.69,7.77,3.32,17.73,4.62,26.5,6.06,3.8,8.7,9.52,17.9,16.16,25.95l-21.62,25.33-88.24-10.68-1.47-53.83-1.33-50.55c5.21.99,11.26.19,14.05-2.87l2.72-56.88,30.67-28.11,1.89,61.51,1.61-65.92,25.82-25.44.09,89.32c0,6.74-2.58,10.55-6.85,15.49-11.79,13.68-12.34,33.71-5.82,49.93ZM1528.3,998.85l-34.27,34.11-27.48-2.07,33.96-34.23,27.8,2.18ZM1466.39,1002.72l-2.23-24.24,42.91-42.59.47,54.91c-18.55-1.17-16.51,20.81-41.15,11.92ZM1510.47,991.04l.43-61.28,16.83-14.72.46,74.82c-5.33,2.97-11.05,2.9-17.72,1.18ZM1502.73,1059.01c-8.8-1.38-13.22-1.69-21.83.62l-9.66-19.71,20.31.67,11.17,18.42ZM1281.7,991.69l-67.14,61.35c-3.35-24.45-16.48-42.17-36.85-53.5,3.95-3.47,5.05-9.08,1.69-12.58l-3.47-8.57,49.22-43.4,130.67-117.2c12.11-10.86,55.04,19.42,55.77,53.79l-54.78,52.86-5.86-25.29-19.95,16.03c-3.64,2.92-11.95,9.72-10.92,14.03,1.31,5.47,3.92,8.51,9.51,16.03l-47.89,46.46ZM1318.24,1069.11l-4.26,1.02.3-52,3.24,3.02.72,47.97ZM1286.99,1053.58l1.85-57.03,20.2-18.34.42,41.8-.17,49.54-47.3-4.69-50.06,2.83c2.62-3.71,8.32-8.22,12.41-8.58l62.66-5.51ZM1226.74,1053.69l52.69-47.97.1,20.04-1.52,25.29-51.28,2.64ZM1281.62,1038.37l.68-36.41,3.59.08-.46,25.63-1.97,22.37c-5.65-1.98-1.92-7.3-1.84-11.67ZM948.45,919.85l67.53-.1v17.63s-64.04.89-64.04.89l.07,3.9,63.99-1.14-.08,3.31-31.86,1.52c-11.68.56-21.78-.04-32.42,3.79l64.26-.3.22,68.7c-22.16.43-42.35-.24-64.24,2.75,23.19,2.93,43.63,1.65,67.62.63l.67-47.06c3.07-.34,7.84-.63,9.45-1.88,1.93-1.49,1.65-6.72,1.94-12.14,8.28,2,13.9,8.84,16.5,18.26,4.25,15.44,1.19,36.18-12.83,46.36l-59.13,2.95-26.78-.31.15-79.64-1.01-28.11ZM937.16,902.55l31.01.1,26.78,1.35c10.15.51,17.24,2.04,18.91,11.78l-65.52.15-11.18-13.38ZM945.91,923.8l-.11,103.76-13.04.67-2.73-84.16-2.19-30.46c-.14-1.96,1.47-6.94,3.36-7.44,5.45-1.44,14.71,9.02,14.7,17.63ZM1005.1,847.15l25.57-21.14-.24,27.86-32.17.52.63-2.96,26.4-1.76c-7.34-1.88-11.51-1.91-20.21-2.51ZM1056.18,858.22c6.32-.04,12.21-5.88,12.15-11.76l-.35-34.7,12.33-.18.43,43.91,19.41-.02,1.02-36.41c.13-4.73,8.12-7.73,12.56-7.62l83.32,2.01,1.38-14.72-52.75-1.56,38.12-1.7,14.45-.52c.59-6.04.29-16.75-1.2-22.33l-7.93-1.05c-1.71-.23-1.32-5.25-1.08-8.46l34.59-2.74c.12-.48,1.18,3.29.19,3.65l-4.86,1.75-7.07,2.54c-5.35,1.92,3.07,14.32-5.34,23-3.15,3.24-3.29,14.32-.37,17.68,4.3,4.96,12,2.71,20.54.05l-.08,31.45-13.43,10.89c-.3-13.86.02-22.94-3.52-33.68l-1.19,36.26c-.1,3.01-6.08,7.63-9.26,8.53l-.31-45.35-66.01,3.01c-2.78.13-7.97-3.3-11.04-5.37l1.92,30.94c-16.86,3.06-22.89,15.38-21.23,30.45l.52,4.74c.12,1.05-3.7-.72-4.79-.72l-127.33-.37c-.45,6.18-.17,11.34.99,16.6l1.45-14.03,79.57-.52,24.03,1.53,30.26,2.15c8.27,11.28,21.21,15.75,34.69,10.82,9.4-3.44,14.48-15.91,12.37-25.8-3.37-15.81-5.05-29.84-5.19-46.53l28.83-1.51.54,27.46,1.57,29.57-20.4,17.04-1.08-34.65-1.26-35.19c-5.55,14.84.22,28.59-.7,43.27l-1.85,29.75-40.85,34.92-93.42-.21c1.5-11.25,1.02-20.72-5.11-28.91,31.36-.1,59.37,2.2,89.35-1.37-24.56-4.14-47.57-1.75-71.78-1.91l-31.99-1.44-58.24-1.81,49.19-40.43,65.24-.38ZM1090.08,820.86l-6.29-1.95c-1.81-.56.24-7.57,2.09-7.55l14.22.19-2.75,7.26c-.56,1.48-5.78,2.51-7.27,2.05ZM1096.86,851.92l-12.2,1.01-.09-28.06,11.41-.38.88,27.42ZM1055.57,805.53c3.42-2.75,8.81-4.78,13.46-4.79l48.5-.1,77.63,3.02,1.26,5.27-61.89-1.8-78.97-1.61ZM1057.89,811.31l7.68,1.31c1.64.28-1.08,8.17-2.75,8.22l-24.72.89c3.92-7.09,11.31-11.86,19.79-10.42ZM1060.67,826.36l.43,26.91-26.97,1.09.42-27.84,26.12-.16ZM1187.79,759.03l-1.49-51.24c-.05-1.6-.3-5.53.99-5.56l8.3-.21.57,55.17-8.36,1.84ZM1194.98,635.48c-.51-.5-.56-1.11.12-1.15l6.83-.34.09,122.98-1.66,1.13-1.75-45.03-.69-74.73-2.94-2.86ZM1251.72,658.09l-.59-14.04c-.22-5.27-4.51-12.07,2.81-16.46l.05,136.48c0,4.32-2.02,10.35-3.68,13.6l44.04,4.52c-5.74,6.3-12.9,9.42-20.97,9.32l-31.32-.38c-5.54,19.59,3.47,38.5-7.84,40.94l.96-43.66-2.93-.31-1.98,48.4c-3.38-16.72-2.5-30.51-.52-49.25l-16.2-1.88.55-10.9,35.56-.6,2.34-13.75-.27-102.03ZM1301.97,659.36l-42.32-2.55c12.93-5.23,28.26-3.33,42.32,2.55ZM1273.13,649.67l28.33-24.8.16,30.33-28.49-5.53ZM1271.24,647.29l-9.72-22.53,40.27-5.66-30.55,28.18ZM1269.01,651.34l-10.88.83.6-26.71,10.28,25.88ZM1302.52,664.45c-2.55.77-7.09.54-10.9.33l-35.59-1.96c16.03-5.83,29.81-3.14,46.49,1.63ZM1258.44,767.61l.45-10.96,43.09-2.66.06,11.54-43.6,2.08ZM1299.5,777.93l-40.46-3.18-1.02-3.81,42.97-2.28c1.61.61.77,7.78-1.49,9.28ZM1292.78,750.12l1.17-22.65c-.08-1.46,7.93-1.15,7.96.83l.33,21.35-9.46.47ZM1287.05,723.05l-1.76-13.14,16.68.86.16,13.12-15.08-.84ZM1282.28,708.19l.31,15.67,7.55,3.04-.66,24.06-31.6,1.65,1.07-2.84,19.89-.84,1.25-2.4-20.95.08c-3.01-18.15-.59-36.54,8.34-52.76l34-2.77.81,15.96-20.02,1.16ZM1301.68,681.8l-33.04,4.58,2.01-17.98c-3.6,7.15-4.59,12.02-6.06,18.83l-6.13.72.04-22.05,43.5,2.55-.31,13.36ZM1302.1,687.58l-11.12.54-1.1-1.7,11.12-.54,1.1,1.7ZM1262.47,696.89l-3.73,6.66-.39-9.41c.16-.89,4.7,1.7,4.12,2.75ZM1244.39,807.77l-.42-13.73,36.4.03c-13.82,13.78-17.36,12.81-35.97,13.7ZM1260.23,810.66l-15.97,13.63v-13.79s15.97.16,15.97.16ZM1226.1,808.03l-18.5-.03.43-15.33,17.83-3.11.24,18.47ZM1222.47,769.74c2.97-3.72,3.93-5.39,6.18-10.74l18.28-2.5.78,13.55-25.23-.32ZM1205.84,758.16l.38-23.33,17.27,1.05-4.79,13.6,30.69,2.17-43.55,6.5ZM1206.07,732.24l-.43-6.31,18.73,4.98-18.3,1.33ZM1231.14,721.16l16.02-47.43.64,73.94-23.84-1.31,7.18-25.2ZM1245.7,658.72l-7.4,1.27,9.54-8.2c.05,3.05-.48,6.64-2.14,6.93ZM1242.54,662.67l4.33-.71c.71-.12.89,2.01.19,2.26l-3.56,1.32-3.58,1.34c-.65.24.11,2.29.79,2.31l3.63.11-15.8,48-22.68-2.01-1.12-10.79,9.3-1.05v-2.93s-10.34-.87-10.34-.87l1.81-13.89,19.46-15c5.24-4.04,10.84-6.98,17.57-8.09ZM1227.47,720.06l-2.15,6.39-22.22-5.31,24.37-1.08ZM1195.77,863.58c-2.22,4.29-9.19,9.93-13.22,12.69l-2.03-36.28.33-17.05,13.47-.75,1.45,41.39ZM1125.82,844.62l.08-20.59,18.71-.05,1.3,24.98-20.09-4.34ZM1142.75,890.02c-7.34,6.18-24.18,4.02-29.34-2.92-8.3-11.15-3.25-28.56,7.43-36.27,4.71-3.4,16.42-2.09,20.73,1.7,10,8.79,12.71,27.78,1.18,37.49ZM1106.12,879.01l-1.7,1.1-.54-11.12,1.7-1.1.54,11.12ZM1019.68,948.92l8.73.07.1,17.89c.01,1.89-5.5,4.3-8.13,4.91l-.7-22.87ZM1039.34,1028.95c16.73-15.6,21.58-41.18,9.45-62.18-2.65-4.59-13.17-8.91-16.66-12.56l-1.35-8.55c-.56-3.54-13.31-1.37-11.2-4.62l2.17-3.35,86.81.47c-4.33,4.8-12.08,11.9-12.11,17.68l-.17,26.28c-.06,9.76,3.07,18.03,14.73,19.64,1.9,7.91,5.65,15.99,10.73,22.91l-20.38,19.37-89.68-11.33,27.65-3.77ZM1159.87,930.46l19.57-15.48.25,47.11c-1.13,4.2-8.99,10.24-12.84,11.51-13.65-4.79-24.67-1.18-35.27,9.19-3.46-3.84-8.83-17.68-4.03-21.98l29.24-26.21,1.43,33.8,1.82-1.4-.17-36.54ZM1133.82,1006.24l33.17-27.47c3.67,3.37,6.56,7.98,9.85,14.05l-32.69,28.87-10.34-15.45ZM1137.47,1019.75c-2.41.46-10.06.81-11.73-1.41l-7.89-10.57c3.32-.64,10.17-1.18,12.55-.36l7.07,12.35ZM1146.16,977.83l15.77.17-29,23.28c-3.82,1.15-11.21.81-16.17-.49l29.41-22.96ZM1129.82,1027.65c9.65-8.83,44.27,16.05,50.09,42.12l-20.85.7-10.65-19.02-38.3-5.76,19.72-18.04ZM1148.99,1024.56l24.88-20.96c17.04,8.13,33.67,27.2,35.93,48.63,1.04,9.79-12.72,18.81-23.32,16.79-6.85-19.86-18.42-36.12-37.49-44.46ZM1207.94,890.26l-.19,49.22-25.32,21.69-.36-49.58,13.77-11.76.8,30.57c7.53-16.82-4.96-32.64,11.31-40.13ZM1211.71,886.46l13.17-11.43.96,48.72-13.6,10.91-.52-48.2ZM1227.75,873.89l4.63-4.34-1.74,24.74-.85,24.7-1.61,1.08-.44-46.18ZM1234.06,871.46c-.04-3.16,2.49-7.31,5.62-9.47l.55,44.66c.03,2.07-2.49,5.36-5.62,7.18l-.55-42.37ZM1242.74,863.73c-.12-2.98,2.72-7.34,4.6-7.27l.87,47.07-3.73,2.43-1.74-42.22ZM1327.13,832.43c-13.02,4.39-25.12,2.56-39.46,4.86l33.07,1.35-36.5,32.03-.65-32.76-2.82.06-1.12,37.29-27.64,24.26-.64-47.28,46.1-39.27.61,16.99-15.14,1.59-1.88,2.09,46.05-1.2ZM1367.99,796.84c-6.65,6.73-13.38,8.78-21.8,9.05l-41.14,1.36,27.62-23.06,48.05,1.57c-3.5,4.76-8.19,7.15-13.26,7.45l-43.48,2.2,44.01,1.42ZM1352.79,808.89c-7.08,6.37-13.16,14.15-21.2,17.64-9.24,3.85-22.01,2.64-31.36,3.68l.24-18.99,52.32-2.33ZM1354.45,943.24l-13.15,12.05-16.83-27.76,25.2-21.65,4.79,37.35ZM1320.53,1017.98l.19-52.94,12.78-13.35c3.53,4.8,5.5,9.32,5.51,14.24l.15,44.97.97,44.08,1.87,1.69-.09-61.65,1.9-1.83.66,55.84,1.84,24.62-25.94-2.3.17-53.35ZM1345.28,957.92c.47-3.62,5.84-8.75,10.56-10.14l3.32,126.45-5.85,1.51c-1.1.28-2.86-2.99-2.92-4.42l-1.87-47.32-3.24-66.08ZM1358.63,932.7l15.2-12.86.33,46.64-10.93,2.89-4.6-36.67ZM1391.23,777.55l-58.93-1.26-40.8,33.4-124.8,105.79-42.9,38.58c-8.41,7.56-4.01,23.82,2.67,31.97-3.15,4.22-9.45,9.49-14.04,10.26-1.96.33-7.63-1.7-8.8-3.23-1.4-1.83-.95-5.47-.87-9.64.2-9.87-3.92-24.03,3.58-33.3l216.93-184.46c4.45-3.78,8.57-6.74,14.51-6.23l67.63,5.79-14.18,12.33ZM1303.79,622.08l4.07-4.07,1.04,111.11,1.57,37.36c.05,1.25-4.09,6.05-4.25,5.53l-1.28-80.87-1.15-69.05ZM1344.86,726.26l-32.48-2.7-.28-11.93,25.04,1.37c2.05.11,6.56,1.89,7.65,3.59,1.31,2.04,1.01,8.29.08,9.67ZM1350.89,722.4l25.99.11.19,20.33-63.8,5.01-.92-20.67,33.24,2.19c2.14.14,4.45-4.07,5.3-6.97ZM1311.76,707.95l.94-18.7,6.11,18.47-7.05.23ZM1404.94,758.85l-76.36-5.54-14.82,12.98v-13.95s91.22-6.62,91.22-6.62l-.05,13.13ZM1381.34,743.05l-.23-22.97-29.33-.39-6.39-7.32-21.61-3.22-6.26-19.91,86.61-9.58.86,61.02-23.65,2.38ZM1316.01,680.66l-2.54-9.53c-.54-2.02,5.51-3.73,7.19-5.1,1.47-4.02-2.92-8.49-7.99-9.79l-.64-38.88,92.12-15.05.02,67.52-88.15,10.83ZM1313.78,612.25c-.74.13-2.74-.89-3.6-1.38l30.22-5.3,3.54,1.54-30.16,5.14ZM1307.69,598.45c-1.4.32-4.55-2.74-5.57-3.48l.37,10.54c.08,2.21-6.31,3.71-8.54,4.11l-35.25,6.23c-5.46-8.78-11.25-13.74-21.59-18.94l35.16-26.71c6.89-5.23,15.94-8.87,24.1-2.3,7.77,6.25,11.89,16.02,14.73,25.12l2.23-9.34,1.06,13.24-6.71,1.52ZM1254.7,615.76l-7.85,4.07.72,27.35-41.82,33.14-1.33-20.16.32-28.92-18.9-.05,41.61-30.2c8.57-6.22,23.66,6.55,27.25,14.77ZM1161.66,645.78l-32.45,25.83.97-22.61,31.47-3.22ZM1088.1,690.33l-.14-4.46,22.1,1.09-21.96,3.37ZM1102.15,692.47l-13.9,10.23-.46-9.28,14.35-.94ZM1095.16,677.36l16.3-14.31.6,14.78-16.9-.47ZM1105.07,663.39l-.3-10.82,13.49.08-13.19,10.74ZM1119.43,655.94l1.07,19.91,2.36-.87.99-25.1,2.34,1.28-.59,23.57c-.05,1.95-7.12,4.16-8.7,3.02-4.05-2.9-4.15-16.12,2.53-21.8ZM1083.96,694.14l-.57,12.56-41.76,32.19,3.19-24.8,24.46-18.48c2.84-1.5,10.87-1.42,14.67-1.48ZM1076.58,691.43l6.72-7.84c.45,2.19,1.01,5.99-.03,6.24l-6.7,1.6ZM1030.8,747.51l.5-23.7,7.78-.17c.8-.02.41,19.29-8.27,23.87ZM1026.34,746.87c.17,3.14-3.22,7.3-7.91,9.03v-18.46c0-4.36,2.61-8.58,6.83-10.22l1.07,19.64ZM1013.94,759.67l-15.87,13.52-34.51,3.08,50.29-39.99.09,23.39ZM960.34,780.54l27.6-2c-1.06,1.96-7.7,8.94-11.15,8.98l-25.09.31c1.46-2.4,5.98-7.1,8.64-7.29ZM1034.62,752.61l138.9-109.07c3.76-2.95,13.51-5.04,16.84-2.09,10.91,9.67,1.46,33.48,5.25,56.19l-11.66,2.24.07,76.1,11.39,1.08.3,13.43-39.75,2.1-88.63,4.18,10.89-10.97,103.66-7.78.08-76.06c0-6.63-1.18-11.95-3.7-18.53l8.02-9.59c-19.36,6.33-1.52,19.98-13.1,29.27l-86.68,69.54-128.13,104.86c.72-21.84-11.44-36.34-29.75-45.54l106.02-79.37ZM1112.83,769.05c.94-.2,3.49-.82,3.53.05l.43,8.8-29.21,2.55c6.7-9.28,14.64-12.42,25.25-11.4ZM1105.6,765.79l9.23-9.56,4.92,6.92-14.15,2.64ZM1119.78,752.97l1.96-.91.5,22.63-1.86,3.68-.6-25.39ZM1166.53,715.01l11.59-9.42-.05,53.46c-1.66.63-9.3,1.56-11.08,1.53l.1-25.09-.56-20.49ZM1177.74,764.26l.11,9.58-53.05,3.73.55-10.29,52.39-3.02ZM1145.03,762.54l-20.41,1.2,1.38-15.94,37.7-30.13.41,43.75-19.07,1.12ZM940.53,810.34l-29.09-.85c2.16-2.57,7.03-5.46,10.08-5.35l31.5,1.14c-3.84,3.46-8.76,5.17-12.48,5.06ZM940.51,814.36l-14.75,11.39-18.02.62-2.19,15.3-18.92,14.66,1.08-10.38,14.1-2.94.31-2.24-35.15,1.25,36.99-28.11,36.55.45ZM920.24,829.24l-9.79,7.87-.22-7.97c-.05-1.73,5.42-.78,10.01.1ZM878.83,862.82l-.42-16.19,4.6-.9c1.82-.35,2.98,10.6-4.18,17.09ZM875.49,846.12l.18,19.25-20.05,15.31,1.08-32.75,18.79-1.81ZM927.2,1022.14c-.02,1.52-1.57,6.95-3.11,6.81l-5.67-.54-.75-60.26-1.43-44.43c-.13-4.2,3.37-9.34,6.61-9.78l4.35,108.22ZM905.98,1024.24l-1.29-24.45-.84-63.86-14.75-22.21c-.46-.7-.41-3.51.21-3.97l2.21-1.64,16.33-12.19c2.17,11.89,5.97,24.26,5.99,36.11l.13,97.77-7-.07c-1.33-.01-.9-3.79-.99-5.49ZM902.21,1030.13l-16.19,1.27.03-87,13.74-9.92,2.19,23.53.23,72.13ZM882.63,1005.74l.48,25.45-94.11,4.39-18.32,11.65c-.5-4.49-.55-11.85.48-16.05l27.87-20.08,83.77-64.07-.36,25,.18,33.7ZM789.3,1042.47c56.81,8.58,109.97,19.57,167.66,24.95l-134.09-25.35,143.09-7.96,152.31,21.23-157.09,11.42-34.1,24.46-101.57,84.26-85.25,70.58c-6.76,5.59-9.55,6.77-17.87,3.19l-81.86-35.23-6.67-12.33-9.49,4.8-.59-18.42c15.6,1.61,27.63-2.84,34.36-16.63l23.93-3.41c3.87-.55,10.29-8.75,11.41-12.56,2.61-10.12.94-24.64-6.02-34.15l52.68-41.16,49.15-37.71ZM768.26,1253.26l-43.22,5.06-.93-2.05,40.13-4.87,4.03,1.86ZM767.99,1241.56c7.33,3.11,10.25,8.15,8.59,16.66l-8.59-16.66ZM545.3,1183.59l-7.48,21.37-18.81,1.94,3.3-51.47c5.53,1.35,12.66,3.36,17.49,7.19,4.19,3.32,7.24,16,5.5,20.98ZM546.57,1193.57l19.17,10.59-21.78,1.91,2.62-12.5ZM535.77,1212.15l40.78-2.35c4.45-.26,7.14-11.69,6.37-15.21l35,1.79c-.46,5.06,1.21,13.94,5.26,14.9,1.59.02,7.36-2.37,7.78-.89l2.1,7.4c1.33,4.7,2.33,12.69.7,17.95-1.34,4.32-7.91,8.77-13.18,10.63-.7-8.75-2.41-14.7-8.31-19.52-5.19-4.24-14.08-4.98-20.86-1.77-12.32,5.83-18.21,18.4-11.13,31.12l-16.9,1.57c-1.59-9.55-3.04-23.42,2.16-31.81,6.41-10.34,20.65-6.02,30.76-4.04-6.75-9.6-23.35-10.1-32.66-2.03-11.15,9.67-9.92,41.07-.94,42.72,5.82,1.07,15.2-1.76,20.75.12,10.68,3.61,24.39,6.98,32.1-3.2,3.62-4.77,6.68-7.2,12.94-9.24,10.54-3.44,13.62-15.7,13.22-26.21l68.91,31.24-141.93,16.88-36.57-18.27c-5.03-14.07-.48-28.17,3.64-41.77ZM617.71,1146.47c5.18-7.28,17.47-13.87,28.47-8.9,11.2,5.07,10.9,21.54,6.65,30.11-5.1,10.29-16.14,17.55-28.01,13.77-10.22-3.25-21.02-6.48-29.05-13.37-5.75-4.94-5.56-15.9-3.32-23.95,3.9-14.04,29.05-24.72,43.22-14.38-20.45,5.84-35.18,27.36-23.44,45.92-.22-11.59-.63-20.6,5.49-29.2ZM652.64,1133.56l-9.78-6.12,37.33-2.52c5.91,3.32,7.76,13.73,7.96,20.83.26,9.57-3.22,16.21-13.08,17.52l-14.77,1.96c3.62-10.53,1.77-24.7-7.66-31.68ZM611.78,1254.36c-3.51,5.62-18.59,6.4-23.72,2.16-6.41-5.3-6.42-15.08-3.08-20.31,4.46-6.97,12.26-9.48,21.46-6.13,8.01,2.92,11.7,14.07,5.33,24.28ZM679.85,1118.99c-17.07-1.31-34.95,4.99-52.32,1.55l-39.62-7.85,59.93-2.35,43.31-1.92-11.3,10.58ZM612.16,1122.53c-10.39,2.36-19.06,8.02-23.12,16.3-4.86,9.91-5.71,22.5,1.1,31.49,5.29,6.97,17.28,11.26,26.33,13.97l1.5,5.65-34.66-.16c-2.01-7.23-2.78-14.9-2.52-22.69-8.51-4.64-16.77-10.6-17.94-19.17-1.36-9.97.45-21.95,11.74-25.5,11.19-3.52,25.21-1.87,37.58.13ZM501.16,1169.33l.04-27.94,15.62,6.8-4.52,67.93-.46,6.69c-.11,1.64-2.71,2.31-8.11,3.19l.77-48.27c.06-3.7-.55-5.52-3.34-8.39ZM515.87,1230.09c1.81-2.65,2.28-10.04,2.67-14.46.27-3.12,8.56-5.77,10.61-4.02-2.67,14.21-4.12,26.49-3.51,40.75l-27.82-12.2-1.02-10.03c6.89,2.28,15.22,3.22,19.08-.04ZM578.96,1277.08l89.04-9.37,56.97-6.29,44.03-2.38,10.16,2.64c2.06.54,5.12-2.98,7.1-4.95l76.53-8.56-26.58,26.26-16.74,3.28c-4.11.81-7.74,4.3-9,9.24l-165.25,24.89-66.27-34.77ZM781.94,1251.51v-2.67s90.7-10.14,90.7-10.14c.33.04,1.1,1.46.47,1.59l-5.18,1.09-85.98,10.13ZM778.66,1245.57c-1.49-3.87-5.17-7.93-8.97-7.39-3.74.53-4.94,3.42-4.95,9.09l-18.76.54,216.02-177.77,58.07-1.79,121.38-8.08c2.84,3.5,5.46,7.68,6.98,10.99l-82.23,5.33-42.35,33.58-141.94,122.58-103.26,12.94ZM1229.93,1075.39l30.52-2.78,258.69,33.45-174.65,17.79-93.42-15.29-150.29-24.98,129.15-8.19ZM1464.7,1088.93l21.41-24.57,25.36-.19c12.18,6.1,23.93,17.12,31.48,34.88l-78.25-10.13ZM1513.44,1059.93l26.83-27.25c22.17,11.47,40.81,32.08,42.21,57.76l-19.61,20.1-12.06-11.23c-7.8-17.37-18.45-31.77-37.37-39.38ZM1508.6,1056.57l-12.21-17.8,23.48-22.95,14.76-14.74,9.43,19.17-35.46,36.32ZM1532.25,982.58l-.38-71.94,39.74-39.15.13,71.77-39.48,39.31ZM1738.08,733.35l-62.63-6.32c-6.81-.69-14.14,7.12-18.87,12.35l-73.53,4.96.14-13.97,211.33-16.08-17.9,18.26-38.53.8ZM1679.96,558.91l3.84-1.52.28,159.71-4.04,1.08-.08-159.27ZM1750.9,575.69c1.08,1.74,7.06-.73,8.59-2.27l29.43-29.44c1.88,3.57,6.97,11.08,7.56,15.43l3.87,28.43-47.54-8.08-27.15,4.2,18.07-19.83,7.15,11.57ZM1749.19,546.23l37.26-5.98-31.37,31.88c-8.56-6.34-9.75-16.34-5.89-25.91ZM1770.74,676.15l-2-15.69,21.23-3.23.35,17.66-19.58,1.26ZM1775.87,687.16c-5.08-.15-5.8-6.44-.92-7.62l.92,7.62ZM1785.43,654.8c-4.52-.24-12.7,2.64-19.14,4.39-3.09,10.98-1.92,24.49,8.92,31.69l-1.41,19.67-30.88-2.44-52.45.39.12-32.35,7.59-31.03,43.78-5.13c-4.98,21.35-10.89,40.43-11.08,62.56l13.96-62.92,58.35-7.42,7.46,23.92-25.21-1.31ZM1690.02,713.03c1.19-.43,4.74-1.55,6.09-1.6l44.93-1.58.09,3.2-50.53,4.48c-.24-.41-1.38-4.21-.59-4.5ZM1693.05,644.94c-.03,3.68-.61,6.59-2.06,13-1.58-3.78-2.08-8.95,2.06-13ZM1744.67,629.39l-44.27,5.76,8.22-30.67,11.69-2.14,29.54-3.44-5.19,30.49ZM1753.1,598.74l44.64,7.32,3.97,16.75-53.98,6.21,5.37-30.28ZM1759.97,631.34l4.05,1.93-60.41,7.13-3.24-1.48,59.6-7.57ZM1769.07,632.48l-2.75-1.55,43.86-5.35,4.01,1.57-45.12,5.33ZM1807.09,622.03c-3.18-4.21-4.74-11.76-3.84-17.97l-57.3-8.5c-12.1-1.79-24.65,4.07-35.79,4.4l.74-3.02,33.05-4.4c20.95-2.79,39.25,8.5,61.56,5.69-19.68-6.18-39.38-8.68-59.49-9.6-9.68-.44-19.38,4.54-28.66,2.12,11.44-4.14,25.19-8.98,36.48-7.05l50.27,8.56-1.42-18.51c-.99-12.98-4.08-23.18-13.05-34.01l16.46-3.07,23.23,81.95-22.24,3.39ZM1727.45,575.49l-33.76,31.08-2.89-17.18-.92-33.61,56.91-8.77c-2.8,13.05-10.98,20.39-19.34,28.47ZM1704.64,604.67l-6.97,28.49c-.25,1.04-4.84,3.99-5.25,3.32l-2.46-4.02c-2-13.35,3.3-22.79,14.69-27.79ZM1776.78,709.93l3.07-31.1,46.5,3.6-24.48,25.13-25.09,2.37ZM1794.81,675.12l-.85-17.21,33.75,4.12,3.15,4.6c.9,1.32,4.17,1.54,8.92,2.35l-8.63,9.19-36.35-3.05ZM1829.4,658.37l-14.63-2.75-6.83-23.55,24.79-3.11,11.4,34.82c-6.1.97-9.68-.26-14.74-5.42ZM1839.68,628.3l44.6-4.44-35.64,36.41-8.97-31.97ZM1819.25,626.34l-3.09-1.47,70.52-9.06,3.58,1.74-71.01,8.79ZM1834.76,618.06l-22.7-81.87,87.92-13.51.34,37.31.28,49.94-65.83,8.13ZM1672.34,554.31l-5.19-.29c-.72-.04-1.05-2.38-.32-2.51l5.36-.95,138.32-23.58,128.53-20.42,1.51,4.33-29.1,4.94c-1.24,2.03-3.38,8.92-3.39,11.97l-.11,71.22-1.68,1.06-.68-48.83-.77-35.07-232.49,38.12ZM1471.52,454.29c-14.85-12.47-13.01-36.6,1.08-49.8l37.15,2.34-.23,56.46c-10.91.69-27.37-.08-38-9.01ZM2075.04,215.43l-3.24,31.58c-10.63-6.66-17.29-8.86-26.49-5.55l-.21-39.57,29.93,13.55ZM2060.71,248.66l20.78,9.61c-6.95,3.17-13.42,2.4-19.83-.52l-17.7-8.06c4.9-3.26,11.5-3.45,16.76-1.02ZM1836.5,256.45l192.42-54.74,11.21,5.99-3.68,7.11-381.34,103.1-196.79,54.57-13.1-3.73,391.29-112.31ZM1442.15,373.75l27.69,8.06-.78,16.97-19.52,6.15c-2.95.93-7.79-5.7-7.74-8.75l.35-22.42ZM1439.86,406.49l-261.58,71.6-1.45-11.75c-.35-2.84-6.3-4.4-9.54-5.64l21.81-5.88,248.48-69.65c-2.05,8.21-1.92,14.58,2.27,21.33ZM1427.72,373.6l6.91.31c1.61.07,2.34,2.97,2.56,5.73l-244.44,69.49c-15.84,4.5-29.12,11.57-43.75,6.96l278.72-82.49ZM1146.46,460.77l27.42,5.66.5,13.13-28.63,7.37.7-26.17ZM1127.9,463.84c4.18-2.81,9.02-6.39,15.36-.6l-15.36.6ZM1144.23,491.86l317.64-83.99c-6.28,11.11-8.53,22.15-6.38,34.35,2.53,9.24,7.88,14.85,16.9,21.81l-320.14,75.06c-16.79-10.36-19.69-31.9-8.02-47.23ZM717.48,633.63c16.02-13.27,30.65-26.26,45.13-41.01,26.31-26.82,56.21-62.24,95.33-61.81,16.28.18,31.5,3.57,47.66,5.54,9.49,18.41,9.85,37.86-2.17,57.16,16.14-7.25,17.04-34.31,8.46-56.57l155.21,18.15,109.23,14.12c13.4,15.65,15.39,38.7-.53,52.84-6,5.33-19.45,3.79-24.95.51-3.63-14.61-15.59-25.15-31.18-25.13l-21.32,16.74c-61.61-7.59-121.03-15.18-182.32-19.46-12.35-.86-24.2.36-36.17-2.06-17.62-3.57-33.39.52-46.96,12.44-20.96,18.42-39.4,38.61-58.23,59.46-20.69,22.91-45.53,39.59-76.7,43.56,9.39-22.24,10.16-45.8,1.26-68.55l18.26-5.94ZM696.36,696.34c3-21.78,1.25-40.02-6.22-60.91,13,17.28,12.33,41.13,6.22,60.91ZM673.96,632.28c20.71,1.83,25.48,45.72,14.65,67.42,4.87-25.44,6.04-52.8-14.65-67.42ZM668.16,718.35c.87.64-4.14,2-4.44.92l-1.46-5.22,5.9,4.31ZM657.48,620.61l-.02,97.67-23-.62-.47-98.02,23.49.97ZM632.08,721.99l35.27,2.07.1,8.35-35.49-.04.12-10.37ZM655.01,735.85l1.06,1.49-9.94,1.11c-10.81,1.32-21.79,4.44-32.52-2.08l41.4-.52ZM598.26,727.59l29.29-5.76-.02,9.72-29.45,6.13.18-10.1ZM579.07,631.06l-7.13-4.26c13.52-7.34,20.79,27.58,17.69,40.56l-8.9,37.22-7.89,5.47c14.81-19.74,18.99-59.5,6.24-78.99ZM545.6,705.73l-4.43,8.45c-1.68-2.38-.42-6.63,4.43-8.45ZM532.51,703.62l-11.72,3.77-1.14,38.5c-.05,1.6,2.16,5.96,3.59,5.7,1.43-.25,3.79-2.11,4.49-3.45l20.68-39.76c7.47-14.35,8.43,9.27,25.26,7.29l19.03-2.24,1.68,28.41c24.09,3.92,69.63,5.27,75.76-5.16,1.61-2.74,2.53-9.43,3.24-13.69,7.57,1.5,15.73-3.88,21.21-7.55,46.73-4.16,75.64-32.03,104.87-65.93,12.27-14.24,24.85-26.82,38.88-39.17,13.08-11.51,29.64-14.35,46.14-9.4l-12.55,3.04.16,54.01c0,2.58,2.87,6.48,4.85,6.5,8.98.06,2.34-18.08,6.38-24.94l23.17-39.31,184.06,19.53c-4.2,7.05-12.73,7.14-18.94,10.15-12.62,6.11-22.72,15.12-33.83,24.35l-26.78,5.49-2.83,5.61c-.66,1.3,4.1,2.71,7.73,3.77l-55.89,43.84c8.44-13.25,18.08-21.98,29.06-32.86l-.51-17.64c-2.93,3.89-4.43,7.37-5.76,10.52l-55.64,61.72-.23-41.58,18.46,2.38c-5-9.08-20.08-4.03-19.13-10.59.84-5.8,10.28-3.82,8.49-7.8l-2.22-4.94c-10.78,1.58-21.06,3.57-31.63,8.71,7.3,5.01,13.12,2.84,21.32,2,1.36,3.66-.88,9.63-4.12,13.13l-38.51,41.6-1.21,1.81-28.94,30.41-29.42-.4-30.16-1.9c-15.89-1-30.99-2.34-46.04-.74l26.15,2.64,30.02,1.96c16.11,1.05,31.2.27,46.3,3.77l-35.16-.18-43.83-2.13c-11.65-.57-22.58-1.18-33.51.12l32.26,2.41,35.07,1.52,38.41,2.23-12.09,12.62-55.47-1.85-27.86-1.22-54.3-1.99-221.67-6.83-126.12-4.09-87.87-2.43-17.97-1.24-42.46-.79.5-9.33,167.17,6.12c5.44-6.01,5.05-16.22-.27-21.59l-131.01-4.52-36.55-1.36-.13-55.14,339.1,18.11ZM536.72,710.22l-12.52,20.77-.88-21.08,13.4.31ZM894.35,603.98l-11.39,18.04-.29-15.24,11.68-2.8ZM876.46,634.3l.75-30.13c5.61,10.94,3.26,20.95-.75,30.13ZM878.11,661.02l-1.79,1.08-.43-17.12,1.79-1.08.44,17.12ZM193.63,744.9l42.44,1.4,65.97,2.17,57.34,1.89c2.54,2.31,3.14,9.25,2.18,13.61l-167.52-6.71-.42-12.37ZM527.29,816.16l-2.43,10.23-1.11-12.39,15.3-.02,1.04,1.59-12.8.59ZM779.86,799.68l-1.85,16.6-68.79-1.33-59.23-1.28-80.14-2.42-181.76-5.53-100.09-2.28-94.57-2.86-.04-25.39,38.74.91,23.7,1.3,53.96,1.51,299.94,9.44,62.32,2.09,74.05,2.21,23.78,1.43,27.77.48-17.78,5.13ZM785.76,804.89l-1.65,4.98-.18,48.93-1.87,1.33-.09-55.59c.88-.74,3.3-3.02,3.39-2.38l.4,2.74ZM702.51,968.28l16.4-15.63,4.48,11.85-.65-20.69c-.15-4.88,6.19-13.29,10.65-16.68l177.36-134.92,59.78-.35c-5.43,7.18-12.15,8.67-20.46,8.51l-33.94-.63-99.33,75-77.67,62.7c-4.81,3.89-2.13,16.24.15,20.43l2.47-17.69,43.58-35.25,1.06,29.41-23.05,17.52-5.18-6.18-35.26,26.71,5.18,10.27-18.28,14.67-35.51-5.26,28.21-23.8ZM617.92,991.86l48.92,5.51-52.92,4.36-25.52.73-22.59,2.85,51.19-.28,91.46-3.66,43.25,61.07-51.69,39.71-244.04,14.4-22.15-7.91c-3.32-1.19-2.34-12.69.39-13.72l24.57-4.4,1.77-20.94c.51-5.99-4.09-13.23-10.74-12.81l-35.14,2.2c-5.53.35-13.12-.98-18.84-1.84l36.7-24.61,53.78-38.24c25.31,3.87,48.27,7.99,74.22,9.43l-43.26-9.17,44.82-2.2,55.86-.48ZM571.57,977.56c2.05.07,4.42,6.56,4.49,9.82l-41.36.91c.11-3.4.91-8.49,2.41-9.85l34.45-.89ZM519.63,967.09c10.34-1.09,26.91-3.53,37.87,2.53-5.54,3.38-12.24,2.94-18.15,4.18-8.11,1.7-16.09,2.39-24.25,1.29.18-2.61,2.73-7.82,4.53-8.01ZM493.51,976.52l36.16,4.79-74.78,3.12c-11.28.47-24.34-4.44-34.98-5.94l73.59-1.97ZM334.73,1018.66l61.37-38.98,54.96,8.33-54.35,36.69-63.98,44.88c-5.34,1.03-15.17-3.17-18.87-6.66l11.04-35.79c3.37-2.16,7.13-5.28,9.83-8.47ZM294.06,1033.19c-.34-1.39,12.7-12.99,18.51-10.04l-16.08,19.87-2.43-9.84ZM295.66,1056.54l-16.27-5.46c6.78-3.84,15.33-3.82,16.27,5.46ZM301.17,1043.22l10.85-11.7c-.83,9.69-4.3,15.12-11.06,24.21-.9-.7-3.14-3.34-3.24-4.9-.12-1.95,1.94-5.99,3.44-7.61ZM314.01,1047.49l-3.69,13.94-4.87.05,8.56-13.98ZM319.06,1026.94c-.03,3.68-.61,6.59-2.06,13-1.58-3.78-2.08-8.95,2.06-13ZM326.34,1003.22c4.34,4.23,4.87,13.68,1.57,18.94l-7.77-6.38-1.64,9.57-9.84-7.41c-4.07-3.06-14.47,15.12-26.64,8.12-2.92-1.68-2.83-10.61-1.21-13.72,1.54-2.95,6.51-6.19,10.88-6.51l34.65-2.61ZM286.42,1002.45c-10.49,3.12-12.91,12.46-10.96,24.39-5.2-3.2-6.29-10.98-4.05-16.31,2.23-5.31,7.96-10.07,15.01-8.09ZM261.95,1007.98c1.31-3.77,7.49-7.18,11.79-7.49-9.56,8.57-9.97,21.37-2.37,30.31l16.89.88c2.04,1.49,2.78,8.35,2.39,12.42l-23.69,1.25c1.49-20.33-8.23-28.1-5.01-37.38ZM327.93,1076.66c-3.16,3.99-4.2,6.66-5.27,15.95l-79.55-35.63-.54-13.36,85.36,33.04ZM242.94,1094.49l-.27-32.44,80.46,36.4-.55,35.81-79.64-39.77ZM269.68,1114.79c-5.54,3.29-10.72,2.16-9.91-4.54l9.91,4.54ZM248.12,1167.01c-1.01,9.43.92,16.41,3.2,25.62l-10.3-.48,1.14-73.92,10.96,1.97-5,46.81ZM253.15,1112.76l-5.99-2.92c-.51-.25-.09,2.93-.29,3.47l-.77,2.02c-.31.8-3.46-1.28-3.44-2.08l.32-12.05,12.39,6.9c.93.52-1.24,5.12-2.21,4.65ZM266.54,1193.12l-10.48.26c-2.6-14.61-2.44-28.57-.64-43.31l3.68-30.12c3.24-1.13,13.86-3.01,18-.99,16.28,7.93,31.7,15.66,48.12,26.71l-34.4,3-.05,17.42-22.15,2.86-2.08,24.18ZM321.47,1182.52l-26.45-14.09.11-14.53,26.65,14.66-.31,13.97ZM321.59,1200.38l-43.78-27.74c2.54-1.11,12.05-3.44,15.93-1.31l27.75,15.27.11,13.78ZM301.15,1152.44l21.39-1.69-.06,13.54-21.33-11.85ZM272.21,1221.11l-.15-47.4,48.51,31.59-.88,52.76-47.48-36.96ZM324.53,1286.38l.57-51.58,1.16-54.83,1.1-94.1c.9-2.47,3.51-6.16,5.48-6.76s5.44,4.69,5.41,6.78l-1.47,90.18c-.64,39.63-2.28,77.13,2.07,117.88l-21.02.39,6.7-7.98ZM245.33,1431.82l-1.7-63.93-.89-44.69c1.23-.88,5.7,1.67,5.71,3.03l.21,41.54,1.78,53.35.85,7.71c.15,1.39-2.61,2.04-5.95,2.99ZM369.89,1304.39c-1.25,17.12-36.23,18.81-59.64,20.53-10.97.8-21.53,1.3-32.43-.23-11.71-1.64-23.26-1.04-33.21-7.98l30.49,3.8c13.78,1.72,26.41,1.79,39.08.24,16.93-2.07,34.36-1.26,49.91-13.17-14.76-5.97-29.29-6.58-44.1-5.72l-24.17,1.41c-29.38,1.71-41.47,14.08-44.46,7.06,14.92-5.51,27.81-8.32,42.73-9.05l29.85-1.46c16.02-.78,30.13.41,45.95,4.58ZM262.06,1313.54c30.78-7.69,60.11-10.08,92.68-5.55-18.17,7.19-37.19,7.9-56.71,8.34-12.12-.2-23.27-.11-35.97-2.79ZM420.17,1286.52l-58.88,6.32-.85-26.58.84-37.38,81.69-5.98.27,41.14-22.88,2.35-.19,20.12ZM465.22,1369.15l-43.12-31.14,2.4-25.95.32-38.62,42.79,26.65-2.39,69.06ZM485.03,1405.32l18.47,20.14-53.3,7.61,20.45-26.97,3.84-95.66,4.63-122.79,2.33-43.83,14.85-2.39-8,132.56-1.51,41.96-1.97,50.05.2,39.33ZM489.92,1385.75l2.53-70.65,98.41,60.59,2.42,87.75-103.35-77.69ZM599.64,1466.31c.77-30.08.55-58.72-2.35-89.19l109.72-16.16,2.45,84.95-109.82,20.4ZM681.47,1358.39l.23-11.03,13.52,7.83-13.75,3.21ZM714.4,1452.74l2.65-13.94,12.19,8.78-14.83,5.15ZM941.99,1410.05l-203.84,36.35c-7.06-5.79-12.5-9.46-22.41-14.61l-1.7-65.64c-.23-9.04-3.97-12.07-11.03-15.26l-21.94-9.9-2.04-10.61-26.03-14.65,163.42-21.34,131.18,54.04,108.64,41.76-114.23,19.84ZM820.21,1290.18l13.73,4.27-1.27,2.2-12.46-6.47ZM834.04,1297.48l1.13-1.85,8.89,3.96c-2.58-.16-7.4-1.21-10.02-2.12ZM847.57,1302.85c4.45-.98,6.68-.24,9.98,3.33l-9.98-3.33ZM861.57,1308.85c4.45-.98,6.68-.24,9.98,3.33l-9.98-3.33ZM876.21,1314.18l13.73,4.27-1.27,2.2-12.46-6.47ZM890.02,1321.48l1.15-1.85,8.88,3.97c-2.58-.2-7.35-1.22-10.03-2.12ZM931.91,1336.4c2.63.23,7.44,1.25,10.05,2.07l-1.22,2.04-8.83-4.11ZM942.03,1341.25l1.11-1.59,8.8,3.14-1.08,1.52-8.83-3.06ZM996.86,1362.32l-8.82-3.06,1.08-1.52,8.85,3.04-1.11,1.54ZM999.23,1361.37l24.89,9.32-1.43,1.97-24.76-9.34,1.3-1.95ZM986.69,1358.66l-24.76-9.34,1.31-1.95,24.84,9.29-1.4,1.99ZM960.86,1348.32l-8.81-3.06,1.11-1.61,8.8,3.15-1.1,1.52ZM1060.57,1387.06l-36.68-13.67,1.48-1.93,36.57,13.47-1.37,2.14ZM1062.01,1387.5l1.15-1.88,8.89,3.98c-2.57-.24-7.37-1.26-10.04-2.11ZM956.2,1337.9l-126.21-51.14,116.02-96.79,119.01-105.06,275.26,41.65-19.76,17.97-48.58,47.43-50.96,49.17-102.1,102.57-39.5,42.45-123.18-48.25ZM1080.29,1393.03c1.63-3.65,7.11-11.12,10.6-12.4l26.83-5.3c2.32-.46,5.92,3.82,8.51,8.48l-45.95,9.22ZM1135.25,1387.07l-14.44-21.39c12.81,1.05,18.61,13,22.78,21.98-1.03,2.06-6.98,1.42-8.34-.6ZM1319.36,1347.33l-165.16,31.39c-8.22,1.56-13.29,1.06-15.98-7.48l182.83-31.69,77.13-13.56,3.87,5.12-82.68,16.21ZM1419.92,1335.69c-4.52.64-7.95-.65-9.59-3.13l-9.74-14.71c2.31-.17,7.67,1.79,9.22,3.92l10.1,13.91ZM1627.33,1262.37c2.6,5.07,5.81,7.74,11.22,12.88l2.93-10.35,17.41,7.02-154.67,28.39-92.81,17.36c-3.46-4.91-7.44-7.01-12.49-6.48-4.13.44-6.87,4.06-8.02,9.94l-88.45,15.55-158.05,29.17c-6.36,1.17-11.2,2.31-15.27-3.07-1.25-1.66-6.84-2.41-8.71-1.62-2.41,1.01-3.35,4.19-3.58,9.19-3.39,1.03-9.88,1.69-15.54,1.29l89.81-88.71,148.16-147.38c3.45-8.26,8.93-7.53,16.7-8.18l193.72-16.05,77.64,151.05ZM1586.25,1151.53c-.81.82-4.94-.5-5.43-1.53l-13.9-28.99,21.34-21.64.47,47.36c.01,1.12-1.92,4.25-2.47,4.8ZM1616.86,1068.99l44.96-49.41.24,53.82-45.2-4.41ZM1587.51,1085.96c-4.22-26.58-18.09-45.37-42.82-56.23,5.64-4.98,6.52-11.33,2.9-17.1l-12.13-19.27,50.02-51.8,51.34-52.82,80.39-81.17c30.82-9.6,65.6,23.38,68.56,55.65l-56.21,62.16-4.57-15.36-8.64,2.72c-11.41,7.77-21.11,19.07-29.5,30.85l12.88,19.04-112.22,123.32ZM1831.12,1010.33c1.16-5.36,2.75-12.05,2.75-16.51l.23-169.55c1.93-4.68,5.64-9.21,11.31-13.2l.83,88.25,1.83,2.31,59.16,1.01c2.24.04,7.38,3.93,8.74,2.33,2.02-2.39,3.89-6.27,4.41-8.63-2.75,1.23-6.71,3.46-9.32,3.47l-59.91.3c-.65-.1-3.58-1.17-3.23-1.06l.28-92.94,2.92-.31.48,34.25c.25,17.97-3.55,35.43,1.28,53.35l21.35,2.03c13.61,1.29,27.05.95,41.33-.75-11.54-5.53-22.42-.31-33.79-1.34l-23.03-2.07c-10.66-4.67-5.29-19.08-5.16-27.1l1.06-65.04,19.88-22.61,71.11,5.63-.72,101.95-.89,133.17-112.51-6.71-.81,4.41,113.05,7.71.24,12.95-41.4-4.27-44.34-6.13c-15.32-2.12-29.3.35-44.16.91-26.19.99-51.06-3.17-78.04-4.45l-.38-11.32,85.85,4.67.06-173.14c0-4.74,4.36-9.93,9.26-12.92l.95,15.13-.15,137.65c-.01,9.78-3.69,19.57-.52,28.57ZM1902.78,1060.85c8.41-2.5,8.18-15.59,6.77-22.96l34.48,2.25-.08,32.77-28.01-2.25-27.07-2.2-20.71-1.92.33-5.9c11.16.58,24.25,3.21,34.29.22ZM1896.62,1037.45c.67-.65,3.44-2.09,4.26-2.34,4.08-1.24,9.6,13.23.1,23.76-10.29-4.06-9.04-16.88-4.37-21.42ZM1810.7,1048.04l-20.43,1.82-54.79.45-.02-23.85,78.57,5.13-3.33,16.45ZM1813.93,1057.67c-23.9,5.3-78.69,5.46-78.27,1.28l.47-4.69,74.58-1.73c1.43-1.03,3.06,1.12,3.22,5.15ZM1735.28,1005.89l2.64-43.64-4.66-26.42,52-56.51,32.97-36.68.07,167.35-83.02-4.1ZM1694.76,945.45l27.28-29.6,10.92,51.84-1.4,68.32.07,53.97,1.55,63.83-15.66,2.55-1.07-40.46.44-70.98,2.15-62.63-24.27-36.83ZM1714.03,983.87l-.07,141.25-1.62.03-1.46-40.18-.86-104.95,4,3.85ZM1700.77,1226.94l-46.37-8.2c2.93-26.4,12.54-51.86,12.77-78.68l1.09-128.19,1.8,1.16-.23,200.36,24.75,5.68,6.51.99c1.25.19.5,4.03-.32,6.88ZM1701.93,1216.19l-29.74-5.19.96-26.88.03-177.89,32.92-36.97,1.67,26.86.97,123.74c.17,21.82,1.4,41.75-1.85,63.37l-4.96,32.95ZM1724.97,1224.93l-11.7-1.88,12.46-2.66-.75,4.54ZM1741.89,1214.01c-4.3,2.83-6.8,5.38-10.81,10.53l-.96-22.59c-.57-13.54,4.24-26.9-2.42-41.34l-1.47,57.28c-4.47.44-11.04.75-12.86,2.98-2.12,2.6-2.94,4.24-7.21,6.41l8.61-64.85,18.68-5.06,8.44,56.64ZM1826.23,1102.89l8.83,18.44h-13.09s4.26-18.44,4.26-18.44ZM1824.97,1080.13l-1.09-1.75,13.13-.5,1.41,1.71-13.45.54ZM1837.89,1053.99l.04,20.27-7.76-.34-1.77-19.54,9.49-.39ZM1825.1,1060.08c2.95,11.93-5.05,14.04-4.34,21.77-3.54-7.97-15.98-14.18-24-4.83,11.08-.93,19.38.24,23.76,12.38,1.8,5-1.21,12.4-5.56,14.93-4.91,2.86-10.74,1.41-16.98.15,6.52,8.17,13.56,7.02,23.59.44l-2.76,13.64-83.05-9.37-.42-44.65c30.06,2.66,60.31,2.26,89.76-4.46ZM1871.09,1039.87l-56.16-5c5.76-8.69,15.45-9.36,24.03-8.1l53.37,7.83c-2.76,9.97-2.51,14.67-.55,23.93l-23.77-1.41,3.09-17.24ZM1856.97,1054.3l6.49-1.96,1.27,16.94,79.21,6.55.08,25.71-47.01-4.57-1.71,3.17,48.65,5.72.06,26.01-75.5-8.9-8.66-14.48,17.97.87c4.22.2,10.17.62,12.49-1.91,6.59-7.17,5.12-18.53-.56-22.75-2.36-1.75-9.52-1.03-11.94.12l-2.61.37-7.3-11.02-8.83,8.89,14.85,3.31,1.92.43-.28,19.21-18.93-1.93-1.16-42.14c-.05-1.96-.08-7.17,1.49-7.65ZM1882.6,1087.59c2.57-1.38,7.35,4.42,7.95,7.41.64,3.19-3.24,10.91-6.86,10.24-8.31-1.53-6.99-14.47-1.09-17.65ZM1856.45,1112.07l6.4,6.83c1.55,1.65-1.15,6.4-5.28,9.46l-1.12-16.29ZM2001.82,1155.09l.12,60.47-34,7.9.03-62.41,33.85-5.97ZM1978.1,1147.32l7.83-3.3,4.24-1.42c1.31-.44,1.88,11.03.39,11.38l-10.47,2.47c-2.08.51-3.9-8.32-1.99-9.12ZM1973.14,1145.02l.45,12.92-116.24-13.68-.54-12.27,116.32,13.03ZM1957.3,997l-.07,64.89-.08,70.98-9.11-1.32.63-211.45,1.32-136.77,6.39.32.14,98.35-.67,94.03,1.46,20.98ZM1959.75,889.69l.19-104.23c.65-.83,5.55-3.26,5.63-2.27l.61,6.97-.5,217.72-.5,126.32-4.35-.95-.17-71.32-.37-63.91-.55-108.33ZM2395.23,1145.31l-322.92-31.37-102.66-10.24-.12-25.44,26.36,2.35,22.11,1.87,26,2.09,24.01,1.93,25.76,2.19,118.96,11.05,23.19,1.8,24.05,1.93,136.78,12.08-1.51,29.77ZM2149.09,1018.72l16.15.12-1.25,13.59c-.45,4.88-5.22,16.08-11.41,16.42l-24.92,1.39-.16-15.89,18.58-.68,3.01-14.95ZM2148.37,1015.55l2.19-81.53.53-81.05,12.94.06.97,85.74,1.1,76.47-17.73.3ZM2142.96,1028.99l-172.88-10-.17-214.8,1.6-19.77,172.26,13.87-.81,230.7ZM2122.26,1034.16l.41,14.97-152.61-12.64-.29-11.54,152.49,9.21ZM2134.73,1055.44c10.33.82,23.21.35,29.15-9.69,7.16-12.11,6.26-27.51,6.29-41.85l.22-143.81,2.06-58.41c.38-10.62-3.69-27.81-16.7-29.27l-67.97-7.65,70.28-2.02,17.24,4.05.36,65.24-.09,103.95.1,78.1,1.3,78.1-54.87-4.78-22.11-1.92-26.02-2.01-25.06-1.94-26.58-2.16-52.72-4.73.1-32.26,165.03,13.09ZM2246.82,756.66l-50.89-5.36,1.33-2.34,50.73,5.78-1.17,1.91ZM2249.09,755.58l24.85,2.13,35.06,4.42.95,2.18-61.97-7.09,1.11-1.64ZM2310.37,769.8c.86,1.43-2.82,5.22-5.55,5.09-48.22-2.3-92.88-7.01-139.33-13.97l20.54-6.36,124.34,15.24ZM2395.7,1104.09l.26,6.69-136.02-11.36-29.35-2.23-47.35-3.78,7.26-2.93-7.71-.75c-1.88-.18-1.8-5.13-1.86-7.75l-1.91-93.72.2-32.14.53-188.39,18.39,2.31-1.13,140.94-.06,72.17,1.91,66.18c.4,13.74,1.64,26.17.03,38.97l196.81,15.76ZM2158,758.05l-48.71,1.48-53.43,2.18-33.99-2.83,95.99-4.59,58.27-2.35c-5.59,1.95-13.57,5.19-18.13,6.1ZM2396.83,1087.02l-66.83-3.87-33.18-1.92-28.89-1.8-29.95-2.06-21.99-1.52-.02-93.7-2.21-10.61,38.07,2.05,86.08,4.49,25.99,1.31,32.99,1.68-.06,105.96ZM2396.72,964.73l-92.67-3.06-89.31-1.91.02-53.45c0-16.89,1.99-33.57-1.11-49.98l88.38-1.93,95.3-.59-.61,110.91ZM2395.97,756.36l-1.28,2.38-12.97-2.01,14.25-.36ZM2378.99,753.88l1.1,1.7-11.12.54-1.1-1.7,11.12-.54ZM2397.31,764.62l-.03,73.79-44.39.58-84.83,2.01-54.21,1.22.48-67.31-2.28-1.61-.09,72.93,76.23-1.49,50.95-1.73,57.67-1.62-.06,8.67-90.79.26-93.74,2.09-.56,109.16c8.59,1.99,20.35,1.95,32.45,2.34l146.59,4.73,4.77.46c1.45.14.98,6.94-.52,6.91l-35.12-.76-90.28-4.65-33.51-1.23-24.24-1.58,1.27,47.18,1,64.8,25.76,1.7,78.25,4.81,78.66,4.84-.57,9.19-134.17-10.93-24.08-1.92-33.71-1.94-1.55-25.49-1.8-37.25.18-167.71.94-84.48,100.08,9.46c3.24.31,10.7-2.09,11.79-4.74,1.09-2.64,1.16-7.17,1.26-12.7l46.71-2.85,35.5,4.83ZM2354.99,749.88l1.1,1.7-11.12.54-1.1-1.7,11.12-.54ZM2332.14,727.41l12.36-1.23.43,18.79-12.87,1.42.09-18.99ZM2341.77,755.47c-20.74,2.09-41.68,1.23-63.78-1.28l-32.41-3.67,80.93-5.83c1.18,7.91,5.91,8.48,15.26,10.78ZM2205.85,735.58l122.02-7.89-1.93,13.26-85.83,4.8-48.58,1.04,4.94,1.99-2.02,2.38-12.98-4.95-115.45,6.19-54.1,2.12c-22.76.89-44.75,1.13-65.96-3.65l259.9-15.29ZM2143.96,776.63c10.49,1.02,21.26,2.28,21.14,16.93l-.44,53.39c-3.91,1.15-9.72,1.52-14.52,1.32l-.45-52.01c-2.25-3.43-9.31-5.05-13.96-5.44l-173.5-14.44-81.63-6.57,15.75-17.27,247.62,24.08ZM1850.15,789.94l-59.37,68.41c-9.36-33.98-34.37-58.9-68.97-57.11l113.31-113.96,65.85-68.25,60.03-63.99c25.52-12.93,60.21,15.26,58.39,42.81-3.85,8.42-13.28,16.29-19.96,23.83l-149.28,168.26ZM1979.66,695.04l-35.78,2.8,34.98-39.31.81,36.52ZM2106.73,587.2l-45.23,5.6.35-26.73c.05-4.15,9.8-9.72,14.18-10.24l36.77-4.43-6.06,35.8ZM2117.06,550.65l43.27,7.67,4.44,22.53-53.45,5.81,5.74-36.01ZM2061.67,679.09c1.7-.72,6.25-1.45,8.13-1.26l55.92,5.64-63.63,4.93c-.82-2.3-2.12-8.58-.42-9.3ZM2190.82,624.38l.34,21-24.26-4.51-.03-20.43,23.95,3.94ZM2178.08,617.2l.18-25.64,12.87-1.69,1.07,30.48-14.12-3.15ZM2129.12,619.41l-.31,29.49,9.8.09.1,31.28-42.75-4.21,12.82-77.02,58.7-6.36,5.87,23.05c-16.32-1.35-29.2.09-44.23,3.67ZM2162.94,639.99l-29.44,3.31-.56-20.39,29.5-3.38.51,20.46ZM2096.65,638.77l-3.4,37.54-31.15-1.88.38-70.13,41.93-4.62-7.77,39.09ZM2331.8,668.35l-2-68.08,64.02-6.6,3.05,69.24-65.06,5.44ZM2391.7,588.88l-61.98,6.61-.48-5.03,59.9-7.28c1.03-.13,4.41,1.28,5.22,1.74.81.46-1.66,3.19-2.66,3.97ZM2393.67,565.64l.31,12.23-64.46,7.14.34-12,63.81-7.37ZM2392.69,552.44l-63.43,7.66-.19-78.48,60.67-9.34,1,25.87,1.95,54.29ZM2389.02,445.91l.84,9.95-60.14,8.9-.56-9.13,59.86-9.72ZM2328.33,472.96c.46-.96,3.06-2.99,4.65-3.24l53.03-8.35c1.06-.17,2.97,1.83,4.63,5.38l-57.11,8.46-3.77.02c-.71,0-1.73-1.61-1.42-2.25ZM2321.98,456.81l.97,116.37.91,126.09-3.91-3.16-.3-141.91-1.7-22.12-1.13-69.96-.06-4.29c-.02-1.09,3.11-1.06,5.23-1.02ZM2315.83,692.76l-253.83,18.55c-.78-4.88-.77-11.53.09-17.13l253.37-18.3.38,16.88ZM2160.15,681.63l.07-15.4c3.92.11,9.08-.37,9.59,1.14l3.18,9.41,3.48-7.64c.72-1.58,9.89-2.38,16.44,3,1.44,1.18.28,7.03-1.8,7.23l-30.96,2.25ZM2196.8,671.41c1.1-1.16,6.06-1.42,7.33-.45,1.28.97,2.14,5.17.65,5.74l-6.36,2.45c-1.5.58-2.73-6.58-1.63-7.74ZM2208.84,670.77l24.37,1.17,1.14,3.47-24.57,2.5-.93-7.14ZM2259.84,673.93c1.43-13.67,1.94-21.97-.67-33.62l-45.59,4.2-.25-31.82,101.38-10.67.58,67.48-55.44,4.43ZM2208.3,608.95l-.18,41.55,47.82-4.26-.32,19.72-6.61-.55c-1.19-.1-2.94,2.45-2.52,2.73l8.49-.1c1.24-.01,1,5.32.26,6.05l-18.17,1.74-1.66-6.27c-.29-1.11-3.73-.3-6.39-.58l-72.65-7.47.87,19.84-14.47.81-.32-14.58c-.05-2.22,2.93-6.14,4.79-7.9-3.36-1.85-6.86-10.71-3.59-13.45,16.92-2.29,34.73-.03,51.13,3.35l.75-19.78,9.88,2.9-1.34-29.88,106.48-10.97c1.28-.13,3.1,1.99,4.2,5.04l-106.45,12.08ZM2195.91,622.66v-31.26s4.04-3.75,4.04-3.75l-.03,38.38-4.01-3.37ZM2204.36,600.66l.09-13.19c6.37,1.49,8.37,9.62-.09,13.19ZM2213.44,597.67l.25-10.32,99.86-12.33.31,11.63-100.41,11.02ZM2314.1,569.62l-94.21,12.21-157.99,17.75-.02-3.05,112.19-12.63,140.01-17.01.02,2.74ZM2203.93,498.88l3.71-1.21.5,77.47-4.06,1.03-.15-77.28ZM2313.96,561.98l-100.31,12.66-1.78-76.44,99.92-14.09,1.6,49.85.57,28.02ZM2311.73,458.33l-.07,9.16-99.15,15.58-.17-8.91,99.39-15.84ZM2206.51,475.83c1.2-.06,1.32,7.08.14,8.08-3.6.04-3.73-7.47-.14-8.08ZM2203.79,488.76l6.37-.93,101.71-14.84.39,5.25-106.83,16.03c-.68-.95-2.53-5.39-1.64-5.52ZM2198.41,476.8l1.78,5.27.33,88.12c-1.2,3.19-2.26,5.51-3.91,8.38l-2.38-26.53-.56-75.14c2.06-.31,4.49-.79,4.73-.09ZM2187.85,477.94l1.27,28.21,2.27,70.81-13.24,2.28-2.6-79.4-1.62-19.69,13.91-2.21ZM2170.87,479.9l.87,54.08,1.48,47.42c-5.82-8.54-6.38-15.8-7.73-24.96-17.53-3.06-35.79-9.67-53.39-8.12l-38.09,3.35c5.31-5.42,37.61-7.27,48.06-5.47l43.54,7.51c-.03-19.95-3.09-37.32-6.84-56.41-1.34-6.83,3.7-15.25,12.09-17.4ZM2104.04,535.42c19.1.74,37.23,3.66,55.51,8.57l2.08,3.24c.55.86-2.91,2.15-4.18,1.9l-37.2-7.23-39.37,1.96c6.56-5.61,14.25-6.83,23.15-8.44ZM2091.38,533.07l17.29-19.33,10.61,17.46-27.9,1.87ZM2121.21,531.62l33.37-33.85,6.57,41.85-39.94-8ZM2114.65,489.44l46.52-6.83-27.27,29.25-12.76,13.68-9.74-17.96,2.53-1.23.72-16.91ZM2060.46,497.76l51.29-8.04-.09,15.34-1.92-.5-44.69,47.63c-4.98-18.67-6.03-35.22-4.59-54.43ZM2055.34,498.57l.79,77.45.2,68.89c.07,26.32,2.88,50.27-3.2,74.49l-2-99.51-1.38-121.2,5.59-.11ZM2047.96,712.12l-123.5,9.31,15.42-18.02,107.79-8.05.29,16.76ZM2035.54,689.86l3-75.51c.19-1.78,5.32-4.44,8.41-5.23l.28,79.84-11.69.91ZM2029.78,603.77c2.47,6.14,3.47,11.83,3.44,18.11l-.32,68.94-46.77,3.46.07-43.93,23.65-26.44,19.46-23.37,18.23-.88-17.76,4.11ZM2036.53,595.56l9.14-11.68,1.49,6.76c.46,2.1-4,4.48-10.63,4.92ZM2045.58,572.41l-4.9-10.87c-.62,4.52-.36,12.16-2.15,15.29l-11.43,19.97-6.38-19.65,19.58-22.89-22.47,18.63-18.51-18.01c-9.66-9.4-22.26-6.48-35.72-5.13l18.68-21.59c5.32-6.15,10.05-14.07,18.17-18.04,13.75-6.72,39.33.29,43.8,15.91,4.26,14.88,1.13,30.87,1.33,46.38ZM2022.83,488.61l-3.28,6.28c-.94,1.8,2.68,7.64,4.95,7.39l21.37-2.41-.78,17.29c-14.52-13.33-29.76-15.49-47.66-11.4l44.13-44.14c8.13-8.13,18.92-11.15,30.51-9.29,12.75,2.05,23.78,10.15,31.04,21.9l-80.28,14.39ZM2108.28,473.3c-13.37-18.71-31.37-29.83-52.03-23.72l44.85-44.31c10.34-10.21,23.98-11.6,37.62-5.58,12.17,5.38,25.54,17.89,26.37,32.34l.76,13.4,3.93,17.88-61.5,9.99ZM2133.25,394.65c-11.75-3.21-21.89.91-33.64,5.14,18.61-16.86,47.33-11.22,63.09,7.37,9.36,11.04,16.16,25.19,7.9,39.37.46-24.37-13.43-45.36-37.34-51.89ZM2173.31,462.82c1.44-16.03,12.58-26.19,4.69-42.91-4.46-9.46-5.76-18.99-5.83-30.04l-1.08-162.69-1.4-41.1,16.16-3.96,1.1,146.75,1.18,51.11,1.29,80.08-16.1,2.76ZM2194.07,460.06l-1.55-36.04-1.59-74.92-1.27-97.1-.02-68.12c-.04-.88,2.56-5.29,3.11-4.19l2.21,4.4,2.95,105.98.74,161.11c.02,4.18,2.45,7.63-4.59,8.87ZM2199.5,257.04l4.3-1.63,174.35-39.17c.65-.14,5.14-.95,5.02-.15l-.85,5.65-180.45,40.42c-.99-.63-3.22-4.79-2.36-5.12ZM2201.06,266.19c3.41,12.3,4.61,23.85,4.57,35.65l-.27,64.88c-1.73.58-3.61,1.24-3.78.55l-1.27-5.25.75-95.83ZM2202.06,458.17l-.13-77.3,3.7-1.31.51,77.58-4.08,1.03ZM2201.6,377.09c-1.32.37-.82-5.11-.33-5.5l124.92-23.37,59.14-10.97.71,5-177.39,32.84-7.05,2ZM2211.21,420.2l-.46-38.22,175.23-31.15,2.77,76.52-176.13,29.25-1.42-36.41Z"/>
  <path class="cls-1" d="M883.69,140.55l1.65,2.07,142.2-89.86,130.03,63.31-66.06,33.53-99.78,52.99,1.58,1.94,39.08-20.25,77.15-40.63,51.07-26.24,118.37,59.19-87.12,39.29-108.02,46.88,1.41,1.85,96.5-40.89,100.65-45.55,111.71,53.91-154.69,59.21c-30.45,12.64-61.09,21.46-89.5,37.09l252.51-92.58c25.51,11.92,48.85,24.6,75.82,34.54-26.56-17.31-53.85-30.18-82.42-44.2l-135.63-66.54-225.26-110.58L938,.01h-14s99.51,51.06,99.51,51.06l-38.18,24.46-101.64,65.02Z"/>
  <path class="cls-1" d="M2527.98,1188l-174.14,47.75c-7.58,2.1-13.89,4.52-21.6,3.82l-42.32-3.83-24.11-3.11-4.73-.94c-.8-.16-.93,2.26-.44,2.91l2.36,3.09,60.02,11.56,204.95,26.74v-12s-158.99-20.13-158.99-20.13l158.99-47.39v-8.49Z"/>
  <path class="cls-1" d="M1082.43,49.75l226.62,115.18,109.38,56.81,82.47,40.61-19.41,8.83,29.59-5.55-.22-59.93c-.02-5-1.76-11.75,2.66-14.65l-7.61,3.35.4,65.88-124.87-63.81-145.08-76.8-129.13-64.72-103.7-50.49L998,0h-12s4.12,3.97,4.12,3.97l92.31,45.77Z"/>
  <path class="cls-1" d="M1980.1,23.42l51.14,39.24c9.91,7.6,19.73,16.07,32.25,18.03l-86.52-69.62L1964.02,0h-14.03l23.08,18.13-338.59,126.23-120.96,46.7,16.72-3.06L1980.1,23.42Z"/>
  <path class="cls-1" d="M1219.83,6.14l93.56,62.62c52.36,33.8,101.88,69.14,156.83,99.26l-140.64-95.46-97.13-65L1224.04.01h-10.05c.47,1.91,3.42,4.51,5.84,6.13Z"/>
  <polygon class="cls-1" points="2527.97 1590.49 2393.98 1683.98 2409.98 1683.98 2527.97 1602.42 2527.97 1590.49"/>
  <path class="cls-1" d="M2062.3,35.62l34.71,29.96-33.78,12.94c1.86,1.88,7.47,3.82,9.87,2.96l33.26-11.97v-29.51s-.38-39.99-.38-39.99h-6l1.68,34.12-.49,26.79-32.3-27.83c-11.99-10.33-23.16-20.61-38.38-29.13,8.91,11.67,20.12,21.57,31.81,31.66Z"/>
  <polygon class="cls-1" points="2453.98 1683.99 2471.98 1683.99 2527.97 1642.04 2527.97 1630.11 2453.98 1683.99"/>
  <path class="cls-1" d="M121.04,671.06l56.83,2.25c-17.34-9.94-34.48-4.11-51.92-5.54l-20.01-1.64L.02,660v4s121.02,7.06,121.02,7.06Z"/>
  <path class="cls-1" d="M2505.93,1053.93c.68,5.55,15.42,7.35,15.67,2.32l2-40.5,3.96-15.91.43-7.85-8.47,22.87-1.15,38.09-8.89-.3.56-36.69,17.95-51.97v-8l-20.31,51.58c-5.42,14.27-3.62,31.06-1.74,46.35Z"/>
  <path class="cls-1" d="M2527.98,256l-49.75,12.55c-6.66,1.71-3.8,15.53.36,18.27l10.23,6.73,39.16-7.55v-6s-40.88,8.01-40.88,8.01l-5.94-16.2,46.82-9.54v-6.27Z"/>
  <path class="cls-1" d="M779.54,3.89l2.38-3.88h-5.95s-28.48,23.52-28.48,23.52c-19.08,15.09-38.21,29.35-53.4,49,29.9-21.86,57.71-45.26,85.45-68.64Z"/>
  <polygon class="cls-1" points="749.33 92.54 865.93 0 859.92 0 812.28 38.32 747.62 90.53 749.33 92.54"/>
  <path class="cls-1" d="M0,746l24.06,2.54,25.94,1.58,22.18,1.19,45.48,1.13c6.13.15,13.71,5.52,19.93-1.78l-42.68-1.58-37.06-1.66-33.81-2.06L0,744v2Z"/>
  <polygon class="cls-1" points="55.99 742.15 78.21 743.34 130.99 744.08 132.08 742.42 99.98 741.37 67.88 739.51 31.89 737.42 0 736 0 738 26.15 740.5 55.99 742.15"/>
  <path class="cls-1" d="M1375.91,5.87L1383.99,0h-6c-.43,1.22-3.68,3.77-5.25,4.57l-43.77,22.36-25.25,13.55,1.58,2.07,70.61-36.68Z"/>
  <polygon class="cls-1" points="694.55 4.53 696 0 691.97 0 645.97 44.94 647.71 46.85 694.55 4.53"/>
  <path class="cls-1" d="M1866.8,1387.2l208.78,45.63c-20.83-13.27-44.64-15.18-68.22-20.3l-239.61-52.06-85.62-20.48,107-23.07,102.8-23.6,152.04,29.79,161.36,29.38,53.48,10.1-68,24.45c-39.04,14.38-78.52,24.69-116.1,44.29,66.75-18.47,129.63-42.67,193.93-66.04l.38-5.39-225.77-43.07-153.26-27.87-119.77,27.23c-33.75,7.67-65.92,12.36-101.06,24.1,67.06,18.86,131.21,32.37,197.65,46.9Z"/>
  <path class="cls-1" d="M2124.05,1532.54l-22.97-4.93-1.09-.79-14.94-3.09-1.08-.64-33.1-8.59,58.22-20.75.48-2.44-63.56,21.97-110.77-28.11-1.19-.47-34.86-9.35-1.14-.37-127.43-35.52,68.37-17.81.85-1.17-76.14,15.76-72.57-15.8-1.16-1.61-14.9-3.1-1.08-.9-14.93-3.1-1.05-.8-95.76-23.69.71,2.58,93.72,23.23,1.35.42,14.82,3.06,1.18.94,14.82,3.06,1.12.51,66.94,18.13-76.77,19.04-84.61,20.9-52.26-15.5-1.27-.86-18.83-5.33c-.74-.52-.91-.7-1.21-.79l-10.75-3.15c-.67-.5-.96-.73-1.26-.82l-10.74-3.19c-.67-.51-.94-.77-1.26-.86l-10.75-3.11c-.67-.51-.95-.75-1.26-.84l-10.73-3.16c-.74-.52-1.05-.78-1.36-.89l-14.64-4.97-1.18-1.17-12.58-2.02,11.28,4.29,1.38.72,14.65,4.97,1.25.77,10.9,3.03,1.1.97,10.9,3.03,1.1.97,10.9,3.03,1.1.97,10.9,3.03,1.06,1.07,18.85,5.27,1.14.62,46.1,15.21-174.09,43.95-10.89-2.46c-.7-.87-.92-1.16-1.22-1.26l-14.63-5.06c-.68-.76-.87-1.1-1.24-1.18l-10.38-2.15,9.17,4.29c.83.52,1.04.8,1.35.91l14.65,4.97,1.26.56,4.06,2.53-42.49,10.49-170.82,39.58-16.06-7.8.24,2.11,10.26,6.69-97.43,25.26,102.37-23.57,16.68,8.04,1.33-1.51-12.44-7.74,195.37-45.61c8.09-1.89,16.57-4.73,23.79-2.52l17.37,5.31-15.65-8.93,175.48-43.38,20.41,6.27,3.3-.57-16.77-7.44,163.12-39.31,132.6,36.18,1.22.27,34.8,9.45,1.22.43,106.45,27.65-111.21,38.23-53.5,16.56c-3.77-1.41-9.38-3.13-13.86-3.48l10.15,5.05-24.05,7.68,1.44,2.04,27.2-8.8,32.13,10.31,1.44-1.76-28.41-9.85,85.34-27.74,78.74-27.08,36.86,8.96,1.33.54,14.82,3.06,1.08.92,22.93,5,1.26.73,22.26,5.15c.75.17,2.37-.73,3.6-1.4l-24.85-5.61-1.09-.77Z"/>
  <path class="cls-1" d="M1201.49,1444.14c-1.99-2.52-3.37-3.76-2.54-4.19l3.22-1.67,63.96-12.94-1.31-2-96.13,19.3-169.09,32-141.44,29.46-175.48,35.08-43.32,8.37-145.56,28.95,1.36,2.05,29.87-5.62,154.98-30.51,9.82-1.86,146.16-28.89,161.38-34.01,5.05,2.24c.5.22.32-1.16.55-3.39l189.45-35.73,9.07,3.33Z"/>
  <path class="cls-1" d="M510.02,1487.02l-1.28-1.77-66.56,9.56-16.36-14.55c4.4,6.8,8.09,10.54,12.43,15.38l-190.73,31.8c-2.66.44-7.47-1.73-8.52-3.02l-.63-1.63-5.22-8.88-.89-1.11c-2.93-6.61-6.36-13.3-12.61-19.05l10.91,20.46,1.14,1,4.9,8.97,1.4,2.41c-.69,1.51-3.52,2.85-5.72,3.28l-66.34,12.99,1.27,2.11,65.23-12.83c2.66-.52,8.8.58,10.35,1.31l.8,1.79,5.3,8.8.72,1.21,5.09,8.76.77,1.32,6,8.8c-.27-3.2-2.22-7.53-4.14-10.13l-.97-1.31-5.1-8.72-.93-1.21-5.1-8.79-.57-2.33c2.06-1.12,6.53-2.47,9.98-3.05l185.14-30.79,9.92,6.68-4.46-7.62,64.78-9.86Z"/>
  <path class="cls-1" d="M1750.66,1265.14c8.61,6.73,15.75,1.68,23.17.37l93.34-16.36,31.77-3.6,1.04,1.42,116.58,19.57-96.52,20.69,3.26,1.6,98.84-20.66,12.67-.33,1.17,1.33,162.77,27.94,1.44-.61,12.31,4.46-72.67,19.91,1.45,1.86,81.03-21.69,12.9.29c-5.7-1.22-5.93-3.31-.01-4.7l-15.18,1.42-18.98-2.36-1.11-.76-162.7-27.86-1.3-.25,6.04-2.9,94.72-18.97,1.31,2.65,12.3-.39-11.29-1.55-1.06-.66,2.84-1.63c.62-.36.52-.4-.14-.4l-27.11-.26,8.6,2.59-98.86,19.99-122.13-20.24-.71-1.33,37.54-6.67-1.17-1.5-50.08,7.09-13.35,2.24-112.71,20.38-10.04-.11Z"/>
  <path class="cls-1" d="M2272.93,1162.38c.74.95.89,1.3,1.21,1.33l15.57,1.62,37.19,3.04,1.11,1.36,16.32-.55-15.31-1.56-1.09-.6-32.35-4.5-20.52-.62-1.14-.76-114.74-13.77-3.13,1.67,91.83,11.37,25.05,1.96Z"/>
  <path class="cls-1" d="M1778.36,1197.32c18.1,6.08,36.84,8.61,56.99,8.67-18.62-7.57-37.08-9.63-56.99-8.67Z"/>
  <path class="cls-1" d="M1388,1399.01l-1.28-1.54-24.79,4.77-86.1,19.06c26.83-1.65,52.88-9.1,81.16-14.88l15.61-3.19,15.4-4.21Z"/>
  <path class="cls-1" d="M2134.97,1162.37l1.02,1.13,18.99.7,1.01,1.1,11.81,1.24,23.14,1.92,1.05.85,11.81,1.24,23.14,1.91,1.11,1.15c-2.65,2.05-1.08,2.42,1.41,1.74,9.26-.71,15.7-.39,24.47.56l24.97,2.71,1.11,1,12.3-.39-11.29-1.55-1.07-.68-30.92-4.08-19.99-1.14-1.08-1.04-34.93-3.22-1.06-.78-34.94-3.22-1.06-.97-18.95-.73-1.07-1.46-18.3.56,17.31,1.47Z"/>
  <polygon class="cls-1" points="1091.56 1525.76 1125.64 1542.57 1124.01 1538.92 1093.25 1523.66 1091.56 1525.76"/>
  <path class="cls-1" d="M77.06,1536l-.42-1.2-6.16-18.49c.78,8.61,2.45,14.04,4.24,19.74l.98,1.09,5.62,19.13-2.85,2.5,7.76,7.54c.51-4.54-.73-7.92-2.66-13.04l-6.5-17.27Z"/>
  <polygon class="cls-1" points="1759.24 1610.5 1816.97 1591.46 1817.51 1589.19 1757.84 1608.64 1759.24 1610.5"/>
  <polygon class="cls-1" points="545.9 1603.03 567.32 1624 568.1 1620.96 546.68 1599.99 545.9 1603.03"/>
  <path class="cls-1" d="M1674.11,1504.51l-17.01-4.82-1.11-.95-18.81-5.33c-.78-.62-.98-.82-1.28-.94-2.97-1.21-8.66-2.2-12.02-1.91l10.99,3.78,1.1.9,18.78,5.39,1.23.88,16.87,4.81,1.12.82,30.66,9.73,1.42-2.16-30.81-9.44-1.13-.77Z"/>
  <polygon class="cls-1" points="1137.58 1549.76 1163.64 1562.5 1162.08 1558.93 1139.22 1547.66 1137.58 1549.76"/>
  <path class="cls-1" d="M1507.92,1371.94c-3.73.46-6.32.89-10.27,3.07,8.08,2.05,15.1.48,22.9-1.73l17.91-5.07-30.54,3.73Z"/>
  <path class="cls-1" d="M1008.83,1616.31c-.42-.65.38,3.96,1.67,4.48l4.82,1.91,8.86,3.52-3.51-4.69c-.51-.68.56-.66,5.53-2.97.94.25,1.39.37,1.52.4-.27-.07-2.26-.6-2.91-.78-3.35-.9-7.34,3.69-15.98-1.89Z"/>
  <path class="cls-1" d="M296.57,1256.34l2.15,1.79c1.45,1.21,4.47,2.74,7.66,4.03l-6.91-6.71-1.67-1.28-16.5-12.59-1.48-1.15c-4.86-3.77-13.27-11.61-20.33-13.45l18.8,15.2,1.98,1.76,16.3,12.4Z"/>
  <polygon class="cls-1" points="1449.99 1541.23 1468.53 1548.46 1471.93 1547.14 1451.32 1539.26 1449.99 1541.23"/>
  <path class="cls-1" d="M1718.33,1299.21l-11.28-1.55-1.06-.86c-7.98-1.65-16.16-3.06-24.16-2.02l23.02,3.86,1.19.96,12.3-.39Z"/>
  <polygon class="cls-1" points="1223.18 1591.65 1221.61 1593.74 1239.64 1602.4 1238.17 1598.94 1223.18 1591.65"/>
  <path class="cls-1" d="M1732.03,1522.71c-5.71-1.78-11.12-3.45-19.74-4.25l18.46,6.25c.81.34,1.03.66,1.33.79,2.97,1.24,8.67,2.24,12.02,1.93l-11-3.74-1.06-.97Z"/>
  <path class="cls-1" d="M67.43,1509.78c-.21-8.9-2.11-14.04-5.11-20,.19,7.58,2.24,13.95,5.11,20Z"/>
  <path class="cls-1" d="M1770.08,1537.5c2.97,1.24,8.67,2.24,12.02,1.93l-11-3.74-1.06-.97c-5.71-1.78-11.12-3.45-19.74-4.25l18.46,6.25c.81.34,1.03.66,1.33.79Z"/>
  <path class="cls-1" d="M59.43,1483.78c-.21-8.9-2.11-14.04-5.11-20,.19,7.58,2.24,13.95,5.11,20Z"/>
  <path class="cls-1" d="M1811.92,1548.35c-3.07-1.02-8.63-1.95-12.06-1.83l11,3.84,1.08.92c5.7,1.79,11.12,3.46,19.74,4.23l-18.47-6.19-1.3-.97Z"/>
  <path class="cls-1" d="M1477.85,1380.62l-20.11,2.56c7.67,1.09,14.05-.06,20.11-2.56Z"/>
  <path class="cls-1" d="M455.76,1585.51c6.94.13,12.64-.85,18.15-2.58-8.25-.7-12.88.31-18.15,2.58Z"/>
  <path class="cls-1" d="M2131.44,1483.95l-15.7,5.36c6.04.57,10.66-1.14,15.7-5.36Z"/>
  <path class="cls-1" d="M1684.34,1633.36l15.5-.44c-4-5.01-11.91-3.04-15.5.44Z"/>
  <polygon class="cls-1" points="159.03 1107.89 139.9 1108.3 140.98 1110.11 160.11 1109.7 159.03 1107.89"/>
  <path class="cls-1" d="M1497.99,1556.55c-4.51-1.78-9.91-3.52-16.42-4.12l15.16,6.24c.8.42.98.74,1.28.84,2.62.8,7.47,1.84,10.03,2.1l-8.89-3.99-1.17-1.08Z"/>
  <path class="cls-1" d="M811.75,1640.26l-8.44-6.64-1.61-1.28-8.4-6.71-1.58-1.33-10.35-8.74-1.63-1.28-8.45-6.65-1.64-1.22-6.38-4.74-1.59-1.29-8.35-6.77-1.66-1.21-6.4-4.7-1.96-1.76c-1.41-1.27-4.56-2.87-7.69-4.02l7,6.54,1.7,1.23,6.43,4.65,1.59,1.29,8.34,6.78,1.66,1.22,6.4,4.72,1.6,1.29,8.36,6.76,1.58,1.33,10.37,8.72,1.63,1.28,8.43,6.66,1.61,1.29,8.35,6.74,2.05,1.7c1.47,1.22,4.51,2.78,7.7,4.01l-7-6.56-1.65-1.3Z"/>
  <path class="cls-1" d="M1523.93,1566.47c-2.6-.83-7.38-1.84-10.03-2.06l8.83,4.1,1.25.94c4.53,1.79,9.92,3.51,16.43,4.12l-15.15-6.29c-.72-.48-.96-.7-1.33-.82Z"/>
  <path class="cls-1" d="M1538.21,1381.89c-4.86-3.24-10.18-4.41-16.49-2.81l16.49,2.81Z"/>
  <polygon class="cls-1" points="2154.08 1147.68 2153 1145.89 2135.88 1146.32 2136.96 1148.11 2154.08 1147.68"/>
  <path class="cls-1" d="M136.26,1110.65l-15.36-1.65c4.56,5.47,10.88,4.41,15.36,1.65Z"/>
  <path class="cls-1" d="M1081.89,1604.57l-16.16,2.55c6.37,1.1,11.46-.01,16.16-2.55Z"/>
  <polygon class="cls-1" points="2100.96 1160.17 2116.3 1159.48 2112.9 1157.82 2099.95 1158.39 2100.96 1160.17"/>
  <polygon class="cls-1" points="2130.9 1143.82 2117.95 1144.39 2118.96 1146.17 2134.3 1145.48 2130.9 1143.82"/>
  <path class="cls-1" d="M50.97,1457.98c.66-6.91-.32-10.34-2.62-14.18.35,5.5,1.25,9.96,2.62,14.18Z"/>
  <path class="cls-1" d="M187.8,1440.12c1.24,3.31,2.86,6.42,5.21,10.03,1.29-3.5-.96-7.95-5.21-10.03Z"/>
  <path class="cls-1" d="M199.8,1460.12c1.24,3.31,2.86,6.42,5.21,10.03,1.29-3.5-.96-7.95-5.21-10.03Z"/>
  <polygon class="cls-1" points="2066.32 1233.21 2055.04 1231.67 2053.96 1230.35 2039.64 1230.8 2052.96 1232.36 2054.02 1233.6 2066.32 1233.21"/>
  <polygon class="cls-1" points="2066.97 1156.12 2080.09 1155.62 2079 1153.88 2065.88 1154.38 2066.97 1156.12"/>
  <path class="cls-1" d="M211.8,1480.12c1.24,3.31,2.86,6.42,5.21,10.03,1.29-3.5-.96-7.95-5.21-10.03Z"/>
  <path class="cls-1" d="M151.8,1378.12c1.24,3.31,2.86,6.42,5.21,10.03,1.29-3.5-.96-7.95-5.21-10.03Z"/>
  <polygon class="cls-1" points="2082.97 1158.12 2096.09 1157.62 2095 1155.88 2081.88 1156.38 2082.97 1158.12"/>
  <path class="cls-1" d="M179.8,1426.12c1.24,3.31,2.86,6.42,5.21,10.03,1.29-3.5-.96-7.95-5.21-10.03Z"/>
  <path class="cls-1" d="M267.8,1574.12c1.24,3.31,2.86,6.42,5.21,10.03,1.29-3.5-.96-7.95-5.21-10.03Z"/>
  <path class="cls-1" d="M1275.8,1620.21c2.62,3.18,5.92,5.04,10.37,5.59-2.61-3.2-5.92-5.07-10.37-5.59Z"/>
  <polygon class="cls-1" points="2037 1227.88 2023.88 1228.38 2024.97 1230.12 2038.09 1229.62 2037 1227.88"/>
  <path class="cls-1" d="M80.16,1137.22l-5.65-7.48c-.45,4.07,3.06,7.86,5.65,7.48Z"/>
  <polygon class="cls-1" points="2050.97 1154.12 2062.09 1153.58 2060.99 1151.88 2049.88 1152.42 2050.97 1154.12"/>
  <path class="cls-1" d="M408.16,1461.22l-5.65-7.48c-.45,4.07,3.06,7.86,5.65,7.48Z"/>
  <polygon class="cls-1" points="143.9 1546.42 144.99 1548.12 156.11 1547.58 155.02 1545.87 143.9 1546.42"/>
  <polygon class="cls-1" points="121.9 1550.42 122.99 1552.12 134.11 1551.58 133.02 1549.87 121.9 1550.42"/>
  <path class="cls-1" d="M709.69,1560.33l-6.45-4.62-1.98-1.81c-1.36-1.24-4.52-2.85-7.65-3.99l7,6.54,1.7,1.23,6.45,4.62,1.97,1.81c1.36,1.25,4.54,2.85,7.66,4l-6.99-6.54-1.7-1.22Z"/>
  <polygon class="cls-1" points="99.9 1554.42 100.99 1556.12 112.11 1555.58 111.02 1553.87 99.9 1554.42"/>
  <path class="cls-1" d="M1555.56,1580.85l9.98,3.33c-3.3-3.57-5.53-4.31-9.98-3.33Z"/>
  <polygon class="cls-1" points="1874.33 1241.21 1863.04 1239.67 1861.96 1238.42 1849.65 1238.79 1860.95 1240.34 1862.03 1241.6 1874.33 1241.21"/>
  <polygon class="cls-1" points="2098.99 1237.88 2087.88 1238.42 2088.97 1240.12 2100.09 1239.58 2098.99 1237.88"/>
  <path class="cls-1" d="M75.99,343.2l196.23,28.77,445.7,64.02,390.9,54.67,1.22.94,12.3-.39-11.29-1.55-1.14-.9-457.95-66.85L77.22,341.06l-1.19-.24c-8.42-1.4-16.69-2.85-26.29-2.04l25.1,3.98,1.14.43Z"/>
  <path class="cls-1" d="M741.11,99.94l4.03-4.96c1.88.23-1.99-.24-3.31-.4l-3.58,4.59c-.4.51,2.47,1.26,2.86.77Z"/>
  <path class="cls-1" d="M1414.12,119.94L1673.94,6.01c-88.14,34.46-173.73,72.28-259.83,113.93Z"/>
  <path class="cls-1" d="M2447.48,892.16c-9.68,3.01-17.14,22.52-17.14,34l11.59-27.38c9.41-3.89,10.74-9.57,10.32-18.84-.58-12.83,1.06-25.48-3.69-38.12l-1.09,50.34Z"/>
  <path class="cls-1" d="M2492.33,905.63c-6.22-9.26-18.91-12.73-28.43-10.77,8.94,2.9,19.78,4.83,24.87,12.22,7.05,10.24,4.99,23.05,4.17,34.87,7.02-10.75,6.35-25.97-.61-36.33Z"/>
  <path class="cls-1" d="M1314.08,1486.76l-8.98-3.08c-.63-.77-.81-1.1-1.14-1.21-2.61-.82-7.41-1.85-10.04-2.07l8.83,4.11c.76.38.93.62,1.28.74l8.84,3.07,1.07.92,44.68,17.62,1.44-2.17-44.49-17.37-1.47-.57Z"/>
  <path class="cls-1" d="M1252.13,1462.32l-10.28-2,8.88,4.2,1.2.72c8.21,3.38,16.34,6.88,26.35,8.58l-25.07-10.38-1.06-1.13Z"/>
  <path class="cls-1" d="M1411.64,1420.6c5.37,2.56,10.23,4.32,15.93,5.45-5.13-4.18-9.52-5.85-15.93-5.45Z"/>
  <path class="cls-1" d="M2045.76,359.39l-181.26,38.79c-7.83,1.68-15.06,3.19-20.79,8.76l201.81-40.63.54,15.33-202.06,40.9-3.22-16.79c-1.43,4.03-2.76,10.17-1.57,13.82,1.1,3.37,8.32,7.1,12.81,6.22l200.13-39.2c5.23-2.13,6.06-12.15,4.91-16.19-1.05-3.67-6.35-11.33-11.3-11.01Z"/>
  <path class="cls-1" d="M1580.15,455.71l-91.65,20.69-46.12,12.39c-4.83,4.67-2.01,17.43,6.77,19.48l135.91-26.98c9.08-1.8,13-8.09,11-16.3-1.57-6.43-8.29-11-15.9-9.28ZM1447.81,503.69l-2.78-12.54,141.12-30.1.33,13.81-138.66,28.82Z"/>
  <path class="cls-1" d="M498.72,763.06l-63.72-1.97-37.11-1.42c-10.29-.39-20.84-5.49-31.72,1.38l43.13,1.98,64.29,2.07,60.68,1.08c5.06.09,8.66,2.22,11.13,7.23l58.39,3.38,122.61,4.51c3.1-6.67,3.14-13.77-.36-20.11l-179.94-7.15c-3.91,1.79-8.2,2.98-11.75,2.8l-39.41-2.02-87.91-1.78c-13.02-.26-25.07-1.31-37.18-.42l20.17,2.88,59.17,1.44,59.85,1.95,32.57,1.68-.12,3.33-42.79-.84ZM548.38,763.18c.54.37.62.15.8-.41l1.48-4.65,137.18,5.96,37.56,1.82-.86,11.02-170.54-6.27c-2.3-.08-8.08-1.1-8.41-2.99l-1.26-7.31,4.04,2.82Z"/>
  <path class="cls-1" d="M557.34,1006.88c-31.82,25.83-66.86,43.81-96.11,74.65,34.7-22.58,66.33-47.21,101.02-72.87-.36-1.52-3.06-2.34-4.91-1.78Z"/>
  <path class="cls-1" d="M972.02,971.98h27.93s-.07,11.96-.07,11.96l-25.95.28v3.58s26.79.24,26.79.24c1.56-6.58,1.69-13.36-.13-20.41l-30.33,2.36-.08,16.12,1.79-1.09.04-13.05Z"/>
  <path class="cls-1" d="M1739.11,1081.55l-1.4,2.6,46.51,6.35c2.36.32,7.81-1.67,9.71-3.54l-27.89-2.75-26.93-2.66Z"/>
  <path class="cls-1" d="M1371.74,739.46c-10.51-2.56-17.25-3.68-26.01-2.81,8.96,2.63,17.57,3.78,26.01,2.81Z"/>
</svg>