<?xml version="1.0" encoding="UTF-8"?>
<svg id="Layer_6" data-name="Layer 6" xmlns="http://www.w3.org/2000/svg" viewBox="0 0 1280 1024">
  <g id="H5b5De.tif">
    <g>
      <path d="M696.49,765.77c-59.71,14.89-123.15,3.17-173.33-30.97-53.75-36.56-88.72-94.11-94.41-159-1.43-16.26-1.23-31.35,2.51-47.21,6.02-25.54,15.53-49.05,26.74-72.94,18.25-38.88,38.93-75.81,61.01-112.79,37.26-62.39,76.86-122.58,117.68-182.42,1.82-2.67,3.99-4.54,6.49-5,2.18-.4,5.98.85,7.59,3.22,38.18,55.99,75.32,112.12,110.51,170.28,32.68,54.01,70.69,119.97,90.51,178.91,7.43,22.1,10.29,43.55,8.23,66.81-8.13,91.49-73.74,168.71-163.53,191.1ZM633.14,755.32c40.8,2.2,79.59-7.14,113.69-27.73,56.38-34.03,93.23-93.43,97.33-159.19,1.25-20.01-1.71-37.83-8.21-56.27-5.87-16.67-11.89-32.14-19.48-48.32-15.89-33.38-33.04-65.37-51.84-97.43-37.73-64.36-77.88-126.04-120.33-188.45l-90.79,139.49c-27.01,43.88-52.75,87.69-75.35,133.78-13.21,28.12-31.3,66.9-33.17,96.77-3.32,53.02,16.54,104.93,52.52,143.49,35.45,38.01,82.84,61.02,135.64,63.87Z"/>
      <path d="M732.52,549.07l-.04,65.67-61.52,36.37-55.57-32.7-55.85,32.69-61.92-36.32-.15-72.62,55.87-33.12.08-22.48c.54-2.9,3.09-5.17,5.74-5.41,3.01-.27,6.69,2.1,6.72,5.44l.17,22.61,45.08,26.77c3.96,2.35,4.77,2.45,8.74.07l47.65-28.55c1.31-.78,4.36-.89,5.97-.6l53.4,31.64,16.75-10.67c3.02-1.92,7.07-1.69,9.01,1.39,1.8,2.87.89,6.49-2.11,8.77l-17.99,11.05ZM559.69,637.11l49.54-29.36.22-58.59-49.98-29.42-49.38,29.13-.34,58.66,49.93,29.59ZM671.11,637.05l49.48-29.29.02-58.73-49.68-29.26-49.07,29.14-.18,58.92,49.43,29.22Z"/>
      <path d="M645.55,717.57c19.23.55,37.04-2.72,55.25-9.26,42.57-15.29,76.44-47.54,94.21-89.28,8.21-19.28,11.98-39.5,12.56-60.47.14-5.05,1.95-8.35,7.42-9.11,3.19-.45,8.37,2.77,8.21,7.4l-.56,15.83c-5.12,62.29-43.96,117.27-100.35,144.12-24.74,11.78-51.34,17.91-78.66,16.42-4.51-.25-6.09-5.34-5.73-8.83.32-3.11,3.59-6.96,7.66-6.84Z"/>
      <path d="M723.08,482.99h-28.05c-3.71,0-6.35-3.53-6.35-6.89l.03-22.83-24.04.05c-3.26,0-6.53-2.76-6.54-6.23l-.07-28.14c.36-3.54,3.13-6.32,6.61-6.31l23.93.03.18-24.61c.02-2.81,3.31-5.52,5.89-5.52h28.26c3.33-.01,6.1,3.03,6.11,6.49l.06,23.65,23.79-.02c4.05,0,6.75,3.38,6.54,7.41l-.05,27.08c0,2.64-2.58,6.14-5.39,6.13l-24.95-.06.08,22.88c0,2.87-2.34,6.88-6.05,6.88ZM716.5,470.61v-23.71c0-3.79,3.62-6.26,7.24-6.22l23.06.29.04-15.73-24.94-.26c-2.01-.02-5.42-3.7-5.43-5.8l-.1-24.04-15.12-.05-.1,24.03c-.01,3.3-3.16,5.98-6.38,5.99l-24.08.06.08,15.69,23.13-.19c3.81-.03,7.28,2.1,7.28,6.34l.04,23.62,15.28-.02Z"/>
      <path d="M775.88,536.95c-6.8,1.13-13.35-.84-17.83-5.06-9.42-8.88-7.71-23.72,2.24-30.77,10.34-7.32,24.44-3.62,29.93,7.71,5.48,11.3-.41,25.81-14.33,28.12ZM769.37,510.69c-4.15,1.84-5.9,6.65-4.1,10.14,1.91,3.7,6.61,5.08,9.76,3.65,4.29-1.94,5.51-6.51,4.14-10.07-1.46-3.77-6.04-5.39-9.8-3.72Z"/>
      <path d="M553.3,439.22c11.64-3.64,22.34,2.54,25.57,13.6,2.85,9.77-2.92,21.18-13.03,24.33-10.55,3.29-21.89-1.96-25.29-12.51-3.28-10.17,1.33-21.86,12.75-25.43ZM555.51,451.89c-4.24,2.48-3.83,7.49-1.99,10.38,2.21,3.47,6.9,4.24,10.06,2.01s4.23-6.6,2.72-9.62c-1.82-3.64-7.04-4.96-10.78-2.77Z"/>
      <path d="M710.89,549.45c3.21,1.89,3.95,5.44,2.83,8.15-.89,2.14-5.12,4.29-7.74,2.76l-37.36-21.74c-2.64-1.54-3.4-5.55-2.43-8.24s5.66-4,8.74-2.19l35.97,21.26Z"/>
      <path d="M676.01,628.22c-3.4,2.03-7.49,1.55-9.14-1.22-1.84-3.1-.78-7.04,2.62-9.04l35.78-21.12c2.78-1.64,6.97.33,8.15,2.74,1.41,2.89.22,6.19-2.78,7.98l-34.63,20.66Z"/>
      <path d="M599.4,549.36c3.07,1.82,3.67,5.8,2.79,8.26s-4.97,4.34-7.79,2.69l-37.15-21.81c-2.8-1.64-3.51-5.36-2.51-7.99.77-2.03,5.49-4.36,8.02-2.86l36.64,21.71Z"/>
      <path d="M526.48,602.18c0,2.86-4.85,4.78-6.8,4.31-2.49-.59-4.72-3.07-4.97-6.01l.02-45.11c1.17-1.87,3.27-3.87,4.86-4.51,1.74-.7,6.85,1.33,6.85,3.37l.05,47.95Z"/>
      <path d="M564.45,628.32c-3.42,2.04-7.21,1.2-9.11-1.49-2.08-2.93-.76-6.74,2.64-8.75l35.78-21.11c2.63-1.55,6.29-.41,7.81,1.77,1.76,2.51,1.19,6.75-1.77,8.51l-35.36,21.06Z"/>
    </g>
  </g>
</svg>