<svg preserveAspectRatio="none" width="100%" height="100%" overflow="visible" style="display: block;" viewBox="0 0 1472.2 1257.43" fill="none" xmlns="http://www.w3.org/2000/svg">
<g id="Bold">
<path id="Ellipse 14" opacity="0.2" d="M309.213 630.394C304.744 541.442 294.728 483.4 369.901 422.286C450.162 357.034 447.582 284.765 574.569 282.523C820.491 278.181 1154.03 454.048 1163.27 637.973C1168.25 737.038 1013.28 807.405 922.678 870.062C845.062 923.736 841.4 976.979 725.615 979.023C474.665 983.454 318.454 814.32 309.213 630.394Z" fill="url(#paint0_radial_1656_1011)"/>
<path id="Ellipse 16" d="M720.307 1021.67C592.272 1018.24 477.642 972.982 394.359 903.107C305.437 828.502 252.248 725.84 256.628 616.076C265.11 403.508 486.912 229.068 751.65 236.16C894.241 239.979 986.039 379.463 1070.61 462.781C1143.06 534.154 1219.32 541.675 1215.33 641.757C1206.67 858.67 985.045 1028.76 720.307 1021.67Z" fill="var(--fill-0, white)"/>
<path id="Ellipse 17" opacity="0.2" d="M720.307 1021.67C592.272 1018.24 477.642 972.982 394.359 903.107C305.437 828.502 252.248 725.84 256.628 616.076C265.11 403.508 486.912 229.068 751.65 236.16C894.241 239.979 986.039 379.463 1070.61 462.781C1143.06 534.154 1219.32 541.675 1215.33 641.757C1206.67 858.67 985.045 1028.76 720.307 1021.67Z" fill="url(#paint1_radial_1656_1011)"/>
<path id="Ellipse 19" opacity="0.2" d="M721.202 1021.51C593.158 1018.29 478.418 973.22 394.963 903.482C305.859 829.024 252.419 726.449 256.53 616.678C264.49 404.097 485.865 229.292 750.619 235.948C893.219 239.533 985.359 378.866 1070.14 462.045C1142.76 533.298 1219.04 540.694 1215.29 640.782C1207.17 857.709 985.956 1028.17 721.202 1021.51Z" fill="url(#paint2_radial_1656_1011)"/>
<path id="Ellipse 21" opacity="0.2" d="M745.282 978.024C636.705 981.407 565.974 989.428 490.089 927.679C409.068 861.75 320.837 863.638 316.011 759.642C306.664 558.244 515.994 285.66 740.498 278.666C861.419 274.898 949.917 402.014 1027.94 476.406C1094.78 540.132 1159.87 543.296 1164.27 638.119C1173.81 843.634 969.786 971.029 745.282 978.024Z" fill="url(#paint3_radial_1656_1011)"/>
<path id="Ellipse 22" opacity="0.2" d="M1216.21 628.967C1216.21 733.929 1160.86 711.025 1078.35 781.51C990.251 856.767 870.642 1021.93 736.606 1021.93C477.034 1021.93 257 845.996 257 628.967C257 512.072 424.146 432.339 523.016 360.356C607.711 298.694 614.394 236 736.606 236C1001.49 236 1216.21 411.937 1216.21 628.967Z" fill="url(#paint4_radial_1656_1011)"/>
<path id="Ellipse 23" opacity="0.2" d="M994.507 959.994C910.788 1039.44 837.248 999.842 736.645 996.198C629.232 992.307 495.194 1018.74 423.099 926.153C283.48 746.858 305.458 461.707 478.564 297.437C571.801 208.959 725.302 264.062 835.897 277.871C930.636 289.7 984.236 246.863 1049.97 331.279C1192.45 514.239 1167.61 795.724 994.507 959.994Z" fill="url(#paint5_radial_1656_1011)"/>
<path id="Ellipse 24" opacity="0.2" d="M1153.82 435.289C1191.82 535.527 1181.51 647.296 1135.15 747.813C1085.65 855.135 995.061 949.629 878.305 1003.57C652.194 1108.02 396.832 1028.54 318.263 821.281C275.944 709.647 392.678 566.242 452.744 457.713C504.197 364.745 487.322 302.183 593.78 253.004C824.513 146.415 1075.25 228.027 1153.82 435.289Z" fill="url(#paint6_radial_1656_1011)"/>
<path id="Ellipse 25" opacity="0.2" d="M451.61 375.464C507.189 299.297 542.775 341.61 629.084 334.02C721.236 325.917 864.848 272.731 944.423 343.489C1098.53 480.52 1136 724.348 1021.08 881.838C959.182 966.664 817.731 936.286 720.918 936.327C637.986 936.362 600.821 978.329 528.266 913.813C371.012 773.981 336.692 532.954 451.61 375.464Z" fill="url(#paint7_radial_1656_1011)"/>
<path id="Ellipse 26" opacity="0.2" d="M740.378 979.597C633.895 984.067 564.465 992.818 490.746 931.594C412.037 866.227 325.518 868.995 321.924 764.668C314.964 562.627 523.167 286.977 743.341 277.735C861.929 272.757 947.298 399.461 1022.97 473.352C1087.8 536.649 1151.58 539.181 1154.86 634.305C1161.96 840.476 960.551 970.355 740.378 979.597Z" fill="url(#paint8_radial_1656_1011)"/>
<path id="Ellipse 27" opacity="0.2" d="M847.186 1011.11C722.497 1035.19 737.01 985.792 634.352 936.153C524.745 883.155 301.104 825.648 270.362 718.753C210.826 511.741 369.361 295.909 627.179 246.131C766.043 219.32 899.098 334.333 1007.29 396.673C1099.96 450.075 1175.97 441.025 1204 538.491C1264.76 749.734 1105 961.334 847.186 1011.11Z" fill="url(#paint9_radial_1656_1011)"/>
<path id="Ellipse 31" opacity="0.2" d="M1216.21 628.619C1216.21 708.915 1160.86 691.394 1078.35 745.316C990.251 802.887 870.642 929.239 736.606 929.239C477.034 929.239 257 794.647 257 628.619C257 539.195 424.146 478.2 523.016 423.133C607.711 375.961 614.394 328 736.606 328C1001.49 328 1216.21 462.592 1216.21 628.619Z" fill="url(#paint10_radial_1656_1011)"/>
<path id="Ellipse 28" opacity="0.2" d="M1021.07 392.915C1110.65 442.729 1161.47 513.338 1172.62 587.443C1184.53 666.564 1151.23 749.67 1071.63 815.706C917.468 943.592 636.629 968.5 451.395 865.499C351.626 810.022 382.842 689.832 380.124 606.958C377.796 535.966 328.255 502.919 400.836 442.708C558.147 312.208 835.835 289.914 1021.07 392.915Z" fill="url(#paint11_radial_1656_1011)"/>
<path id="Ellipse 32" opacity="0.2" d="M822.027 1038.81C688.294 1057.6 707.568 1006.15 602.992 948.193C491.337 886.309 259.488 813.567 235.495 698.919C189.03 476.893 373.804 257.193 650.321 218.344C799.257 197.419 930.764 326.115 1040.18 397.798C1133.9 459.204 1214.98 453.698 1236.85 558.232C1284.27 784.797 1098.54 999.958 822.027 1038.81Z" fill="url(#paint12_radial_1656_1011)"/>
<path id="Ellipse 30" opacity="0.2" d="M988.99 348.354C1070.86 413.776 1118.16 503.339 1129.74 595.581C1142.1 694.067 1113.74 795.607 1043.25 874.079C906.731 1026.05 653.781 1045.21 484.503 909.935C393.329 837.075 419.048 689.52 414.903 586.769C411.353 498.749 365.967 455.76 430.244 384.209C569.554 229.133 819.713 213.08 988.99 348.354Z" fill="url(#paint13_radial_1656_1011)"/>
<path id="Ellipse 13" opacity="0.2" d="M1073.9 348.498C1179.9 407.439 1123.18 442.011 1136.38 529.693C1150.47 623.311 1227.91 770.618 1133.72 848.754C951.315 1000.07 619.02 1029.54 399.847 907.67C281.798 842.028 318.734 699.816 315.517 601.758C312.762 517.759 254.145 478.658 340.025 407.414C526.159 253.003 854.724 226.625 1073.9 348.498Z" fill="url(#paint14_radial_1656_1011)"/>
<path id="Ellipse 15" opacity="0.2" d="M1052.6 924.609C955.802 993.359 940.456 944.243 821.086 939.553C693.635 934.545 462.506 969.007 374.193 886.393C203.166 726.404 220.444 475.547 420.595 333.393C528.399 256.827 712.06 307.623 843.588 321.414C956.258 333.228 1018.48 296.282 1099 371.608C1273.53 534.868 1252.75 782.455 1052.6 924.609Z" fill="url(#paint15_radial_1656_1011)"/>
<path id="Ellipse 18" opacity="0.2" d="M1048.59 927.158C951.449 995.58 863.591 959.068 744.567 953.747C617.485 948.067 459.626 968.609 372.252 885.329C203.042 724.047 222.439 472.643 423.303 331.166C531.491 254.965 714.244 306.843 845.317 321.35C957.597 333.778 1019.98 297.061 1099.65 372.996C1272.31 537.574 1249.46 785.681 1048.59 927.158Z" fill="url(#paint16_radial_1656_1011)"/>
<path id="Ellipse 20" opacity="0.2" d="M362.852 381.948C443.212 300.206 489.26 342.047 607.483 329.566C733.71 316.239 932.833 253.534 1037.22 322.426C1239.36 455.843 1276.02 705.952 1109.86 874.968C1020.36 966.003 829.151 942.186 697.043 947.426C583.875 951.915 530.671 997.305 435.496 934.49C229.215 798.346 196.691 550.964 362.852 381.948Z" fill="url(#paint17_radial_1656_1011)"/>
<path id="Ellipse 29" opacity="0.2" d="M1129.17 854.699C1220.79 781.342 1173.03 717.07 1166.93 629.068C1160.43 535.11 1188.98 417.814 1079.13 354.885C866.394 233.018 532.482 252.676 343.031 404.357C240.991 486.054 308.376 620.253 326.571 716.98C342.157 799.839 292.907 846.794 393.067 904.171C610.152 1028.53 939.715 1006.38 1129.17 854.699Z" fill="url(#paint18_radial_1656_1011)"/>
</g>
<defs>
<radialGradient id="paint0_radial_1656_1011" cx="0" cy="0" r="1" gradientTransform="matrix(-17.5486 -349.274 426.542 -7.53154 735.909 629.258)" gradientUnits="userSpaceOnUse">
<stop stop-color="#D1BBFD" stop-opacity="0"/>
<stop offset="0.411458" stop-color="#D1BBFD" stop-opacity="0.109375"/>
<stop offset="1" stop-color="#6A93FF"/>
</radialGradient>
<radialGradient id="paint1_radial_1656_1011" cx="0" cy="0" r="1" gradientTransform="matrix(-479.35 -12.8403 15.6713 -392.757 735.978 628.916)" gradientUnits="userSpaceOnUse">
<stop stop-color="#E1F1FE" stop-opacity="0"/>
<stop offset="0.421875" stop-color="#E1F1FE" stop-opacity="0.0989583"/>
<stop offset="1" stop-color="#E1F1FE"/>
</radialGradient>
<radialGradient id="paint2_radial_1656_1011" cx="0" cy="0" r="1" gradientTransform="matrix(-479.381 -12.0517 14.7088 -392.782 735.91 628.73)" gradientUnits="userSpaceOnUse">
<stop stop-color="#F3DAFA" stop-opacity="0"/>
<stop offset="0.307292" stop-color="#F3DAFA" stop-opacity="0.0885417"/>
<stop offset="0.848958" stop-color="#F3DAFA"/>
</radialGradient>
<radialGradient id="paint3_radial_1656_1011" cx="0" cy="0" r="1" gradientTransform="matrix(-426.333 13.2834 -16.2121 -349.317 736.879 628.6)" gradientUnits="userSpaceOnUse">
<stop stop-color="#D1BBFD" stop-opacity="0"/>
<stop offset="0.411458" stop-color="#D1BBFD" stop-opacity="0.109375"/>
<stop offset="1" stop-color="#6A93FF"/>
</radialGradient>
<radialGradient id="paint4_radial_1656_1011" cx="0" cy="0" r="1" gradientUnits="userSpaceOnUse" gradientTransform="translate(736.606 628.967) rotate(90) scale(392.967 479.606)">
<stop stop-color="#D8F7F9" stop-opacity="0"/>
<stop offset="0.453125" stop-color="#D8F7F9" stop-opacity="0.0885417"/>
<stop offset="1" stop-color="#D6F8FF"/>
</radialGradient>
<radialGradient id="paint5_radial_1656_1011" cx="0" cy="0" r="1" gradientTransform="matrix(-313.436 297.437 -257.972 -331.279 736.535 628.716)" gradientUnits="userSpaceOnUse">
<stop stop-color="#C2C5FD" stop-opacity="0"/>
<stop offset="0.510417" stop-color="#C5C8FD" stop-opacity="0.0989583"/>
<stop offset="1" stop-color="#E8F2FF"/>
</radialGradient>
<radialGradient id="paint6_radial_1656_1011" cx="0" cy="0" r="1" gradientTransform="matrix(142.263 375.281 -417.78 192.996 736.042 628.285)" gradientUnits="userSpaceOnUse">
<stop stop-color="#F3DAFA" stop-opacity="0"/>
<stop offset="0.307292" stop-color="#F3DAFA" stop-opacity="0.0885417"/>
<stop offset="0.848958" stop-color="#F3DAFA"/>
</radialGradient>
<radialGradient id="paint7_radial_1656_1011" cx="0" cy="0" r="1" gradientTransform="matrix(208.078 -285.162 284.734 253.187 736.344 628.651)" gradientUnits="userSpaceOnUse">
<stop stop-color="#F3F3FD" stop-opacity="0"/>
<stop offset="0.546875" stop-color="#F3F3FD" stop-opacity="0.0989583"/>
<stop offset="1" stop-color="#F3F3FD"/>
</radialGradient>
<radialGradient id="paint8_radial_1656_1011" cx="0" cy="0" r="1" gradientTransform="matrix(-418.108 17.5514 -12.0714 -350.431 735.963 628.982)" gradientUnits="userSpaceOnUse">
<stop stop-color="#D1BBFD" stop-opacity="0"/>
<stop offset="0.411458" stop-color="#D1BBFD" stop-opacity="0.109375"/>
<stop offset="1" stop-color="#6A93FF"/>
</radialGradient>
<radialGradient id="paint9_radial_1656_1011" cx="0" cy="0" r="1" gradientTransform="matrix(-466.821 90.1313 -110.003 -382.491 737.182 628.622)" gradientUnits="userSpaceOnUse">
<stop stop-color="#D8F7F9" stop-opacity="0"/>
<stop offset="0.453125" stop-color="#D8F7F9" stop-opacity="0.0885417"/>
<stop offset="1" stop-color="#D6F8FF"/>
</radialGradient>
<radialGradient id="paint10_radial_1656_1011" cx="0" cy="0" r="1" gradientUnits="userSpaceOnUse" gradientTransform="translate(736.606 628.619) rotate(90) scale(300.619 479.606)">
<stop stop-color="#D8F7F9" stop-opacity="0"/>
<stop offset="0.453125" stop-color="#D8F7F9" stop-opacity="0.0885417"/>
<stop offset="1" stop-color="#D6F8FF"/>
</radialGradient>
<radialGradient id="paint11_radial_1656_1011" cx="0" cy="0" r="1" gradientTransform="matrix(335.395 186.499 -284.836 236.292 736.232 629.207)" gradientUnits="userSpaceOnUse">
<stop stop-color="#E1F1FE" stop-opacity="0"/>
<stop offset="0.421875" stop-color="#E1F1FE" stop-opacity="0.0989583"/>
<stop offset="1" stop-color="#E1F1FE"/>
</radialGradient>
<radialGradient id="paint12_radial_1656_1011" cx="0" cy="0" r="1" gradientTransform="matrix(-500.679 70.3435 -85.8526 -410.232 736.174 628.576)" gradientUnits="userSpaceOnUse">
<stop stop-color="#D8F7F9" stop-opacity="0"/>
<stop offset="0.453125" stop-color="#D8F7F9" stop-opacity="0.0885417"/>
<stop offset="1" stop-color="#D6F8FF"/>
</radialGradient>
<radialGradient id="paint13_radial_1656_1011" cx="0" cy="0" r="1" gradientTransform="matrix(306.503 244.935 -252.243 280.791 736.747 629.144)" gradientUnits="userSpaceOnUse">
<stop stop-color="#F3DAFA" stop-opacity="0"/>
<stop offset="0.307292" stop-color="#F3DAFA" stop-opacity="0.0885417"/>
<stop offset="0.848958" stop-color="#F3DAFA"/>
</radialGradient>
<radialGradient id="paint14_radial_1656_1011" cx="0" cy="0" r="1" gradientTransform="matrix(396.847 220.67 -337.025 279.586 736.872 628.084)" gradientUnits="userSpaceOnUse">
<stop stop-color="#F3F3FD" stop-opacity="0"/>
<stop offset="0.546875" stop-color="#F3F3FD" stop-opacity="0.0989583"/>
<stop offset="1" stop-color="#F3F3FD"/>
</radialGradient>
<radialGradient id="paint15_radial_1656_1011" cx="0" cy="0" r="1" gradientTransform="matrix(-362.405 257.393 -316.003 -295.608 736.598 629.001)" gradientUnits="userSpaceOnUse">
<stop stop-color="#D8F7F9" stop-opacity="0"/>
<stop offset="0.723958" stop-color="#D8F7F9" stop-opacity="0.0885417"/>
<stop offset="1" stop-color="#D8F7F9"/>
</radialGradient>
<radialGradient id="paint16_radial_1656_1011" cx="0" cy="0" r="1" gradientTransform="matrix(-363.697 256.166 -312.645 -297.996 735.948 629.162)" gradientUnits="userSpaceOnUse">
<stop stop-color="#C2C5FD" stop-opacity="0"/>
<stop offset="0.510417" stop-color="#C5C8FD" stop-opacity="0.0989583"/>
<stop offset="1" stop-color="#E8F2FF"/>
</radialGradient>
<radialGradient id="paint17_radial_1656_1011" cx="0" cy="0" r="1" gradientTransform="matrix(300.86 -306.032 373.504 246.51 736.356 628.458)" gradientUnits="userSpaceOnUse">
<stop stop-color="#F3F3FD" stop-opacity="0"/>
<stop offset="0.546875" stop-color="#F3F3FD" stop-opacity="0.0989583"/>
<stop offset="1" stop-color="#F3F3FD"/>
</radialGradient>
<radialGradient id="paint18_radial_1656_1011" cx="0" cy="0" r="1" gradientTransform="matrix(343.031 -274.643 -393.067 -225.171 736.098 629.528)" gradientUnits="userSpaceOnUse">
<stop stop-color="#C2C5FD" stop-opacity="0"/>
<stop offset="0.510417" stop-color="#C5C8FD" stop-opacity="0.0989583"/>
<stop offset="1" stop-color="#E8F2FF"/>
</radialGradient>
</defs>
</svg>
