<?xml version="1.0" encoding="UTF-8"?>
<svg id="Lag_1" data-name="Lag 1" xmlns="http://www.w3.org/2000/svg" viewBox="0 0 206.7 206.78">
  <defs>
    <style>
      .cls-1 {
        fill: #002bb3;
      }
    </style>
  </defs>
  <path class="cls-1" d="M120.04,149.04c-5.39-.12-9.65-2.6-11.33-7.37l-53.63.04c-1.42,1.81-3.4,2.75-5.15,2.12-2.45-.89-2.88-3.3-2.35-5.78l-5.97-.7c-3.02-.36-5.48-3.3-6.12-5.4-1.09-3.59-.17-6.9,2.39-9.16s5.61-2.89,9.51-2.4l.09-9.05c-4.31.5-8.31-.2-10.98-3.58-1.82-2.31-2.14-5.32-1.09-8.19.69-1.9,2.88-4.9,5.57-5.15l6.4-.59.15-8.58-6.85-.37c-4.02-.22-6.25-4.38-6.34-7.91s1.86-6.93,5.77-8.58c1.86-.78,5.11-.73,7.27-.97.74-1.36,2.07-3.23,3.47-3.28,2.03-.08,3.41,1.27,4.42,3.43l81.64.11c.76-1.58,2.1-3.29,3.71-3.45,2.04-.21,3.63,1.77,4.49,3.57,3.66-.25,7.65.3,9.9,3.14s2.98,7.04.86,10.35c-2.32,3.61-6.36,4.51-11.01,3.73l-.06,8.9,5.2.44c5.1.43,7.27,6.09,6.47,10.2-1.02,5.24-5.89,7.6-11.6,6.63l-.16,9.23c3.86-.38,7.48.25,10.1,3.08s2.71,6.75.95,9.96c-1.62,2.96-4.99,4.37-8.71,4.51l-2.01.08c-.65.02.81,4.25-1.96,5.99-1.26.79-3.63.56-4.61-.32-1.44-1.3-1.43-2.97-1.07-5.67l-4.8-.04c-.43,6.79-5.59,11.21-12.55,11.05ZM47.43,82.77l.02-12.67-5.66.33c-3.05.18-4.85,3.44-4.99,6s1.8,5.94,4.75,6.08l5.88.27ZM53.09,82.34l-.22-12.03-3.2-.04.03,12.48,3.39-.41ZM132.73,82.91l4.37-.24.03-12.43-82.02.02.05,12.4,52.89-.04c1.67-6.19,6.5-9.99,12.58-9.85,5.85.13,10.53,4.12,12.11,10.14ZM142.62,82.59l-.08-12.52-3.13.47v12.53s3.22-.49,3.22-.49ZM150.14,82.48c3.39-.2,4.73-3.94,4.5-6.6-.2-2.33-2.02-5.31-4.85-5.44l-5.04-.24.04,12.6,5.34-.31ZM130.02,137.04l.02-51.85c0-5.4-3.78-9.66-8.92-10.08-4.44-.36-10.36,2.88-10.36,8.27v55.69c0,5.15,6.2,7.81,10.07,7.49,4.97-.42,9.19-3.86,9.19-9.51ZM52.42,92.95l.2-7.64-3.1.19.19,8.05c.02.71,2.68.22,2.7-.6ZM107.82,94.25l-.18-9.12-52.68.09.25,9.05,52.61-.02ZM137.02,93.64l.12-8.47-4.44.08-.1,8.46,4.42-.06ZM142.54,92.92l.19-7.44-3.38-.02-.02,7.82c0,1.02,3.18.63,3.21-.36ZM47.46,109l-.04-12.77-4.69.1c-3.16.07-5.32,3.47-5.36,6.11-.05,2.93,1.92,5.33,4.82,6.38l5.27.18ZM52.53,109.09l-.13-13-2.43.2c-.37.03-.33,1.17-.33,1.59l.05,11.12,2.84.08ZM107.8,108.57v-12.25s-52.72,0-52.72,0l-.03,12.49,52.75-.23ZM137.12,109l.04-12.86h-4.53s.02,12.84.02,12.84l4.47.02ZM142.85,108.8l-.26-12.6-3.21.35.07,12.58,3.4-.33ZM152.29,107.18c2.69-2.57,2.57-6.83.04-9.14-1.97-1.8-5.07-2.05-7.58-1.88v12.68c2.32.34,5.59.21,7.54-1.66ZM52.45,120.25v-8.87s-2.74.01-2.74.01l-.11,8.77,2.85.08ZM107.73,111.95l-32.65-.28-19.99-.33-.17,8.91,52.95.06-.13-8.35ZM137.1,120.26l-.03-8.89-4.45.19-.02,8.76,4.49-.06ZM142.63,120.24l-.11-8.81-3.04-.03-.19,8.94,3.33-.09ZM47.41,135.36v-12.56s-5.63.37-5.63.37c-2.74.18-4.25,3.64-4.22,6,.02,2.12,1.45,5.1,3.86,5.73,1.9.49,4.01.49,6,.47ZM52.49,134.82l-.07-11.87-2.79-.12.08,12.71c1.18-.17,2.43-.44,2.78-.72ZM107.84,135.4v-12.51s-52.66-.11-52.66-.11l-.05,12.59,52.71.03ZM137.12,135.31v-12.51s-4.58.03-4.58.03l.17,12.65,4.41-.17ZM142.75,134.61l-.11-11.53-3.2-.28v12.74c1.03.11,3.19-.29,3.31-.93ZM148.21,135.36c3.53-.03,5.9-2.67,6.16-5.63s-1.06-5.88-4.63-6.67c-1.21-.27-3.45-.21-4.94-.17v12.5s3.4-.03,3.4-.03ZM49.87,141.58c1.28-.06,2.49-.25,2.49-.88v-2.49c0-.52-1.69-.36-2.64-.3l.15,3.66ZM108.04,139.85c-.43-1.12-.72-1.64-1.05-1.94l-51.85.03-.18,1.94,53.09-.03ZM142.49,137.87l-2.88.2c-.28.02-.4,3.61.27,3.69l2.19.28.42-4.17Z"/>
  <polygon class="cls-1" points="119.75 137.37 119.73 87.26 120.89 86.8 120.97 137.04 119.75 137.37"/>
  <path class="cls-1" d="M95.52,77.31l-12.49.39-19.68.35c-.72.01-2.25-1.11-2.1-1.73s1.2-1.43,2.02-1.75l31.54.33,1.25.4c.41.13.03,1.98-.54,2Z"/>
  <path class="cls-1" d="M96.69,128.07l-20.02.52h-15.5s.25-1.71.25-1.71h20.19s13.56.18,13.56.18c.42,0,1.63.98,1.52,1.01Z"/>
  <path class="cls-1" d="M95.17,104.11l-32.49.08-1.44-1.13c-.42-.33.97-1.41,1.51-1.55l32.72.03,1.08,1.18c.29.31-.63,1.03-1.38,1.4Z"/>
</svg>