<svg width="1286" height="429" viewBox="0 0 1286 429" fill="none" xmlns="http://www.w3.org/2000/svg">
<mask id="mask0_642_240" style="mask-type:alpha" maskUnits="userSpaceOnUse" x="-1" y="0" width="1281" height="429">
<path d="M1277.84 2.90533C1277.51 1.0005 1275.7 -0.277159 1273.8 0.051604C1271.89 0.380367 1270.61 2.19105 1270.94 4.09589L1274.39 3.50061L1277.84 2.90533ZM-0.305664 425.501L-0.117236 428.996C214.344 417.433 543.232 369.647 813.587 295.84C948.736 258.944 1069.49 215.485 1154.04 166.674C1196.31 142.274 1229.74 116.415 1251.38 89.186C1273.06 61.8999 1283.04 33.0283 1277.84 2.90533L1274.39 3.50061L1270.94 4.09589C1275.71 31.7233 1266.72 58.6301 1245.9 84.8312C1225.04 111.09 1192.44 136.426 1150.54 160.612C1066.77 208.974 946.696 252.245 811.744 289.087C541.896 362.755 213.501 410.468 -0.494092 422.006L-0.305664 425.501Z" fill="black"/>
</mask>
<g mask="url(#mask0_642_240)">
<rect y="-9.40295" width="1312" height="443" fill="#00E5FF"/>
</g>
</svg>
