<?xml version="1.0" encoding="UTF-8"?>
<svg id="Lag_1" data-name="Lag 1" xmlns="http://www.w3.org/2000/svg" viewBox="0 0 206.7 206.78">
  <defs>
    <style>
      .cls-1 {
        fill: #002bb3;
      }
    </style>
  </defs>
  <path class="cls-1" d="M131.17,128.93h-47.96c-.17,8.47-5.68,14.31-13.84,14.33-7.97.02-13.88-5.55-14.36-14.37-2.02.45-7.06.03-7.61-1.73-1.04-3.4-.86-7.94-.41-12.06l83.81-.04-.53-37.76,22.2-.21c1.61-.02,4.91,2.03,5.8,3.39l10.17,15.61-.13,30.58c-1.65,1.94-5.76,2.66-8.45,2.42-.89,7.86-6.18,13.92-13.43,14.18-7.96.28-14.79-4.65-15.28-14.33ZM164.99,99.61l-26.97-.33.21-18.93-4.38.22-.24,34.57,31.43-.04-.05-15.49ZM164.23,96.16l-9.98-15.6-13.4-.03.28,15.77,23.1-.15ZM55.19,125.43l5.02-7.08h-10.27s0,7.43,0,7.43l5.24-.36ZM67.26,118.89c-6.31,1.39-9.9,7.06-8.38,13.04,1.36,5.35,7.11,9.15,12.74,7.69,5.67-1.48,9.46-6.86,7.93-12.55-1.43-5.28-6.56-9.44-12.28-8.18ZM131.7,125.58c1.77-3.34,2.72-4.75,4.68-7.09h-58.03s4.28,7.04,4.28,7.04l49.07.05ZM141.86,119.13c-6.28,2.15-8.44,9.31-6.31,14.33s8.02,7.68,13.1,5.94c5.6-1.92,8.96-8.1,6.93-13.38s-7.78-8.92-13.72-6.89ZM165.01,125v-6.48s-10.3-.05-10.3-.05l4.28,6.19c.88,1.28,5.04,1.2,6.02.34Z"/>
  <path class="cls-1" d="M108.19,111.65l-51.48-.45c-11.02-.1-17.64-12.39-18-22.29-.41-11.29,4.93-21.56,15.81-25.15,3.18-1.05,8.17-.77,11.63-.9.74-2.91,3.74-6.85,6.85-6.87l22.29-.08c2.95-.01,5.66,3.81,6.04,6.96,10.6-1.46,20.35,3.04,24.64,13.25,2.8,6.66,2.95,14.46.4,21.51-2.68,7.42-9.45,14.1-18.18,14.03ZM97.88,62.82c.24-1.26-1.56-3.61-2.67-3.62l-21.36-.09c-1.81,0-3.95,2.05-3.96,3.8l28-.1ZM102.58,108.31v-42.09s-39.82.03-39.82.03l.06,42.16,39.76-.1ZM109.11,104.94l.04-36.1c0-.77-.59-2.74-1.14-2.76l-2.26-.07.13,42.27,3.56-.36c.5-.05-.14-1.97-.33-2.98ZM59.56,107.74l-.22-41.1-3.17-.03.06,41.71,3.33-.58ZM124.71,86.07c-.42-8.99-4.81-15.82-12.51-19.29l.02,40.96c8.84-3.79,12.95-12.02,12.5-21.66ZM53.25,106.83l-.27-38.99c-6.68,3.94-11.06,10.87-10.97,18.65.09,7.91,2.6,15.9,11.24,20.34Z"/>
  <path class="cls-1" d="M65.49,124.13c3.72-2.44,7.92-.83,9.5,2.27,1.41,2.76.92,6.7-2.54,8.68-2.4,1.37-6.68.92-8.8-2.27-1.35-2.02-1.24-6.66,1.83-8.68ZM68.19,126.1c-1.63.72-2.47,3.44-1.8,4.64.7,1.26,3.35,2.41,4.39,1.65,1.14-.82,2.12-3.34,1.7-4.56-.36-1.05-3.28-2.18-4.29-1.73Z"/>
  <path class="cls-1" d="M144.24,122.87c3.37-.67,6.68,2.08,7.28,4.48,1.06,4.18-.84,7.55-4.98,8.37-2.95.59-6.91-1.29-7.76-5.33-.55-2.6,1.77-6.79,5.45-7.52ZM144.21,126.18c-1.47.43-2.62,3.53-2.01,4.73s3.51,2.38,4.62,1.67,2.02-3.36,1.7-4.64c-.28-1.09-3.04-2.14-4.31-1.77Z"/>
</svg>