<?xml version="1.0" encoding="UTF-8"?>
<svg id="Lag_1" data-name="Lag 1" xmlns="http://www.w3.org/2000/svg" viewBox="0 0 206.7 206.78">
  <defs>
    <style>
      .cls-1 {
        fill: #002bb3;
      }
    </style>
  </defs>
  <path class="cls-1" d="M24.88,146.07l-.11-48.17,32.87-18.58c.4,6.07.35,10.83.31,16.22l28.48-16.37c.72,5.89.57,10.44.62,15.68l24.93-14.15,1.62-.09c.36-.02.51,1.17.52,1.64l.07,13.39,5.38-3.2.23-29.29c.06-7.91,7.47-11.48,14.27-10.85,5.34.5,10.58.33,15.76.08,4.47-.22,8.07.2,11.2,3.25,2.92,2.85,3.59,7.12,3.69,11.33,3.44,1.38,8.4,3.75,8.4,8.66l.03,60.53c0,7.22-5.59,11.56-12.36,11.36-5.63-.16-10.97-3-11.31-9.17l-.36-6.72-6.97-.07-.22,14.49-117.05.02ZM132.23,57.06c6.17.28,12.14.52,18.24.15,2.49-.15,4.74-.13,6.72,1.6,3.29,2.88,2.12,8.26,2.7,8.26l2.36-.02c.52,0,.3-1.93.26-2.3.05-6.42-4.62-10.69-10.81-10.92l-19.43.07c-5.37.02-10.57,3.91-10.6,9.63l-.17,28.05,2.94-2.05.03-24.85c0-4.25,3.05-7.85,7.76-7.64ZM142.11,95.47h6.95s.05-18.68.05-18.68c.01-5.06,3.68-8.95,8.54-9.74.21-1.87.11-4.29-.8-5.78-.69-1.14-2.92-2.5-4.53-2.51l-18.9-.15c-3.22-.03-6.93,1.69-6.94,5.54l-.12,24.7,12.79-7.57c.56-.33,1.94-.46,2.28-.09.26.28.64,1.29.64,1.76l.03,12.51ZM171,95.81l-.22-18.83c-.06-4.89-4.73-8.09-9.39-7.34-4.6-.93-9.67,1.98-9.75,7.04l-.27,18.94,19.63.19ZM139.47,143.51v-59.39s-27.46,15.62-27.46,15.62c-.61-5.88-.46-10.78-.47-16.04l-26.64,14.99c-.4-5.91-.43-10.09-.5-15.56l-28.54,16.36c-.44-6.21-.26-10.05-.19-16.18l-28.48,16.19.09,44.01h112.19ZM148.96,123.99l.09-25.91-6.95.06v25.92s6.86-.07,6.86-.07ZM171.04,129.59l-.05-31.38h-19.57s-.06,31.38-.06,31.38h19.69ZM149.06,129.42l-.05-3.22h-7.09s.1,3.24.1,3.24l7.04-.02ZM170.6,137.62l.19-6.1h-19.18s.17,5.9.17,5.9c.14,4.9,4.47,7.65,9.01,7.84,4.79.2,9.66-2.59,9.81-7.64Z"/>
  <polygon class="cls-1" points="95.92 121.17 90.39 121.31 90.36 111.21 95.9 111.27 95.92 121.17"/>
  <polygon class="cls-1" points="95.94 135.83 90.39 135.75 90.43 125.82 95.91 125.8 95.94 135.83"/>
  <polygon class="cls-1" points="105.69 135.83 100.08 135.73 100.12 125.86 105.63 125.78 105.69 135.83"/>
  <polygon class="cls-1" points="105.65 121.28 100.1 121.19 100.12 111.21 105.65 111.26 105.65 121.28"/>
  <polygon class="cls-1" points="86.36 121.3 80.79 121.19 80.8 111.26 86.28 111.24 86.36 121.3"/>
  <polygon class="cls-1" points="115.35 135.81 109.66 135.81 109.66 125.94 115.19 125.98 115.35 135.81"/>
  <polygon class="cls-1" points="115.24 121.18 109.74 121.31 109.71 111.17 115.19 111.24 115.24 121.18"/>
  <polygon class="cls-1" points="86.36 135.81 80.84 135.73 80.94 125.88 86.28 125.75 86.36 135.81"/>
  <polygon class="cls-1" points="67.01 135.9 61.55 135.57 61.56 125.85 66.94 125.76 67.01 135.9"/>
  <polygon class="cls-1" points="57.44 120.98 51.81 121.28 51.93 111.18 57.34 111.26 57.44 120.98"/>
  <polygon class="cls-1" points="67.01 121.25 61.61 121.25 61.52 111.23 66.97 111.3 67.01 121.25"/>
  <polygon class="cls-1" points="124.69 135.74 119.56 135.82 119.4 125.98 124.62 125.76 124.69 135.74"/>
  <polygon class="cls-1" points="134.37 135.77 129.13 135.82 129.06 125.81 134.34 125.77 134.37 135.77"/>
  <polygon class="cls-1" points="124.74 120.94 119.4 121.31 119.47 111.17 124.59 111.24 124.74 120.94"/>
  <polygon class="cls-1" points="134.46 120.89 129.12 121.33 129 111.18 134.22 111.24 134.46 120.89"/>
  <polygon class="cls-1" points="76.79 121.22 71.37 121.25 71.35 111.19 76.7 111.34 76.79 121.22"/>
  <polygon class="cls-1" points="38.01 135.8 32.63 135.81 32.54 125.99 37.95 125.75 38.01 135.8"/>
  <polygon class="cls-1" points="76.81 135.79 71.37 135.8 71.33 125.99 76.73 125.76 76.81 135.79"/>
  <polygon class="cls-1" points="37.99 120.91 32.64 121.31 32.6 111.11 38.01 111.52 37.99 120.91"/>
  <path class="cls-1" d="M47.87,120.83c-1.41.31-3.54.46-5.49.47l.02-10.16,5.23.26.23,9.44Z"/>
  <polygon class="cls-1" points="57.42 135.81 51.94 135.8 51.85 126.02 57.31 125.72 57.42 135.81"/>
  <polygon class="cls-1" points="47.81 135.57 42.41 135.87 42.34 125.94 47.68 125.74 47.81 135.57"/>
</svg>