<?xml version="1.0" encoding="UTF-8"?>
<svg id="Layer_2" data-name="Layer 2" xmlns="http://www.w3.org/2000/svg" viewBox="0 0 160 160">
  <defs>
    <style>
      .cls-1 {
        fill: #6a93ff;
      }

      .cls-2 {
        fill: #a8c5ff;
      }

      .cls-3 {
        fill: #04f;
      }
    </style>
  </defs>
  <g>
    <path class="cls-2" d="M113.47,59.24c4.06,31.22-19.42,53.6-47.96,53.56-15.64-8.62-26.76-10.34-32.76-30.54-4.04-29.81-7.54-7.04,10.27-21.6,14.08-12.81,27.03,12.14,41.23,4.7,8.22-3.66,7.45-21.87,19.98-16.39,9.4,4.11,6.31,4.33,9.25,10.27Z"/>
    <path class="cls-1" d="M113.39,68.15c-2.59,20.8-3.37,28.26-23.14,39.77-.03.02-.06.03-.09.04-29.13,9.08-49.87-1.71-59.01-28.81-.15-.44.5-.69.75-.3,6.13,9.39,19.6-15.41,25.09-1.4,1.35,2.83,3.29,6.84,6.47,7.75,6.07,2.53,11.68-3.27,16.01-6.94,4.98-4.3,11.18-7.09,16.92-3.54,4.24,2.38,8.19,3.75,13.1.62.07-.05.14-.12.17-.2l2.94-7.2c.18-.45.86-.27.8.22Z"/>
  </g>
  <path class="cls-3" d="M27.51,69.52c.12,5.54,1.5,10.92,4.27,16.42.01.02.02.06.03.08,3.72,9.54,10.6,17.5,19.41,22.42l2.63,1.4s.06.03.08.04l3.55,1.5h.03c14.8,5.54,31.47,2.71,43.5-7.38,15-12.56,20.07-33.03,12.61-50.94-2.66-6.39-6.56-11.85-11.58-16.23-.2-.17-.46-.31-.63-.41-1.66-1.03-4.78-2.48-5.63-2.12h0c-.78.32-1.17,1.21-.87,2h0c.55,1.43,4.65,4.78,5.88,5.94,6.46,6.05,10.04,14.7,9.81,23.73-.09,4-.3,6.84-2.23,9.61-.57.82-1.51,1.49-2.5,2.2-2.07,1.5-4.67,3.36-4.5,7.5l.18,4.2c.08,1.93-1.37,3.33-2.75,4-2.53,1.23-5.54,1.25-8.03.08-.23-.11-.46-.22-.67-.35-.62-.36-1.2-.67-1.76-.92-5.27-2.47-7.94-.44-9.26,1.7-.71,1.15-1.67,2.9-2.16,4.62-.96,3.46-3.07,5.96-6.07,7.26-1.83.8-3.62.79-5.29,0-1.45-.67-2.79-1.95-3.87-3.67-.99-1.56-2.37-2.79-4-3.57-1.39-.65-2.93-.95-4.54-.89-2.05.07-3.58-.18-4.96-.83-.36-.17-.71-.37-1.06-.59-5.7-3.72-9.62-7.79-11.99-12.41-.52-1.02-.86-2.11-1.24-3.54-2.17-8.23-1.72-16.77,1.29-24.72,5.09-13.42,17.16-23.32,30.81-25.28l.32-.02c1.37.06,2.81.45,4.29,1.14,3.89,1.83,7.35,5.46,9.63,7.87,1.6,1.68,2.41,2.5,3.2,2.88.29.13.6.21.9.21.81.02,1.53-.29,2.02-.87,1.07-1.25.7-3.26.34-5.19-.1-.52-.2-1.01-.24-1.42-.39-3.36-2.27-5.92-5.43-7.41-4.28-2.01-10.25-1.78-14.65-1.21h-.45c-6.84-.8-13.39.93-19.46,5.16-5.3,3.67-9.99,9.11-13.55,15.75l-.02.04-2.01,4.29v.03c-2.36,5.83-3.5,11.84-3.38,17.87ZM81.22,31.73c.18-.37,1.07.03,1.44.21.37.18.52,1.01.34,1.38-.18.39-.61.16-.98-.01-.39-.18-.99-1.19-.8-1.58Z"/>
</svg>