<?xml version="1.0" encoding="UTF-8"?>
<svg id="Layer_1" data-name="Layer 1" xmlns="http://www.w3.org/2000/svg" viewBox="0 0 173.9 133.6">
  <defs>
    <style>
      .cls-1 {
        fill: #f2b950;
      }
    </style>
  </defs>
  <path class="cls-1" d="M138.95,41.12c-4.51-18.92-17.89-38.48-31.77-36.35-18.64,2.89-5.89,43.65-18.66,48.61-14.03,5.55-20.35-28.37-51.99-23.62-15.87,2.38-15.27,37.43.62,55.71,16.55,19.03,54.04,41.82,69.5,36.66,22.7-7.6,37.7-58.25,32.3-81.01h0ZM103.56,96.56c-6.97,2.49-15.63-5.92-17.54-9.36-2.01-3.74.63-4.75,1.6-4.42,3.47,1.04,8.14,7.08,13.35,6.68,5.9-.58,3.72-14.07,6.8-14.69,1.23-.23,2.93.42,2.71,4.49-.33,5.46.05,14.91-6.92,17.4h0v-.11h0ZM75.39,72.99c.13,3.33-2.47,6.13-5.8,6.26-3.33.13-6.13-2.47-6.26-5.8s2.47-6.13,5.8-6.26c3.33-.13,6.13,2.47,6.26,5.8ZM120.89,57.44c.13,3.33-2.47,6.13-5.8,6.26-3.33.13-6.13-2.47-6.26-5.8-.13-3.33,2.47-6.13,5.8-6.26,3.33-.13,6.13,2.47,6.26,5.8Z"/>
</svg>